<svg xmlns="http://www.w3.org/2000/svg" width="59" height="59" viewBox="0 0 59 59">
  <g id="Group_20866" data-name="Group 20866" transform="translate(-158 -274)">
    <circle id="Ellipse_9" data-name="Ellipse 9" cx="29.5" cy="29.5" r="29.5" transform="translate(158 274)" fill="#65a518"/>
    <g id="check-24px" transform="translate(172 288)">
      <g id="Group_23" data-name="Group 23" transform="translate(0)">
        <path id="Path_10752" data-name="Path 10752" d="M0,0H32V32H0Z" fill="none"/>
      </g>
      <g id="Group_24" data-name="Group 24" transform="translate(0 4.411)">
        <path id="Path_10753" data-name="Path 10753" d="M32.713,7.015,15.141,24.587,7.805,17.252a2.064,2.064,0,0,0-2.922,0h0a2.064,2.064,0,0,0,0,2.922l8.786,8.786a2.064,2.064,0,0,0,2.922,0L35.614,9.937a2.07,2.07,0,0,0-.021-2.942h0A2.033,2.033,0,0,0,32.713,7.015Z" transform="translate(-4.278 -6.406)" fill="#fff"/>
      </g>
    </g>
  </g>
</svg>
