<svg xmlns="http://www.w3.org/2000/svg" xmlns:xlink="http://www.w3.org/1999/xlink" width="21.618" height="16.604" viewBox="0 0 21.618 16.604">
  <defs>
    <clipPath id="clip-path">
      <rect id="Rectangle_7089" data-name="Rectangle 7089" width="21.618" height="16.604" transform="translate(0 0.001)" fill="none"/>
    </clipPath>
  </defs>
  <g id="Group_21378" data-name="Group 21378" transform="translate(0 -0.001)">
    <g id="Group_21379" data-name="Group 21379" clip-path="url(#clip-path)">
      <path id="Path_12212" data-name="Path 12212" d="M11.518,3.856a4.538,4.538,0,0,0-2.182.193l1.789,1.79A2.477,2.477,0,0,1,13.27,7.984l1.789,1.788a4.5,4.5,0,0,0-3.541-5.916" fill="#006c30"/>
      <path id="Path_12213" data-name="Path 12213" d="M15.582,12.557A9.817,9.817,0,0,1,2.2,8.716a.875.875,0,0,1,0-.831A9.755,9.755,0,0,1,6.722,3.7L5.229,2.2A11.818,11.818,0,0,0,.217,7.377a2.085,2.085,0,0,0,0,1.85,11.818,11.818,0,0,0,14.908,5.757,11.724,11.724,0,0,0,1.919-.966Z" fill="#006c30"/>
      <path id="Path_12214" data-name="Path 12214" d="M21.408,7.4A11.8,11.8,0,0,0,6.794,1.507l1.6,1.6A9.79,9.79,0,0,1,19.41,7.881a.883.883,0,0,1,0,.841,9.782,9.782,0,0,1-2.47,2.93l1.412,1.412a11.815,11.815,0,0,0,3.056-3.856,2.045,2.045,0,0,0,0-1.81" fill="#006c30"/>
      <path id="Path_12215" data-name="Path 12215" d="M6.361,9.013a4.5,4.5,0,0,0,7.873,2.2L12.807,9.782a2.449,2.449,0,0,1-1.335.933A2.5,2.5,0,0,1,9.323,6.3L7.9,4.874A4.494,4.494,0,0,0,6.361,9.013" fill="#006c30"/>
      <path id="Path_12216" data-name="Path 12216" d="M17.717,16.6a.8.8,0,0,1-.565-.234L2.147,1.366A.8.8,0,1,1,3.278.235l15,15a.8.8,0,0,1-.565,1.365" fill="red"/>
    </g>
  </g>
</svg>
