<svg xmlns="http://www.w3.org/2000/svg" xmlns:xlink="http://www.w3.org/1999/xlink" width="21.618" height="18.144" viewBox="0 0 21.618 18.144">
  <defs>
    <clipPath id="clip-path">
      <rect id="Rectangle_7090" data-name="Rectangle 7090" width="21.618" height="18.144" transform="translate(0 0.001)" fill="none"/>
    </clipPath>
  </defs>
  <g id="Group_21378" data-name="Group 21378" transform="translate(0 -0.001)">
    <g id="Group_21380" data-name="Group 21380" clip-path="url(#clip-path)">
      <path id="Path_12217" data-name="Path 12217" d="M3.291,4.093a.839.839,0,0,1-.719-.417A.923.923,0,0,1,2.835,2.44,14.6,14.6,0,0,1,9.219.1,15.39,15.39,0,0,1,18.751,2.18.922.922,0,0,1,19.065,3.4a.826.826,0,0,1-1.16.332,13.742,13.742,0,0,0-8.5-1.855A12.956,12.956,0,0,0,3.745,3.953a.813.813,0,0,1-.454.14" fill="red"/>
      <path id="Path_12218" data-name="Path 12218" d="M10.807,5.142a9.772,9.772,0,0,1,8.6,5.08.886.886,0,0,1,0,.841A9.823,9.823,0,0,1,2.2,11.057a.875.875,0,0,1,0-.831,9.772,9.772,0,0,1,8.606-5.084m0-2A11.829,11.829,0,0,0,.216,9.718a2.089,2.089,0,0,0,0,1.85,11.817,11.817,0,0,0,21.19-.019,2.042,2.042,0,0,0,0-1.81,11.828,11.828,0,0,0-10.6-6.6m0,5a2.506,2.506,0,0,1,2.414,3.166,2.473,2.473,0,0,1-1.749,1.748,2.5,2.5,0,1,1-.665-4.914M11.518,6.2a4.5,4.5,0,1,0,3.734,3.734A4.5,4.5,0,0,0,11.518,6.2" fill="#006c30"/>
    </g>
  </g>
</svg>
