<svg xmlns="http://www.w3.org/2000/svg" width="120" height="120.001" viewBox="0 0 120 120.001">
  <g id="Group_635" data-name="Group 635" transform="translate(-844.818 -182.818)">
    <path id="Path_11185" data-name="Path 11185" d="M961.619,221.612l-35.594-35.594a10.952,10.952,0,0,0-15.472,0l-62.535,62.535a10.952,10.952,0,0,0,0,15.472l35.594,35.6a10.952,10.952,0,0,0,15.472,0l62.535-62.535A10.953,10.953,0,0,0,961.619,221.612ZM890.172,295.3a3.568,3.568,0,0,1-1.4-.838l-35.594-35.594c-.01-.01-.012-.022-.022-.032h37.019V295.3Zm-34.827-43.759,58.2-58.2v56.607a1.629,1.629,0,0,1-1.592,1.592Zm42.12,39.383V258.836h14.486a8.882,8.882,0,0,0,8.884-8.885V235.466h32.087Zm23.37-62.752V191.153c.01.01.023.013.033.023l35.594,35.593a3.558,3.558,0,0,1,.837,1.4Z" fill="#006c30"/>
    <path id="Path_11186" data-name="Path 11186" d="M848.372,198.28h37.35a3.553,3.553,0,1,0,0-7.107h-37.35a3.553,3.553,0,0,0,0,7.107Z" fill="#e60018"/>
    <path id="Path_11187" data-name="Path 11187" d="M848.372,212.24h23.421a3.554,3.554,0,0,0,0-7.107H848.372a3.554,3.554,0,0,0,0,7.107Z" fill="#e60018"/>
    <path id="Path_11188" data-name="Path 11188" d="M848.372,225.777h15.122a3.553,3.553,0,0,0,0-7.107H848.372a3.553,3.553,0,0,0,0,7.107Z" fill="#e60018"/>
    <path id="Path_11189" data-name="Path 11189" d="M863.494,291.117H848.372a3.553,3.553,0,0,0,0,7.107h15.122a3.553,3.553,0,0,0,0-7.107Z" fill="#e60018"/>
  </g>
</svg>
