<svg xmlns="http://www.w3.org/2000/svg" width="37.411" height="35.912" viewBox="0 0 37.411 35.912">
  <g id="Group_21185" data-name="Group 21185" transform="translate(-459.806 -568.717)">
    <path id="Path_12131" data-name="Path 12131" d="M466.382,583.284a12.068,12.068,0,0,1,24.135,0" transform="translate(0.137 -1)" fill="none" stroke="#006729" stroke-miterlimit="10" stroke-width="3"/>
    <path id="Rectangle_7052" data-name="Rectangle 7052" d="M5.417,0H6.852a.86.86,0,0,1,.86.86V11.5a.86.86,0,0,1-.86.86H5.417A5.417,5.417,0,0,1,0,6.945V5.417A5.417,5.417,0,0,1,5.417,0Z" transform="translate(461.306 582.46)" fill="none" stroke="#006729" stroke-miterlimit="10" stroke-width="3"/>
    <path id="Rectangle_7053" data-name="Rectangle 7053" d="M5.417,0H6.852a.86.86,0,0,1,.86.86V11.5a.86.86,0,0,1-.86.86H5.417A5.417,5.417,0,0,1,0,6.945V5.417A5.417,5.417,0,0,1,5.417,0Z" transform="translate(495.717 594.822) rotate(-180)" fill="none" stroke="#006729" stroke-miterlimit="10" stroke-width="3"/>
    <path id="Path_12132" data-name="Path 12132" d="M490.239,592.57c0,6.665-4.784,6.654-11.449,6.654" transform="translate(0.47 2.601)" fill="none" stroke="#006729" stroke-miterlimit="10" stroke-width="3"/>
    <rect id="Rectangle_7054" data-name="Rectangle 7054" width="5.135" height="5.135" rx="1.583" transform="translate(478.341 599.494)" fill="#ff1a1a"/>
  </g>
</svg>
