<svg xmlns="http://www.w3.org/2000/svg" width="33.784" height="34.785" viewBox="0 0 33.784 34.785">
  <g id="streamline-icon-professions-man-doctor-2_50x50" data-name="streamline-icon-professions-man-doctor-2 50x50" transform="translate(1.5 2.5)">
    <path id="Trazado_3765" data-name="Trazado 3765" d="M856.177,130.309a13.343,13.343,0,0,1,8.209,12.314" transform="translate(-833.602 -111.843)" fill="none" stroke="#006c30" stroke-linecap="round" stroke-linejoin="round" stroke-width="3"/>
    <path id="Trazado_3766" data-name="Trazado 3766" d="M839.883,142.309a13.3,13.3,0,0,1,4.1-9.626" transform="translate(-836.088 -111.526)" fill="none" stroke="#006c30" stroke-linecap="round" stroke-linejoin="round" stroke-width="3"/>
    <path id="Trazado_3767" data-name="Trazado 3767" d="M857.4,128.962v2.346a5.243,5.243,0,0,1-4.07,5.216,5.107,5.107,0,0,1-6.133-5v-2.563" transform="translate(-834.801 -112.023)" fill="none" stroke="#006c30" stroke-linecap="round" stroke-linejoin="round" stroke-width="3"/>
    <path id="Trazado_3768" data-name="Trazado 3768" d="M836.262,125.125a2.052,2.052,0,1,0,2.052-2.052h0A2.052,2.052,0,0,0,836.262,125.125Z" transform="translate(-836.262 -112.81)" fill="none" stroke="#ff1f1f" stroke-linecap="round" stroke-linejoin="round" stroke-width="3"/>
    <path id="Trazado_3769" data-name="Trazado 3769" d="M839.645,124.668a4.067,4.067,0,0,1,4.03,4.1h0V140.06a3.079,3.079,0,0,0,3.079,3.079h2.911a3.079,3.079,0,0,0,3.079-3.079V137.47" transform="translate(-835.81 -112.597)" fill="none" stroke="#006c30" stroke-linecap="round" stroke-linejoin="round" stroke-width="3"/>
    <path id="Trazado_3770" data-name="Trazado 3770" d="M845.314,121.2a7.183,7.183,0,1,0,7.183-7.183,7.184,7.184,0,0,0-7.183,7.183Z" transform="translate(-835.053 -115.019)" fill="none" stroke="#006c30" stroke-linecap="round" stroke-linejoin="round" stroke-width="3"/>
    <path id="Trazado_3771" data-name="Trazado 3771" d="M846.191,117.139a11.936,11.936,0,0,0,13.3,2.675" transform="translate(-834.936 -114.602)" fill="none" stroke="#006c30" stroke-linecap="round" stroke-linejoin="round" stroke-width="3"/>
  </g>
</svg>
