<svg xmlns="http://www.w3.org/2000/svg" width="23.009" height="27.873" viewBox="0 0 23.009 27.873">
  <g id="Group_21371" data-name="Group 21371" transform="translate(0.001 0.001)">
    <g id="Group_20854" data-name="Group 20854" transform="translate(-0.001 -0.001)">
      <g id="Group_20849" data-name="Group 20849" transform="translate(0 0.81)">
        <path id="Path_11971" data-name="Path 11971" d="M306.35,174.69H289.379a3.022,3.022,0,0,1-3.019-3.019V150.646a3.022,3.022,0,0,1,3.019-3.019H306.35a3.023,3.023,0,0,1,3.019,3.019v21.025A3.022,3.022,0,0,1,306.35,174.69Zm-16.971-25.2a1.159,1.159,0,0,0-1.158,1.158v21.025a1.159,1.159,0,0,0,1.158,1.157H306.35a1.159,1.159,0,0,0,1.158-1.157V150.646a1.159,1.159,0,0,0-1.158-1.158Z" transform="translate(-286.36 -147.627)" fill="#006729"/>
      </g>
      <g id="Group_20850" data-name="Group 20850" transform="translate(3.689 5.951)">
        <rect id="Rectangle_6902" data-name="Rectangle 6902" width="1.479" height="15.482" rx="0.739" transform="translate(0 1.479) rotate(-90)" fill="#e60018"/>
      </g>
      <g id="Group_20851" data-name="Group 20851" transform="translate(3.689 9.844)">
        <rect id="Rectangle_6903" data-name="Rectangle 6903" width="1.479" height="15.482" rx="0.739" transform="translate(0 1.479) rotate(-90)" fill="#006729"/>
      </g>
      <g id="Group_20852" data-name="Group 20852" transform="translate(3.689 13.647)">
        <rect id="Rectangle_6904" data-name="Rectangle 6904" width="1.479" height="9.898" rx="0.739" transform="translate(0 1.479) rotate(-90)" fill="#006729"/>
      </g>
      <g id="Group_20853" data-name="Group 20853" transform="translate(6.669)">
        <path id="Path_11972" data-name="Path 11972" d="M319.44,147.92h-6.33a1.67,1.67,0,1,1,0-3.34h6.33a1.67,1.67,0,1,1,0,3.34Z" transform="translate(-311.44 -144.58)" fill="#006729"/>
      </g>
    </g>
  </g>
</svg>
