<svg xmlns="http://www.w3.org/2000/svg" width="34" height="34" viewBox="0 0 34 34">
  <g id="Group_21118" data-name="Group 21118" transform="translate(-1227.338 -452.969)">
    <g id="Rectángulo_399" data-name="Rectángulo 399" transform="translate(1227.338 452.968)">
      <rect id="Rectangle_7033" data-name="Rectangle 7033" width="34" height="34" transform="translate(0.001 0.001)" fill="none"/>
    </g>
    <g id="Trazado_3310" data-name="Trazado 3310" transform="translate(1233.019 461.49)">
      <path id="Path_12104" data-name="Path 12104" d="M1254.069,483.432h-2.489a.71.71,0,0,1-.7-.622l-.156-1.243a.71.71,0,0,1,1.409-.176l.078.621h1.234l.544-4.349a.71.71,0,0,1,.7-.622h.533v-1.008a2.518,2.518,0,0,0-1.323-2.293,2.416,2.416,0,0,0-2.512.229.71.71,0,1,1-.852-1.136,3.828,3.828,0,0,1,3.984-.371,3.944,3.944,0,0,1,2.123,3.571v1.718a.709.709,0,0,1-.71.71h-.616l-.544,4.349A.709.709,0,0,1,1254.069,483.432Zm-6.658,0h-2.841a.709.709,0,0,1-.7-.593l-.611-3.668h-.819a.71.71,0,0,1-.71-.71v-.71a4.27,4.27,0,0,1,2.57-3.913,2.677,2.677,0,1,1,3.333-.018,4.268,4.268,0,0,1,2.619,3.931v.71a.71.71,0,0,1-.71.71h-.819l-.612,3.668A.709.709,0,0,1,1247.411,483.432Zm-1.42-1.42h.819l.612-3.667a.71.71,0,0,1,.7-.594h.71a2.844,2.844,0,0,0-2.841-2.841h0a2.842,2.842,0,0,0-2.839,2.838v0h.71a.71.71,0,0,1,.7.594l.611,3.667Zm-.035-11.532a1.256,1.256,0,1,0,1.256,1.256A1.258,1.258,0,0,0,1245.955,470.48Zm-5.556,12.953h-2.487a.71.71,0,0,1-.7-.622l-.544-4.349h-.616a.71.71,0,0,1-.71-.71v-1.718a3.942,3.942,0,0,1,2.123-3.571,3.826,3.826,0,0,1,3.984.371.71.71,0,0,1-.852,1.136,2.411,2.411,0,0,0-2.511-.229,2.516,2.516,0,0,0-1.324,2.293v1.008h.533a.71.71,0,0,1,.7.622l.544,4.349h1.233l.077-.621a.71.71,0,0,1,1.41.176l-.156,1.243A.71.71,0,0,1,1240.4,483.432Zm12.11-11.643a3.332,3.332,0,1,1,3.332-3.332A3.336,3.336,0,0,1,1252.51,471.79Zm0-5.244a1.912,1.912,0,1,0,1.912,1.912A1.914,1.914,0,0,0,1252.51,466.546Zm-13.1,5.085a3.344,3.344,0,0,1-3.1-4.622h0a3.344,3.344,0,0,1,5.691-.783,3.349,3.349,0,0,1,.638,2.852,3.3,3.3,0,0,1-2.474,2.469A3.418,3.418,0,0,1,1239.412,471.631Zm-1.772-4.11a1.968,1.968,0,0,0,.313,2.028,1.912,1.912,0,1,0,1.448-3.16,1.867,1.867,0,0,0-1.761,1.132Z" transform="translate(-1235.338 -464.968)" fill="#006c30"/>
    </g>
    <g id="Trazado_3311" data-name="Trazado 3311" transform="translate(1240.96 465.581)">
      <path id="Path_12105" data-name="Path 12105" d="M1249.2,476.082a2.677,2.677,0,1,1,2.677-2.677A2.68,2.68,0,0,1,1249.2,476.082Zm0-3.933a1.256,1.256,0,1,0,1.256,1.256A1.258,1.258,0,0,0,1249.2,472.149Z" transform="translate(-1246.519 -470.729)" fill="red"/>
    </g>
  </g>
</svg>
