<svg id="Grupo_21065" data-name="Grupo 21065" xmlns="http://www.w3.org/2000/svg" width="34" height="34" viewBox="0 0 34 34">
  <g id="Group_16473" data-name="Group 16473" transform="translate(0 0)">
    <g id="Grupo_16469" data-name="Grupo 16469">
      <g id="Grupo_16459" data-name="Grupo 16459">
        <g id="Grupo_16433" data-name="Grupo 16433">
          <g id="Grupo_16430" data-name="Grupo 16430">
            <g id="Grupo_16428" data-name="Grupo 16428">
              <g id="Grupo_16388" data-name="Grupo 16388">
                <g id="Grupo_16386" data-name="Grupo 16386">
                  <g id="Grupo_16384" data-name="Grupo 16384">
                    <g id="Grupo_16381" data-name="Grupo 16381">
                      <g id="Grupo_16378" data-name="Grupo 16378">
                        <g id="Grupo_16375" data-name="Grupo 16375">
                          <g id="Grupo_16321-2" data-name="Grupo 16321-2">
                            <g id="Grupo_16277-2" data-name="Grupo 16277-2">
                              <g id="Grupo_16269-2" data-name="Grupo 16269-2">
                                <g id="Grupo_16259-2" data-name="Grupo 16259-2">
                                  <g id="Grupo_16234-4" data-name="Grupo 16234-4">
                                    <g id="Grupo_16193-5" data-name="Grupo 16193-5">
                                      <g id="Grupo_15839-6" data-name="Grupo 15839-6">
                                        <g id="Grupo_15836-6" data-name="Grupo 15836-6">
                                          <g id="Rectángulo_235-6" data-name="Rectángulo 235-6">
                                            <rect id="Rectangle_7022" data-name="Rectangle 7022" width="34" height="34" fill="none"/>
                                          </g>
                                        </g>
                                      </g>
                                    </g>
                                  </g>
                                </g>
                              </g>
                            </g>
                          </g>
                        </g>
                      </g>
                    </g>
                  </g>
                </g>
              </g>
            </g>
          </g>
        </g>
      </g>
    </g>
    <g id="Grupo_16471" data-name="Grupo 16471" transform="translate(7 6.001)">
      <g id="streamline-icon-multiple-actions-shield_50x50" data-name="streamline-icon-multiple-actions-shield 50x50" transform="translate(0.042 0.605)">
        <g id="Grupo_16472" data-name="Grupo 16472">
          <g id="Trazado_4956" data-name="Trazado 4956" transform="translate(8.937 9.187)">
            <path id="Path_12074" data-name="Path 12074" d="M-85.553,482.357a.633.633,0,0,1-.142-.016,7.162,7.162,0,0,1-5.6-7.053v-2.568a1.921,1.921,0,0,1,1.911-1.925h7.664a1.91,1.91,0,0,1,1.357.566,1.907,1.907,0,0,1,.558,1.358v2.57a7.162,7.162,0,0,1-5.6,7.051A.627.627,0,0,1-85.553,482.357Zm3.828-10.284h-7.658a.637.637,0,0,0-.452.19.637.637,0,0,0-.186.455v2.573a5.891,5.891,0,0,0,4.468,5.772,5.892,5.892,0,0,0,4.468-5.769v-2.573a.639.639,0,0,0-.187-.458A.64.64,0,0,0-81.725,472.073Z" transform="translate(91.298 -470.796)" fill="#006c30"/>
          </g>
          <g id="Trazado_4957" data-name="Trazado 4957" transform="translate(14.044 11.74)">
            <path id="Path_12075" data-name="Path 12075" d="M-82.66,479.9a.638.638,0,0,1-.638-.638v-3.83a.638.638,0,0,1,.638-.638.639.639,0,0,1,.638.638v3.83A.638.638,0,0,1-82.66,479.9Z" transform="translate(83.298 -474.796)" fill="red"/>
          </g>
          <g id="Trazado_4958" data-name="Trazado 4958" transform="translate(12.129 13.655)">
            <path id="Path_12076" data-name="Path 12076" d="M-81.83,479.073h-3.83a.638.638,0,0,1-.638-.638.638.638,0,0,1,.638-.638h3.83a.639.639,0,0,1,.638.638A.638.638,0,0,1-81.83,479.073Z" transform="translate(86.298 -477.796)" fill="red"/>
          </g>
          <g id="Trazado_4960" data-name="Trazado 4960" transform="translate(0 6.637)">
            <path id="Path_12077" data-name="Path 12077" d="M-98.277,480.841h-3.83a.638.638,0,0,1-.635-.574l-.581-5.809h-1.337a.638.638,0,0,1-.638-.638v-1.806a5.271,5.271,0,0,1,.458-2.23,5.117,5.117,0,0,1,.573-.957,5.118,5.118,0,0,1,7.161-.989.638.638,0,0,1,.124.894.639.639,0,0,1-.894.124,3.81,3.81,0,0,0-2.84-.742,3.812,3.812,0,0,0-2.533,1.484,3.833,3.833,0,0,0-.428.714,4,4,0,0,0-.343,1.692v1.18h1.277a.639.639,0,0,1,.635.575l.58,5.808h2.675l.326-3.285a.637.637,0,0,1,.7-.573.639.639,0,0,1,.573.7l-.383,3.861A.638.638,0,0,1-98.277,480.841Z" transform="translate(105.299 -466.802)" fill="#006c30"/>
          </g>
          <g id="Trazado_4961" data-name="Trazado 4961" transform="translate(11.206)">
            <path id="Path_12078" data-name="Path 12078" d="M-84.855,462.18a2.891,2.891,0,0,1-2.888-2.888,2.891,2.891,0,0,1,2.888-2.888,2.891,2.891,0,0,1,2.888,2.888A2.892,2.892,0,0,1-84.855,462.18Zm0-4.5a1.613,1.613,0,0,0-1.611,1.611,1.613,1.613,0,0,0,1.611,1.612,1.614,1.614,0,0,0,1.611-1.612A1.614,1.614,0,0,0-84.855,457.681Z" transform="translate(87.743 -456.404)" fill="#006c30"/>
          </g>
          <g id="Trazado_4962" data-name="Trazado 4962" transform="translate(10.552 5.145)">
            <path id="Path_12079" data-name="Path 12079" d="M-81.885,467.666a.637.637,0,0,1-.553-.319,3.223,3.223,0,0,0-4.4-1.174,3.209,3.209,0,0,0-.811.667.639.639,0,0,1-.9.06.638.638,0,0,1-.06-.9,4.482,4.482,0,0,1,1.133-.932,4.5,4.5,0,0,1,6.143,1.641.638.638,0,0,1-.233.872A.633.633,0,0,1-81.885,467.666Z" transform="translate(88.768 -464.464)" fill="#006c30"/>
          </g>
        </g>
      </g>
      <g id="Grupo_16470" data-name="Grupo 16470">
        <g id="Trazado_4963" data-name="Trazado 4963" transform="translate(1.911)">
          <path id="Path_12080" data-name="Path 12080" d="M-99.183,461.83a3.191,3.191,0,0,1-3.188-3.187h0a3.19,3.19,0,0,1,3.188-3.186A3.19,3.19,0,0,1-96,458.642,3.19,3.19,0,0,1-99.183,461.83Zm-1.911-3.187a1.913,1.913,0,0,0,1.911,1.91,1.912,1.912,0,0,0,1.91-1.91,1.912,1.912,0,0,0-1.91-1.91,1.912,1.912,0,0,0-1.911,1.91Z" transform="translate(102.371 -455.456)" fill="#006c30"/>
        </g>
        <g id="Trazado_4964" data-name="Trazado 4964" transform="translate(0 2.548)">
          <path id="Path_12081" data-name="Path 12081" d="M-104.727,463.91a.638.638,0,0,1-.638-.638.639.639,0,0,1,.638-.638c1.23,0,1.272-2.523,1.272-2.548a.639.639,0,0,1,.638-.637h0a.638.638,0,0,1,.637.638C-102.178,461.506-102.715,463.91-104.727,463.91Z" transform="translate(105.365 -459.448)" fill="#006c30"/>
        </g>
        <g id="Trazado_4965" data-name="Trazado 4965" transform="translate(7.008 2.548)">
          <path id="Path_12082" data-name="Path 12082" d="M-91.837,463.91c-2.012,0-2.549-2.4-2.549-3.824a.638.638,0,0,1,.637-.638h0a.639.639,0,0,1,.638.637c0,.026.042,2.548,1.272,2.548a.638.638,0,0,1,.638.638A.638.638,0,0,1-91.837,463.91Z" transform="translate(94.386 -459.448)" fill="#006c30"/>
        </g>
      </g>
    </g>
  </g>
</svg>
