<svg xmlns="http://www.w3.org/2000/svg" width="37.667" height="36.979" viewBox="0 0 37.667 36.979">
  <g id="streamline-icon-real-estate-action-building-add_50x50" data-name="streamline-icon-real-estate-action-building-add 50x50" transform="translate(1.5 1.5)">
    <path id="Trazado_5122" data-name="Trazado 5122" d="M458.107,356.124a8.946,8.946,0,1,0,8.946-8.946A8.946,8.946,0,0,0,458.107,356.124Z" transform="translate(-441.331 -331.527)" fill="none" stroke="#006c30" stroke-linecap="round" stroke-linejoin="round" stroke-width="3"/>
    <path id="Trazado_5125" data-name="Trazado 5125" d="M465.536,344.8V334.3a1.117,1.117,0,0,0-1.511-1.043l-12.3,6.366a1.118,1.118,0,0,0-.726,1.043v6.37" transform="translate(-443.172 -333.181)" fill="none" stroke="#006c30" stroke-linecap="round" stroke-linejoin="round" stroke-width="3"/>
    <path id="Trazado_5126" data-name="Trazado 5126" d="M461,339.568h3.355" transform="translate(-441.99 -332.426)" fill="none" stroke="#006c30" stroke-linecap="round" stroke-linejoin="round" stroke-width="3"/>
    <path id="Trazado_5127" data-name="Trazado 5127" d="M459,343.568h5.591" transform="translate(-442.226 -331.953)" fill="none" stroke="#006c30" stroke-linecap="round" stroke-linejoin="round" stroke-width="3"/>
    <path id="Trazado_5128" data-name="Trazado 5128" d="M444,349.568h3.355" transform="translate(-443.999 -331.244)" fill="none" stroke="#006c30" stroke-linecap="round" stroke-linejoin="round" stroke-width="3"/>
    <path id="Trazado_5129" data-name="Trazado 5129" d="M444,353.568h5.591" transform="translate(-443.999 -330.771)" fill="none" stroke="#006c30" stroke-linecap="round" stroke-linejoin="round" stroke-width="3"/>
    <path id="Trazado_5130" data-name="Trazado 5130" d="M454,338.041v-4.473" transform="translate(-442.817 -333.135)" fill="none" stroke="#006c30" stroke-linecap="round" stroke-linejoin="round" stroke-width="3"/>
    <path id="Trazado_5131" data-name="Trazado 5131" d="M455.181,365.7V347.8a2.236,2.236,0,0,0-2.236-2.236h-6.709A2.236,2.236,0,0,0,444,347.8V365.7h13.418" transform="translate(-443.999 -331.717)" fill="none" stroke="#006c30" stroke-linecap="round" stroke-linejoin="round" stroke-width="3"/>
  </g>
</svg>
