<svg xmlns="http://www.w3.org/2000/svg" width="54" height="54" viewBox="0 0 54 54">
  <g id="Grupo_21300" data-name="Grupo 21300" transform="translate(-45 -720.001)">
    <g id="Grupo_16388" data-name="Grupo 16388" transform="translate(736.999 1098.568) rotate(-180)">
      <g id="Grupo_16386" data-name="Grupo 16386" transform="translate(637.999 324.568)">
        <g id="Grupo_16384" data-name="Grupo 16384">
          <g id="Grupo_16381" data-name="Grupo 16381">
            <g id="Grupo_16378" data-name="Grupo 16378">
              <g id="Grupo_16375" data-name="Grupo 16375">
                <g id="Grupo_16321" data-name="Grupo 16321">
                  <g id="Grupo_16277" data-name="Grupo 16277">
                    <g id="Grupo_16269" data-name="Grupo 16269">
                      <g id="Grupo_16259" data-name="Grupo 16259">
                        <g id="Grupo_16234" data-name="Grupo 16234">
                          <g id="Grupo_16193" data-name="Grupo 16193">
                            <g id="Grupo_15839" data-name="Grupo 15839">
                              <g id="Grupo_15836" data-name="Grupo 15836">
                                <rect id="Rectángulo_235" data-name="Rectángulo 235" width="54" height="54" fill="none"/>
                              </g>
                            </g>
                          </g>
                        </g>
                      </g>
                    </g>
                  </g>
                </g>
              </g>
            </g>
          </g>
        </g>
      </g>
    </g>
    <g id="Grupo_21299" data-name="Grupo 21299" transform="translate(-222.121 323.585)">
      <g id="Grupo_21285" data-name="Grupo 21285" transform="translate(280.405 411.451)">
        <g id="Grupo_21284" data-name="Grupo 21284">
          <g id="Path_12116" data-name="Path 12116" transform="translate(0 1.961)">
            <g id="Trazado_12179" data-name="Trazado 12179">
              <path id="Trazado_12177" data-name="Trazado 12177" d="M283.344,423.093a4.049,4.049,0,0,1-3.2-1.6,1.116,1.116,0,0,1,1.774-1.353,1.836,1.836,0,0,0,1.528.72c.951,0,1.655-.5,1.655-.927s-.689-.923-1.612-.923c-2.154,0-3.843-1.39-3.843-3.165s1.689-3.155,3.843-3.155a4.033,4.033,0,0,1,3.336,1.574,1.116,1.116,0,0,1-1.762,1.371l-.006-.009a1.825,1.825,0,0,0-1.518-.706c-.973,0-1.662.49-1.662.925s.689.934,1.612.934c2.155,0,3.843,1.386,3.843,3.154,0,1.741-1.724,3.158-3.843,3.158Z" transform="translate(-279.65 -412.687)" fill="red"/>
            </g>
          </g>
          <g id="Line_21" data-name="Line 21" transform="translate(2.729)">
            <g id="Trazado_12180" data-name="Trazado 12180">
              <path id="Trazado_12178" data-name="Trazado 12178" d="M283.212,415.12A1.115,1.115,0,0,1,282.1,414v-1.96a1.116,1.116,0,1,1,2.231,0V414A1.115,1.115,0,0,1,283.212,415.12Z" transform="translate(-282.096 -410.929)" fill="red"/>
            </g>
          </g>
          <g id="Line_22" data-name="Line 22" transform="translate(2.729 10.129)">
            <g id="Trazado_12181" data-name="Trazado 12181">
              <path id="Trazado_12179-2" data-name="Trazado 12179" d="M283.212,424.206a1.115,1.115,0,0,1-1.116-1.116v-1.967a1.116,1.116,0,1,1,2.231,0v1.961a1.115,1.115,0,0,1-1.11,1.121Z" transform="translate(-282.096 -420.008)" fill="red"/>
            </g>
          </g>
        </g>
      </g>
      <g id="Grupo_21293" data-name="Grupo 21293" transform="translate(297.978 424.079)">
        <path id="Trazado_12180-2" data-name="Trazado 12180" d="M299.552,428.983H296.4v-3.347h3.151a1,1,0,0,0,1-1v-1.386H303.9v1.386A4.354,4.354,0,0,1,299.552,428.983Z" transform="translate(-295.401 -422.248)" fill="#006729"/>
      </g>
      <g id="Grupo_21294" data-name="Grupo 21294" transform="translate(273.121 406.416)">
        <path id="Trazado_12181-2" data-name="Trazado 12181" d="M286.054,430.814H277.47a4.354,4.354,0,0,1-4.349-4.349v-15.7a4.353,4.353,0,0,1,4.349-4.348h24.659a4.353,4.353,0,0,1,4.349,4.348v1.668h-3.347v-1.668a1,1,0,0,0-1-1H277.47a1,1,0,0,0-1,1v15.7a1,1,0,0,0,1,1h8.584Z" transform="translate(-273.121 -406.416)" fill="#006729"/>
      </g>
      <g id="streamline-icon-heavy-equipment-wrecking-ball_50x50" data-name="streamline-icon-heavy-equipment-wrecking-ball 50x50" transform="translate(290.784 416.085)">
        <g id="Trazado_4636" data-name="Trazado 4636" transform="translate(14.858 15.373)">
          <path id="Trazado_12182" data-name="Trazado 12182" d="M312.111,441.142a1.666,1.666,0,0,1-1.243-.553l-8.168-8.933a1.674,1.674,0,0,1,2.487-2.24l8.167,8.933a1.674,1.674,0,0,1-1.243,2.794Z" transform="translate(-302.271 -428.862)" fill="#006729"/>
        </g>
        <g id="Trazado_4637" data-name="Trazado 4637">
          <path id="Trazado_12183" data-name="Trazado 12183" d="M299.268,435.513a10.315,10.315,0,0,1-10.2-8.892,9.648,9.648,0,0,1,2.063-7.6,10.249,10.249,0,0,1,16.934,1.165l.014.024.147.264a9.707,9.707,0,0,1-.238,10.221,10.254,10.254,0,0,1-7.31,4.722A10.6,10.6,0,0,1,299.268,435.513Zm-.074-17.179a7.016,7.016,0,0,0-5.517,2.711,6.442,6.442,0,0,0-1.39,5.1,7.047,7.047,0,0,0,12.966,2.8,6.472,6.472,0,0,0,.163-6.844l-.164-.291a7.031,7.031,0,0,0-6.057-3.475Z" transform="translate(-288.953 -415.083)" fill="#006729"/>
        </g>
      </g>
      <g id="Grupo_21295" data-name="Grupo 21295" transform="translate(284.384 427.473)">
        <circle id="Elipse_1315" data-name="Elipse 1315" cx="1.668" cy="1.668" r="1.668" fill="#006729"/>
      </g>
      <g id="Grupo_21296" data-name="Grupo 21296" transform="translate(303.137 410.753)">
        <circle id="Elipse_1316" data-name="Elipse 1316" cx="1.668" cy="1.668" r="1.668" fill="#006729"/>
      </g>
      <g id="Grupo_21297" data-name="Grupo 21297" transform="translate(303.137 423.412)">
        <circle id="Elipse_1317" data-name="Elipse 1317" cx="1.668" cy="1.668" r="1.668" fill="#006729"/>
      </g>
      <g id="Grupo_21298" data-name="Grupo 21298" transform="translate(297.31 427.473)">
        <circle id="Elipse_1318" data-name="Elipse 1318" cx="1.668" cy="1.668" r="1.668" fill="#006729"/>
      </g>
    </g>
  </g>
</svg>
