<svg xmlns="http://www.w3.org/2000/svg" xmlns:xlink="http://www.w3.org/1999/xlink" width="29.699" height="29.898" viewBox="0 0 29.699 29.898">
  <defs>
    <clipPath id="clip-path">
      <rect id="Rectangle_6443" data-name="Rectangle 6443" width="29.699" height="29.898" fill="#666"/>
    </clipPath>
  </defs>
  <g id="Group_18981" data-name="Group 18981" transform="translate(0 0)">
    <g id="Group_18981-2" data-name="Group 18981" transform="translate(0 0)" clip-path="url(#clip-path)">
      <path id="Path_11556" data-name="Path 11556" d="M26.886,7.228H2.814a2.712,2.712,0,0,0-1.993.82A2.716,2.716,0,0,0,0,10.041V27.861a2.718,2.718,0,0,0,.821,1.994,2.715,2.715,0,0,0,1.993.82h24.1A2.8,2.8,0,0,0,29.7,27.861V10.018a2.8,2.8,0,0,0-2.813-2.79m.469,20.634a.554.554,0,0,1-.469.469H2.814a.553.553,0,0,1-.469-.469V10.041a.553.553,0,0,1,.469-.469H26.886a.554.554,0,0,1,.469.469Z" transform="translate(0 -0.777)" fill="#666"/>
      <path id="Path_11557" data-name="Path 11557" d="M11.773,5.663a1.25,1.25,0,0,0,1.25-1.25V2.841a.341.341,0,0,1,.341-.341H18.6a.341.341,0,0,1,.341.341V4.414a1.25,1.25,0,0,0,2.5,0V2.841A2.844,2.844,0,0,0,18.6,0H13.363a2.844,2.844,0,0,0-2.84,2.841V4.414a1.25,1.25,0,0,0,1.25,1.25" transform="translate(-1.131 0)" fill="#666"/>
      <path id="Path_11558" data-name="Path 11558" d="M20.539,18.409H17.182V15.053a1.25,1.25,0,0,0-2.5,0v3.357H11.326a1.25,1.25,0,1,0,0,2.5h3.356v3.357a1.25,1.25,0,0,0,2.5,0V20.909h3.357a1.25,1.25,0,0,0,0-2.5" transform="translate(-1.083 -1.484)" fill="#666"/>
    </g>
  </g>
</svg>
