<svg xmlns="http://www.w3.org/2000/svg" width="106" height="106" viewBox="0 0 106 106">
  <g id="Group_21812" data-name="Group 21812" transform="translate(-504 -618)">
    <g id="Grupo_16218" data-name="Grupo 16218" transform="translate(504 618)">
      <g id="Grupo_16213" data-name="Grupo 16213">
        <g id="Grupo_16193" data-name="Grupo 16193">
          <g id="Grupo_15839" data-name="Grupo 15839">
            <g id="Grupo_15836" data-name="Grupo 15836">
              <g id="Rectángulo_235" data-name="Rectángulo 235">
                <rect id="Rectangle_7153" data-name="Rectangle 7153" width="106" height="106" fill="none"/>
              </g>
            </g>
          </g>
        </g>
      </g>
      <g id="streamline-icon-business-contract-approve_50x50" data-name="streamline-icon-business-contract-approve 50x50" transform="translate(17.865 22.162)">
        <g id="Trazado_3613" data-name="Trazado 3613" transform="translate(0 4.124)">
          <path id="Path_12421" data-name="Path 12421" d="M529.055,665.559a2.2,2.2,0,0,1-1.427-.523l-1.117-.945c-5.079-4.273-10.331-8.692-10.2-14.151V638.2l-3.741-4.719a2.209,2.209,0,0,1,3.463-2.743l4.218,5.32a2.212,2.212,0,0,1,.477,1.373V649.99c-.08,3.394,4.348,7.12,8.628,10.721l1.131.954a2.208,2.208,0,0,1-1.429,3.893Z" transform="translate(-512.09 -629.903)" fill="#006c30"/>
        </g>
        <g id="Trazado_3614" data-name="Trazado 3614" transform="translate(12.499)">
          <path id="Path_12422" data-name="Path 12422" d="M528.033,657.2a5.81,5.81,0,0,1-4.134-1.8l-4.913-5.035a2.207,2.207,0,1,1,3.158-3.083l4.913,5.033a1.282,1.282,0,0,0,1.257.417,1.3,1.3,0,0,0,.87-.945,1.214,1.214,0,0,0-.318-1.109l-7.723-7.888a2.208,2.208,0,0,1-.632-1.544v-3.918a15.306,15.306,0,0,0-2.385-5.85,2.209,2.209,0,0,1,3.666-2.467,19.754,19.754,0,0,1,3.1,7.751,2.308,2.308,0,0,1,.031.371v3.209l7.1,7.252a5.624,5.624,0,0,1,1.475,5.119,5.682,5.682,0,0,1-3.562,4.123A5.124,5.124,0,0,1,528.033,657.2Z" transform="translate(-517.75 -628.036)" fill="#006c30"/>
        </g>
        <g id="Trazado_3615" data-name="Trazado 3615" transform="translate(15.26 22.005)">
          <path id="Path_12423" data-name="Path 12423" d="M545.5,679.958H525.426A6.435,6.435,0,0,1,519,673.532V640.208a2.208,2.208,0,1,1,4.417,0v33.324a2.011,2.011,0,0,0,2.01,2.01H545.5a2.208,2.208,0,0,1,0,4.417Z" transform="translate(-519 -638)" fill="#006c30"/>
        </g>
        <g id="Trazado_3615-2" data-name="Trazado 3615" transform="translate(19.973 15.252)">
          <path id="Path_12424" data-name="Path 12424" d="M549.842,661.442a2.208,2.208,0,0,1-2.208-2.208V641.37a2.013,2.013,0,0,0-2.01-2.012H523.342a2.208,2.208,0,0,1,0-4.417h22.282a6.436,6.436,0,0,1,6.426,6.428v17.863A2.208,2.208,0,0,1,549.842,661.442Z" transform="translate(-521.134 -634.942)" fill="#006c30"/>
        </g>
        <g id="Trazado_3616" data-name="Trazado 3616" transform="translate(41.193 29.409)">
          <path id="Path_12425" data-name="Path 12425" d="M545.1,679.608a2.2,2.2,0,0,1-1.835-.978,19.777,19.777,0,0,1-3.094-7.733,2.309,2.309,0,0,1-.031-.371v-2.785l-7.583-7.729a4.785,4.785,0,0,1-.42-.439,5.841,5.841,0,0,1,8.878-7.592l1.334,1.363v-9.781a2.208,2.208,0,0,1,3.635-1.687c5.335,4.507,9.741,8.661,9.615,13.873V667.2l3.741,4.717a2.209,2.209,0,0,1-3.463,2.745l-4.218-5.322a2.2,2.2,0,0,1-.477-1.371v-12.27c.055-2.317-1.815-4.739-4.417-7.23v10.293a2.21,2.21,0,0,1-3.787,1.546l-5.218-5.342a1.473,1.473,0,0,0-2.1-.263,1.423,1.423,0,0,0-.157,2.007c.027.022.185.188.212.212l8.215,8.372a2.216,2.216,0,0,1,.632,1.548v3.493a15.36,15.36,0,0,0,2.374,5.837,2.209,2.209,0,0,1-1.831,3.441Z" transform="translate(-530.743 -641.353)" fill="#006c30"/>
        </g>
        <g id="Trazado_3617" data-name="Trazado 3617" transform="translate(24.093 48.505)">
          <path id="Path_12426" data-name="Path 12426" d="M536.25,654.417H525.208a2.208,2.208,0,1,1,0-4.417H536.25a2.208,2.208,0,1,1,0,4.417Z" transform="translate(-523 -650)" fill="red"/>
        </g>
        <g id="Trazado_3618" data-name="Trazado 3618" transform="translate(24.093 37.463)">
          <path id="Path_12427" data-name="Path 12427" d="M529.625,649.417h-4.417a2.208,2.208,0,1,1,0-4.417h4.417a2.208,2.208,0,1,1,0,4.417Z" transform="translate(-523 -645)" fill="red"/>
        </g>
      </g>
    </g>
  </g>
</svg>
