<?xml version="1.0" encoding="UTF-8"?>
<svg id="Capa_2" data-name="Capa 2" xmlns="http://www.w3.org/2000/svg" viewBox="0 0 164.01 145.06">
  <defs>
    <style>
      .cls-1 {
        stroke-width: 0px;
      }

      .cls-1, .cls-2 {
        fill: #006729;
      }

      .cls-3, .cls-4 {
        fill: none;
        stroke-linecap: round;
        stroke-linejoin: round;
        stroke-width: 4.5px;
      }

      .cls-3, .cls-2 {
        stroke: #006729;
      }

      .cls-4 {
        stroke: #e60018;
      }

      .cls-2 {
        stroke-width: 1.5px;
      }
    </style>
  </defs>
  <g id="Flechas_instrucciones" data-name="Flechas instrucciones">
    <path id="Trazado_12657" data-name="Trazado 12657" class="cls-3" d="M31.91,100.52s-13.52-28.85,9.92-48.98c0,0,19.83-15.62,45.07-4.21s19.83,35.15,19.83,35.15c0,0-.6,11.12-17.13,9.32,0,0-9.32-1.7-8.81-13.32,0,0-.51-11.01-13.91-10.37-3.26.09-6.35,1.46-8.6,3.82-2.28,2.49-4.33,6.6-3.43,13.06,1.8,12.92,8.31,20.93,28.04,30.65"/>
    <path id="Trazado_12658" data-name="Trazado 12658" class="cls-3" d="M67.63,79.41s-1.26,26.53,31.19,24.92"/>
    <path id="Trazado_12659" data-name="Trazado 12659" class="cls-3" d="M56.65,114.24s-20.83-20.13-13.82-41.27c4.24-12.78,15.15-16.18,23.12-16.88,6.75-.68,13.51,1.2,18.94,5.26,6.22,4.58,9.67,12.03,9.13,19.73"/>
    <path id="Trazado_12660" data-name="Trazado 12660" class="cls-3" d="M23.6,52.85s16.63-24.44,46.48-21.93c29.85,2.5,41.47,21.93,41.47,21.93"/>
    <path id="Trazado_12661" data-name="Trazado 12661" class="cls-3" d="M37.72,26.3s29.25-18.13,61.1,0"/>
    <path id="Trazado_12662" data-name="Trazado 12662" class="cls-4" d="M2.25,39.53V12.76c0-5.81,4.71-10.51,10.52-10.51h26.14"/>
    <path id="Trazado_12663" data-name="Trazado 12663" class="cls-3" d="M2.25,95.24v26.48c0,5.81,4.71,10.52,10.52,10.52h26.14"/>
    <path id="Trazado_12664" data-name="Trazado 12664" class="cls-3" d="M95.08,2.25h26.66c5.81,0,10.52,4.7,10.52,10.5h0v26.78"/>
    <path id="Trazado_12665" data-name="Trazado 12665" class="cls-2" d="M153.74,102.08h-3.89v-12.41c-.07-8.13-6.71-14.67-14.84-14.6-8.04.07-14.54,6.57-14.6,14.6v12.41h-3.89c-5.25,0-9.51,4.26-9.52,9.52v23.19c0,5.25,4.26,9.51,9.52,9.52h37.23c5.25,0,9.51-4.26,9.52-9.52v-23.19c0-5.25-4.26-9.51-9.52-9.52M122.87,89.67c.06-6.77,5.6-12.2,12.36-12.14,6.68.06,12.08,5.46,12.14,12.14v12.41h-24.5v-12.41ZM160.79,134.79c0,3.89-3.16,7.04-7.05,7.05h-37.23c-3.89,0-7.04-3.16-7.05-7.05v-23.19c0-3.89,3.16-7.04,7.05-7.05h37.23c3.89,0,7.04,3.16,7.05,7.05v23.19Z"/>
    <path id="Trazado_12666" data-name="Trazado 12666" class="cls-1" d="M123.14,122.99c0,1.42-1.15,2.56-2.56,2.56s-2.56-1.15-2.56-2.56,1.15-2.56,2.56-2.56,2.56,1.15,2.56,2.56h0"/>
    <path id="Trazado_12667" data-name="Trazado 12667" class="cls-1" d="M133.03,122.99c0,1.42-1.15,2.56-2.56,2.56s-2.56-1.15-2.56-2.56,1.15-2.56,2.56-2.56,2.56,1.15,2.56,2.56h0"/>
    <path id="Trazado_12668" data-name="Trazado 12668" class="cls-1" d="M142.93,122.99c0,1.42-1.14,2.56-2.56,2.57-1.42,0-2.56-1.14-2.57-2.56,0-1.42,1.14-2.56,2.56-2.57,1.42,0,2.56,1.15,2.56,2.56h0"/>
    <path id="Trazado_12669" data-name="Trazado 12669" class="cls-1" d="M152.83,122.99c0,1.42-1.15,2.56-2.56,2.56s-2.56-1.15-2.56-2.56,1.15-2.56,2.56-2.56,2.56,1.15,2.56,2.56h0"/>
  </g>
</svg>