<?xml version="1.0" encoding="UTF-8"?>
<svg id="Capa_2" data-name="Capa 2" xmlns="http://www.w3.org/2000/svg" viewBox="0 0 73.8 65.37">
  <defs>
    <style>
      .cls-1 {
        stroke-width: 0px;
      }

      .cls-1, .cls-2 {
        fill: #006729;
      }

      .cls-3, .cls-4 {
        fill: none;
        stroke-linecap: round;
        stroke-linejoin: round;
        stroke-width: 3px;
      }

      .cls-3, .cls-2 {
        stroke: #006729;
      }

      .cls-4 {
        stroke: #e60018;
      }

      .cls-2 {
        stroke-width: 1.5px;
      }
    </style>
  </defs>
  <g id="Flechas_instrucciones" data-name="Flechas instrucciones">
    <path id="Trazado_12657" data-name="Trazado 12657" class="cls-3" d="M14.68,45.17s-6.01-12.82,4.41-21.76c5.87-4.15,13.49-4.86,20.03-1.87,11.22,5.07,8.81,15.62,8.81,15.62,0,0-.27,4.94-7.61,4.14,0,0-4.14-.76-3.92-5.92,0,0-.23-4.89-6.18-4.61-1.45.04-2.82.65-3.82,1.7-1.38,1.59-1.94,3.73-1.52,5.8.8,5.74,3.69,9.3,12.46,13.62"/>
    <path id="Trazado_12658" data-name="Trazado 12658" class="cls-3" d="M30.55,35.78s-.56,11.79,13.87,11.08"/>
    <path id="Trazado_12659" data-name="Trazado 12659" class="cls-3" d="M25.67,51.26s-9.26-8.95-6.14-18.34c1.88-5.68,6.74-7.19,10.27-7.5,3-.3,6,.53,8.42,2.34,2.77,2.03,4.3,5.34,4.06,8.77"/>
    <path id="Trazado_12660" data-name="Trazado 12660" class="cls-3" d="M10.99,23.98s7.39-10.86,20.65-9.75c13.26,1.11,18.42,9.75,18.42,9.75"/>
    <path id="Trazado_12661" data-name="Trazado 12661" class="cls-3" d="M17.26,12.19s13-8.06,27.15,0"/>
    <path id="Trazado_12662" data-name="Trazado 12662" class="cls-4" d="M1.5,18.07V6.17c0-2.58,2.09-4.67,4.67-4.67h11.62"/>
    <path id="Trazado_12663" data-name="Trazado 12663" class="cls-3" d="M1.5,42.82v11.77c0,2.58,2.09,4.67,4.67,4.67h11.62"/>
    <path id="Trazado_12664" data-name="Trazado 12664" class="cls-3" d="M42.75,1.5h11.85c2.58,0,4.67,2.09,4.67,4.67v11.9"/>
    <path id="Trazado_12665" data-name="Trazado 12665" class="cls-2" d="M68.82,45.86h-1.73v-5.52c0-3.61-2.93-6.54-6.54-6.54s-6.54,2.93-6.54,6.54h0v5.51h-1.73c-2.33,0-4.23,1.9-4.23,4.23v10.3c0,2.33,1.89,4.23,4.23,4.23h16.54c2.33,0,4.23-1.89,4.23-4.23v-10.3c0-2.34-1.89-4.23-4.23-4.23M55.1,40.34c0-3.01,2.44-5.44,5.44-5.44s5.44,2.44,5.44,5.44h0v5.51h-10.89v-5.51ZM71.95,60.39c0,1.73-1.4,3.13-3.13,3.13h-16.54c-1.73,0-3.13-1.4-3.13-3.13v-10.3c0-1.73,1.4-3.13,3.13-3.13h16.54c1.73,0,3.13,1.4,3.13,3.13v10.3Z"/>
    <path id="Trazado_12666" data-name="Trazado 12666" class="cls-1" d="M55.22,55.15c0,.63-.51,1.14-1.14,1.14s-1.14-.51-1.14-1.14.51-1.14,1.14-1.14h0c.63,0,1.14.51,1.14,1.14"/>
    <path id="Trazado_12667" data-name="Trazado 12667" class="cls-1" d="M59.62,55.15c0,.63-.51,1.14-1.14,1.14s-1.14-.51-1.14-1.14.51-1.14,1.14-1.14h0c.63,0,1.14.51,1.14,1.14"/>
    <path id="Trazado_12668" data-name="Trazado 12668" class="cls-1" d="M64.01,55.15c0,.63-.51,1.14-1.14,1.14s-1.14-.51-1.14-1.14.51-1.14,1.14-1.14h0c.63,0,1.14.51,1.14,1.14"/>
  </g>
</svg>