<?xml version="1.0" encoding="UTF-8"?>
<svg id="Capa_2" data-name="Capa 2" xmlns="http://www.w3.org/2000/svg" viewBox="0 0 25.29 25.3">
  <defs>
    <style>
      .cls-1 {
        stroke-width: 0px;
      }
    </style>
  </defs>
  <g id="Capa_18" data-name="Capa 18">
    <g id="Grupo_22065" data-name="Grupo 22065">
      <path id="Trazado_12695" data-name="Trazado 12695" class="cls-1" d="M25.29,6.65s-.02.04-.03.07c-.1.35-.47.56-.82.46-.29-.08-.49-.35-.49-.65v-3.79c.04-.73-.52-1.36-1.26-1.4-.05,0-.09,0-.14,0h-3.96c-.37.01-.67-.27-.69-.64,0-.07,0-.14.03-.21.08-.28.33-.48.62-.48C19.95,0,21.34-.01,22.73,0c1.31.05,2.38,1.04,2.53,2.33,0,.03.01.06.02.08v4.23Z"/>
      <path id="Trazado_12696" data-name="Trazado 12696" class="cls-1" d="M18.64,25.3s-.04-.02-.07-.03c-.35-.1-.56-.47-.46-.82.08-.29.35-.49.65-.49,1.27,0,2.53,0,3.79,0,.73.04,1.36-.52,1.4-1.26,0-.05,0-.09,0-.14v-3.96c-.01-.37.27-.67.64-.69.07,0,.14,0,.21.03.28.08.48.33.49.62,0,1.39.02,2.78,0,4.17-.05,1.31-1.04,2.38-2.34,2.53-.03,0-.06.01-.08.02h-4.23Z"/>
      <path id="Trazado_12697" data-name="Trazado 12697" class="cls-1" d="M0,18.56s.02-.04.03-.07c.1-.35.47-.56.82-.46.29.08.49.35.49.65v3.79c-.04.73.52,1.36,1.26,1.4.05,0,.09,0,.14,0h3.96c.37-.01.67.27.69.64,0,.07,0,.14-.03.21-.08.28-.33.48-.62.49-1.39,0-2.78.02-4.17,0-1.31-.05-2.39-1.04-2.53-2.34,0-.03-.02-.06-.03-.08v-4.22"/>
      <path id="Trazado_12698" data-name="Trazado 12698" class="cls-1" d="M4.64,0h2.07c.37,0,.67.28.68.65,0,.29-.18.56-.46.65-.09.03-.18.04-.27.04-1.31,0-2.62,0-3.93,0-.73-.04-1.36.53-1.39,1.26,0,.04,0,.08,0,.12,0,1.27,0,2.53,0,3.79.01.37-.28.68-.64.69,0,0,0,0,0,0-.36.01-.67-.27-.68-.63,0,0,0-.01,0-.02C0,5.23,0,3.9,0,2.56.05,1.25,1.06.16,2.37.03c.46-.04.93-.02,1.39-.03h.88"/>
      <path id="Trazado_12699" data-name="Trazado 12699" class="cls-1" d="M12.51,20.67c-1.26,0-2.5-.33-3.59-.97-.27-.17-.53-.36-.76-.58-.26-.26-.25-.68,0-.93.24-.24.63-.25.89-.04.62.54,1.37.9,2.17,1.04,1.28.29,2.62.18,3.83-.31.42-.17.8-.4,1.13-.7.27-.25.68-.23.93.03.25.26.24.67-.01.92,0,0-.01.01-.02.02-.52.47-1.13.83-1.79,1.06-.89.32-1.84.48-2.78.46"/>
      <path id="Trazado_12700" data-name="Trazado 12700" class="cls-1" d="M14.02,11.36v2.55c.03.89-.54,1.69-1.39,1.95-.18.05-.37.08-.56.09-.25.01-.5,0-.75,0-.34,0-.63-.25-.66-.59-.04-.34.19-.66.53-.72.15-.02.31-.02.47-.02h.38c.34.01.62-.24.65-.58.01-.11.02-.23.02-.34,0-1.64,0-3.29,0-4.93,0-.1,0-.2.02-.3.09-.35.46-.56.81-.47.29.08.49.34.49.64v2.72"/>
      <path id="Trazado_12701" data-name="Trazado 12701" class="cls-1" d="M7.38,9.65v.99c.02.37-.26.68-.63.7s-.68-.26-.7-.63c0-.02,0-.05,0-.07,0-.66,0-1.31,0-1.97,0-.37.3-.67.67-.67.37,0,.67.3.67.67h0v.99"/>
      <path id="Trazado_12702" data-name="Trazado 12702" class="cls-1" d="M19.33,9.66v.99c0,.37-.29.67-.66.67-.37,0-.67-.29-.67-.66,0-.67,0-1.35,0-2.02,0-.36.29-.66.65-.67,0,0,.01,0,.02,0,.37,0,.66.3.66.67,0,0,0,.01,0,.02v1"/>
    </g>
  </g>
</svg>