<?xml version="1.0" encoding="UTF-8"?>
<svg id="Capa_2" data-name="Capa 2" xmlns="http://www.w3.org/2000/svg" viewBox="0 0 20.69 23">
  <defs>
    <style>
      .cls-1 {
        fill: #979797;
        stroke-width: 0px;
      }
    </style>
  </defs>
  <g id="Flechas_instrucciones" data-name="Flechas instrucciones">
    <path id="Trazado_12656" data-name="Trazado 12656" class="cls-1" d="M17.03,2.84c-.09,0-.18-.02-.26-.07C12.77.61,7.96.61,3.96,2.77c-.28.15-.63.05-.78-.23s-.05-.63.23-.78h0c4.33-2.34,9.55-2.35,13.89-.01.28.15.38.51.23.79-.1.18-.29.3-.5.3h0ZM.58,8.88c-.12,0-.23-.03-.33-.1-.26-.18-.32-.54-.14-.8,0,0,0,0,0,0,1.11-1.59,2.59-2.88,4.31-3.76,3.73-1.87,8.12-1.87,11.86-.01,1.72.88,3.2,2.16,4.31,3.74.18.26.12.62-.14.81-.26.18-.62.12-.81-.14-1.01-1.43-2.35-2.59-3.9-3.38-3.41-1.69-7.41-1.69-10.81.01-1.56.8-2.9,1.97-3.91,3.4-.09.16-.26.25-.45.24ZM7.77,22.76c-.15,0-.3-.06-.4-.17-.93-.88-1.71-1.9-2.31-3.04-.82-1.53-1.24-3.25-1.21-4.99.18-3.59,3.24-6.36,6.83-6.19,3.35.17,6.02,2.84,6.19,6.19,0,.32-.26.58-.57.58-.32,0-.58-.26-.58-.57h0c-.18-2.96-2.73-5.22-5.69-5.04-2.71.17-4.87,2.32-5.03,5.03-.03,1.54.34,3.07,1.07,4.43.55,1.04,1.27,1.98,2.13,2.78.22.23.22.59,0,.82-.12.11-.27.17-.43.17h0ZM16.01,20.63c-1.26.03-2.51-.33-3.57-1.02-1.69-1.12-2.72-3.02-2.74-5.05,0-.32.26-.57.58-.57.32,0,.57.26.57.57.01,1.65.85,3.19,2.23,4.09.87.57,1.89.85,2.92.82.4,0,.8-.04,1.2-.12.32-.05.61.17.65.49.04.3-.16.59-.45.65-.46.09-.93.14-1.4.14h0ZM13.7,23c-.05,0-.1,0-.15-.02-1.62-.39-3.1-1.23-4.28-2.41-1.61-1.58-2.51-3.75-2.5-6,.09-1.96,1.75-3.47,3.71-3.37,1.83.09,3.29,1.55,3.37,3.37.11,1.32,1.27,2.3,2.59,2.2,1.17-.1,2.1-1.03,2.2-2.2-.14-4.47-3.87-7.98-8.34-7.85-3.21-.03-6.16,1.76-7.6,4.63-.47,1.01-.7,2.11-.68,3.22,0,1.42.26,2.83.77,4.15.11.29-.03.61-.31.73,0,0-.01,0-.02,0-.3.11-.62-.04-.74-.33,0,0,0,0,0,0-.55-1.45-.84-3-.84-4.55-.02-1.28.25-2.56.78-3.73,1.63-3.27,4.98-5.33,8.64-5.29,5.1-.13,9.34,3.9,9.49,9-.09,1.96-1.75,3.47-3.71,3.37-1.83-.09-3.29-1.55-3.37-3.37-.11-1.32-1.27-2.3-2.59-2.2-1.17.1-2.1,1.03-2.2,2.2,0,1.95.77,3.82,2.15,5.19,1.03,1.05,2.33,1.79,3.76,2.13.3.08.48.4.4.7,0,0,0,0,0,0-.06.25-.28.43-.53.44h0Z"/>
  </g>
</svg>