<svg xmlns="http://www.w3.org/2000/svg" width="48.156" height="48" viewBox="0 0 48.156 48">
  <g id="Group_21530" data-name="Group 21530" transform="translate(20400 21914)">
    <g id="Group_21423" data-name="Group 21423" transform="translate(-20714.182 -22181.314)">
      <path id="Subtraction_2" data-name="Subtraction 2" d="M20723.852,22194.332a1.407,1.407,0,0,1-.654-.164l-2.355-1.236-2.357,1.236a1.344,1.344,0,0,1-.65.162,1.4,1.4,0,0,1-1.383-1.639l.451-2.623-1.9-1.855a1.4,1.4,0,0,1,.779-2.389l2.629-.385,1.182-2.389a1.384,1.384,0,0,1,1.254-.775,1.4,1.4,0,0,1,1.258.775l1.176,2.389.752.109,2.7,2.625-.014.014-.018.018-.008.008-1.9,1.855.451,2.623a1.4,1.4,0,0,1-1.379,1.641Zm-3.01-9.3-.781,1.582a1.4,1.4,0,0,1-1.053.764l-1.748.256,1.264,1.23a1.389,1.389,0,0,1,.406,1.236l-.3,1.738,1.561-.824a1.443,1.443,0,0,1,.654-.158,1.419,1.419,0,0,1,.648.158l1.561.824-.295-1.738a1.4,1.4,0,0,1,.4-1.242l1.264-1.225-1.748-.256a1.4,1.4,0,0,1-1.053-.764Z" transform="translate(-20399.391 -21893.598)" fill="#9d9d9d" stroke="rgba(0,0,0,0)" stroke-miterlimit="10" stroke-width="1"/>
      <path id="Subtraction_1" data-name="Subtraction 1" d="M20726.33,22194.332a1.407,1.407,0,0,1-.654-.164l-2.355-1.236-2.357,1.236a1.344,1.344,0,0,1-.65.162,1.407,1.407,0,0,1-1.383-1.639l.451-2.623-1.9-1.855-.02-.02,2.717-2.65.711-.1,1.176-2.389a1.409,1.409,0,0,1,2.518,0l1.176,2.389,2.629.385a1.384,1.384,0,0,1,1.137.953,1.4,1.4,0,0,1-.357,1.436l-1.9,1.855.451,2.623a1.4,1.4,0,0,1-1.379,1.641Zm-3.01-9.3-.781,1.582a1.406,1.406,0,0,1-1.053.764l-1.748.256,1.264,1.23a1.381,1.381,0,0,1,.4,1.236l-.3,1.738,1.561-.824a1.41,1.41,0,0,1,.652-.156,1.379,1.379,0,0,1,.645.156l1.566.824-.295-1.738a1.38,1.38,0,0,1,.4-1.242l1.264-1.225-1.748-.256a1.388,1.388,0,0,1-1.053-.764Z" transform="translate(-20367.764 -21893.598)" fill="#9d9d9d" stroke="rgba(0,0,0,0)" stroke-miterlimit="10" stroke-width="1"/>
      <g id="Group_21420" data-name="Group 21420">
        <path id="Path_12253" data-name="Path 12253" d="M339.374,279.846l3.132,6.345a.954.954,0,0,0,.718.522l7,1.018a.954.954,0,0,1,.529,1.628l-5.067,4.939a.955.955,0,0,0-.275.845l1.2,6.974a.955.955,0,0,1-1.385,1.006l-6.263-3.293a.957.957,0,0,0-.889,0l-6.263,3.293a.955.955,0,0,1-1.385-1.006l1.2-6.974a.955.955,0,0,0-.275-.845l-5.067-4.939a.954.954,0,0,1,.529-1.628l7-1.018a.954.954,0,0,0,.718-.522l3.132-6.345A.953.953,0,0,1,339.374,279.846Z" fill="none"/>
        <path id="Path_12254" data-name="Path 12254" d="M331.365,304.235a1.959,1.959,0,0,1-1.924-2.287l1.2-6.974-5.055-4.9a1.955,1.955,0,0,1,1.084-3.334l7-1.018,3.1-6.32a1.955,1.955,0,0,1,3.505,0h0l3.132,6.346,6.967.992a1.954,1.954,0,0,1,1.084,3.333l-5.067,4.94,1.209,6.934a1.954,1.954,0,0,1-2.836,2.06l-6.263-3.292-6.221,3.292A1.963,1.963,0,0,1,331.365,304.235Zm8.009-24.39-.9.443-3.051,6.346a1.95,1.95,0,0,1-1.471,1.069l-7,1.017,5.093,4.862a1.956,1.956,0,0,1,.562,1.729l-1.2,6.975,6.2-3.341a1.948,1.948,0,0,1,1.819,0l6.262,3.292-1.262-6.926a1.958,1.958,0,0,1,.562-1.73l5.067-4.94-6.977-.939a1.954,1.954,0,0,1-1.472-1.07l-3.131-6.345Z" fill="#9d9d9d"/>
      </g>
    </g>
    <rect id="Rectangle_7089" data-name="Rectangle 7089" width="48" height="48" transform="translate(-20400 -21914)" fill="none"/>
  </g>
</svg>
