<svg xmlns="http://www.w3.org/2000/svg" width="48" height="48" viewBox="0 0 48 48">
  <g id="Group_21531" data-name="Group 21531" transform="translate(20316 21914)">
    <g id="Group_21444" data-name="Group 21444" transform="translate(-20443.656 -22253.088)">
      <g id="Group_21435" data-name="Group 21435">
        <g id="Group_16334" data-name="Group 16334">
          <g id="streamline-icon-email-action-receive_50x50" data-name="streamline-icon-email-action-receive 50x50">
            <g id="Trazado_4201" data-name="Trazado 4201">
              <path id="Path_12262" data-name="Path 12262" d="M162.9,364.443H152.331a1.1,1.1,0,0,1,0-2.2H162.9a1.1,1.1,0,0,1,0,2.2Z" fill="#9d9d9d"/>
            </g>
            <g id="Trazado_4202" data-name="Trazado 4202">
              <path id="Path_12263" data-name="Path 12263" d="M158.526,370.14a1.1,1.1,0,0,1-.859-1.787l3.966-4.958-3.966-4.957a1.1,1.1,0,0,1,1.719-1.374l4.515,5.644a1.1,1.1,0,0,1,0,1.374l-4.515,5.645A1.1,1.1,0,0,1,158.526,370.14Z" fill="#9d9d9d"/>
            </g>
          </g>
        </g>
      </g>
      <g id="Group_21443" data-name="Group 21443">
        <g id="Group_21442" data-name="Group 21442">
          <g id="Group_21437" data-name="Group 21437">
            <g id="Group_21436" data-name="Group 21436">
              <path id="Path_12264" data-name="Path 12264" d="M143.621,377.7h10.338v-2.642H143.621a1.322,1.322,0,0,1-1.321-1.321V353.056a1.323,1.323,0,0,1,1.321-1.322h10.338v-2.642H143.621a3.968,3.968,0,0,0-3.964,3.964v20.678A3.968,3.968,0,0,0,143.621,377.7Z" fill="#9d9d9d"/>
            </g>
          </g>
          <g id="Group_21439" data-name="Group 21439">
            <g id="Group_21438" data-name="Group 21438">
              <circle id="Ellipse_1340" data-name="Ellipse 1340" cx="1.325" cy="1.325" r="1.325" transform="translate(152.563 349.089)" fill="#9d9d9d"/>
            </g>
          </g>
          <g id="Group_21441" data-name="Group 21441">
            <g id="Group_21440" data-name="Group 21440">
              <circle id="Ellipse_1341" data-name="Ellipse 1341" cx="1.325" cy="1.325" r="1.325" transform="translate(152.563 375.051)" fill="#9d9d9d"/>
            </g>
          </g>
        </g>
      </g>
    </g>
    <rect id="Rectangle_7092" data-name="Rectangle 7092" width="48" height="48" transform="translate(-20316 -21914)" fill="none"/>
  </g>
</svg>
