<svg xmlns="http://www.w3.org/2000/svg" width="48" height="48" viewBox="0 0 48 48">
  <g id="Group_21528" data-name="Group 21528" transform="translate(20485 21914)">
    <g id="Group_21415" data-name="Group 21415" transform="translate(-20519.092 -22253.395)">
      <g id="Group_21404" data-name="Group 21404">
        <g id="Group_21403" data-name="Group 21403">
          <path id="Path_12241" data-name="Path 12241" d="M70.666,360.129H65.112a1.97,1.97,0,0,1-1.855-1.313l-.685-1.948a.138.138,0,0,0-.129-.091h-8.7a.138.138,0,0,0-.131.092l-.683,1.946a1.97,1.97,0,0,1-1.855,1.314H45.519a2.372,2.372,0,0,1-2.37-2.37v-.614a8.417,8.417,0,0,1,8.408-8.409h13.07a8.419,8.419,0,0,1,8.41,8.409v.614A2.373,2.373,0,0,1,70.666,360.129Zm-5.389-2.2h5.389a.171.171,0,0,0,.171-.17v-.614a6.216,6.216,0,0,0-6.21-6.209H51.557a6.216,6.216,0,0,0-6.209,6.209v.614a.171.171,0,0,0,.171.17h5.39l.628-1.79a2.344,2.344,0,0,1,2.206-1.563h8.7a2.341,2.341,0,0,1,2.205,1.563Z" fill="#9d9d9d"/>
        </g>
      </g>
      <g id="Group_21414" data-name="Group 21414">
        <g id="Group_21405" data-name="Group 21405">
          <circle id="Ellipse_1330" data-name="Ellipse 1330" cx="1.382" cy="1.382" r="1.382" transform="translate(50.074 362.877)" fill="#9d9d9d"/>
          <path id="Path_12242" data-name="Path 12242" d="M51.455,365.741a1.482,1.482,0,1,1,1.482-1.482A1.483,1.483,0,0,1,51.455,365.741Zm0-2.764a1.282,1.282,0,1,0,1.283,1.282A1.283,1.283,0,0,0,51.455,362.977Z" fill="#9d9d9d"/>
        </g>
        <g id="Group_21406" data-name="Group 21406">
          <circle id="Ellipse_1331" data-name="Ellipse 1331" cx="1.382" cy="1.382" r="1.382" transform="translate(50.074 368.456)" fill="#9d9d9d"/>
          <path id="Path_12243" data-name="Path 12243" d="M51.455,371.321a1.483,1.483,0,1,1,1.482-1.483A1.483,1.483,0,0,1,51.455,371.321Zm0-2.765a1.282,1.282,0,1,0,1.283,1.282A1.283,1.283,0,0,0,51.455,368.556Z" fill="#9d9d9d"/>
        </g>
        <g id="Group_21407" data-name="Group 21407">
          <circle id="Ellipse_1332" data-name="Ellipse 1332" cx="1.382" cy="1.382" r="1.382" transform="translate(50.074 374.191)" fill="#9d9d9d"/>
          <path id="Path_12244" data-name="Path 12244" d="M51.455,377.055a1.482,1.482,0,1,1,1.482-1.482A1.483,1.483,0,0,1,51.455,377.055Zm0-2.764a1.282,1.282,0,1,0,1.283,1.282A1.283,1.283,0,0,0,51.455,374.291Z" fill="#9d9d9d"/>
        </g>
        <g id="Group_21408" data-name="Group 21408">
          <circle id="Ellipse_1333" data-name="Ellipse 1333" cx="1.382" cy="1.382" r="1.382" transform="translate(64.23 362.877)" fill="#9d9d9d"/>
          <path id="Path_12245" data-name="Path 12245" d="M65.612,365.741a1.482,1.482,0,1,1,1.481-1.482A1.483,1.483,0,0,1,65.612,365.741Zm0-2.764a1.282,1.282,0,1,0,1.282,1.282A1.284,1.284,0,0,0,65.612,362.977Z" fill="#9d9d9d"/>
        </g>
        <g id="Group_21409" data-name="Group 21409">
          <circle id="Ellipse_1334" data-name="Ellipse 1334" cx="1.382" cy="1.382" r="1.382" transform="translate(64.23 368.456)" fill="#9d9d9d"/>
          <path id="Path_12246" data-name="Path 12246" d="M65.612,371.321a1.483,1.483,0,1,1,1.481-1.483A1.483,1.483,0,0,1,65.612,371.321Zm0-2.765a1.282,1.282,0,1,0,1.282,1.282A1.284,1.284,0,0,0,65.612,368.556Z" fill="#9d9d9d"/>
        </g>
        <g id="Group_21410" data-name="Group 21410">
          <circle id="Ellipse_1335" data-name="Ellipse 1335" cx="1.382" cy="1.382" r="1.382" transform="translate(64.23 374.191)" fill="#9d9d9d"/>
          <path id="Path_12247" data-name="Path 12247" d="M65.612,377.055a1.482,1.482,0,1,1,1.481-1.482A1.483,1.483,0,0,1,65.612,377.055Zm0-2.764a1.282,1.282,0,1,0,1.282,1.282A1.284,1.284,0,0,0,65.612,374.291Z" fill="#9d9d9d"/>
        </g>
        <g id="Group_21411" data-name="Group 21411">
          <circle id="Ellipse_1336" data-name="Ellipse 1336" cx="1.382" cy="1.382" r="1.382" transform="translate(57.152 362.877)" fill="#9d9d9d"/>
          <path id="Path_12248" data-name="Path 12248" d="M58.534,365.741a1.482,1.482,0,1,1,1.481-1.482A1.483,1.483,0,0,1,58.534,365.741Zm0-2.764a1.282,1.282,0,1,0,1.282,1.282A1.284,1.284,0,0,0,58.534,362.977Z" fill="#9d9d9d"/>
        </g>
        <g id="Group_21412" data-name="Group 21412">
          <circle id="Ellipse_1337" data-name="Ellipse 1337" cx="1.382" cy="1.382" r="1.382" transform="translate(57.152 368.456)" fill="#9d9d9d"/>
          <path id="Path_12249" data-name="Path 12249" d="M58.534,371.321a1.483,1.483,0,1,1,1.481-1.483A1.483,1.483,0,0,1,58.534,371.321Zm0-2.765a1.282,1.282,0,1,0,1.282,1.282A1.284,1.284,0,0,0,58.534,368.556Z" fill="#9d9d9d"/>
        </g>
        <g id="Group_21413" data-name="Group 21413">
          <circle id="Ellipse_1338" data-name="Ellipse 1338" cx="1.382" cy="1.382" r="1.382" transform="translate(57.152 374.191)" fill="#9d9d9d"/>
          <path id="Path_12250" data-name="Path 12250" d="M58.534,377.055a1.482,1.482,0,1,1,1.481-1.482A1.483,1.483,0,0,1,58.534,377.055Zm0-2.764a1.282,1.282,0,1,0,1.282,1.282A1.284,1.284,0,0,0,58.534,374.291Z" fill="#9d9d9d"/>
        </g>
      </g>
    </g>
    <rect id="Rectangle_7086" data-name="Rectangle 7086" width="48" height="48" transform="translate(-20485 -21914)" fill="none"/>
  </g>
</svg>
