<?xml version="1.0" encoding="UTF-8"?>
<svg xmlns="http://www.w3.org/2000/svg" viewBox="0 0 40 40">
  <defs>
    <style>
      .cls-1 {
        fill: #006c30;
        font-family: ArialRoundedMTBold, 'Arial Rounded MT Bold';
        font-size: 14px;
        letter-spacing: .02em;
      }

      .cls-2 {
        fill: none;
      }

      .cls-3 {
        fill: #006729;
      }

      .cls-4 {
        fill: red;
      }
    </style>
  </defs>
  <g id="_40_px" data-name="40 px">
    <g>
      <g>
        <path class="cls-3" d="M19.93,32.62c-2.01,0-3.94-.48-5.73-1.43-.21-.11-.39-.16-.58-.16-.12,0-.25,.02-.38,.06-1.03,.33-2.05,.63-2.82,.85-.19,.06-.39,.08-.58,.08-.97,0-1.73-.69-1.86-1.67-.03-.24,0-.54,.1-.88,.27-.96,.56-1.91,.84-2.8,.09-.29,.07-.54-.07-.8-2.7-5.08-1.63-11.32,2.6-15.18,2.42-2.21,5.27-3.33,8.47-3.33,.35,0,.71,.01,1.07,.04,5.67,.43,10.36,4.66,11.4,10.29,.1,.54,.15,1.1,.19,1.54,.02,.18,.03,.35,.05,.49-.08,3.94-1.44,7.09-4.14,9.59-1.95,1.8-4.3,2.88-6.98,3.2-.53,.06-1.06,.1-1.58,.1Zm-6.3-3.03c.38,0,.75,.1,1.14,.31,1.64,.86,3.36,1.3,5.13,1.3,.64,0,1.29-.06,1.94-.17,6.12-1.05,10.17-6.67,9.2-12.79-.85-5.42-5.42-9.37-10.89-9.45v-.03s-.2-.04-.2-.04c-.26,.03-.51,.06-.77,.09-.56,.06-1.14,.13-1.7,.26-3.44,.8-6.25,3.08-7.7,6.24-1.45,3.18-1.34,6.81,.32,9.96,.31,.58,.36,1.14,.17,1.74-.26,.81-.53,1.71-.84,2.81-.05,.17-.07,.43,.04,.61,.08,.13,.2,.2,.35,.2,.1,0,.2-.03,.29-.06l.82-.24c.65-.19,1.31-.38,1.95-.6,.26-.09,.5-.13,.75-.13Z"/>
        <path class="cls-3" d="M19.9,23.09c-.33,0-.63-.26-.68-.57-.02-.15-.02-.3-.03-.45v-.22c-.05-1.09,.32-1.91,1.12-2.49,.12-.08,.25-.15,.38-.22,.07-.03,.14-.07,.21-.11,.98-.53,1.46-1.31,1.35-2.18-.12-.99-.96-2.06-2.1-2.06-.28,0-.56,.07-.84,.2-.8,.37-1.32,1.06-1.57,2.03l-.04,.19c-.09,.35-.36,.58-.68,.58-.05,0-.09,0-.14-.02-.41-.09-.63-.42-.56-.85,.14-.79,.47-1.5,.99-2.11,.7-.81,1.46-1.27,2.35-1.4,.16-.02,.33-.04,.48-.04,1.38,0,2.72,.95,3.25,2.31,.72,1.85,.03,3.6-1.82,4.57-.73,.38-1.03,.88-.97,1.6,.02,.18,.01,.37,0,.61-.03,.35-.32,.62-.68,.63h-.02Z"/>
        <path class="cls-4" d="M19.99,26.36c-.56,0-1-.44-1-.99,0-.27,.1-.52,.29-.71,.19-.19,.44-.29,.71-.29,.56,0,1,.44,1,.99,0,.27-.1,.52-.29,.71-.18,.19-.44,.29-.71,.29h0Z"/>
      </g>
      <rect class="cls-2" width="40" height="40"/>
    </g>
  </g>
  <g id="Capa_18" data-name="Capa 18">
    <text class="cls-1" transform="translate(2275.87 891.38)"><tspan x="0" y="0">?</tspan></text>
  </g>
</svg>