<svg xmlns="http://www.w3.org/2000/svg" width="48" height="48" viewBox="0 0 48 48">
  <g id="Group_21537" data-name="Group 21537" transform="translate(20572 22079)">
    <g id="Grupo_15850" data-name="Grupo 15850" transform="translate(-20886.572 -22283.564)">
      <g id="streamline-icon-navigation-car-pin_50x50" data-name="streamline-icon-navigation-car-pin 50x50">
        <g id="Trazado_3151" data-name="Trazado 3151">
          <path id="Path_12230" data-name="Path 12230" d="M329.434,242.116a3.793,3.793,0,1,1,3.794-3.793A3.8,3.8,0,0,1,329.434,242.116Zm0-5.587a1.793,1.793,0,1,0,1.794,1.794A1.8,1.8,0,0,0,329.434,236.529Z" fill="#9d9d9d"/>
        </g>
        <g id="Trazado_3152" data-name="Trazado 3152">
          <path id="Path_12231" data-name="Path 12231" d="M326.073,239.064h-7a1,1,0,0,1,0-2h7a1,1,0,0,1,0,2Z" fill="#9d9d9d"/>
        </g>
        <g id="Trazado_3153" data-name="Trazado 3153">
          <path id="Path_12232" data-name="Path 12232" d="M335.211,239.064h-2.138a1,1,0,0,1,0-2h2.138a.864.864,0,0,0,.862-.863v-2.637a2.5,2.5,0,0,0-2.5-2.5h-3.5a1,1,0,0,1-.895-.553l-2.474-4.94a2.712,2.712,0,0,0-2.44-1.507h-5.19a1,1,0,0,1,0-2h5.19a4.7,4.7,0,0,1,4.229,2.611l2.2,4.389h2.884a4.5,4.5,0,0,1,4.5,4.5V236.2A2.866,2.866,0,0,1,335.211,239.064Z" fill="#9d9d9d"/>
        </g>
        <g id="Trazado_3154" data-name="Trazado 3154">
          <path id="Path_12233" data-name="Path 12233" d="M329.073,231.064h-10a1,1,0,0,1,0-2h10a1,1,0,0,1,0,2Z" fill="#9d9d9d"/>
        </g>
      </g>
      <g id="streamline-icon-navigation-car-pin_50x50-2" data-name="streamline-icon-navigation-car-pin 50x50-2">
        <g id="Trazado_3151-2" data-name="Trazado 3151-2">
          <path id="Path_12234" data-name="Path 12234" d="M348.689,242.117a3.793,3.793,0,1,1,2.684-1.111,3.769,3.769,0,0,1-2.684,1.111Zm0-5.587a1.794,1.794,0,1,0,0,3.587h0a1.794,1.794,0,1,0,0-3.587Z" fill="#9d9d9d"/>
        </g>
        <g id="Trazado_3152-2" data-name="Trazado 3152-2">
          <path id="Path_12235" data-name="Path 12235" d="M359.073,239.064h-7a1,1,0,0,1,0-2h7a1,1,0,0,1,0,2Z" fill="#9d9d9d"/>
        </g>
        <g id="Trazado_3153-2" data-name="Trazado 3153-2">
          <path id="Path_12236" data-name="Path 12236" d="M345.073,239.064h-2.138a2.866,2.866,0,0,1-2.862-2.863v-2.637a4.506,4.506,0,0,1,4.5-4.5h2.881l2.2-4.391a4.7,4.7,0,0,1,4.224-2.609h5.194a1,1,0,0,1,0,2h-5.194a2.707,2.707,0,0,0-2.435,1.5l-2.477,4.943a1,1,0,0,1-.894.553h-3.5a2.5,2.5,0,0,0-2.5,2.5V236.2a.863.863,0,0,0,.862.863h2.138a1,1,0,0,1,0,2Z" fill="#9d9d9d"/>
        </g>
        <g id="Trazado_3154-2" data-name="Trazado 3154-2">
          <path id="Path_12237" data-name="Path 12237" d="M359.073,231.064h-10a1,1,0,0,1,0-2h10a1,1,0,0,1,0,2Z" fill="#9d9d9d"/>
        </g>
      </g>
      <g id="Grupo_15847" data-name="Grupo 15847">
        <g id="Trazado_3136" data-name="Trazado 3136">
          <path id="Path_12238" data-name="Path 12238" d="M338.573,223.564a1,1,0,0,1-1-1v-2a1,1,0,0,1,2,0v2A1,1,0,0,1,338.573,223.564Z" fill="#9d9d9d"/>
        </g>
        <g id="Trazado_3155" data-name="Trazado 3155">
          <path id="Path_12239" data-name="Path 12239" d="M342.945,224.881a1,1,0,0,1-.664-1.748l.648-.576a1,1,0,0,1,1.328,1.5l-.648.576A1,1,0,0,1,342.945,224.881Z" fill="#9d9d9d"/>
        </g>
        <g id="Trazado_3156" data-name="Trazado 3156">
          <path id="Path_12240" data-name="Path 12240" d="M335.18,225.168a1,1,0,0,1-.665-.253l-.648-.577a1,1,0,0,1,1.33-1.495l.648.578a1,1,0,0,1-.665,1.747Z" fill="#9d9d9d"/>
        </g>
      </g>
    </g>
    <g id="Grupo_15849" data-name="Grupo 15849" transform="translate(-20886.572 -22283.564)">
      <g id="Grupo_15839" data-name="Grupo 15839">
        <g id="Grupo_15836" data-name="Grupo 15836">
          <g id="Rectángulo_235" data-name="Rectángulo 235">
            <rect id="Rectangle_7085" data-name="Rectangle 7085" width="48" height="48" transform="translate(314.573 204.564)" fill="none"/>
          </g>
        </g>
      </g>
    </g>
  </g>
</svg>
