<svg id="Grupo_21062" data-name="Grupo 21062" xmlns="http://www.w3.org/2000/svg" width="30" height="30" viewBox="0 0 30 30">
  <g id="Group_16478" data-name="Group 16478" transform="translate(0 0)">
    <g id="Grupo_16475" data-name="Grupo 16475">
      <g id="Grupo_16321" data-name="Grupo 16321">
        <g id="Grupo_16277" data-name="Grupo 16277">
          <g id="Grupo_16269" data-name="Grupo 16269">
            <g id="Grupo_16259" data-name="Grupo 16259">
              <g id="Grupo_16234-2" data-name="Grupo 16234-2">
                <g id="Grupo_16193-2" data-name="Grupo 16193-2">
                  <g id="Grupo_15839-3" data-name="Grupo 15839-3">
                    <g id="Grupo_15836-3" data-name="Grupo 15836-3">
                      <g id="Rectángulo_235-3" data-name="Rectángulo 235-3">
                        <g id="Grupo_21595" data-name="Grupo 21595">
                          <rect id="Rectángulo_7117" data-name="Rectángulo 7117" width="30" height="30" fill="none"/>
                        </g>
                        <g id="Grupo_21596" data-name="Grupo 21596" transform="translate(0.079 0.079)">
                          <rect id="Rectángulo_7118" data-name="Rectángulo 7118" width="29.842" height="29.841" fill="none"/>
                        </g>
                      </g>
                    </g>
                  </g>
                </g>
              </g>
            </g>
          </g>
        </g>
      </g>
    </g>
    <g id="Grupo_21597" data-name="Grupo 21597" transform="translate(5.879 10.242)">
      <path id="Trazado_12276" data-name="Trazado 12276" d="M40.149,107.719a1.779,1.779,0,0,1-1.743-1.806V99.169a1.781,1.781,0,0,1,1.743-1.807H54.911a1.781,1.781,0,0,1,1.743,1.806v7.277a.542.542,0,1,1-1.083,0V99.169a.67.67,0,0,0-.661-.678H40.149a.67.67,0,0,0-.66.679v6.743a.67.67,0,0,0,.66.678h4.292a.565.565,0,0,1,0,1.129Z" transform="translate(-38.406 -97.362)" fill="#006c30"/>
    </g>
    <g id="Grupo_21598" data-name="Grupo 21598" transform="translate(10.242 21.101)">
      <path id="Trazado_12277" data-name="Trazado 12277" d="M44.822,115.469a.541.541,0,0,1-.541-.54v-1.535l-.587-.872a.545.545,0,0,1-.093-.4.534.534,0,0,1,.221-.351.54.54,0,0,1,.753.127l.689.967a.541.541,0,0,1,.1.313v1.754A.541.541,0,0,1,44.822,115.469Z" transform="translate(-43.594 -111.667)" fill="#006c30"/>
    </g>
    <g id="Grupo_21599" data-name="Grupo 21599" transform="translate(9.189 8.214)">
      <path id="Trazado_12278" data-name="Trazado 12278" d="M42.775,97.482a.542.542,0,0,1-.542-.541v-.817a1.763,1.763,0,0,1,1.167-1.7,2.139,2.139,0,0,1,.582-.1,1.746,1.746,0,0,1,1.738,1.743.538.538,0,0,1-.159.383.532.532,0,0,1-.382.16.542.542,0,0,1-.542-.539.664.664,0,0,0-.664-.664.67.67,0,0,0-.216.036.691.691,0,0,0-.441.663v.832A.542.542,0,0,1,42.775,97.482Z" transform="translate(-42.232 -94.329)" fill="#006c30"/>
    </g>
    <g id="Grupo_21600" data-name="Grupo 21600" transform="translate(14.053 6.335)">
      <path id="Trazado_12279" data-name="Trazado 12279" d="M52.069,96.972a.542.542,0,0,1-.542-.541V93.659a.919.919,0,0,0-.785-.725,1.017,1.017,0,0,0-.873.7l-.006,2.8a.542.542,0,0,1-1.083,0V93.59a.615.615,0,0,1,.014-.121,2.084,2.084,0,0,1,1.886-1.62h.075A1.986,1.986,0,0,1,52.6,93.5a.525.525,0,0,1,.009.093v2.841A.541.541,0,0,1,52.069,96.972Z" transform="translate(-48.78 -91.849)" fill="#006c30"/>
    </g>
    <g id="Grupo_21601" data-name="Grupo 21601" transform="translate(11.444 6.989)">
      <path id="Trazado_12280" data-name="Trazado 12280" d="M48.561,97.107a.542.542,0,0,1-.542-.541V94.524a.91.91,0,0,0-.784-.726,1.022,1.022,0,0,0-.874.7l-.006,2.066a.542.542,0,0,1-1.083,0V94.455a.465.465,0,0,1,.014-.118,2.084,2.084,0,0,1,1.885-1.623h.075a1.988,1.988,0,0,1,1.847,1.648.722.722,0,0,1,.007.094v2.111A.541.541,0,0,1,48.561,97.107Z" transform="translate(-45.273 -92.713)" fill="#006c30"/>
    </g>
    <g id="Grupo_21602" data-name="Grupo 21602" transform="translate(16.63 6.989)">
      <path id="Trazado_12281" data-name="Trazado 12281" d="M55.532,97.107a.541.541,0,0,1-.541-.541V94.524a.911.911,0,0,0-.785-.726,1.008,1.008,0,0,0-.873.7l-.006,2.066a.542.542,0,0,1-1.083,0V94.455a.516.516,0,0,1,.014-.12,2.084,2.084,0,0,1,1.885-1.622h.076a1.987,1.987,0,0,1,1.846,1.648.535.535,0,0,1,.009.094v2.111A.542.542,0,0,1,55.532,97.107Z" transform="translate(-52.244 -92.713)" fill="#006c30"/>
    </g>
    <g id="Grupo_21603" data-name="Grupo 21603" transform="translate(15.226 14.513)">
      <path id="Trazado_12282" data-name="Trazado 12282" d="M53.8,113.734a.542.542,0,0,1-.542-.54v-.735a2,2,0,0,1,.768-1.592l1.619-1.308a.931.931,0,0,0,.361-.743v-3.843a.658.658,0,0,0-.647-.655c-.5,0-.651.576-.685.751l-.227,1.656a2.153,2.153,0,0,1-1.033,1.575l-1.291.77a1.1,1.1,0,0,0-.526.947v1.117a.542.542,0,0,1-1.084,0v-1.113a2.191,2.191,0,0,1,1.053-1.88l1.292-.769a1.08,1.08,0,0,0,.516-.79l.23-1.686a1.855,1.855,0,0,1,1.766-1.66,1.745,1.745,0,0,1,1.719,1.733v3.845a2.006,2.006,0,0,1-.768,1.592L54.7,111.713a.924.924,0,0,0-.361.743v.738A.541.541,0,0,1,53.8,113.734Z" transform="translate(-50.509 -103.236)" fill="#006c30"/>
    </g>
    <g id="Grupo_21604" data-name="Grupo 21604" transform="translate(12.488 12.913)">
      <path id="Trazado_12283" data-name="Trazado 12283" d="M48.8,106.8a2.318,2.318,0,0,1-1.825-.916.542.542,0,0,1,.1-.758.529.529,0,0,1,.328-.112.543.543,0,0,1,.431.214,1.253,1.253,0,0,0,.99.489c.728,0,1.179-.363,1.179-.7s-.456-.695-1.111-.695a1.819,1.819,0,1,1,0-3.56l.1,0a2.317,2.317,0,0,1,1.816.9.541.541,0,0,1-.857.661,1.251,1.251,0,0,0-.985-.483c-.74,0-1.183.355-1.183.7s.446.7,1.11.7a1.816,1.816,0,1,1,0,3.553Z" transform="translate(-46.7 -100.764)" fill="red"/>
    </g>
    <g id="Grupo_21605" data-name="Grupo 21605" transform="translate(14.138 12.42)">
      <path id="Trazado_12284" data-name="Trazado 12284" d="M49.322,100.982a.541.541,0,1,1,.541-.541A.543.543,0,0,1,49.322,100.982Z" transform="translate(-48.78 -99.9)" fill="red"/>
    </g>
    <g id="Grupo_21606" data-name="Grupo 21606" transform="translate(14.138 18.432)">
      <path id="Trazado_12285" data-name="Trazado 12285" d="M49.322,109.014a.541.541,0,1,1,.541-.54A.542.542,0,0,1,49.322,109.014Z" transform="translate(-48.78 -107.932)" fill="red"/>
    </g>
  </g>
</svg>
