<svg id="Grupo_21712" data-name="Grupo 21712" xmlns="http://www.w3.org/2000/svg" width="30" height="30" viewBox="0 0 30 30">
  <g id="Grupo_16254" data-name="Grupo 16254" transform="translate(0 0)">
    <g id="Grupo_16234" data-name="Grupo 16234">
      <g id="Grupo_16193" data-name="Grupo 16193">
        <g id="Grupo_15839" data-name="Grupo 15839">
          <g id="Grupo_15836" data-name="Grupo 15836">
            <g id="Rect치ngulo_235" data-name="Rect치ngulo 235">
              <g id="Grupo_21646" data-name="Grupo 21646">
                <rect id="Rect치ngulo_7130" data-name="Rect치ngulo 7130" width="30" height="30" fill="none"/>
              </g>
            </g>
          </g>
        </g>
      </g>
    </g>
  </g>
  <g id="Grupo_21652" data-name="Grupo 21652" transform="translate(7.124 5.47)">
    <g id="Grupo_21647" data-name="Grupo 21647" transform="translate(3.309 4.633)">
      <path id="Trazado_12323" data-name="Trazado 12323" d="M229.506,33.318a.6.6,0,1,1,0-1.191h7.28a.6.6,0,1,1,0,1.191Z" transform="translate(-228.91 -32.127)" fill="#006c30"/>
    </g>
    <g id="Grupo_21648" data-name="Grupo 21648" transform="translate(3.309 6.976)">
      <path id="Trazado_12324" data-name="Trazado 12324" d="M229.506,36.268a.6.6,0,1,1,0-1.191h7.28a.6.6,0,1,1,0,1.191Z" transform="translate(-228.91 -35.077)" fill="#006c30"/>
    </g>
    <g id="Grupo_21649" data-name="Grupo 21649" transform="translate(3.309 9.266)">
      <path id="Trazado_12325" data-name="Trazado 12325" d="M229.506,39.152a.6.6,0,1,1,0-1.191h4.633a.6.6,0,1,1,0,1.191Z" transform="translate(-228.91 -37.961)" fill="red"/>
    </g>
    <g id="Grupo_21650" data-name="Grupo 21650">
      <path id="Trazado_12326" data-name="Trazado 12326" d="M225.34,45.355a.6.6,0,0,1-.6-.6V26.89a.6.6,0,0,1,.6-.6H239.9a.6.6,0,0,1,.6.6v17.87a.6.6,0,0,1-.6.6Zm.6-1.191H239.3V27.485H225.935Z" transform="translate(-224.744 -26.294)" fill="#006c30"/>
    </g>
    <g id="Grupo_21651" data-name="Grupo 21651" transform="translate(0 14.56)">
      <path id="Trazado_12327" data-name="Trazado 12327" d="M225.34,45.818a.6.6,0,1,1,0-1.191H239.9a.6.6,0,1,1,0,1.191Z" transform="translate(-224.744 -44.627)" fill="#006c30"/>
    </g>
  </g>
</svg>
