<svg id="Grupo_21705" data-name="Grupo 21705" xmlns="http://www.w3.org/2000/svg" xmlns:xlink="http://www.w3.org/1999/xlink" width="30" height="30" viewBox="0 0 30 30">
  <defs>
    <clipPath id="clip-path">
      <rect id="Rect치ngulo_7125" data-name="Rect치ngulo 7125" width="30" height="30" fill="none"/>
    </clipPath>
    <clipPath id="clip-path-2">
      <rect id="Rect치ngulo_7124" data-name="Rect치ngulo 7124" width="7.211" height="7.211" fill="none"/>
    </clipPath>
  </defs>
  <g id="Grupo_21625" data-name="Grupo 21625" transform="translate(0 0)" clip-path="url(#clip-path)">
    <g id="Grupo_21624" data-name="Grupo 21624" transform="translate(6.062 6.193)">
      <g id="Grupo_21618" data-name="Grupo 21618" transform="translate(0 7.615)">
        <g id="Trazado_3621" data-name="Trazado 3621">
          <path id="Trazado_12306" data-name="Trazado 12306" d="M125.771,111.714a.563.563,0,0,1-.562-.563v-8.872a.562.562,0,1,1,1.125,0v8.872A.563.563,0,0,1,125.771,111.714Z" transform="translate(-125.209 -101.717)" fill="#006c30"/>
        </g>
        <g id="Trazado_3622" data-name="Trazado 3622" transform="translate(0 1.613)">
          <path id="Trazado_12307" data-name="Trazado 12307" d="M141.4,111.446H125.771a.563.563,0,1,1,0-1.125h15a2.668,2.668,0,0,0-2.6-2.1h-3.8a.563.563,0,0,1-.562-.562,2.667,2.667,0,0,0-2.664-2.664h-5.376a.563.563,0,1,1,0-1.125h5.376a3.8,3.8,0,0,1,3.747,3.227h3.515a.526.526,0,0,1,.146.02,3.794,3.794,0,0,1,3.405,3.769A.563.563,0,0,1,141.4,111.446Z" transform="translate(-125.209 -103.868)" fill="#006c30"/>
        </g>
        <g id="Trazado_3623" data-name="Trazado 3623" transform="translate(5.647 4.84)">
          <path id="Trazado_12308" data-name="Trazado 12308" d="M136.527,109.295H133.3a.562.562,0,0,1,0-1.125h3.227a.562.562,0,1,1,0,1.125Z" transform="translate(-132.738 -108.17)" fill="#006c30"/>
        </g>
      </g>
      <g id="Grupo_21621" data-name="Grupo 21621" transform="translate(8.504 2.16)">
        <g id="Grupo_21620" data-name="Grupo 21620" clip-path="url(#clip-path-2)">
          <g id="Group_21146" data-name="Group 21146" transform="translate(2.093 0.602)">
            <g id="Grupo_21619" data-name="Grupo 21619">
              <g id="Path_12116" data-name="Path 12116" transform="translate(0 0.82)">
                <path id="Trazado_12309" data-name="Trazado 12309" d="M140.842,100.543a1.634,1.634,0,0,1-1.295-.659.525.525,0,1,1,.817-.659.577.577,0,0,0,.689.23.512.512,0,0,0,.34-.313h0s-.108-.127-.561-.177c-1.21-.135-1.441-.787-1.483-1.062a1.4,1.4,0,0,1,.909-1.418,1.618,1.618,0,0,1,1.971.506.525.525,0,1,1-.813.664.577.577,0,0,0-.694-.225.506.506,0,0,0-.335.313h0s.1.128.561.179c1.213.136,1.441.789,1.483,1.064a1.4,1.4,0,0,1-.915,1.415A1.683,1.683,0,0,1,140.842,100.543Z" transform="translate(-139.338 -96.34)" fill="red"/>
              </g>
              <g id="Line_21" data-name="Line 21" transform="translate(1.028)">
                <path id="Trazado_12310" data-name="Trazado 12310" d="M141.234,97.042a.526.526,0,0,1-.526-.525v-.745a.525.525,0,1,1,1.051,0v.745A.526.526,0,0,1,141.234,97.042Z" transform="translate(-140.708 -95.246)" fill="red"/>
              </g>
              <g id="Line_22" data-name="Line 22" transform="translate(1.028 4.003)">
                <path id="Trazado_12311" data-name="Trazado 12311" d="M141.234,102.378a.525.525,0,0,1-.526-.525v-.745a.525.525,0,0,1,1.051,0v.745A.525.525,0,0,1,141.234,102.378Z" transform="translate(-140.708 -100.583)" fill="red"/>
              </g>
            </g>
          </g>
        </g>
      </g>
      <g id="Grupo_21622" data-name="Grupo 21622" transform="translate(6.85)">
        <path id="Trazado_12312" data-name="Trazado 12312" d="M139.591,103.115a5.749,5.749,0,0,1-1.993-.354.562.562,0,1,1,.388-1.055A4.652,4.652,0,1,0,135.41,95.3a.563.563,0,1,1-1.011-.493,5.776,5.776,0,1,1,5.191,8.31Z" transform="translate(-134.342 -91.563)" fill="#006c30"/>
      </g>
      <g id="Grupo_21623" data-name="Grupo 21623" transform="translate(6.209 4.964)">
        <ellipse id="Elipse_1346" data-name="Elipse 1346" cx="0.623" cy="0.623" rx="0.623" ry="0.623" fill="#006c30"/>
      </g>
    </g>
  </g>
</svg>
