<svg id="Grupo_21710" data-name="Grupo 21710" xmlns="http://www.w3.org/2000/svg" width="30" height="30" viewBox="0 0 30 30">
  <g id="Componente_50_1" data-name="Componente 50 1" transform="translate(0 0)">
    <g id="Grupo_15850" data-name="Grupo 15850" transform="translate(2.382 8.952)">
      <g id="streamline-icon-navigation-car-pin_50x50" data-name="streamline-icon-navigation-car-pin 50x50" transform="translate(0 1.655)">
        <g id="Trazado_3151" data-name="Trazado 3151" transform="translate(5.008 8.249)">
          <path id="Trazado_12292" data-name="Trazado 12292" d="M312.706,48.238a2.445,2.445,0,1,1,2.445-2.445A2.448,2.448,0,0,1,312.706,48.238Zm0-3.7a1.254,1.254,0,1,0,1.253,1.254A1.255,1.255,0,0,0,312.706,44.539Z" transform="translate(-310.261 -43.348)" fill="#006c30"/>
        </g>
        <g id="Trazado_3152" data-name="Trazado 3152" transform="translate(0 9.928)">
          <path id="Trazado_12293" data-name="Trazado 12293" d="M309.183,46.652h-4.633a.6.6,0,1,1,0-1.191h4.633a.6.6,0,1,1,0,1.191Z" transform="translate(-303.955 -45.461)" fill="#006c30"/>
        </g>
        <g id="Trazado_3153" data-name="Trazado 3153">
          <path id="Trazado_12294" data-name="Trazado 12294" d="M315.232,44.08h-1.415a.6.6,0,0,1,0-1.191h1.415a.637.637,0,0,0,.636-.637V40.506a1.722,1.722,0,0,0-1.721-1.721H311.83a.6.6,0,0,1-.532-.329l-1.638-3.271a1.86,1.86,0,0,0-1.673-1.033h-3.436a.6.6,0,1,1,0-1.191h3.436a3.047,3.047,0,0,1,2.739,1.692l1.472,2.941h1.949a2.915,2.915,0,0,1,2.912,2.912v1.746A1.83,1.83,0,0,1,315.232,44.08Z" transform="translate(-303.955 -32.961)" fill="#006c30"/>
        </g>
        <g id="Trazado_3154" data-name="Trazado 3154" transform="translate(0 4.633)">
          <path id="Trazado_12295" data-name="Trazado 12295" d="M311.169,39.985h-6.618a.6.6,0,1,1,0-1.191h6.618a.6.6,0,1,1,0,1.191Z" transform="translate(-303.955 -38.794)" fill="#006c30"/>
        </g>
      </g>
      <g id="streamline-icon-navigation-car-pin_50x50-2" data-name="streamline-icon-navigation-car-pin 50x50-2" transform="translate(12.792 1.655)">
        <g id="Trazado_3151-2" data-name="Trazado 3151-2" transform="translate(3.193 8.25)">
          <path id="Trazado_12296" data-name="Trazado 12296" d="M328.753,48.239a2.444,2.444,0,1,1,1.73-.717,2.428,2.428,0,0,1-1.73.717Zm0-3.7a1.254,1.254,0,1,0,0,2.507h0a1.254,1.254,0,0,0,1.252-1.254h0A1.254,1.254,0,0,0,328.753,44.54Z" transform="translate(-326.308 -43.349)" fill="#006c30"/>
        </g>
        <g id="Trazado_3152-2" data-name="Trazado 3152-2" transform="translate(7.281 9.928)">
          <path id="Trazado_12297" data-name="Trazado 12297" d="M336.683,46.652h-4.633a.6.6,0,1,1,0-1.191h4.633a.6.6,0,0,1,0,1.191Z" transform="translate(-331.455 -45.461)" fill="#006c30"/>
        </g>
        <g id="Trazado_3153-2" data-name="Trazado 3153-2">
          <path id="Trazado_12298" data-name="Trazado 12298" d="M325.532,44.08h-1.415a1.831,1.831,0,0,1-1.828-1.828V40.506a2.916,2.916,0,0,1,2.912-2.912h1.95l1.472-2.943a3.045,3.045,0,0,1,2.737-1.69H334.8a.6.6,0,0,1,0,1.191h-3.437a1.859,1.859,0,0,0-1.671,1.032l-1.638,3.272a.6.6,0,0,1-.533.329H325.2a1.723,1.723,0,0,0-1.721,1.721v1.746a.638.638,0,0,0,.637.637h1.415a.6.6,0,1,1,0,1.191Z" transform="translate(-322.288 -32.961)" fill="#006c30"/>
        </g>
        <g id="Trazado_3154-2" data-name="Trazado 3154-2" transform="translate(5.295 4.633)">
          <path id="Trazado_12299" data-name="Trazado 12299" d="M336.169,39.985h-6.618a.6.6,0,1,1,0-1.191h6.618a.6.6,0,0,1,0,1.191Z" transform="translate(-328.955 -38.794)" fill="#006c30"/>
        </g>
      </g>
      <g id="Grupo_15847" data-name="Grupo 15847" transform="translate(9.347)">
        <g id="Trazado_3136" data-name="Trazado 3136" transform="translate(2.675)">
          <path id="Trazado_12300" data-name="Trazado 12300" d="M320.8,33.392a.6.6,0,0,1-.6-.6V31.473a.6.6,0,1,1,1.191,0V32.8A.6.6,0,0,1,320.8,33.392Z" transform="translate(-320.205 -30.877)" fill="red"/>
        </g>
        <g id="Trazado_3155" data-name="Trazado 3155" transform="translate(5.569 1.815)">
          <path id="Trazado_12301" data-name="Trazado 12301" d="M324.445,34.734a.6.6,0,0,1-.4-1.04l.428-.38a.6.6,0,1,1,.791.89l-.428.38A.592.592,0,0,1,324.445,34.734Z" transform="translate(-323.849 -33.162)" fill="red"/>
        </g>
        <g id="Trazado_3156" data-name="Trazado 3156" transform="translate(0 2.004)">
          <path id="Trazado_12302" data-name="Trazado 12302" d="M317.862,34.973a.6.6,0,0,1-.4-.151l-.429-.382a.6.6,0,0,1,.793-.89l.429.382a.6.6,0,0,1-.4,1.04Z" transform="translate(-316.837 -33.4)" fill="red"/>
        </g>
      </g>
    </g>
    <g id="Grupo_15849" data-name="Grupo 15849">
      <g id="Grupo_15839" data-name="Grupo 15839">
        <g id="Grupo_15836" data-name="Grupo 15836">
          <g id="Rect치ngulo_235" data-name="Rect치ngulo 235">
            <rect id="Rect치ngulo_7120" data-name="Rect치ngulo 7120" width="30" height="30" fill="none"/>
          </g>
        </g>
      </g>
    </g>
  </g>
</svg>
