<svg xmlns="http://www.w3.org/2000/svg" width="48" height="48" viewBox="0 0 48 48">
  <g id="Group_21535" data-name="Group 21535" transform="translate(20401 22079)">
    <g id="Group_21459" data-name="Group 21459" transform="translate(-20624.285 -22418.395)">
      <g id="Group_21454" data-name="Group 21454">
        <rect id="Rectangle_7095" data-name="Rectangle 7095" width="48" height="48" transform="translate(223.286 339.395)" fill="none"/>
      </g>
      <g id="Group_21458" data-name="Group 21458">
        <g id="Trazado_3628" data-name="Trazado 3628">
          <path id="Path_12272" data-name="Path 12272" d="M247.286,381.087c-3.541,0-6.42-2.465-6.42-5.5a1.049,1.049,0,1,1,2.1,0c0,1.873,1.939,3.4,4.321,3.4s4.32-1.524,4.32-3.4a1.049,1.049,0,1,1,2.1,0C253.705,378.622,250.826,381.087,247.286,381.087Z" fill="#9d9d9d"/>
        </g>
        <g id="Group_21455" data-name="Group 21455">
          <path id="Path_12273" data-name="Path 12273" d="M259.888,373.568H234.683a1.1,1.1,0,1,1,0-2.2h25.205a1.1,1.1,0,1,1,0,2.2Z" fill="#9d9d9d"/>
        </g>
        <g id="Group_21456" data-name="Group 21456">
          <path id="Path_12274" data-name="Path 12274" d="M256.74,369.941h-.04a1.1,1.1,0,0,1-1.061-1.138c0-.272.006-9.183.006-9.292a8.359,8.359,0,0,0-16.718,0c0,.11,0,9.05.005,9.314a1.1,1.1,0,0,1-1.079,1.114h-.022a1.1,1.1,0,0,1-1.1-1.069c0-.133-.005-9.268-.005-9.36a10.558,10.558,0,1,1,21.116,0c0,.092,0,9.229-.006,9.37A1.1,1.1,0,0,1,256.74,369.941Z" fill="#9d9d9d"/>
        </g>
        <g id="Group_21457" data-name="Group 21457">
          <path id="Path_12275" data-name="Path 12275" d="M249.894,350.462a1.1,1.1,0,0,1-1.1-1.1,1.509,1.509,0,0,0-3.017,0,1.1,1.1,0,1,1-2.2,0,3.708,3.708,0,1,1,7.416,0A1.1,1.1,0,0,1,249.894,350.462Z" fill="#9d9d9d"/>
        </g>
      </g>
    </g>
  </g>
</svg>
