<svg id="Grupo_21703" data-name="Grupo 21703" xmlns="http://www.w3.org/2000/svg" width="30" height="30" viewBox="0 0 30 30">
  <g id="Grupo_16420" data-name="Grupo 16420" transform="translate(0 0)">
    <g id="Grupo_16411" data-name="Grupo 16411">
      <g id="Grupo_16388" data-name="Grupo 16388">
        <g id="Grupo_16386" data-name="Grupo 16386">
          <g id="Grupo_16384" data-name="Grupo 16384">
            <g id="Grupo_16381" data-name="Grupo 16381">
              <g id="Grupo_16378" data-name="Grupo 16378">
                <g id="Grupo_16375" data-name="Grupo 16375">
                  <g id="Grupo_16321" data-name="Grupo 16321">
                    <g id="Grupo_16277" data-name="Grupo 16277">
                      <g id="Grupo_16269" data-name="Grupo 16269">
                        <g id="Grupo_16259" data-name="Grupo 16259">
                          <g id="Grupo_16234" data-name="Grupo 16234">
                            <g id="Grupo_16193" data-name="Grupo 16193">
                              <g id="Grupo_15839" data-name="Grupo 15839">
                                <g id="Grupo_15836" data-name="Grupo 15836">
                                  <g id="Rectángulo_235" data-name="Rectángulo 235">
                                    <rect id="Rectángulo_7119" data-name="Rectángulo 7119" width="30" height="30" fill="none"/>
                                  </g>
                                </g>
                              </g>
                            </g>
                          </g>
                        </g>
                      </g>
                    </g>
                  </g>
                </g>
              </g>
            </g>
          </g>
        </g>
      </g>
    </g>
  </g>
  <g id="Grupo_21607" data-name="Grupo 21607" transform="translate(6.409 5.164)">
    <g id="streamline-icon-valve-caution-1_50x50" data-name="streamline-icon-valve-caution-1 50x50" transform="translate(0 4.328)">
      <g id="Trazado_4776" data-name="Trazado 4776">
        <path id="Trazado_12286" data-name="Trazado 12286" d="M238.144,111.713h-11.52a2.8,2.8,0,0,1-2.516-1.584,2.845,2.845,0,0,1,.143-2.659l5.366-9.457a3.233,3.233,0,0,1,2.935-1.641,3.329,3.329,0,0,1,2.748,1.734l5.36,9.446a2.8,2.8,0,0,1-.133,2.972A2.847,2.847,0,0,1,238.144,111.713Zm-5.683-14.15a2.07,2.07,0,0,0-1.808,1.039l-5.366,9.457a1.659,1.659,0,0,0-.11,1.544,1.613,1.613,0,0,0,1.448.919h11.519a1.664,1.664,0,0,0,1.4-.667,1.614,1.614,0,0,0,.082-1.714h0l-5.36-9.446a2.135,2.135,0,0,0-1.744-1.132Z" transform="translate(-223.844 -96.37)" fill="#006c30"/>
      </g>
      <g id="Línea_326" data-name="Línea 326" transform="translate(7.995 3.278)">
        <path id="Trazado_12287" data-name="Trazado 12287" d="M234.506,106.664a.6.6,0,0,1-.6-.6v-4.975a.6.6,0,1,1,1.191,0v4.975A.6.6,0,0,1,234.506,106.664Z" transform="translate(-233.91 -100.498)" fill="red"/>
      </g>
      <g id="Elipse_163" data-name="Elipse 163" transform="translate(7.916 11.023)">
        <ellipse id="Elipse_1345" data-name="Elipse 1345" cx="0.675" cy="0.675" rx="0.675" ry="0.675" fill="red"/>
      </g>
    </g>
    <g id="streamline-icon-auto-pilot-car-radius_50x50" data-name="streamline-icon-auto-pilot-car-radius 50x50" transform="translate(0.76)">
      <g id="Trazado_3485" data-name="Trazado 3485" transform="translate(0 0.241)">
        <path id="Trazado_12288" data-name="Trazado 12288" d="M225.4,96.274a.6.6,0,0,1-.6-.6,4.459,4.459,0,0,1,4.455-4.454.6.6,0,0,1,0,1.191,3.267,3.267,0,0,0-3.263,3.263A.6.6,0,0,1,225.4,96.274Z" transform="translate(-224.801 -91.224)" fill="#006c30"/>
      </g>
      <g id="Trazado_3484" data-name="Trazado 3484" transform="translate(1.93 2.171)">
        <path id="Trazado_12289" data-name="Trazado 12289" d="M227.827,96.774a.6.6,0,0,1-.6-.6,2.526,2.526,0,0,1,2.523-2.523.6.6,0,0,1,0,1.191,1.333,1.333,0,0,0-1.332,1.332A.6.6,0,0,1,227.827,96.774Z" transform="translate(-227.231 -93.655)" fill="#006c30"/>
      </g>
      <g id="Trazado_3487" data-name="Trazado 3487" transform="translate(10.448)">
        <path id="Trazado_12290" data-name="Trazado 12290" d="M242.574,95.971a.6.6,0,0,1-.6-.6,3.267,3.267,0,0,0-3.263-3.263h-.164a.6.6,0,1,1,0-1.191h.164a4.46,4.46,0,0,1,4.455,4.455A.6.6,0,0,1,242.574,95.971Z" transform="translate(-237.956 -90.921)" fill="#006c30"/>
      </g>
      <g id="Trazado_3486" data-name="Trazado 3486" transform="translate(10.612 2.171)">
        <path id="Trazado_12291" data-name="Trazado 12291" d="M240.687,96.774a.6.6,0,0,1-.6-.6,1.334,1.334,0,0,0-1.333-1.332.6.6,0,1,1,0-1.191,2.527,2.527,0,0,1,2.524,2.523A.6.6,0,0,1,240.687,96.774Z" transform="translate(-238.163 -93.655)" fill="#006c30"/>
      </g>
    </g>
  </g>
</svg>
