<svg xmlns="http://www.w3.org/2000/svg" width="29.672" height="28.572" viewBox="0 0 29.672 28.572">
  <g id="streamline-icon-business-contract-approve_50x50" data-name="streamline-icon-business-contract-approve 50x50" transform="translate(0)">
    <g id="Trazado_3613" data-name="Trazado 3613" transform="translate(0 1.741)">
      <path id="Path_12421" data-name="Path 12421" d="M519.253,644.959a.931.931,0,0,1-.6-.221l-.472-.4c-2.145-1.8-4.362-3.67-4.308-5.975v-4.956l-1.58-1.993a.933.933,0,0,1,1.462-1.158l1.781,2.246a.934.934,0,0,1,.2.58v5.3c-.034,1.433,1.836,3.006,3.643,4.527l.477.4a.932.932,0,0,1-.6,1.644Z" transform="translate(-512.09 -629.903)" fill="#fff"/>
    </g>
    <g id="Trazado_3614" data-name="Trazado 3614" transform="translate(5.278)">
      <path id="Path_12422" data-name="Path 12422" d="M522.092,640.349a2.454,2.454,0,0,1-1.746-.76l-2.075-2.126a.932.932,0,1,1,1.333-1.3l2.075,2.125a.542.542,0,0,0,.531.176.549.549,0,0,0,.367-.4.513.513,0,0,0-.134-.468l-3.261-3.331a.932.932,0,0,1-.267-.652v-1.654a6.461,6.461,0,0,0-1.007-2.47.933.933,0,0,1,1.548-1.042,8.342,8.342,0,0,1,1.311,3.273.981.981,0,0,1,.013.157v1.355l3,3.062a2.375,2.375,0,0,1,.623,2.161,2.4,2.4,0,0,1-1.5,1.741A2.165,2.165,0,0,1,522.092,640.349Z" transform="translate(-517.75 -628.036)" fill="#fff"/>
    </g>
    <g id="Trazado_3615" data-name="Trazado 3615" transform="translate(6.444 9.292)">
      <path id="Path_12423" data-name="Path 12423" d="M530.19,655.717h-8.476A2.717,2.717,0,0,1,519,653V638.933a.932.932,0,1,1,1.865,0V653a.849.849,0,0,0,.849.848h8.476a.932.932,0,0,1,0,1.865Z" transform="translate(-519 -638)" fill="#fff"/>
    </g>
    <g id="Trazado_3615-2" data-name="Trazado 3615" transform="translate(8.434 6.44)">
      <path id="Path_12424" data-name="Path 12424" d="M533.256,646.132a.932.932,0,0,1-.932-.932v-7.543a.85.85,0,0,0-.849-.849h-9.409a.932.932,0,0,1,0-1.865h9.409a2.717,2.717,0,0,1,2.714,2.714V645.2A.932.932,0,0,1,533.256,646.132Z" transform="translate(-521.134 -634.942)" fill="#fff"/>
    </g>
    <g id="Trazado_3616" data-name="Trazado 3616" transform="translate(17.394 12.418)">
      <path id="Path_12425" data-name="Path 12425" d="M536.807,657.506a.931.931,0,0,1-.775-.413,8.351,8.351,0,0,1-1.306-3.266.975.975,0,0,1-.013-.157V652.5l-3.2-3.264a2.008,2.008,0,0,1-.177-.186,2.466,2.466,0,0,1,3.749-3.206l.563.575v-4.13a.932.932,0,0,1,1.535-.713c2.253,1.9,4.113,3.657,4.06,5.858v4.834l1.58,1.992a.933.933,0,0,1-1.462,1.159l-1.781-2.247a.931.931,0,0,1-.2-.579v-5.181c.023-.978-.767-2-1.865-3.053V648.7a.933.933,0,0,1-1.6.653l-2.2-2.256a.622.622,0,0,0-.889-.111.6.6,0,0,0-.066.848c.011.009.078.079.09.089l3.469,3.535a.935.935,0,0,1,.267.654v1.475a6.487,6.487,0,0,0,1,2.465.933.933,0,0,1-.773,1.453Z" transform="translate(-530.743 -641.353)" fill="#fff"/>
    </g>
    <g id="Trazado_3617" data-name="Trazado 3617" transform="translate(10.174 20.481)">
      <path id="Path_12426" data-name="Path 12426" d="M528.595,651.865h-4.662a.932.932,0,1,1,0-1.865h4.662a.932.932,0,0,1,0,1.865Z" transform="translate(-523 -650)" fill="#fff"/>
    </g>
    <g id="Trazado_3618" data-name="Trazado 3618" transform="translate(10.174 15.819)">
      <path id="Path_12427" data-name="Path 12427" d="M525.8,646.865h-1.865a.932.932,0,1,1,0-1.865H525.8a.932.932,0,0,1,0,1.865Z" transform="translate(-523 -645)" fill="#fff"/>
    </g>
  </g>
</svg>
