<svg xmlns="http://www.w3.org/2000/svg" width="26.785" height="26.786" viewBox="0 0 26.785 26.786">
  <g id="Group_21811" data-name="Group 21811" transform="translate(1.049 10.032)">
    <g id="Group_16448" data-name="Group 16448" transform="translate(-1.049 -10.032)">
      <g id="Grupo_16447" data-name="Grupo 16447" transform="translate(0 0)">
        <g id="streamline-icon-factory-manufacturing-control_50x50" data-name="streamline-icon-factory-manufacturing-control 50x50" transform="translate(0 8.925)">
          <g id="Trazado_4791" data-name="Trazado 4791" transform="translate(0 4.587)">
            <path id="Path_12418" data-name="Path 12418" d="M468.321,656.274a.909.909,0,0,1-.887-.74l-.753-3.833-.784.885a5.769,5.769,0,0,1-4.321,1.96c-.1.005-.245,0-.369-.011a5.753,5.753,0,0,1-4.425-2.516l-1.822-2.79a3.106,3.106,0,0,1-.5-2.34,3.045,3.045,0,0,1,1.27-1.96,3,3,0,0,1,4.191.816l1.662,2.544,3.8-4.274a2.986,2.986,0,0,1,2.04-.991.893.893,0,0,1,.2-.023h8.22a3.739,3.739,0,0,1,3.657,3.081l1.677,9.1a.906.906,0,1,1-1.78.338l-1.677-9.1a1.919,1.919,0,0,0-1.876-1.581h-8.049a1.015,1.015,0,0,1-.18.018,1.119,1.119,0,0,0-.888.392l-3.97,4.468a1.593,1.593,0,0,1-2.51-.154l-1.826-2.794a1.193,1.193,0,0,0-1.671-.318,1.217,1.217,0,0,0-.507.782,1.232,1.232,0,0,0,.187.919l1.853,2.832a3.947,3.947,0,0,0,3.033,1.714c.09.005.2,0,.261.007a3.969,3.969,0,0,0,2.975-1.349l1.994-2.248a.891.891,0,0,1,.912-.271.908.908,0,0,1,.648.706l1.106,5.63a.918.918,0,0,1-.71,1.081A.848.848,0,0,1,468.321,656.274Z" transform="translate(-454.408 -643)" fill="#fff"/>
          </g>
          <g id="Trazado_4792" data-name="Trazado 4792" transform="translate(0.359)">
            <path id="Path_12419" data-name="Path 12419" d="M459.637,647.178a.919.919,0,0,1-.793-.451l-3.918-6.632a.92.92,0,0,1,.893-1.382l5.721.636,2.681-1.252a.92.92,0,0,1,.779,1.667l-2.916,1.361a.92.92,0,0,1-.491.081l-4.147-.462,2.982,5.047a.918.918,0,0,1-.791,1.387Z" transform="translate(-454.798 -638.011)" fill="#fff"/>
          </g>
        </g>
        <g id="streamline-icon-professions-man-construction-1_50x50" data-name="streamline-icon-professions-man-construction-1 50x50" transform="translate(8.328)">
          <g id="Trazado_4865" data-name="Trazado 4865">
            <path id="Path_12420" data-name="Path 12420" d="M471.654,642.206c-4.269,0-7.743-3.118-7.743-6.951s3.473-6.95,7.743-6.95,7.743,3.117,7.743,6.95S475.924,642.206,471.654,642.206Zm0-12.062c-3.255,0-5.9,2.292-5.9,5.111s2.648,5.112,5.9,5.112,5.9-2.292,5.9-5.112S474.91,630.144,471.654,630.144Z" transform="translate(-463.912 -628.305)" fill="#fff"/>
          </g>
        </g>
      </g>
    </g>
  </g>
</svg>
