<svg xmlns="http://www.w3.org/2000/svg" width="120" height="120" viewBox="0 0 120 120">
  <g id="Grupo_22963" data-name="Grupo 22963" transform="translate(-173.969 -162)">
    <g id="Grupo_22930" data-name="Grupo 22930" transform="translate(173.969 162)">
      <g id="Grupo_22967" data-name="Grupo 22967">
        <g id="Grupo_15836" data-name="Grupo 15836">
          <g id="Rect치ngulo_235" data-name="Rect치ngulo 235" transform="translate(0 0)">
            <rect id="Rect치ngulo_7532" data-name="Rect치ngulo 7532" width="120" height="120" transform="translate(0 0)" fill="none"/>
          </g>
        </g>
        <g id="Grupo_22966" data-name="Grupo 22966" transform="translate(-49.251 -280.322)">
          <g id="Grupo_22886" data-name="Grupo 22886" transform="translate(60.251 311.322)">
            <g id="Trazado_4368" data-name="Trazado 4368" transform="translate(29.964 50.146)">
              <path id="Trazado_13272" data-name="Trazado 13272" d="M237.528,588.6H192.557a2.268,2.268,0,0,1,0-4.536h44.972a2.268,2.268,0,0,1,0,4.536Z" transform="translate(-190.29 -584.066)" fill="#006c30"/>
            </g>
            <g id="Grupo_22885" data-name="Grupo 22885" transform="translate(0 0)">
              <g id="Trazado_4365" data-name="Trazado 4365" transform="translate(75.117 44.936)">
                <path id="Trazado_13273" data-name="Trazado 13273" d="M214.978,595.518a6.761,6.761,0,1,1,6.762-6.762A6.768,6.768,0,0,1,214.978,595.518Zm0-8.988a2.226,2.226,0,1,0,2.226,2.226A2.228,2.228,0,0,0,214.978,586.53Z" transform="translate(-208.219 -581.997)" fill="#006c30"/>
              </g>
              <g id="Trazado_4366" data-name="Trazado 4366" transform="translate(19.072 44.936)">
                <path id="Trazado_13274" data-name="Trazado 13274" d="M192.727,595.518a6.761,6.761,0,1,1,6.762-6.762A6.77,6.77,0,0,1,192.727,595.518Zm0-8.988a2.226,2.226,0,1,0,2.226,2.226A2.229,2.229,0,0,0,192.727,586.53Z" transform="translate(-185.965 -581.997)" fill="#006c30"/>
              </g>
              <g id="Trazado_4367" data-name="Trazado 4367" transform="translate(4.389 13.989)">
                <path id="Trazado_13275" data-name="Trazado 13275" d="M266.3,610.4h-3.543a2.268,2.268,0,0,1,0-4.536H266.3a2.226,2.226,0,0,0,2.224-2.226v-4.974a6.349,6.349,0,0,0-6.341-6.344,2.27,2.27,0,0,1-2.047-1.294l-7.389-15.519a2.241,2.241,0,0,0-2.012-1.267h-5.578a2.231,2.231,0,0,0-2.229,2.226v13.587a2.267,2.267,0,0,1-2.267,2.266H186.91a2.236,2.236,0,0,0-2.239,2.249v9.066a2.227,2.227,0,0,0,2.226,2.229h7.555a2.268,2.268,0,1,1,0,4.536h-7.54a6.775,6.775,0,0,1-6.777-6.765v-9.059a6.78,6.78,0,0,1,6.772-6.792h51.482V576.469a6.769,6.769,0,0,1,6.762-6.76h5.578a6.794,6.794,0,0,1,6.1,3.853l6.822,14.325a10.894,10.894,0,0,1,9.4,10.779v4.974A6.767,6.767,0,0,1,266.3,610.4Z" transform="translate(-180.135 -569.709)" fill="#006c30"/>
              </g>
              <g id="Trazado_4369" data-name="Trazado 4369" transform="translate(60.636 32.066)">
                <path id="Trazado_13276" data-name="Trazado 13276" d="M228.839,581.423h-24.1a2.268,2.268,0,0,1,0-4.536h24.1a2.268,2.268,0,1,1,0,4.536Z" transform="translate(-202.469 -576.887)" fill="#006c30"/>
              </g>
              <g id="Trazado_4478" data-name="Trazado 4478" transform="translate(64.65 7.353)">
                <path id="Trazado_13277" data-name="Trazado 13277" d="M212.359,576.236a2.269,2.269,0,0,1-2.267-2.269V572.04a.656.656,0,0,0-.572-.431c-.31,0-.685.358-.922.856v1.5a2.268,2.268,0,1,1-4.536,0V572.04a2.307,2.307,0,0,1,.116-.713,5.849,5.849,0,0,1,5.347-4.254,5.21,5.21,0,0,1,5.092,4.765l.01,2.128A2.269,2.269,0,0,1,212.359,576.236Z" transform="translate(-204.063 -567.074)" fill="#006c30"/>
              </g>
              <g id="Elipse_155" data-name="Elipse 155" transform="translate(18.526)">
                <path id="Trazado_13278" data-name="Trazado 13278" d="M190.772,574.2a5.053,5.053,0,1,1,.441-.02C191.064,574.194,190.918,574.2,190.772,574.2Zm-.217-7.522.217,2.508.01,0Z" transform="translate(-185.748 -564.154)" fill="red"/>
              </g>
              <g id="Trazado_4477" data-name="Trazado 4477" transform="translate(18.779 6.329)">
                <path id="Trazado_13279" data-name="Trazado 13279" d="M188.589,577.806a2.519,2.519,0,0,1-2.508-2.3l-.219-2.521A5.89,5.89,0,0,1,197.59,571.9l.227,2.576a2.519,2.519,0,0,1-5.019.443l-.219-2.518a.831.831,0,0,0-.312-.514.8.8,0,0,0-.627-.179.845.845,0,0,0-.755.9l.217,2.458a2.52,2.52,0,0,1-2.289,2.73C188.735,577.8,188.662,577.806,188.589,577.806Z" transform="translate(-185.849 -566.667)" fill="red"/>
              </g>
              <g id="Trazado_3141" data-name="Trazado 3141" transform="translate(41.609 21.237)">
                <path id="Trazado_13280" data-name="Trazado 13280" d="M200.913,584.582a6,6,0,1,1,6-6A6,6,0,0,1,200.913,584.582Zm0-7.459a1.462,1.462,0,1,0,1.463,1.461A1.464,1.464,0,0,0,200.913,577.123Z" transform="translate(-194.914 -572.587)" fill="#006c30"/>
              </g>
              <g id="Trazado_3142" data-name="Trazado 3142" transform="translate(8.031 21.237)">
                <path id="Trazado_13281" data-name="Trazado 13281" d="M187.58,584.582a6,6,0,1,1,6-6A6,6,0,0,1,187.58,584.582Zm0-7.459a1.462,1.462,0,1,0,1.463,1.461A1.464,1.464,0,0,0,187.58,577.123Z" transform="translate(-181.581 -572.587)" fill="#006c30"/>
              </g>
              <g id="Trazado_3143" data-name="Trazado 3143" transform="translate(0 9.97)">
                <path id="Trazado_13282" data-name="Trazado 13282" d="M186.547,588.719h-3.757a4.223,4.223,0,0,1-4.12-3.417,14.333,14.333,0,0,1,14.04-17.188,2.269,2.269,0,0,1,2.269,2.267v.5a4.25,4.25,0,0,1,1.247,1.252H212.8a1.752,1.752,0,0,0,1.75-1.753,2.267,2.267,0,0,1,2.267-2.267h9.507a12.827,12.827,0,0,1,12.814,12.814,5.793,5.793,0,0,1-5.782,5.785H231.76a2.268,2.268,0,0,1,0-4.536h1.592a1.252,1.252,0,0,0,1.249-1.249,8.287,8.287,0,0,0-8.278-8.278h-7.661a6.3,6.3,0,0,1-5.863,4.017H194.626a54.78,54.78,0,0,1-4.145-3.765,9.805,9.805,0,0,0-7.409,11.283h3.475a2.268,2.268,0,0,1,0,4.536Z" transform="translate(-178.392 -568.113)" fill="#006c30"/>
              </g>
              <g id="Trazado_3144" data-name="Trazado 3144" transform="translate(16.44 24.033)">
                <path id="Trazado_13283" data-name="Trazado 13283" d="M210.784,578.233h-23.6a2.268,2.268,0,0,1,0-4.536h23.6a2.268,2.268,0,1,1,0,4.536Z" transform="translate(-184.92 -573.697)" fill="#006c30"/>
              </g>
              <g id="Trazado_3145" data-name="Trazado 3145" transform="translate(30.418 2.584)">
                <path id="Trazado_13284" data-name="Trazado 13284" d="M198.335,577.175a2.269,2.269,0,0,1-1.816-.907l-5.6-7.46a2.267,2.267,0,0,1,3.627-2.72l5.6,7.459a2.269,2.269,0,0,1-1.811,3.627Z" transform="translate(-190.47 -565.18)" fill="#006c30"/>
              </g>
              <g id="Trazado_3141-2" data-name="Trazado 3141-2" transform="translate(41.609 21.237)">
                <path id="Trazado_13285" data-name="Trazado 13285" d="M200.913,584.582a6,6,0,1,1,6-6A6,6,0,0,1,200.913,584.582Zm0-7.459a1.462,1.462,0,1,0,1.463,1.461A1.464,1.464,0,0,0,200.913,577.123Z" transform="translate(-194.914 -572.587)" fill="#006c30"/>
              </g>
              <g id="Trazado_3142-2" data-name="Trazado 3142-2" transform="translate(8.031 21.237)">
                <path id="Trazado_13286" data-name="Trazado 13286" d="M187.58,584.582a6,6,0,1,1,6-6A6,6,0,0,1,187.58,584.582Zm0-7.459a1.462,1.462,0,1,0,1.463,1.461A1.464,1.464,0,0,0,187.58,577.123Z" transform="translate(-181.581 -572.587)" fill="#006c30"/>
              </g>
              <g id="Trazado_3144-2" data-name="Trazado 3144-2" transform="translate(16.44 24.033)">
                <path id="Trazado_13287" data-name="Trazado 13287" d="M210.784,578.233h-23.6a2.268,2.268,0,0,1,0-4.536h23.6a2.268,2.268,0,1,1,0,4.536Z" transform="translate(-184.92 -573.697)" fill="#006c30"/>
              </g>
              <g id="Trazado_3145-2" data-name="Trazado 3145-2" transform="translate(30.418 2.584)">
                <path id="Trazado_13288" data-name="Trazado 13288" d="M198.335,577.175a2.269,2.269,0,0,1-1.816-.907l-5.6-7.46a2.267,2.267,0,0,1,3.627-2.72l5.6,7.459a2.269,2.269,0,0,1-1.811,3.627Z" transform="translate(-190.47 -565.18)" fill="#006c30"/>
              </g>
            </g>
          </g>
        </g>
      </g>
    </g>
  </g>
</svg>
