<svg xmlns="http://www.w3.org/2000/svg" width="120" height="120" viewBox="0 0 120 120">
  <g id="Grupo_22933" data-name="Grupo 22933" transform="translate(-591.585 -560.277)">
    <g id="Grupo_16388" data-name="Grupo 16388" transform="translate(591.585 560.277)">
      <g id="Grupo_16386" data-name="Grupo 16386" transform="translate(0 0)">
        <g id="Grupo_16384" data-name="Grupo 16384">
          <g id="Grupo_16381" data-name="Grupo 16381">
            <g id="Grupo_16378" data-name="Grupo 16378">
              <g id="Grupo_16375" data-name="Grupo 16375">
                <g id="Grupo_16321" data-name="Grupo 16321">
                  <g id="Grupo_16277" data-name="Grupo 16277">
                    <g id="Grupo_16269" data-name="Grupo 16269">
                      <g id="Grupo_16259" data-name="Grupo 16259">
                        <g id="Grupo_16234" data-name="Grupo 16234">
                          <g id="Grupo_16193" data-name="Grupo 16193">
                            <g id="Grupo_15839" data-name="Grupo 15839">
                              <g id="Grupo_15836" data-name="Grupo 15836">
                                <g id="Rect치ngulo_235" data-name="Rect치ngulo 235">
                                  <rect id="Rect치ngulo_7535" data-name="Rect치ngulo 7535" width="120" height="120" transform="translate(0 0)" fill="none"/>
                                </g>
                              </g>
                            </g>
                          </g>
                        </g>
                      </g>
                    </g>
                  </g>
                </g>
              </g>
            </g>
          </g>
        </g>
      </g>
    </g>
    <g id="Grupo_22928" data-name="Grupo 22928" transform="translate(612.723 582.763)">
      <g id="streamline-icon-business-contract-handshake-sign_50x50" data-name="streamline-icon-business-contract-handshake-sign 50x50">
        <g id="Trazado_4752" data-name="Trazado 4752" transform="translate(0 0.215)">
          <path id="Trazado_13328" data-name="Trazado 13328" d="M607.19,644.173a7.157,7.157,0,0,1-7.15-7.15V581.171a11.824,11.824,0,0,1,11.813-11.813H654.9a2.5,2.5,0,1,1,0,5H611.853a6.822,6.822,0,0,0-6.813,6.813v55.85a2.156,2.156,0,0,0,2.153,2.153h4.075a2.5,2.5,0,0,1,0,5H607.19Z" transform="translate(-600.04 -569.358)" fill="#006c30"/>
        </g>
        <g id="Trazado_4756" data-name="Trazado 4756" transform="translate(43.635)">
          <path id="Trazado_13329" data-name="Trazado 13329" d="M619.994,603.577a2.5,2.5,0,0,1-2.5-2.5v-22.2a9.774,9.774,0,0,1,19.545-.008v4.748a2.5,2.5,0,0,1-2.5,2.5H622.494v14.955A2.5,2.5,0,0,1,619.994,603.577Zm2.5-22.455h9.545v-2.24a4.775,4.775,0,0,0-9.545.008Z" transform="translate(-617.494 -569.272)" fill="#006c30"/>
        </g>
        <g id="Trazado_4757" data-name="Trazado 4757" transform="translate(50.661 58.516)">
          <path id="Trazado_13330" data-name="Trazado 13330" d="M622.8,600.708a2.5,2.5,0,0,1-.49-4.95l15.125-3.028a2.5,2.5,0,1,1,.982,4.9L623.3,600.66A2.557,2.557,0,0,1,622.8,600.708Z" transform="translate(-620.305 -592.678)" fill="#006c30"/>
        </g>
        <g id="Trazado_4758" data-name="Trazado 4758" transform="translate(38.675 34.483)">
          <path id="Trazado_13331" data-name="Trazado 13331" d="M622.633,601.323a6.971,6.971,0,0,1-2.843-.6,7.313,7.313,0,0,1-.385-13.115l7.188-3.59a8.749,8.749,0,0,1,7.035-.4l14.7,5.79a2.5,2.5,0,1,1-1.833,4.652l-14.657-5.775a3.691,3.691,0,0,0-2.977.188l-7.163,3.577a2.3,2.3,0,0,0-1.02,2.858,2.2,2.2,0,0,0,1.16,1.245,2,2,0,0,0,1.56.02l7.135-3.01a2.5,2.5,0,0,1,1.942,4.61l-7.142,3.013A7.081,7.081,0,0,1,622.633,601.323Z" transform="translate(-615.51 -583.065)" fill="#006c30"/>
        </g>
        <g id="Trazado_4759" data-name="Trazado 4759" transform="translate(23.273 46.153)">
          <path id="Trazado_13332" data-name="Trazado 13332" d="M628.207,616.128a5.1,5.1,0,0,1-3.648-1.537l-8.8-6.708h-3.912a2.5,2.5,0,0,1,0-5h4.758a2.488,2.488,0,0,1,1.515.512l9.635,7.348a2.41,2.41,0,0,1,.36.335l13.625-11.1-7.05-8.075a2.5,2.5,0,0,1,3.722-3.34l7.188,8a5.173,5.173,0,0,1-.675,7.273l-13.463,11.118A5.1,5.1,0,0,1,628.207,616.128Z" transform="translate(-609.349 -587.733)" fill="#006c30"/>
        </g>
        <g id="Trazado_4760" data-name="Trazado 4760" transform="translate(22.953 37.498)">
          <path id="Trazado_13333" data-name="Trazado 13333" d="M611.723,594.461a2.5,2.5,0,0,1-.978-4.8l11.28-4.783a8.12,8.12,0,0,1,7.91.985l.87.7a2.5,2.5,0,0,1-3.14,3.892l-.782-.63a3.1,3.1,0,0,0-2.953-.32L612.7,594.263A2.491,2.491,0,0,1,611.723,594.461Z" transform="translate(-609.221 -584.271)" fill="#006c30"/>
        </g>
        <g id="Trazado_4761" data-name="Trazado 4761" transform="translate(17.455 40.933)">
          <path id="Trazado_13334" data-name="Trazado 13334" d="M611.81,613.93c-.1,0-.207,0-.313-.007l-1.975,0a2.5,2.5,0,1,1,0-5h2.1a1.111,1.111,0,0,0,1.22-.973l0-16.477a.963.963,0,0,0-1.085-.825l-2.232,0a2.5,2.5,0,1,1,0-5h2.1a6.052,6.052,0,0,1,6.21,5.675l0,16.775A6.089,6.089,0,0,1,611.81,613.93Z" transform="translate(-607.022 -585.645)" fill="#006c30"/>
        </g>
        <g id="Trazado_4762" data-name="Trazado 4762" transform="translate(66.908 40.938)">
          <path id="Trazado_13335" data-name="Trazado 13335" d="M632.721,613.93a6.034,6.034,0,0,1-5.912-5.683l-.005-16.775a6.057,6.057,0,0,1,6.343-5.82l1.975,0a2.5,2.5,0,0,1,0,5h-2.105a1.135,1.135,0,0,0-1.217.972l0,16.478a1,1,0,0,0,1.083.825l2.235,0a2.5,2.5,0,0,1,0,5h-2.105C632.918,613.927,632.818,613.93,632.721,613.93Z" transform="translate(-626.803 -585.647)" fill="#006c30"/>
        </g>
      </g>
      <g id="Trazado_3620" data-name="Trazado 3620" transform="translate(9.587 10.967)">
        <path id="Trazado_13336" data-name="Trazado 13336" d="M610.671,589.5a3.908,3.908,0,0,1-2.773-1.14l-3.29-3.285a2.5,2.5,0,0,1,3.535-3.54l2.525,2.525,9.673-9.672a2.5,2.5,0,0,1,3.535,3.535l-10.423,10.422a3.887,3.887,0,0,1-2.77,1.155Zm-.755-4.688-.005,0Z" transform="translate(-603.875 -573.659)" fill="red"/>
      </g>
    </g>
  </g>
</svg>
