<svg xmlns="http://www.w3.org/2000/svg" width="120" height="120" viewBox="0 0 120 120">
  <g id="Grupo_22964" data-name="Grupo 22964" transform="translate(-471.502 -560.277)">
    <g id="Grupo_15836" data-name="Grupo 15836" transform="translate(471.501 560.276)">
      <g id="Rect치ngulo_235" data-name="Rect치ngulo 235" transform="translate(0 0)">
        <rect id="Rect치ngulo_7533" data-name="Rect치ngulo 7533" width="120" height="120" transform="translate(0.001 0.001)" fill="none"/>
      </g>
    </g>
    <g id="Grupo_22970" data-name="Grupo 22970" transform="translate(147.357 23.289)">
      <g id="streamline-icon-legal-hammer_50x50" data-name="streamline-icon-legal-hammer 50x50" transform="translate(355.087 558.988)">
        <g id="Trazado_5363" data-name="Trazado 5363" transform="translate(24.285 24.139)">
          <path id="Trazado_13261" data-name="Trazado 13261" d="M394.646,610.982a6.3,6.3,0,0,1-4.4-1.78l-.071-.069L363,580.333a2.286,2.286,0,0,1,3.325-3.138L393.4,605.888l.021.018a1.727,1.727,0,0,0,1.229.51h0a1.739,1.739,0,0,0,1.234-.514l2.845-2.847a1.758,1.758,0,0,0,0-2.482L370,573.5a2.284,2.284,0,1,1,3.133-3.325L401.91,597.3a6.35,6.35,0,0,1,.053,8.989l-2.847,2.847A6.291,6.291,0,0,1,394.646,610.982Z" transform="translate(-362.373 -569.552)" fill="#006729"/>
        </g>
        <g id="Trazado_5364" data-name="Trazado 5364">
          <path id="Trazado_13262" data-name="Trazado 13262" d="M368.884,605.3a6.285,6.285,0,0,1-4.467-1.846l-.057-.062-10.767-10.767a6.335,6.335,0,0,1,0-8.941,2.374,2.374,0,0,1,.51-.382,56.378,56.378,0,0,0,21.957-21.952,2.33,2.33,0,0,1,.377-.5,6.282,6.282,0,0,1,4.465-1.856h.009a6.267,6.267,0,0,1,4.433,1.819.585.585,0,0,1,.055.053l10.815,10.813a6.325,6.325,0,0,1,0,8.923,2.377,2.377,0,0,1-.546.407,53.435,53.435,0,0,0-21.911,21.909,2.38,2.38,0,0,1-.4.535,6.292,6.292,0,0,1-4.469,1.853Zm-.567-3.464h0Zm-.631-1.581a1.748,1.748,0,0,0,2.237.135,57.992,57.992,0,0,1,23.22-23.218,1.74,1.74,0,0,0-.167-2.267l-10.831-10.831,0,0,0,0a1.736,1.736,0,0,0-1.232-.51h0a1.731,1.731,0,0,0-1.042.347,60.963,60.963,0,0,1-23.2,23.2,1.749,1.749,0,0,0,.162,2.285l10.822,10.822Z" transform="translate(-351.745 -558.988)" fill="#006729"/>
        </g>
      </g>
      <g id="Grupo_22874" data-name="Grupo 22874" transform="translate(352.998 620.473)">
        <path id="Trazado_13263" data-name="Trazado 13263" d="M386.811,598.2a2.283,2.283,0,0,1-2.285-2.285,5.453,5.453,0,0,0-5.447-5.45H360.851a5.453,5.453,0,0,0-5.45,5.45,2.285,2.285,0,0,1-4.57,0,10.031,10.031,0,0,1,10.02-10.02h18.228a10.03,10.03,0,0,1,10.017,10.02A2.283,2.283,0,0,1,386.811,598.2Z" transform="translate(-350.831 -585.896)" fill="red"/>
      </g>
      <g id="Grupo_22875" data-name="Grupo 22875" transform="translate(349.145 630.489)">
        <path id="Trazado_13264" data-name="Trazado 13264" d="M392.832,594.849h-41.4a2.285,2.285,0,1,1,0-4.57h41.4a2.285,2.285,0,0,1,0,4.57Z" transform="translate(-349.145 -590.279)" fill="#006729"/>
      </g>
    </g>
  </g>
</svg>
