<svg xmlns="http://www.w3.org/2000/svg" xmlns:xlink="http://www.w3.org/1999/xlink" width="104" height="104" viewBox="0 0 104 104">
  <defs>
    <clipPath id="clip-Mesa_de_trabajo_6">
      <rect width="104" height="104"/>
    </clipPath>
  </defs>
  <g id="Mesa_de_trabajo_6" data-name="Mesa de trabajo – 6" clip-path="url(#clip-Mesa_de_trabajo_6)">
    <rect width="104" height="104" fill="#fff"/>
    <path id="Trazado_151" data-name="Trazado 151" d="M10.521,22.224,14.489,23.7a2.7,2.7,0,0,0,.708.185q.4,0,.492-.861l.031-.185-.185-4.245v-.338q0-1.907.569-2.384a5.045,5.045,0,0,1,2.784-.477,7.1,7.1,0,0,1,2.538.292,1.424,1.424,0,0,1,.754,1.215,9.265,9.265,0,0,1,.092,1.692l-.154,4.245q0,1.046.523,1.046a2.393,2.393,0,0,0,.677-.185l3.968-1.477a6.651,6.651,0,0,1,2.03-.492,1.313,1.313,0,0,1,1.015.4,5.088,5.088,0,0,1,.8,1.538,11.635,11.635,0,0,1,.8,3.107q.062,1.138-2.553,1.846l-4.091,1.169q-.861.246-.861.708a1.679,1.679,0,0,0,.4.708l2.646,3.322a4.505,4.505,0,0,1,1.169,2.276q0,.861-2.03,2.307a5.791,5.791,0,0,1-2.461,1.261q-.861,0-2.153-1.876l-2.338-3.538q-.431-.615-.769-.615-.308,0-.738.615L15.812,38.5q-1.261,1.876-2.153,1.876A5.791,5.791,0,0,1,11.2,39.112q-2.03-1.415-2.03-2.307a4.614,4.614,0,0,1,1.2-2.276l2.615-3.322a1.619,1.619,0,0,0,.4-.738q0-.431-.861-.677L8.459,28.623q-2.553-.708-2.553-1.784A10.993,10.993,0,0,1,6.829,23.3q.615-1.538,1.692-1.538A6.481,6.481,0,0,1,10.521,22.224Zm37.806,0L52.295,23.7a2.7,2.7,0,0,0,.708.185q.4,0,.492-.861l.031-.185-.185-4.245v-.338q0-1.907.569-2.384a5.045,5.045,0,0,1,2.784-.477,7.1,7.1,0,0,1,2.538.292,1.424,1.424,0,0,1,.754,1.215,9.265,9.265,0,0,1,.092,1.692l-.154,4.245q0,1.046.523,1.046a2.393,2.393,0,0,0,.677-.185l3.968-1.477a6.651,6.651,0,0,1,2.03-.492,1.313,1.313,0,0,1,1.015.4,5.088,5.088,0,0,1,.8,1.538,11.635,11.635,0,0,1,.8,3.107q.062,1.138-2.553,1.846l-4.091,1.169q-.861.246-.861.708a1.679,1.679,0,0,0,.4.708l2.646,3.322a4.505,4.505,0,0,1,1.169,2.276q0,.861-2.03,2.307a5.791,5.791,0,0,1-2.461,1.261q-.861,0-2.153-1.876l-2.338-3.538q-.431-.615-.769-.615-.308,0-.738.615L53.618,38.5q-1.261,1.876-2.153,1.876A5.791,5.791,0,0,1,49,39.112q-2.03-1.415-2.03-2.307a4.614,4.614,0,0,1,1.2-2.276l2.615-3.322a1.619,1.619,0,0,0,.4-.738q0-.431-.861-.677l-4.061-1.169q-2.553-.708-2.553-1.784a10.993,10.993,0,0,1,.923-3.538q.615-1.538,1.692-1.538A6.481,6.481,0,0,1,48.327,22.224Zm37.806,0L90.1,23.7a2.7,2.7,0,0,0,.708.185q.4,0,.492-.861l.031-.185-.185-4.245v-.338q0-1.907.569-2.384A5.045,5.045,0,0,1,94.5,15.4a7.1,7.1,0,0,1,2.538.292,1.424,1.424,0,0,1,.754,1.215,9.265,9.265,0,0,1,.092,1.692l-.154,4.245q0,1.046.523,1.046a2.393,2.393,0,0,0,.677-.185l3.968-1.477a6.651,6.651,0,0,1,2.03-.492,1.313,1.313,0,0,1,1.015.4,5.088,5.088,0,0,1,.8,1.538,11.635,11.635,0,0,1,.8,3.107q.062,1.138-2.553,1.846L100.9,29.792q-.861.246-.861.708a1.679,1.679,0,0,0,.4.708l2.646,3.322a4.505,4.505,0,0,1,1.169,2.276q0,.861-2.03,2.307a5.791,5.791,0,0,1-2.461,1.261q-.861,0-2.153-1.876l-2.338-3.538q-.431-.615-.769-.615-.308,0-.738.615L91.424,38.5q-1.261,1.876-2.153,1.876a5.791,5.791,0,0,1-2.461-1.261q-2.03-1.415-2.03-2.307a4.614,4.614,0,0,1,1.2-2.276l2.615-3.322a1.619,1.619,0,0,0,.4-.738q0-.431-.861-.677l-4.061-1.169q-2.553-.708-2.553-1.784a10.993,10.993,0,0,1,.923-3.538q.615-1.538,1.692-1.538A6.481,6.481,0,0,1,86.133,22.224Z" transform="translate(-5 7)" fill="#006c30"/>
    <rect id="Rectángulo_27" data-name="Rectángulo 27" width="104" height="12" transform="translate(0 62)" fill="#006c30"/>
  </g>
</svg>
