<svg xmlns="http://www.w3.org/2000/svg" xmlns:xlink="http://www.w3.org/1999/xlink" width="34.658" height="30.049" viewBox="0 0 34.658 30.049">
  <defs>
    <clipPath id="clip-path">
      <rect id="Rectangle_6493" data-name="Rectangle 6493" width="34.658" height="30.049" fill="none"/>
    </clipPath>
  </defs>
  <g id="Group_19077" data-name="Group 19077" transform="translate(0 0)">
    <g id="Group_19078" data-name="Group 19078" transform="translate(0 0)" clip-path="url(#clip-path)">
      <path id="Path_11653" data-name="Path 11653" d="M30.477,10.476c-.482-.1-.482-.1-.55-.592A11.6,11.6,0,0,0,21.369.423,17.987,17.987,0,0,0,15.094.142,11.274,11.274,0,0,0,5.562,7.033a10.906,10.906,0,0,0-.9,3.365l-.023,0c-.063.01-.121.021-.181.028a5.093,5.093,0,0,0-4.44,4.841c-.031,1.4-.03,2.8,0,4.154a5.009,5.009,0,0,0,4.367,4.816,23.258,23.258,0,0,0,2.7.082c.248,0,.495,0,.742,0,.091,0,.19.007.27,0a1.311,1.311,0,0,0,.946-.356A1.328,1.328,0,0,0,9.416,23q.005-5.652,0-11.3a1.267,1.267,0,0,0-1.353-1.333q-.319,0-.637,0H7.232A9,9,0,0,1,13.476,3a14.7,14.7,0,0,1,6.974-.188,8.963,8.963,0,0,1,6.985,7.545h-.189c-.242,0-.482,0-.721,0a1.246,1.246,0,0,0-1.271,1.266q-.01,5.7,0,11.411a1.251,1.251,0,0,0,1.295,1.283c.207,0,.411,0,.616,0h.175a.514.514,0,0,1-.018.08,4.234,4.234,0,0,1-3.537,3.037,11.177,11.177,0,0,1-2.026.047c-.286-.011-.576-.021-.869-.023V27.3c0-.232,0-.474,0-.716a1.271,1.271,0,0,0-1.242-1.337h-.019a1.227,1.227,0,0,0-.866.344,1.39,1.39,0,0,0-.392.995c0,.226,0,.45,0,.676v.7c0,.245,0,.488,0,.733a1.271,1.271,0,0,0,1.37,1.353l1.439,0,1.751,0a6.943,6.943,0,0,0,6.982-5.589c.034-.156.08-.183.229-.2a5.088,5.088,0,0,0,4.512-5.065c.007-1.218,0-2.434,0-3.65a5.088,5.088,0,0,0-4.177-5.065m1.651,8.789A2.583,2.583,0,0,1,29.581,21.8c-.433.009-.864.005-1.3,0l-.491,0V12.932c.212,0,.423-.009.633-.016a9.255,9.255,0,0,1,1.6.035,2.5,2.5,0,0,1,2.107,2.46c.02,1.355.02,2.616,0,3.854M6.881,12.877v8.876c-.212,0-.424.009-.635.015a9.151,9.151,0,0,1-1.6-.035,2.487,2.487,0,0,1-2.111-2.495c-.014-1.3-.014-2.568,0-3.784a2.6,2.6,0,0,1,2.583-2.575c.233,0,.467,0,.7,0H6.4Z" transform="translate(0 0)" fill="#006729"/>
    </g>
  </g>
</svg>
