<svg xmlns="http://www.w3.org/2000/svg" width="16" height="16" viewBox="0 0 16 16">
  <g id="Grupo_19748" data-name="Grupo 19748" transform="translate(-132 -457)">
    <circle id="Elipse_10" data-name="Elipse 10" cx="8" cy="8" r="8" transform="translate(132 457)" fill="#e60018"/>
    <path id="Trazado_11189" data-name="Trazado 11189" d="M12.4,13.889l-.212-3.164q-.059-.923-.06-1.327a1.213,1.213,0,0,1,.287-.856.994.994,0,0,1,.757-.307.762.762,0,0,1,.76.394,2.669,2.669,0,0,1,.19,1.131c0,.291-.014.586-.044.885L13.79,13.9a2.539,2.539,0,0,1-.2.891.519.519,0,0,1-.5.311.5.5,0,0,1-.495-.3,3,3,0,0,1-.2-.914m.732,4.346a1.043,1.043,0,0,1-.7-.262.912.912,0,0,1-.3-.729.98.98,0,0,1,.99-.985.981.981,0,0,1,.71.287.939.939,0,0,1,.294.7.919.919,0,0,1-.3.726,1.012,1.012,0,0,1-.695.265" transform="translate(126.875 451.766)" fill="#fff"/>
  </g>
</svg>
