<svg id="local_atm_black_24dp_1_" data-name="local_atm_black_24dp (1)" xmlns="http://www.w3.org/2000/svg" width="54" height="54" viewBox="0 0 54 54">
  <path id="Trazado_11508" data-name="Trazado 11508" d="M0,0H54V54H0Z" fill="none"/>
  <path id="Trazado_11509" data-name="Trazado 11509" d="M22.25,33.25h4.5V31H29a2.257,2.257,0,0,0,2.25-2.25V22A2.257,2.257,0,0,0,29,19.75H22.25V17.5h9V13h-4.5V10.75h-4.5V13H20a2.257,2.257,0,0,0-2.25,2.25V22A2.257,2.257,0,0,0,20,24.25h6.75V26.5h-9V31h4.5ZM42.5,4H6.5A4.465,4.465,0,0,0,2.023,8.5L2,35.5A4.484,4.484,0,0,0,6.5,40h36A4.484,4.484,0,0,0,47,35.5V8.5A4.484,4.484,0,0,0,42.5,4Zm0,31.5H6.5V8.5h36Z" transform="translate(2.5 5)" fill="#006c30"/>
</svg>
