<svg xmlns="http://www.w3.org/2000/svg" width="54" height="54" viewBox="0 0 54 54">
  <g id="Grupo_19745" data-name="Grupo 19745" transform="translate(17683 18247)">
    <g id="Grupo_19742" data-name="Grupo 19742" transform="translate(2360 -1375)">
      <rect id="Rect치ngulo_6379" data-name="Rect치ngulo 6379" width="54" height="54" transform="translate(-20043 -16872)" fill="none"/>
      <g id="Grupo_19741" data-name="Grupo 19741" transform="translate(294.549 85.999)">
        <rect id="Rect치ngulo_6313" data-name="Rect치ngulo 6313" width="8.374" height="8.374" transform="translate(-20314.236 -16933.688)" fill="#65a518"/>
        <path id="Trazado_1" data-name="Trazado 1" d="M125.893,1.579l-7.466,7.466h22.557l-7.466-7.466a5.391,5.391,0,0,0-7.624,0" transform="translate(-20439.756 -16952)" fill="#65a518"/>
        <path id="Trazado_2" data-name="Trazado 2" d="M125.893,258.221a5.391,5.391,0,0,0,7.624,0l7.466-7.466H118.427Z" transform="translate(-20439.756 -17166.801)" fill="#65a518"/>
        <path id="Trazado_3" data-name="Trazado 3" d="M298.387,85.726l-7.466-7.466v22.557l7.466-7.466a5.391,5.391,0,0,0,0-7.624" transform="translate(-20587.516 -17019.039)" fill="#65a518"/>
        <path id="Trazado_4" data-name="Trazado 4" d="M41.746,93.351l7.466,7.466V78.26l-7.466,7.466a5.391,5.391,0,0,0,0,7.624" transform="translate(-20372.717 -17019.039)" fill="#65a518"/>
      </g>
    </g>
  </g>
</svg>
