<svg id="help_black_24dp" xmlns="http://www.w3.org/2000/svg" width="20" height="20" viewBox="0 0 20 20">
  <path id="Path_11636" data-name="Path 11636" d="M0,0H20V20H0Z" fill="none"/>
  <path id="Path_11637" data-name="Path 11637" d="M9.3,2a7.3,7.3,0,1,0,7.3,7.3A7.3,7.3,0,0,0,9.3,2Zm.73,12.41H8.57V12.95h1.46Zm1.511-5.657-.657.672a2.485,2.485,0,0,0-.854,2.066H8.57v-.365a2.938,2.938,0,0,1,.854-2.066l.905-.92A1.427,1.427,0,0,0,10.76,7.11a1.46,1.46,0,0,0-2.92,0H6.38a2.92,2.92,0,1,1,5.84,0A2.323,2.323,0,0,1,11.541,8.752Z" transform="translate(0.7 0.7)" fill="#1489ff"/>
</svg>
