<svg id="inventory_2_black_24dp" xmlns="http://www.w3.org/2000/svg" width="24" height="24" viewBox="0 0 24 24">
  <g id="Group_17690" data-name="Group 17690">
    <rect id="Rectangle_491" data-name="Rectangle 491" width="24" height="24" fill="none"/>
  </g>
  <g id="Group_17692" data-name="Group 17692" transform="translate(2 2)">
    <g id="Group_17691" data-name="Group 17691">
      <path id="Path_11291" data-name="Path 11291" d="M20,2H4A2.074,2.074,0,0,0,2,4V7.01A2.02,2.02,0,0,0,3,8.7V20a2.149,2.149,0,0,0,2,2H19a2.149,2.149,0,0,0,2-2V8.7a2.02,2.02,0,0,0,1-1.69V4A2.074,2.074,0,0,0,20,2ZM19,20H5V9H19ZM20,7H4V4H20Z" transform="translate(-2 -2)" fill="#006c30"/>
      <rect id="Rectangle_492" data-name="Rectangle 492" width="6" height="2" transform="translate(7 10)" fill="#006c30"/>
    </g>
  </g>
</svg>
