<svg xmlns="http://www.w3.org/2000/svg" width="52" height="52" viewBox="0 0 52 52">
  <g id="Group_18756" data-name="Group 18756" transform="translate(-41 -505)">
    <g id="Rectangle_6433" data-name="Rectangle 6433" transform="translate(41 505)" fill="#fff" stroke="#707070" stroke-width="1" opacity="0">
      <rect width="52" height="52" stroke="none"/>
      <rect x="0.5" y="0.5" width="51" height="51" fill="none"/>
    </g>
    <path id="medical_services_FILL0_wght400_GRAD0_opsz24" d="M18.741,31.761h3.72v-5.58h5.58v-3.72h-5.58v-5.58h-3.72v5.58H13.16v3.72h5.58ZM5.72,39.2A3.581,3.581,0,0,1,3.094,38.11,3.584,3.584,0,0,1,2,35.481V13.16a3.578,3.578,0,0,1,1.094-2.626A3.578,3.578,0,0,1,5.72,9.44h7.44V5.72a3.584,3.584,0,0,1,1.094-2.628A3.581,3.581,0,0,1,16.881,2h7.44a3.587,3.587,0,0,1,2.628,1.092A3.587,3.587,0,0,1,28.041,5.72V9.44h7.44a3.731,3.731,0,0,1,3.72,3.72V35.481a3.728,3.728,0,0,1-3.72,3.72ZM16.881,9.44h7.44V5.72h-7.44ZM5.72,35.481H35.481V13.16H5.72V35.481Zm0-22.321h0V35.481h0Z" transform="translate(46.398 508.599)" fill="#006c30" stroke="#006729" stroke-width="0.5"/>
  </g>
</svg>
