<svg xmlns="http://www.w3.org/2000/svg" width="59" height="59" viewBox="0 0 59 59">
  <g id="Grupo_18971" data-name="Grupo 18971" transform="translate(-167 -370)">
    <circle id="Elipse_9" data-name="Elipse 9" cx="29.5" cy="29.5" r="29.5" transform="translate(167 370)" fill="#036be4"/>
    <g id="Grupo_18957" data-name="Grupo 18957" transform="translate(15275.333 10948.667)">
      <g id="Grupo_18956" data-name="Grupo 18956" transform="translate(-15095.333 -10563.667)">
        <path id="Trazado_11561" data-name="Trazado 11561" d="M30.8,4H5.2A3.175,3.175,0,0,0,2.016,7.2L2,26.4a3.189,3.189,0,0,0,3.2,3.2h8V26.4h-8V16.8H34V7.2A3.189,3.189,0,0,0,30.8,4Zm0,6.4H5.2V7.2H30.8ZM22.688,28.272,18.16,23.744,15.9,26l6.784,6.8L34,21.488l-2.256-2.256Z" transform="translate(-2 -4)" fill="#fff"/>
      </g>
    </g>
  </g>
</svg>
