<svg xmlns="http://www.w3.org/2000/svg" width="120" height="120" viewBox="0 0 120 120">
  <g id="Grupo_22964" data-name="Grupo 22964" transform="translate(-457.502 -560.277)">
    <g id="Grupo_15836" data-name="Grupo 15836" transform="translate(457.501 560.276)">
      <g id="Rect치ngulo_235" data-name="Rect치ngulo 235" transform="translate(0 0)">
        <rect id="Rect치ngulo_7533" data-name="Rect치ngulo 7533" width="120" height="120" transform="translate(0.001 0.001)" fill="none"/>
      </g>
    </g>
    <g id="Grupo_22968" data-name="Grupo 22968" transform="translate(461.338 565.563)">
      <g id="streamline-icon-business-contract-approve_50x50" data-name="streamline-icon-business-contract-approve 50x50" transform="translate(16.164 15.714)">
        <g id="Trazado_3613" data-name="Trazado 3613" transform="translate(0 4.729)">
          <path id="Trazado_12421" data-name="Trazado 12421" d="M531.544,670.791a2.529,2.529,0,0,1-1.636-.6l-1.282-1.084c-5.824-4.9-11.846-9.967-11.7-16.227V639.42l-4.29-5.412a2.533,2.533,0,0,1,3.971-3.145l4.837,6.1a2.538,2.538,0,0,1,.547,1.575v14.4c-.091,3.892,4.986,8.165,9.894,12.294l1.3,1.094a2.532,2.532,0,0,1-1.639,4.464Z" transform="translate(-512.09 -629.903)" fill="#006729"/>
        </g>
        <g id="Trazado_3614" data-name="Trazado 3614" transform="translate(14.333)">
          <path id="Trazado_12422" data-name="Trazado 12422" d="M529.542,661.477a6.663,6.663,0,0,1-4.741-2.064l-5.634-5.774a2.53,2.53,0,1,1,3.621-3.535l5.634,5.771a1.471,1.471,0,0,0,1.441.479,1.49,1.49,0,0,0,1-1.084A1.392,1.392,0,0,0,530.5,654l-8.856-9.046a2.532,2.532,0,0,1-.725-1.77V638.69a17.544,17.544,0,0,0-2.735-6.708,2.534,2.534,0,0,1,4.2-2.829,22.652,22.652,0,0,1,3.561,8.889,2.657,2.657,0,0,1,.035.426v3.679l8.139,8.316a6.45,6.45,0,0,1,1.692,5.87,6.516,6.516,0,0,1-4.085,4.728A5.878,5.878,0,0,1,529.542,661.477Z" transform="translate(-517.749 -628.036)" fill="#006729"/>
        </g>
        <g id="Trazado_3615" data-name="Trazado 3615" transform="translate(17.499 25.234)">
          <path id="Trazado_12423" data-name="Trazado 12423" d="M549.389,686.116h-23.02A7.38,7.38,0,0,1,519,678.747V640.533a2.532,2.532,0,1,1,5.065,0v38.214a2.306,2.306,0,0,0,2.3,2.3h23.02a2.532,2.532,0,0,1,0,5.065Z" transform="translate(-519 -638)" fill="#006729"/>
        </g>
        <g id="Trazado_3615-2" data-name="Trazado 3615" transform="translate(22.903 17.49)">
          <path id="Trazado_12424" data-name="Trazado 12424" d="M554.055,665.331a2.532,2.532,0,0,1-2.532-2.532V642.314a2.308,2.308,0,0,0-2.3-2.307H523.666a2.532,2.532,0,1,1,0-5.065h25.552a7.38,7.38,0,0,1,7.369,7.372V662.8A2.532,2.532,0,0,1,554.055,665.331Z" transform="translate(-521.134 -634.942)" fill="#006729"/>
        </g>
        <g id="Trazado_3616" data-name="Trazado 3616" transform="translate(47.237 33.724)">
          <path id="Trazado_12425" data-name="Trazado 12425" d="M547.211,685.222a2.527,2.527,0,0,1-2.1-1.122,22.682,22.682,0,0,1-3.548-8.868,2.647,2.647,0,0,1-.036-.426v-3.193l-8.7-8.864a5.469,5.469,0,0,1-.481-.5,6.7,6.7,0,0,1,10.18-8.706l1.53,1.562V643.886a2.532,2.532,0,0,1,4.169-1.935c6.118,5.169,11.17,9.932,11.026,15.908v13.128l4.29,5.409a2.534,2.534,0,0,1-3.971,3.148l-4.837-6.1a2.528,2.528,0,0,1-.547-1.573V657.8c.063-2.657-2.082-5.435-5.065-8.291v11.8a2.534,2.534,0,0,1-4.343,1.772l-5.984-6.126a1.688,1.688,0,0,0-2.413-.3,1.632,1.632,0,0,0-.18,2.3c.031.025.213.215.243.243l9.42,9.6a2.539,2.539,0,0,1,.725,1.775v4.006a17.615,17.615,0,0,0,2.722,6.693,2.533,2.533,0,0,1-2.1,3.946Z" transform="translate(-530.743 -641.353)" fill="#006729"/>
        </g>
        <g id="Trazado_3617" data-name="Trazado 3617" transform="translate(27.629 55.622)">
          <path id="Trazado_12426" data-name="Trazado 12426" d="M538.195,655.065H525.533a2.532,2.532,0,1,1,0-5.065h12.662a2.532,2.532,0,0,1,0,5.065Z" transform="translate(-523 -650)" fill="red"/>
        </g>
        <g id="Trazado_3618" data-name="Trazado 3618" transform="translate(27.629 42.96)">
          <path id="Trazado_12427" data-name="Trazado 12427" d="M530.6,650.065h-5.065a2.532,2.532,0,1,1,0-5.065H530.6a2.532,2.532,0,1,1,0,5.065Z" transform="translate(-523 -645)" fill="red"/>
        </g>
      </g>
    </g>
  </g>
</svg>
