<svg id="storefront_black_24dp_1_" data-name="storefront_black_24dp (1)" xmlns="http://www.w3.org/2000/svg" width="54" height="54" viewBox="0 0 54 54">
  <g id="Grupo_18663" data-name="Grupo 18663">
    <rect id="Rectángulo_6428" data-name="Rectángulo 6428" width="54" height="54" fill="none"/>
  </g>
  <g id="Grupo_18665" data-name="Grupo 18665" transform="translate(4.512 6.75)">
    <g id="Grupo_18664" data-name="Grupo 18664">
      <path id="Trazado_11515" data-name="Trazado 11515" d="M46.768,16.253,44.406,6.42A4.419,4.419,0,0,0,40.108,3H8.856A4.418,4.418,0,0,0,4.581,6.42L2.218,16.253a7.594,7.594,0,0,0,1.395,6.48,8.626,8.626,0,0,0,.63.652V39a4.513,4.513,0,0,0,4.5,4.5h31.5a4.513,4.513,0,0,0,4.5-4.5V23.385a8.322,8.322,0,0,0,.63-.63A7.568,7.568,0,0,0,46.768,16.253ZM40.041,7.477,42.4,17.31a3.051,3.051,0,0,1-.562,2.632A2.64,2.64,0,0,1,39.726,21,2.812,2.812,0,0,1,37,18.435L35.7,7.5Zm-13.3.023h4.41l1.215,10.17a3.025,3.025,0,0,1-.743,2.407A2.683,2.683,0,0,1,29.488,21a2.862,2.862,0,0,1-2.745-2.948ZM16.6,17.67,17.833,7.5h4.41V18.053A2.891,2.891,0,0,1,19.341,21a2.707,2.707,0,0,1-2-.923A3.2,3.2,0,0,1,16.6,17.67ZM6.583,17.31,8.856,7.5h4.433L11.983,18.435A2.829,2.829,0,0,1,9.261,21a2.59,2.59,0,0,1-2.092-1.058A2.975,2.975,0,0,1,6.583,17.31ZM8.743,39V25.432a4.073,4.073,0,0,0,.517.068,7.04,7.04,0,0,0,5.04-2.137A7.236,7.236,0,0,0,19.5,25.5a7.133,7.133,0,0,0,5.017-2.093A7.375,7.375,0,0,0,29.668,25.5a7.145,7.145,0,0,0,5.04-2.137,7.04,7.04,0,0,0,5.04,2.137,4.074,4.074,0,0,0,.517-.067V39Z" transform="translate(-2.005 -3)" fill="#006c30"/>
    </g>
  </g>
</svg>
