<svg xmlns="http://www.w3.org/2000/svg" xmlns:xlink="http://www.w3.org/1999/xlink" width="28.916" height="32.949" viewBox="0 0 28.916 32.949">
  <defs>
    <clipPath id="clip-path">
      <rect id="Rectangle_6491" data-name="Rectangle 6491" width="28.916" height="32.949" transform="translate(0 0)" fill="#006729"/>
    </clipPath>
  </defs>
  <g id="Group_19075" data-name="Group 19075" transform="translate(0 0)">
    <g id="Group_19075-2" data-name="Group 19075" clip-path="url(#clip-path)">
      <path id="Path_11648" data-name="Path 11648" d="M26.647,32.949H2.269a2.25,2.25,0,0,1-1.6-.665A2.275,2.275,0,0,1,0,30.667,12.041,12.041,0,0,1,12.024,18.656h.713L14.48,21.6l1.689-2.943h.724A12.04,12.04,0,0,1,28.916,30.668a2.274,2.274,0,0,1-2.269,2.281M2.5,30.449h23.91A9.539,9.539,0,0,0,17.6,21.182l-1.881,3.276a1.418,1.418,0,0,1-1.218.711h-.01a1.419,1.419,0,0,1-1.218-.7l-1.949-3.291A9.54,9.54,0,0,0,2.5,30.449m11.051-7.237,0,0Zm1.871-.015,0,0,0,0" fill="#006729"/>
      <path id="Path_11649" data-name="Path 11649" d="M14.5,17.251a8.625,8.625,0,1,1,8.626-8.626A8.635,8.635,0,0,1,14.5,17.251M14.5,2.5a6.126,6.126,0,1,0,6.126,6.125A6.133,6.133,0,0,0,14.5,2.5" fill="#006729"/>
      <path id="Path_11650" data-name="Path 11650" d="M20.315,28.677a.75.75,0,0,1-.75-.75V24.082a.75.75,0,0,1,1.5,0v3.845a.75.75,0,0,1-.75.75" fill="#006729"/>
      <path id="Path_11651" data-name="Path 11651" d="M22.238,26.754H18.392a.75.75,0,0,1,0-1.5h3.846a.75.75,0,0,1,0,1.5" fill="#006729"/>
    </g>
  </g>
</svg>
