<svg xmlns="http://www.w3.org/2000/svg" width="20" height="20" viewBox="0 0 20 20">
  <path id="help_FILL1_wght600_GRAD0_opsz48" d="M13.36,18.883a.973.973,0,0,0,.712-.3,1,1,0,0,0,.3-.736,1.03,1.03,0,0,0-1.013-1.013,1,1,0,0,0-.736.3.973.973,0,0,0-.3.712,1.03,1.03,0,0,0,1.037,1.037ZM12.4,15.361h1.641a3.86,3.86,0,0,1,.157-1.122,2.773,2.773,0,0,1,.929-1.17,3.371,3.371,0,0,0,1.025-1.182,3.132,3.132,0,0,0,.3-1.375,2.814,2.814,0,0,0-.808-2.1,2.976,2.976,0,0,0-2.183-.8,3.827,3.827,0,0,0-2.183.639,3.653,3.653,0,0,0-1.387,1.749l1.5.555a2.38,2.38,0,0,1,.8-1.062,1.942,1.942,0,0,1,1.158-.362,1.668,1.668,0,0,1,1.134.4,1.3,1.3,0,0,1,.458,1.025,1.741,1.741,0,0,1-.29.941,3.8,3.8,0,0,1-.82.893,4.694,4.694,0,0,0-1.062,1.255,3.518,3.518,0,0,0-.362,1.713Zm.893,7.889a9.689,9.689,0,0,1-3.872-.784,10.088,10.088,0,0,1-5.332-5.32A9.663,9.663,0,0,1,3.3,13.262a9.748,9.748,0,0,1,.784-3.9A10.066,10.066,0,0,1,6.219,6.193,10.235,10.235,0,0,1,9.392,4.046a9.962,9.962,0,0,1,7.8,0,10,10,0,0,1,5.308,5.3,9.68,9.68,0,0,1,.8,3.92,9.621,9.621,0,0,1-.8,3.9,10.235,10.235,0,0,1-2.147,3.173,10.1,10.1,0,0,1-3.16,2.135A9.723,9.723,0,0,1,13.288,23.25Z" transform="translate(-3.3 -3.25)" fill="#65a518"/>
</svg>
