<svg id="payments_black_24dp_1_" data-name="payments_black_24dp (1)" xmlns="http://www.w3.org/2000/svg" width="24" height="24" viewBox="0 0 24 24">
  <rect id="Rectángulo_6422" data-name="Rectángulo 6422" width="24" height="24" fill="none"/>
  <path id="Trazado_11503" data-name="Trazado 11503" d="M19,14V6a2.006,2.006,0,0,0-2-2H3A2.006,2.006,0,0,0,1,6v8a2.006,2.006,0,0,0,2,2H17A2.006,2.006,0,0,0,19,14Zm-2,0H3V6H17ZM10,7a3,3,0,1,0,3,3A3,3,0,0,0,10,7ZM23,7V18a2.006,2.006,0,0,1-2,2H4V18H21V7Z" fill="#006c30"/>
</svg>
