<svg xmlns="http://www.w3.org/2000/svg" width="120" height="120" viewBox="0 0 120 120">
  <g id="Grupo_22964" data-name="Grupo 22964" transform="translate(-471.503 -560.277)">
    <g id="Grupo_15836" data-name="Grupo 15836" transform="translate(471.502 560.276)">
      <g id="Rect치ngulo_235" data-name="Rect치ngulo 235" transform="translate(0 0)">
        <rect id="Rect치ngulo_7533" data-name="Rect치ngulo 7533" width="120" height="120" transform="translate(0.001 0.001)" fill="none"/>
      </g>
    </g>
    <g id="Grupo_22971" data-name="Grupo 22971" transform="translate(91.057 25.024)">
      <g id="streamline-icon-real-estate-deal-shake_50x50" data-name="streamline-icon-real-estate-deal-shake 50x50" transform="translate(400.446 580.756)">
        <g id="Trazado_3204" data-name="Trazado 3204" transform="translate(47.995 30.908)">
          <path id="Trazado_13252" data-name="Trazado 13252" d="M424.243,590.938a2.224,2.224,0,0,1-.416-4.41l16.4-3.13a2.225,2.225,0,1,1,.834,4.372l-16.4,3.13A2.437,2.437,0,0,1,424.243,590.938Z" transform="translate(-422.018 -583.361)" fill="#006729"/>
        </g>
        <g id="Trazado_3205" data-name="Trazado 3205" transform="translate(30.944)">
          <path id="Trazado_13253" data-name="Trazado 13253" d="M422.581,590.569a8.2,8.2,0,0,1-3.747-15.5l9.266-4.5a10.536,10.536,0,0,1,8.256-.463l15.111,5.771a2.226,2.226,0,0,1-1.591,4.158l-15.076-5.76a6.065,6.065,0,0,0-4.734.283l-9.246,4.5a3.755,3.755,0,0,0,3.11,6.824l9.2-3.791a2.226,2.226,0,1,1,1.7,4.116L425.584,590A8.267,8.267,0,0,1,422.581,590.569Z" transform="translate(-414.355 -569.469)" fill="#006729"/>
        </g>
        <g id="Trazado_3206" data-name="Trazado 3206" transform="translate(11.709 15.823)">
          <path id="Trazado_13254" data-name="Trazado 13254" d="M428.318,611.066a5.62,5.62,0,0,1-4.047-1.72l-10.855-8.259h-5.482a2.225,2.225,0,1,1,0-4.45h6.232a2.226,2.226,0,0,1,1.346.454l11.6,8.828a2.08,2.08,0,0,1,.316.294,1.177,1.177,0,0,0,1.631.129L446.5,592.337a1.184,1.184,0,0,0,.162-1.626L437.19,580.3a2.225,2.225,0,0,1,3.295-2.992l9.578,10.537a5.629,5.629,0,0,1-.763,7.945L431.864,609.8A5.571,5.571,0,0,1,428.318,611.066Z" transform="translate(-405.709 -576.582)" fill="#006729"/>
        </g>
        <g id="Trazado_3207" data-name="Trazado 3207" transform="translate(11.708 3.393)">
          <path id="Trazado_13255" data-name="Trazado 13255" d="M407.935,582.011a2.225,2.225,0,0,1-.874-4.272l14.177-6.045a9.514,9.514,0,0,1,9.242,1.159l1,.817a2.224,2.224,0,0,1-2.823,3.437l-.906-.743a5.013,5.013,0,0,0-4.812-.556l-14.125,6.025A2.251,2.251,0,0,1,407.935,582.011Z" transform="translate(-405.708 -570.994)" fill="#006729"/>
        </g>
        <g id="Trazado_3208" data-name="Trazado 3208" transform="translate(0 3.684)">
          <path id="Trazado_13256" data-name="Trazado 13256" d="M409.365,610.7h-6.694a2.225,2.225,0,1,1,0-4.45h6.694a2.793,2.793,0,0,0,2.79-2.79V578.325a2.753,2.753,0,0,0-2.75-2.75h-6.734a2.225,2.225,0,1,1,0-4.45h6.694a7.217,7.217,0,0,1,7.24,7.2v25.134A7.248,7.248,0,0,1,409.365,610.7Z" transform="translate(-400.446 -571.125)" fill="#006729"/>
        </g>
        <g id="Trazado_3209" data-name="Trazado 3209" transform="translate(64.393 3.684)">
          <path id="Trazado_13257" data-name="Trazado 13257" d="M443.321,610.7h-6.692a7.248,7.248,0,0,1-7.24-7.239v-25.1a7.248,7.248,0,0,1,7.24-7.237h6.692a2.225,2.225,0,1,1,0,4.45h-6.692a2.791,2.791,0,0,0-2.79,2.788v25.1a2.793,2.793,0,0,0,2.79,2.79h6.692a2.225,2.225,0,1,1,0,4.45Z" transform="translate(-429.389 -571.125)" fill="#006729"/>
        </g>
      </g>
      <g id="Grupo_22871" data-name="Grupo 22871" transform="translate(422.747 560.254)">
        <g id="Grupo_22868" data-name="Grupo 22868" transform="translate(16.175)">
          <path id="Trazado_13258" data-name="Trazado 13258" d="M419.965,572.867a2.224,2.224,0,0,1-2.225-2.225v-8.163a2.225,2.225,0,1,1,4.45,0v8.163A2.223,2.223,0,0,1,419.965,572.867Z" transform="translate(-417.74 -560.254)" fill="red"/>
        </g>
        <g id="Grupo_22869" data-name="Grupo 22869" transform="translate(26.331 5.005)">
          <path id="Trazado_13259" data-name="Trazado 13259" d="M424.528,573.268a2.224,2.224,0,0,1-1.72-3.633l5.171-6.316a2.224,2.224,0,1,1,3.44,2.819l-5.168,6.316A2.217,2.217,0,0,1,424.528,573.268Z" transform="translate(-422.305 -562.504)" fill="red"/>
        </g>
        <g id="Grupo_22870" data-name="Grupo 22870" transform="translate(0 5.003)">
          <path id="Trazado_13260" data-name="Trazado 13260" d="M417.866,573.269a2.218,2.218,0,0,1-1.722-.814l-5.17-6.316a2.224,2.224,0,1,1,3.442-2.819l5.168,6.316a2.222,2.222,0,0,1-1.718,3.633Z" transform="translate(-410.47 -562.503)" fill="red"/>
        </g>
      </g>
    </g>
  </g>
</svg>
