<svg xmlns="http://www.w3.org/2000/svg" width="65" height="65" viewBox="0 0 65 65">
  <g id="Grupo_18784" data-name="Grupo 18784" transform="translate(-40 -318)">
    <rect id="Rectángulo_6317" data-name="Rectángulo 6317" width="65" height="65" rx="6" transform="translate(40 318)" fill="#e5e5e5"/>
    <g id="Grupo_18702" data-name="Grupo 18702" transform="translate(-2792 -3543)">
      <g id="Trazado_11520" data-name="Trazado 11520" transform="translate(2849 3875)" fill="#fff">
        <path d="M 27 36 L 4 36 C 2.345789909362793 36 1 34.65420913696289 1 33 L 1 3.999998092651367 C 1 2.34578800201416 2.345789909362793 0.9999980926513672 4 0.9999980926513672 L 17.61998558044434 0.9999980926513672 L 30 12.47326469421387 L 30 33 C 30 34.65420913696289 28.65420913696289 36 27 36 Z" stroke="none"/>
        <path d="M 4 1.999996185302734 C 2.897199630737305 1.999996185302734 2 2.897197723388672 2 3.999996185302734 L 2 33 C 2 34.10279846191406 2.897199630737305 35 4 35 L 27 35 C 28.1028003692627 35 29 34.10279846191406 29 33 L 29 12.909912109375 L 17.22787094116211 1.999996185302734 L 4 1.999996185302734 M 4 -3.814697265625e-06 L 18.01211929321289 -3.814697265625e-06 L 31 12.03661727905273 L 31 33 C 31 35.20913696289062 29.20914077758789 37 27 37 L 4 37 C 1.790859222412109 37 0 35.20913696289062 0 33 L 0 3.999996185302734 C 0 1.790859222412109 1.790859222412109 -3.814697265625e-06 4 -3.814697265625e-06 Z" stroke="none" fill="#006c30"/>
      </g>
      <rect id="Rectángulo_6430" data-name="Rectángulo 6430" width="4" height="12" transform="translate(2864 3877)" fill="#e5e5e5"/>
      <rect id="Rectángulo_6431" data-name="Rectángulo 6431" width="4" height="14" transform="translate(2878 3886) rotate(90)" fill="#e5e5e5"/>
      <path id="Trazado_11519" data-name="Trazado 11519" d="M2502,3701.2v11.212h12.162Z" transform="translate(365.4 174.988)" fill="#006c30"/>
      <line id="Línea_34" data-name="Línea 34" x2="15" transform="translate(2857 3894.5)" fill="none" stroke="#006c30" stroke-width="2"/>
      <line id="Línea_35" data-name="Línea 35" x2="15" transform="translate(2857 3902.5)" fill="none" stroke="#006c30" stroke-width="2"/>
    </g>
  </g>
</svg>
