<svg id="directions_car_filled_black_24dp_1_" data-name="directions_car_filled_black_24dp (1)" xmlns="http://www.w3.org/2000/svg" width="24" height="24" viewBox="0 0 24 24">
  <g id="Group_3600" data-name="Group 3600">
    <rect id="Rectangle_21" data-name="Rectangle 21" width="24" height="24" fill="none"/>
  </g>
  <path id="health_and_safety_FILL0_wght400_GRAD0_opsz24" d="M10.5,15.5h3V13H16V10H13.5V7.5h-3V10H8v3h2.5ZM12,22a9.96,9.96,0,0,1-5.737-3.988A11.48,11.48,0,0,1,4,11.1V5l8-3,8,3v6.1a11.483,11.483,0,0,1-2.262,6.912A9.965,9.965,0,0,1,12,22Zm0-10Zm0,7.9a8.138,8.138,0,0,0,4.3-3.3A9.5,9.5,0,0,0,18,11.1V6.375l-6-2.25L6,6.375V11.1a9.5,9.5,0,0,0,1.7,5.5A8.138,8.138,0,0,0,12,19.9Z" fill="#006c30"/>
</svg>
