<svg xmlns="http://www.w3.org/2000/svg" xmlns:xlink="http://www.w3.org/1999/xlink" width="54" height="54" viewBox="0 0 54 54">
  <defs>
    <clipPath id="clip-path">
      <rect id="Rect치ngulo_6380" data-name="Rect치ngulo 6380" width="45" height="42.3" fill="#65a518"/>
    </clipPath>
  </defs>
  <g id="Grupo_19746" data-name="Grupo 19746" transform="translate(17683 18373)">
    <g id="Grupo_19725" data-name="Grupo 19725" transform="translate(-17873 -18995)">
      <rect id="Rect치ngulo_6379" data-name="Rect치ngulo 6379" width="54" height="54" transform="translate(190 622)" fill="none"/>
      <g id="Grupo_19723" data-name="Grupo 19723" transform="translate(195 628)">
        <g id="Grupo_19722" data-name="Grupo 19722" transform="translate(0 0)" clip-path="url(#clip-path)">
          <path id="Trazado_11181" data-name="Trazado 11181" d="M7.4,31.885A5.019,5.019,0,0,1,3.8,30.461c-2.218-2.216-1.828-6.083.886-8.8l8.746-8.742a1.778,1.778,0,0,1,2.517,0l5.395,5.395a1.779,1.779,0,0,1,0,2.517L12.6,29.571a7.5,7.5,0,0,1-5.2,2.314m7.3-15.192L7.2,24.177c-1.369,1.372-1.568,3.088-.886,3.77a1.522,1.522,0,0,0,1.077.379,4,4,0,0,0,2.687-1.269L17.57,19.57Z" transform="translate(1.844 9.666)" fill="#65a518"/>
          <path id="Trazado_11182" data-name="Trazado 11182" d="M23.5,11.284a4.315,4.315,0,0,1-3.049-7.368L23.414.945a1.834,1.834,0,0,1,2.517,0l3.588,3.588a1.779,1.779,0,0,1,0,2.517L26.55,10.02A4.291,4.291,0,0,1,23.5,11.284m1.175-6.562-1.71,1.71a.758.758,0,0,0,0,1.071.639.639,0,0,0,1.068,0l1.71-1.712Z" transform="translate(14.96 0.347)" fill="#65a518"/>
          <path id="Trazado_11183" data-name="Trazado 11183" d="M15.882,17.46a1.781,1.781,0,0,1-1.258-3.04l9.789-9.783a1.78,1.78,0,0,1,2.517,2.518L17.14,16.939a1.775,1.775,0,0,1-1.258.521" transform="translate(10.996 3.21)" fill="#65a518"/>
          <path id="Trazado_11184" data-name="Trazado 11184" d="M35.444,42.3h0A6.82,6.82,0,0,1,30.6,40.294L13.569,23.264A11.7,11.7,0,0,1,.742,7.6a1.777,1.777,0,0,1,2.922-.635l4.795,4.793,2.6-.7.694-2.6L6.964,3.668A1.779,1.779,0,0,1,7.6.744a11.7,11.7,0,0,1,15.66,12.83L40.291,30.6a6.852,6.852,0,0,1-4.846,11.7M14.153,19.549a1.776,1.776,0,0,1,1.258.521l17.7,17.707a3.375,3.375,0,0,0,4.658,0,3.283,3.283,0,0,0,0-4.652L20.065,15.415a1.788,1.788,0,0,1-.465-1.7,8.138,8.138,0,0,0-7.71-10.157L15,6.674a1.779,1.779,0,0,1,.461,1.719l-1.23,4.585a1.774,1.774,0,0,1-1.258,1.258L8.39,15.466a1.782,1.782,0,0,1-1.721-.461L3.561,11.9A8.13,8.13,0,0,0,13.715,19.6a1.842,1.842,0,0,1,.438-.053" transform="translate(0 0)" fill="#65a518"/>
          <path id="Trazado_11185" data-name="Trazado 11185" d="M20.418,18.866A1.483,1.483,0,1,0,21.9,20.35a1.483,1.483,0,0,0-1.484-1.484" transform="translate(14.764 14.711)" fill="#65a518"/>
        </g>
      </g>
    </g>
  </g>
</svg>
