<svg id="inventory_2_black_24dp" xmlns="http://www.w3.org/2000/svg" width="24" height="24" viewBox="0 0 24 24">
  <g id="Grupo_17690" data-name="Grupo 17690">
    <rect id="Rect치ngulo_491" data-name="Rect치ngulo 491" width="24" height="24" fill="none"/>
  </g>
  <g id="Grupo_17692" data-name="Grupo 17692">
    <g id="Grupo_17691" data-name="Grupo 17691">
      <path id="Trazado_11291" data-name="Trazado 11291" d="M20,2H4A2.074,2.074,0,0,0,2,4V7.01A2.02,2.02,0,0,0,3,8.7V20a2.149,2.149,0,0,0,2,2H19a2.149,2.149,0,0,0,2-2V8.7a2.02,2.02,0,0,0,1-1.69V4A2.074,2.074,0,0,0,20,2ZM19,20H5V9H19ZM20,7H4V4H20Z" fill="#006c30"/>
      <rect id="Rect치ngulo_492" data-name="Rect치ngulo 492" width="6" height="2" transform="translate(9 12)" fill="#006c30"/>
    </g>
  </g>
</svg>
