<svg xmlns="http://www.w3.org/2000/svg" xmlns:xlink="http://www.w3.org/1999/xlink" width="34.086" height="33.09" viewBox="0 0 34.086 33.09">
  <defs>
    <clipPath id="clip-path">
      <rect id="Rectángulo_7531" data-name="Rectángulo 7531" width="34.086" height="33.09" fill="none"/>
    </clipPath>
  </defs>
  <g id="Grupo_22895" data-name="Grupo 22895" transform="translate(0 0)">
    <g id="Grupo_22895-2" data-name="Grupo 22895" transform="translate(0 0)" clip-path="url(#clip-path)">
      <path id="Trazado_13296" data-name="Trazado 13296" d="M27.35,10.1a1.364,1.364,0,0,1-1.245-.806L23.7,3.929a1.777,1.777,0,0,0-1.654-1.2H9.825A1.737,1.737,0,0,0,8.2,3.849L5.771,9.288A1.363,1.363,0,1,1,3.283,8.173l2.4-5.359A4.444,4.444,0,0,1,9.823,0H22.047A4.479,4.479,0,0,1,26.22,2.892l2.373,5.284A1.365,1.365,0,0,1,27.35,10.1" transform="translate(0.287 0)" fill="#026d31"/>
      <path id="Trazado_13297" data-name="Trazado 13297" d="M4.547,23.468a3.822,3.822,0,0,1-1.688-.4A3.466,3.466,0,0,1,1,19.942v-2.08a1.363,1.363,0,1,1,2.726,0v2.08a.759.759,0,0,0,.337.68.888.888,0,0,0,.911,0,.815.815,0,0,0,.388-.7V17.862a1.364,1.364,0,0,1,2.728,0v2.064a3.538,3.538,0,0,1-3.544,3.542" transform="translate(0.091 1.497)" fill="#026d31"/>
      <path id="Trazado_13298" data-name="Trazado 13298" d="M5.533,15.008A1.364,1.364,0,0,1,4.17,13.644a1.882,1.882,0,0,1,1.879-1.879,1.363,1.363,0,0,1,.671,2.55,1.361,1.361,0,0,1-1.187.693" transform="translate(0.378 1.068)" fill="#026d31"/>
      <path id="Trazado_13299" data-name="Trazado 13299" d="M6.523,15.008a1.361,1.361,0,0,1-1.187-.693,1.363,1.363,0,0,1,.671-2.55,1.882,1.882,0,0,1,1.879,1.879,1.364,1.364,0,0,1-1.363,1.363" transform="translate(0.421 1.068)" fill="#026d31"/>
      <path id="Trazado_13300" data-name="Trazado 13300" d="M6.007,15.481a1.363,1.363,0,0,1-.671-2.55,1.363,1.363,0,0,1,2.55.671,1.882,1.882,0,0,1-1.879,1.879" transform="translate(0.421 1.111)" fill="#026d31"/>
      <path id="Trazado_13301" data-name="Trazado 13301" d="M6.049,15.482A1.882,1.882,0,0,1,4.17,13.6a1.363,1.363,0,0,1,2.55-.671,1.363,1.363,0,0,1-.671,2.55M6.9,13.6h0Z" transform="translate(0.378 1.111)" fill="#026d31"/>
      <path id="Trazado_13302" data-name="Trazado 13302" d="M12.271,20.043H2.454A2.457,2.457,0,0,1,0,17.588V11.044A3.549,3.549,0,0,1,3.545,7.5h24A5.74,5.74,0,0,1,32.5,10.362a1.363,1.363,0,1,1-2.361,1.363,3.01,3.01,0,0,0-2.6-1.5h-24a.819.819,0,0,0-.818.818v6.272h9.544a1.363,1.363,0,0,1,0,2.727" transform="translate(0 0.681)" fill="#026d31"/>
      <path id="Trazado_13303" data-name="Trazado 13303" d="M23.238,31.937a9.613,9.613,0,1,1,9.612-9.613,9.624,9.624,0,0,1-9.612,9.613m0-16.5a6.886,6.886,0,1,0,6.885,6.886,6.894,6.894,0,0,0-6.885-6.886" transform="translate(1.236 1.154)" fill="#026d31"/>
      <path id="Trazado_13304" data-name="Trazado 13304" d="M21.733,26.539a2.376,2.376,0,0,1-1.437-.482,2.306,2.306,0,0,1-.253-.22l-2.063-2.063a1.364,1.364,0,0,1,1.928-1.928L21.7,23.639l3.764-5.02a1.363,1.363,0,0,1,2.181,1.636l-3.994,5.326a2.4,2.4,0,0,1-1.921.958" transform="translate(1.596 1.64)" fill="#d4001b"/>
    </g>
  </g>
</svg>
