<svg xmlns="http://www.w3.org/2000/svg" xmlns:xlink="http://www.w3.org/1999/xlink" width="16" height="15.996" viewBox="0 0 16 15.996">
  <defs>
    <clipPath id="clip-path">
      <rect id="Rectangle_7028" data-name="Rectangle 7028" width="16" height="15.996" fill="#6e6e6e"/>
    </clipPath>
  </defs>
  <g id="Group_22247" data-name="Group 22247" transform="translate(0 0)">
    <g id="Group_21108" data-name="Group 21108" transform="translate(0 0)" clip-path="url(#clip-path)">
      <path id="Path_12101" data-name="Path 12101" d="M4.873,3.924a.807.807,0,0,0-.806.806v3.5a.806.806,0,1,0,1.612,0V4.73a.807.807,0,0,0-.806-.806" transform="translate(3.185 3.074)" fill="#6e6e6e"/>
      <path id="Path_12102" data-name="Path 12102" d="M4.248,2.658A.873.873,0,0,0,4,3.279a.8.8,0,0,0,.253.606.905.905,0,0,0,1.22,0,.814.814,0,0,0,.257-.608.878.878,0,0,0-.248-.621.869.869,0,0,0-1.236,0" transform="translate(3.134 1.88)" fill="#6e6e6e"/>
      <path id="Path_12103" data-name="Path 12103" d="M15.371,4.877A7.992,7.992,0,0,0,11.121.627,8.036,8.036,0,0,0,4.9.627,8.241,8.241,0,0,0,2.35,2.337,7.95,7.95,0,0,0,.631,4.877,7.758,7.758,0,0,0,0,7.978,7.84,7.84,0,0,0,.629,11.1,8.068,8.068,0,0,0,4.9,15.369a8.02,8.02,0,0,0,6.225,0,8.089,8.089,0,0,0,2.539-1.719,8.354,8.354,0,0,0,1.71-2.548,8.026,8.026,0,0,0,0-6.223m-.984,3.1a6.227,6.227,0,0,1-1.86,4.54,6.154,6.154,0,0,1-4.508,1.869,6.181,6.181,0,0,1-4.1-1.468A6.523,6.523,0,0,1,1.64,7.359,6.1,6.1,0,0,1,3.481,3.47,6.2,6.2,0,0,1,8,1.61a6.184,6.184,0,0,1,4.527,1.86,6.161,6.161,0,0,1,1.86,4.508" transform="translate(0 0.001)" fill="#6e6e6e"/>
    </g>
  </g>
</svg>
