<svg xmlns="http://www.w3.org/2000/svg" width="56" height="56" viewBox="0 0 56 56">
  <g id="Group_20917" data-name="Group 20917" transform="translate(16230 21652)">
    <g id="Grupo_16351" data-name="Grupo 16351" transform="translate(-20233 -11595)">
      <g id="Grupo_16347" data-name="Grupo 16347" transform="translate(12062 -4933)">
        <g id="Grupo_16199" data-name="Grupo 16199" transform="translate(-8059 -5124)">
          <g id="Grupo_16193" data-name="Grupo 16193">
            <g id="Grupo_15839" data-name="Grupo 15839">
              <g id="Grupo_15836" data-name="Grupo 15836">
                <rect id="Rectángulo_235" data-name="Rectángulo 235" width="56" height="56" fill="none"/>
              </g>
            </g>
          </g>
        </g>
      </g>
    </g>
    <g id="Group_20916" data-name="Group 20916" transform="translate(102.367 -27.067)">
      <g id="Group_20913" data-name="Group 20913">
        <path id="Trazado_3151" data-name="Trazado 3151" d="M14.062,42.182a3.093,3.093,0,1,0,3.093-3.093,3.093,3.093,0,0,0-3.093,3.093Z" transform="translate(-16332.183 -21630.732)" fill="none" stroke="#006c30" stroke-linecap="round" stroke-linejoin="round" stroke-width="2"/>
        <path id="Trazado_3152" data-name="Trazado 3152" d="M1.562,43.777H9.809" transform="translate(-16327.928 -21632.328)" fill="none" stroke="#006c30" stroke-linecap="round" stroke-linejoin="round" stroke-width="2"/>
        <path id="Trazado_3153" data-name="Trazado 3153" d="M16,34.738h3.093a2.061,2.061,0,0,0,2.061-2.061V29.585a4.124,4.124,0,0,0-4.124-4.124H12.9L9.912,19.493a4.124,4.124,0,0,0-3.687-2.279H1.562" transform="translate(-16327.928 -21623.291)" fill="none" stroke="#006c30" stroke-linecap="round" stroke-linejoin="round" stroke-width="2"/>
        <path id="Trazado_3154" data-name="Trazado 3154" d="M1.562,29.715H12.9" transform="translate(-16327.928 -21627.543)" fill="none" stroke="#006c30" stroke-linecap="round" stroke-linejoin="round" stroke-width="2"/>
        <path id="Trazado_3151-2" data-name="Trazado 3151" d="M20.248,42.182a3.093,3.093,0,1,1-3.093-3.092,3.093,3.093,0,0,1,3.093,3.092Z" transform="translate(-16310.866 -21630.732)" fill="none" stroke="#006c30" stroke-linecap="round" stroke-linejoin="round" stroke-width="2"/>
        <path id="Trazado_3152-2" data-name="Trazado 3152" d="M9.809,43.777H1.562" transform="translate(-16292.182 -21632.328)" fill="none" stroke="#006c30" stroke-linecap="round" stroke-linejoin="round" stroke-width="2"/>
        <path id="Trazado_3153-2" data-name="Trazado 3153" d="M6.716,34.738H3.624a2.061,2.061,0,0,1-2.061-2.061V29.585a4.124,4.124,0,0,1,4.124-4.124H9.809L12.8,19.493a4.124,4.124,0,0,1,3.687-2.278h4.667" transform="translate(-16303.52 -21623.289)" fill="none" stroke="#006c30" stroke-linecap="round" stroke-linejoin="round" stroke-width="2"/>
        <path id="Trazado_3154-2" data-name="Trazado 3154" d="M12.9,29.715H1.562" transform="translate(-16295.273 -21627.543)" fill="none" stroke="#006c30" stroke-linecap="round" stroke-linejoin="round" stroke-width="2"/>
        <path id="Trazado_3136" data-name="Trazado 3136" d="M37.39,3.679V1.562" transform="translate(-16341.8 -21609.494)" fill="none" stroke="#d4001b" stroke-linecap="round" stroke-linejoin="round" stroke-width="2"/>
        <path id="Trazado_3155" data-name="Trazado 3155" d="M37.117,3.839l.717-.637" transform="translate(-16337.188 -21608.377)" fill="none" stroke="#d4001b" stroke-linecap="round" stroke-linejoin="round" stroke-width="2"/>
        <path id="Trazado_3156" data-name="Trazado 3156" d="M37.834,3.839,37.117,3.2" transform="translate(-16346.501 -21608.061)" fill="none" stroke="#d4001b" stroke-linecap="round" stroke-linejoin="round" stroke-width="2"/>
      </g>
    </g>
  </g>
</svg>
