<svg xmlns="http://www.w3.org/2000/svg" width="56" height="56" viewBox="0 0 56 56">
  <g id="Group_20919" data-name="Group 20919" transform="translate(16229 21510)">
    <g id="Grupo_16351" data-name="Grupo 16351" transform="translate(-20232 -11453)">
      <g id="Grupo_16347" data-name="Grupo 16347" transform="translate(12062 -4933)">
        <g id="Grupo_16199" data-name="Grupo 16199" transform="translate(-8059 -5124)">
          <g id="Grupo_16193" data-name="Grupo 16193">
            <g id="Grupo_15839" data-name="Grupo 15839">
              <g id="Grupo_15836" data-name="Grupo 15836">
                <rect id="Rectángulo_235" data-name="Rectángulo 235" width="56" height="56" fill="none"/>
              </g>
            </g>
          </g>
        </g>
      </g>
    </g>
    <g id="Group_20914" data-name="Group 20914" transform="translate(100.746 19.503)">
      <g id="Group_20911" data-name="Group 20911">
        <path id="Trazado_4365" data-name="Trazado 4365" d="M35.937,44.422a2.234,2.234,0,1,0,2.234-2.234A2.234,2.234,0,0,0,35.937,44.422Z" transform="translate(-16323.621 -21534.91)" fill="none" stroke="#006c30" stroke-linecap="round" stroke-linejoin="round" stroke-width="2"/>
        <path id="Trazado_4366" data-name="Trazado 4366" d="M10.937,44.422a2.234,2.234,0,1,0,2.234-2.234A2.234,2.234,0,0,0,10.937,44.422Z" transform="translate(-16326.483 -21534.91)" fill="none" stroke="#006c30" stroke-linecap="round" stroke-linejoin="round" stroke-width="2"/>
        <path id="Trazado_4367" data-name="Trazado 4367" d="M30.6,38.188H32.83a2.234,2.234,0,0,0,2.234-2.234V33.72A4.469,4.469,0,0,0,30.6,29.25l-3.851-7.7a2.234,2.234,0,0,0-2-1.235H21.66a2.234,2.234,0,0,0-2.234,2.234v6.7H-7.2a2.234,2.234,0,0,0-1.581.655,2.234,2.234,0,0,0-.654,1.581v4.469A2.234,2.234,0,0,0-7.2,38.188h4.469" transform="translate(-16313.811 -21528.678)" fill="none" stroke="#006c30" stroke-linecap="round" stroke-linejoin="round" stroke-width="2"/>
        <path id="Trazado_4368" data-name="Trazado 4368" d="M39.828,45.312H17.187" transform="translate(-16327.511 -21535.801)" fill="none" stroke="#006c30" stroke-linecap="round" stroke-linejoin="round" stroke-width="2"/>
        <path id="Trazado_4369" data-name="Trazado 4369" d="M26.562,32.812H37.735" transform="translate(-16320.949 -21532.24)" fill="none" stroke="#006c30" stroke-linecap="round" stroke-linejoin="round" stroke-width="2"/>
        <path id="Trazado_4478" data-name="Trazado 4478" d="M26.123,15.185V13.842a1.342,1.342,0,1,0-2.685,0v1.342" transform="translate(-16316.079 -21523.906)" fill="none" stroke="#006c30" stroke-linecap="round" stroke-linejoin="round" stroke-width="2"/>
        <circle id="Elipse_155" data-name="Elipse 155" cx="1.467" cy="1.467" r="1.467" transform="translate(-16315.815 -21515.246) rotate(-4.992)" fill="none" stroke="#d4001b" stroke-linecap="round" stroke-linejoin="round" stroke-width="2"/>
        <path id="Trazado_4477" data-name="Trazado 4477" d="M3.353,2.893V1.636A1.677,1.677,0,0,0,0,1.636V2.893" transform="translate(-16315.709 -21511.641) rotate(-4.992)" fill="none" stroke="#d40822" stroke-linecap="round" stroke-linejoin="round" stroke-width="2"/>
        <path id="Trazado_3141" data-name="Trazado 3141" d="M0,1.855A1.855,1.855,0,1,0,1.855,0,1.855,1.855,0,0,0,0,1.855Z" transform="translate(-16304.343 -21504.502)" fill="none" stroke="#006c30" stroke-linecap="round" stroke-linejoin="round" stroke-width="1.8"/>
        <path id="Trazado_3142" data-name="Trazado 3142" d="M0,1.855A1.855,1.855,0,1,0,1.855,0,1.855,1.855,0,0,0,0,1.855Z" transform="translate(-16321.036 -21504.502)" fill="none" stroke="#006c30" stroke-linecap="round" stroke-linejoin="round" stroke-width="1.8"/>
        <path id="Trazado_3143" data-name="Trazado 3143" d="M3.709,7.419H1.855A1.855,1.855,0,0,1,0,5.565,5.565,5.565,0,0,1,5.565,0,1.855,1.855,0,0,1,7.419,1.855h8.347A1.855,1.855,0,0,0,17.621,0h4.637a5.565,5.565,0,0,1,5.565,5.565,1.855,1.855,0,0,1-1.857,1.855H24.113" transform="translate(-16324.746 -21510.068)" fill="none" stroke="#006c30" stroke-linecap="round" stroke-linejoin="round" stroke-width="2"/>
        <path id="Trazado_3144" data-name="Trazado 3144" d="M12.983,0H0" transform="translate(-16317.326 -21502.65)" fill="none" stroke="#006c30" stroke-linecap="round" stroke-linejoin="round" stroke-width="1.8"/>
        <path id="Trazado_3145" data-name="Trazado 3145" d="M2.782,3.709,0,0" transform="translate(-16309.907 -21513.777)" fill="none" stroke="#006c30" stroke-linecap="round" stroke-linejoin="round" stroke-width="1.8"/>
        <path id="Trazado_3141-2" data-name="Trazado 3141" d="M0,1.855A1.855,1.855,0,1,0,1.855,0,1.855,1.855,0,0,0,0,1.855Z" transform="translate(-16304.343 -21504.502)" fill="none" stroke="#006c30" stroke-linecap="round" stroke-linejoin="round" stroke-width="2"/>
        <path id="Trazado_3142-2" data-name="Trazado 3142" d="M0,1.855A1.855,1.855,0,1,0,1.855,0,1.855,1.855,0,0,0,0,1.855Z" transform="translate(-16321.036 -21504.502)" fill="none" stroke="#006c30" stroke-linecap="round" stroke-linejoin="round" stroke-width="2"/>
        <path id="Trazado_3144-2" data-name="Trazado 3144" d="M12.983,0H0" transform="translate(-16317.326 -21502.65)" fill="none" stroke="#006c30" stroke-linecap="round" stroke-linejoin="round" stroke-width="2"/>
        <path id="Trazado_3145-2" data-name="Trazado 3145" d="M2.782,3.709,0,0" transform="translate(-16309.907 -21513.777)" fill="none" stroke="#006c30" stroke-linecap="round" stroke-linejoin="round" stroke-width="2"/>
      </g>
    </g>
  </g>
</svg>
