<svg xmlns="http://www.w3.org/2000/svg" width="18.738" height="23.967" viewBox="0 0 18.738 23.967">
  <path id="Path_12980" data-name="Path 12980" d="M406.145,366.835a9.281,9.281,0,0,0-10.678,5.526c-1.638,4.07-.583,7.726,2.082,11.008,1.869,2.3,4.154,4.242,5.8,6.745a.819.819,0,0,0,1.494-.021,67.212,67.212,0,0,1,5.46-6.329,11.457,11.457,0,0,0,3.121-8.063A9.21,9.21,0,0,0,406.145,366.835Zm-2.127,11.731a2.544,2.544,0,1,1,2.6-2.562A2.593,2.593,0,0,1,404.018,378.566Z" transform="translate(-394.686 -366.62)" fill="#006729"/>
</svg>
