<svg xmlns="http://www.w3.org/2000/svg" xmlns:v="https://svgstorm.com"
viewBox = "0 0 512 512"
width="512"
height="512">
<g fill="None" fill-opacity="0.0" stroke="#F7FDFD" stroke-opacity="1.00" stroke-width="0.3"><path d="
M 0.00 512.00 
L 512.00 512.00
L 512.00 0.00
L 0.00 0.00
L 0.00 512.00
M 265.00 66.00 
C 271.98 66.45 280.28 71.07 285.00 76.00
C 285.24 76.25 286.00 76.00 286.00 76.00
C 291.25 78.57 294.73 85.06 299.25 88.75 C 303.77 92.45 308.54 98.37 312.75 102.25 C 316.96 106.12 322.03 111.56 325.75 115.25 C 329.47 118.94 336.42 125.69 339.25 128.75 C 342.08 131.82 352.45 140.62 351.00 142.00
C 350.93 141.82 350.00 142.00 350.00 142.00
C 287.00 142.00 224.00 142.00 161.00 142.00
C 160.50 142.00 160.00 142.00 160.00 142.00
C 158.56 140.63 168.93 131.79 171.75 128.75 C 174.57 125.72 181.46 118.99 185.25 115.25 C 189.04 111.51 194.47 105.68 198.75 101.75 C 203.03 97.82 207.62 91.99 212.25 88.25 C 216.88 84.50 220.68 77.60 226.00 75.00
C 226.40 74.80 227.00 75.00 227.00 75.00
C 230.02 70.17 240.55 66.35 246.00 66.00
C 247.20 65.66 248.26 65.07 250.00 65.00
C 251.33 64.95 252.67 65.00 254.00 65.00
C 255.00 65.00 256.00 65.00 257.00 65.00
C 258.33 65.00 259.67 64.95 261.00 65.00
C 262.82 65.07 263.76 65.65 265.00 66.00
M 141.00 161.00 
C 140.82 161.07 141.00 162.00 141.00 162.00
C 141.00 225.00 141.00 288.00 141.00 351.00
C 141.00 351.50 141.00 352.00 141.00 352.00
C 139.60 353.47 130.83 343.04 127.75 340.25 C 124.67 337.46 118.08 330.49 114.25 326.75 C 110.42 323.01 104.89 317.43 100.75 313.25 C 96.61 309.06 91.45 304.17 87.25 299.75 C 83.05 295.33 77.62 290.86 74.00 286.00
C 60.39 270.42 61.06 245.05 73.00 229.00
C 74.24 227.33 75.69 225.53 77.00 224.00
C 83.41 216.50 91.10 209.89 98.00 203.00
C 101.30 199.70 104.75 195.37 108.25 192.25 C 111.74 189.12 116.00 184.20 119.25 181.25 C 122.49 178.29 127.54 172.56 130.25 170.25 C 132.96 167.94 139.56 159.48 141.00 161.00
M 436.00 226.00 
C 436.72 226.95 437.35 228.06 438.00 229.00
C 442.35 235.27 446.15 243.42 447.00 251.00
C 447.35 254.11 447.27 257.88 447.00 261.00
C 446.13 270.93 440.88 280.10 435.00 288.00
C 431.47 292.75 426.31 296.99 422.25 301.25 C 418.19 305.51 413.26 310.22 409.25 314.25 C 405.24 318.28 399.99 323.65 396.25 327.25 C 392.51 330.85 386.32 337.57 383.25 340.25 C 380.18 342.93 371.52 353.52 370.00 352.00
C 365.48 347.66 370.37 335.62 369.00 329.00 C 367.63 322.38 369.59 312.36 369.00 305.00 C 368.41 297.64 369.22 288.67 369.00 281.00 C 368.78 273.33 368.99 264.75 369.00 257.00 C 369.01 249.25 368.76 240.67 369.00 233.00 C 369.24 225.33 368.36 216.38 369.00 209.00 C 369.64 201.62 367.53 191.67 369.00 185.00 C 370.47 178.33 365.41 165.41 370.00 161.00
C 371.49 159.51 379.61 169.45 382.75 172.25 C 385.89 175.05 392.44 182.07 396.25 185.75 C 400.06 189.43 405.13 194.60 409.25 198.75 C 413.37 202.90 418.54 207.86 422.75 212.25 C 426.96 216.64 432.35 221.18 436.00 226.00
M 291.00 221.00 
C 295.11 225.11 290.62 233.86 292.00 240.00 C 293.38 246.14 290.88 254.08 292.00 261.00 C 293.12 267.92 290.38 274.36 292.00 282.00 C 293.62 289.64 289.90 294.76 282.00 293.00 C 274.10 291.24 268.05 294.22 261.00 293.00 C 253.95 291.78 246.23 294.49 240.00 293.00 C 233.77 291.51 224.21 296.21 220.00 292.00
C 215.48 287.48 220.41 275.73 219.00 269.00 C 217.59 262.27 219.71 252.47 219.00 245.00 C 218.29 237.53 219.53 227.69 219.00 220.00
C 242.83 220.67 267.99 218.67 291.00 221.00
M 286.00 437.00 
C 285.05 437.72 283.94 438.35 283.00 439.00
C 273.36 445.68 263.89 448.00 252.00 448.00
C 250.70 448.00 249.28 448.16 248.00 448.00
C 241.05 447.13 233.88 442.66 228.00 439.00
C 227.36 438.60 226.61 438.37 226.00 438.00
C 220.79 434.83 216.81 428.74 212.25 424.75 C 207.69 420.77 203.01 415.30 198.75 411.25 C 194.50 407.20 189.04 401.56 185.25 397.75 C 181.46 393.94 174.61 387.36 171.75 384.25 C 168.90 381.14 158.55 372.39 160.00 371.00
C 160.07 371.18 161.00 371.00 161.00 371.00
C 224.00 371.00 287.00 371.00 350.00 371.00
C 350.50 371.00 351.00 371.00 351.00 371.00
C 352.46 372.39 342.57 380.66 339.75 383.75 C 336.94 386.85 329.94 393.46 326.25 397.25 C 322.56 401.04 317.40 406.14 313.25 410.25 C 309.10 414.36 304.14 419.55 299.75 423.75 C 295.36 427.95 290.82 433.36 286.00 437.00
M 384.00 403.00 
C 391.66 406.16 391.78 423.41 400.00 426.00
C 405.15 418.52 408.19 406.85 416.00 403.00
C 417.31 403.23 417.76 414.63 417.00 418.00 C 416.24 421.37 419.19 434.43 416.00 436.00
C 415.69 436.15 413.31 436.15 413.00 436.00
C 411.06 435.04 411.47 427.64 412.00 425.00 C 412.53 422.36 410.78 414.94 411.00 413.00
C 406.45 418.70 404.18 429.46 397.00 431.00
C 393.82 423.77 389.58 416.34 385.00 410.00
C 384.35 413.67 385.86 419.55 385.00 423.00 C 384.14 426.45 387.01 434.04 384.00 436.00
C 383.65 436.23 382.35 436.23 382.00 436.00
C 378.86 433.96 381.52 421.69 381.00 418.00 C 380.48 414.31 379.53 401.16 384.00 403.00
M 430.00 415.00 
C 431.52 416.93 433.14 418.72 434.00 421.00
C 438.15 418.43 439.14 410.83 445.00 411.00
C 442.61 415.02 439.77 419.18 436.00 422.00
C 438.30 427.09 442.96 431.17 446.00 436.00
C 439.45 437.08 439.44 427.98 434.00 426.00
C 430.44 429.43 428.62 436.47 423.00 436.00
C 426.50 432.10 428.58 426.96 433.00 424.00
C 431.23 419.50 426.84 415.78 424.00 412.00
C 422.72 406.08 429.96 414.94 430.00 415.00 Z"/>
</g>
<g fill="None" fill-opacity="0.0" stroke="#BDDAA1" stroke-opacity="1.00" stroke-width="0.3"><path d="
M 246.00 66.00 
C 247.33 65.91 248.67 66.05 250.00 66.00
C 250.22 65.87 250.00 65.00 250.00 65.00
C 248.26 65.07 247.20 65.66 246.00 66.00 Z"/>
</g>
<g fill="None" fill-opacity="0.0" stroke="#7DB542" stroke-opacity="1.00" stroke-width="0.3"><path d="
M 250.00 66.00 
C 251.63 65.94 253.00 65.18 254.00 65.00
C 252.67 65.00 251.33 64.95 250.00 65.00
C 250.00 65.00 250.22 65.87 250.00 66.00 Z"/>
</g>
<g fill="None" fill-opacity="0.0" stroke="#5C9E17" stroke-opacity="1.00" stroke-width="0.3"><path d="
M 250.00 66.00 
C 248.67 66.05 247.33 65.91 246.00 66.00
C 240.55 66.35 230.02 70.17 227.00 75.00
C 223.20 84.10 211.06 89.15 205.25 97.25 C 199.44 105.35 189.65 111.32 183.25 119.25 C 176.84 127.18 166.84 133.64 161.00 142.00
C 224.00 142.00 287.00 142.00 350.00 142.00
C 341.32 129.60 328.02 120.50 317.75 109.25 C 307.48 98.00 295.52 86.94 285.00 76.00
C 280.28 71.07 271.98 66.45 265.00 66.00
C 263.67 65.91 262.33 66.05 261.00 66.00
C 259.37 65.94 258.00 65.18 257.00 65.00
C 256.00 65.00 255.00 65.00 254.00 65.00
C 253.00 65.18 251.63 65.94 250.00 66.00 Z"/>
</g>
<g fill="None" fill-opacity="0.0" stroke="#7DB542" stroke-opacity="1.00" stroke-width="0.3"><path d="
M 261.00 66.00 
C 260.78 65.87 261.00 65.00 261.00 65.00
C 259.67 64.95 258.33 65.00 257.00 65.00
C 258.00 65.18 259.37 65.94 261.00 66.00 Z"/>
</g>
<g fill="None" fill-opacity="0.0" stroke="#BAD7A2" stroke-opacity="1.00" stroke-width="0.3"><path d="
M 261.00 66.00 
C 262.33 66.05 263.67 65.91 265.00 66.00
C 263.76 65.65 262.82 65.07 261.00 65.00
C 261.00 65.00 260.78 65.87 261.00 66.00 Z"/>
</g>
<g fill="None" fill-opacity="0.0" stroke="#E6F0E2" stroke-opacity="1.00" stroke-width="0.3"><path d="
M 160.00 142.00 
C 163.80 132.90 175.94 127.85 181.75 119.75 C 187.56 111.65 197.35 105.68 203.75 97.75 C 210.15 89.82 220.16 83.36 226.00 75.00
C 220.68 77.60 216.88 84.50 212.25 88.25 C 207.62 91.99 203.03 97.82 198.75 101.75 C 194.47 105.68 189.04 111.51 185.25 115.25 C 181.46 118.99 174.57 125.72 171.75 128.75 C 168.93 131.79 158.56 140.63 160.00 142.00 Z"/>
</g>
<g fill="None" fill-opacity="0.0" stroke="#72AD33" stroke-opacity="1.00" stroke-width="0.3"><path d="
M 160.00 142.00 
C 160.00 142.00 160.50 142.00 161.00 142.00
C 166.84 133.64 176.84 127.18 183.25 119.25 C 189.65 111.32 199.44 105.35 205.25 97.25 C 211.06 89.15 223.20 84.10 227.00 75.00
C 227.00 75.00 226.40 74.80 226.00 75.00
C 220.16 83.36 210.15 89.82 203.75 97.75 C 197.35 105.68 187.56 111.65 181.75 119.75 C 175.94 127.85 163.80 132.90 160.00 142.00 Z"/>
</g>
<g fill="None" fill-opacity="0.0" stroke="#70AD3A" stroke-opacity="1.00" stroke-width="0.3"><path d="
M 350.00 142.00 
C 350.00 142.00 350.93 141.82 351.00 142.00
C 347.27 133.05 335.52 128.22 329.75 120.25 C 323.99 112.28 314.07 106.05 307.75 98.25 C 301.43 90.44 291.75 84.23 286.00 76.00
C 286.00 76.00 285.24 76.25 285.00 76.00
C 295.52 86.94 307.48 98.00 317.75 109.25 C 328.02 120.50 341.32 129.60 350.00 142.00 Z"/>
</g>
<g fill="None" fill-opacity="0.0" stroke="#EBF6ED" stroke-opacity="1.00" stroke-width="0.3"><path d="
M 351.00 142.00 
C 352.45 140.62 342.08 131.82 339.25 128.75 C 336.42 125.69 329.47 118.94 325.75 115.25 C 322.03 111.56 316.96 106.12 312.75 102.25 C 308.54 98.37 303.77 92.45 299.25 88.75 C 294.73 85.06 291.25 78.57 286.00 76.00
C 291.75 84.23 301.43 90.44 307.75 98.25 C 314.07 106.05 323.99 112.28 329.75 120.25 C 335.52 128.22 347.27 133.05 351.00 142.00 Z"/>
</g>
<g fill="None" fill-opacity="0.0" stroke="#DAF2F5" stroke-opacity="1.00" stroke-width="0.3"><path d="
M 98.00 203.00 
C 104.59 196.41 112.04 188.09 119.25 182.25 C 126.46 176.40 132.57 164.52 141.00 161.00
C 139.56 159.48 132.96 167.94 130.25 170.25 C 127.54 172.56 122.49 178.29 119.25 181.25 C 116.00 184.20 111.74 189.12 108.25 192.25 C 104.75 195.37 101.30 199.70 98.00 203.00 Z"/>
</g>
<g fill="None" fill-opacity="0.0" stroke="#E4F3F4" stroke-opacity="1.00" stroke-width="0.3"><path d="
M 370.00 161.00 
C 378.80 164.67 384.11 176.25 391.75 182.25 C 399.39 188.25 406.65 197.27 413.75 204.25 C 420.85 211.23 429.32 218.72 436.00 226.00
C 432.35 221.18 426.96 216.64 422.75 212.25 C 418.54 207.86 413.37 202.90 409.25 198.75 C 405.13 194.60 400.06 189.43 396.25 185.75 C 392.44 182.07 385.89 175.05 382.75 172.25 C 379.61 169.45 371.49 159.51 370.00 161.00 Z"/>
</g>
<g fill="None" fill-opacity="0.0" stroke="#00A9AC" stroke-opacity="1.00" stroke-width="0.3"><path d="
M 98.00 203.00 
C 91.08 209.92 83.87 217.13 77.00 224.00
C 75.69 225.53 74.24 227.33 73.00 229.00
C 83.12 217.39 95.61 206.52 106.75 195.75 C 117.89 184.98 128.38 170.81 141.00 162.00
C 141.00 162.00 140.82 161.07 141.00 161.00
C 132.57 164.52 126.46 176.40 119.25 182.25 C 112.04 188.09 104.59 196.41 98.00 203.00 Z"/>
</g>
<g fill="None" fill-opacity="0.0" stroke="#F1FBFC" stroke-opacity="1.00" stroke-width="0.3"><path d="
M 370.00 352.00 
C 370.18 351.93 370.00 351.00 370.00 351.00
C 370.00 288.00 370.00 225.00 370.00 162.00
C 370.00 161.50 370.00 161.00 370.00 161.00
C 365.41 165.41 370.47 178.33 369.00 185.00 C 367.53 191.67 369.64 201.62 369.00 209.00 C 368.36 216.38 369.24 225.33 369.00 233.00 C 368.76 240.67 369.01 249.25 369.00 257.00 C 368.99 264.75 368.78 273.33 369.00 281.00 C 369.22 288.67 368.41 297.64 369.00 305.00 C 369.59 312.36 367.63 322.38 369.00 329.00 C 370.37 335.62 365.48 347.66 370.00 352.00 Z"/>
</g>
<g fill="None" fill-opacity="0.0" stroke="#00A9AC" stroke-opacity="1.00" stroke-width="0.3"><path d="
M 370.00 162.00 
C 382.62 170.82 392.65 184.43 403.75 195.25 C 414.85 206.07 427.89 217.40 438.00 229.00
C 437.35 228.06 436.72 226.95 436.00 226.00
C 429.32 218.72 420.85 211.23 413.75 204.25 C 406.65 197.27 399.39 188.25 391.75 182.25 C 384.11 176.25 378.80 164.67 370.00 161.00
C 370.00 161.00 370.00 161.50 370.00 162.00 Z"/>
</g>
<g fill="None" fill-opacity="0.0" stroke="#00A0A8" stroke-opacity="1.00" stroke-width="0.3"><path d="
M 73.00 229.00 
C 61.06 245.05 60.39 270.42 74.00 286.00
C 74.22 286.25 75.00 286.00 75.00 286.00
C 88.27 292.49 95.67 309.52 107.75 318.25 C 119.83 326.97 128.73 342.42 141.00 351.00
C 141.00 288.00 141.00 225.00 141.00 162.00
C 128.38 170.81 117.89 184.98 106.75 195.75 C 95.61 206.52 83.12 217.39 73.00 229.00 Z"/>
</g>
<g fill="None" fill-opacity="0.0" stroke="#00A0A8" stroke-opacity="1.00" stroke-width="0.3"><path d="
M 370.00 351.00 
C 381.90 342.68 390.03 328.18 401.75 319.75 C 413.47 311.33 421.14 294.28 434.00 288.00
C 434.40 287.80 435.00 288.00 435.00 288.00
C 440.88 280.10 446.13 270.93 447.00 261.00
C 446.98 258.73 447.03 253.16 447.00 251.00
C 446.15 243.42 442.35 235.27 438.00 229.00
C 427.89 217.40 414.85 206.07 403.75 195.25 C 392.65 184.43 382.62 170.82 370.00 162.00
C 370.00 225.00 370.00 288.00 370.00 351.00 Z"/>
</g>
<g fill="None" fill-opacity="0.0" stroke="#D6F3F5" stroke-opacity="1.00" stroke-width="0.3"><path d="
M 77.00 224.00 
C 83.87 217.13 91.08 209.92 98.00 203.00
C 91.10 209.89 83.41 216.50 77.00 224.00 Z"/>
</g>
<g fill="None" fill-opacity="0.0" stroke="#F7D4D9" stroke-opacity="1.00" stroke-width="0.3"><path d="
M 220.00 292.00 
C 220.00 268.33 220.00 244.67 220.00 221.00
C 243.67 221.00 267.33 221.00 291.00 221.00
C 267.99 218.67 242.83 220.67 219.00 220.00
C 219.53 227.69 218.29 237.53 219.00 245.00 C 219.71 252.47 217.59 262.27 219.00 269.00 C 220.41 275.73 215.48 287.48 220.00 292.00 Z"/>
</g>
<g fill="None" fill-opacity="0.0" stroke="#E00018" stroke-opacity="1.00" stroke-width="0.3"><path d="
M 220.00 292.00 
C 243.67 292.00 267.33 292.00 291.00 292.00
C 291.00 268.33 291.00 244.67 291.00 221.00
C 267.33 221.00 243.67 221.00 220.00 221.00
C 220.00 244.67 220.00 268.33 220.00 292.00 Z"/>
</g>
<g fill="None" fill-opacity="0.0" stroke="#F9E9ED" stroke-opacity="1.00" stroke-width="0.3"><path d="
M 220.00 292.00 
C 224.21 296.21 233.77 291.51 240.00 293.00 C 246.23 294.49 253.95 291.78 261.00 293.00 C 268.05 294.22 274.10 291.24 282.00 293.00 C 289.90 294.76 293.62 289.64 292.00 282.00 C 290.38 274.36 293.12 267.92 292.00 261.00 C 290.88 254.08 293.38 246.14 292.00 240.00 C 290.62 233.86 295.11 225.11 291.00 221.00
C 291.00 244.67 291.00 268.33 291.00 292.00
C 267.33 292.00 243.67 292.00 220.00 292.00 Z"/>
</g>
<g fill="None" fill-opacity="0.0" stroke="#34B3B7" stroke-opacity="1.00" stroke-width="0.3"><path d="
M 447.00 261.00 
C 447.27 257.88 447.35 254.11 447.00 251.00
C 447.03 253.16 446.98 258.73 447.00 261.00 Z"/>
</g>
<g fill="None" fill-opacity="0.0" stroke="#D6F3F5" stroke-opacity="1.00" stroke-width="0.3"><path d="
M 141.00 352.00 
C 132.13 348.30 126.42 336.25 118.75 330.25 C 111.09 324.25 103.74 315.25 96.75 308.25 C 89.76 301.24 80.63 294.06 75.00 286.00
C 75.00 286.00 74.22 286.25 74.00 286.00
C 77.62 290.86 83.05 295.33 87.25 299.75 C 91.45 304.17 96.61 309.06 100.75 313.25 C 104.89 317.43 110.42 323.01 114.25 326.75 C 118.08 330.49 124.67 337.46 127.75 340.25 C 130.83 343.04 139.60 353.47 141.00 352.00 Z"/>
</g>
<g fill="None" fill-opacity="0.0" stroke="#00A6AD" stroke-opacity="1.00" stroke-width="0.3"><path d="
M 141.00 352.00 
C 141.00 352.00 141.00 351.50 141.00 351.00
C 128.73 342.42 119.83 326.97 107.75 318.25 C 95.67 309.52 88.27 292.49 75.00 286.00
C 80.63 294.06 89.76 301.24 96.75 308.25 C 103.74 315.25 111.09 324.25 118.75 330.25 C 126.42 336.25 132.13 348.30 141.00 352.00 Z"/>
</g>
<g fill="None" fill-opacity="0.0" stroke="#00A9AC" stroke-opacity="1.00" stroke-width="0.3"><path d="
M 370.00 351.00 
C 370.00 351.00 370.18 351.93 370.00 352.00
C 378.56 348.43 383.86 337.11 391.25 331.25 C 398.64 325.38 405.96 316.59 412.75 309.75 C 419.54 302.91 428.51 295.85 434.00 288.00
C 421.14 294.28 413.47 311.33 401.75 319.75 C 390.03 328.18 381.90 342.68 370.00 351.00 Z"/>
</g>
<g fill="None" fill-opacity="0.0" stroke="#E1F4F6" stroke-opacity="1.00" stroke-width="0.3"><path d="
M 370.00 352.00 
C 371.52 353.52 380.18 342.93 383.25 340.25 C 386.32 337.57 392.51 330.85 396.25 327.25 C 399.99 323.65 405.24 318.28 409.25 314.25 C 413.26 310.22 418.19 305.51 422.25 301.25 C 426.31 296.99 431.47 292.75 435.00 288.00
C 435.00 288.00 434.40 287.80 434.00 288.00
C 428.51 295.85 419.54 302.91 412.75 309.75 C 405.96 316.59 398.64 325.38 391.25 331.25 C 383.86 337.11 378.56 348.43 370.00 352.00 Z"/>
</g>
<g fill="None" fill-opacity="0.0" stroke="#E6F0E2" stroke-opacity="1.00" stroke-width="0.3"><path d="
M 226.00 438.00 
C 218.67 431.16 211.24 422.98 204.25 415.75 C 197.26 408.53 188.26 401.60 182.25 393.75 C 176.23 385.90 163.75 379.98 160.00 371.00
C 158.55 372.39 168.90 381.14 171.75 384.25 C 174.61 387.36 181.46 393.94 185.25 397.75 C 189.04 401.56 194.50 407.20 198.75 411.25 C 203.01 415.30 207.69 420.77 212.25 424.75 C 216.81 428.74 220.79 434.83 226.00 438.00 Z"/>
</g>
<g fill="None" fill-opacity="0.0" stroke="#70AB2B" stroke-opacity="1.00" stroke-width="0.3"><path d="
M 226.00 438.00 
C 226.61 438.37 227.36 438.60 228.00 439.00
C 216.39 428.88 205.53 416.39 194.75 405.25 C 183.98 394.11 169.82 383.62 161.00 371.00
C 161.00 371.00 160.07 371.18 160.00 371.00
C 163.75 379.98 176.23 385.90 182.25 393.75 C 188.26 401.60 197.26 408.53 204.25 415.75 C 211.24 422.98 218.67 431.16 226.00 438.00 Z"/>
</g>
<g fill="None" fill-opacity="0.0" stroke="#5C9E17" stroke-opacity="1.00" stroke-width="0.3"><path d="
M 228.00 439.00 
C 233.88 442.66 241.05 447.13 248.00 448.00
C 248.66 448.02 251.20 447.92 252.00 448.00
C 263.89 448.00 273.36 445.68 283.00 439.00
C 294.61 428.88 305.48 416.39 316.25 405.25 C 327.02 394.11 341.18 383.62 350.00 371.00
C 287.00 371.00 224.00 371.00 161.00 371.00
C 169.82 383.62 183.98 394.11 194.75 405.25 C 205.53 416.39 216.39 428.88 228.00 439.00 Z"/>
</g>
<g fill="None" fill-opacity="0.0" stroke="#70AD3A" stroke-opacity="1.00" stroke-width="0.3"><path d="
M 283.00 439.00 
C 283.94 438.35 285.05 437.72 286.00 437.00
C 293.25 430.35 300.34 422.35 307.25 415.25 C 314.15 408.15 323.28 400.96 329.25 393.25 C 335.22 385.54 347.32 379.83 351.00 371.00
C 351.00 371.00 350.50 371.00 350.00 371.00
C 341.18 383.62 327.02 394.11 316.25 405.25 C 305.48 416.39 294.61 428.88 283.00 439.00 Z"/>
</g>
<g fill="None" fill-opacity="0.0" stroke="#EBF6ED" stroke-opacity="1.00" stroke-width="0.3"><path d="
M 286.00 437.00 
C 290.82 433.36 295.36 427.95 299.75 423.75 C 304.14 419.55 309.10 414.36 313.25 410.25 C 317.40 406.14 322.56 401.04 326.25 397.25 C 329.94 393.46 336.94 386.85 339.75 383.75 C 342.57 380.66 352.46 372.39 351.00 371.00
C 347.32 379.83 335.22 385.54 329.25 393.25 C 323.28 400.96 314.15 408.15 307.25 415.25 C 300.34 422.35 293.25 430.35 286.00 437.00 Z"/>
</g>
<g fill="None" fill-opacity="0.0" stroke="#6EAD8F" stroke-opacity="1.00" stroke-width="0.3"><path d="
M 382.00 436.00 
C 380.41 432.42 382.32 422.69 382.00 419.00 C 381.68 415.31 380.52 403.41 384.00 403.00
C 379.53 401.16 380.48 414.31 381.00 418.00 C 381.52 421.69 378.86 433.96 382.00 436.00 Z"/>
</g>
<g fill="None" fill-opacity="0.0" stroke="#9DC7B2" stroke-opacity="1.00" stroke-width="0.3"><path d="
M 416.00 403.00 
C 412.75 412.94 418.44 425.80 416.00 436.00
C 419.19 434.43 416.24 421.37 417.00 418.00 C 417.76 414.63 417.31 403.23 416.00 403.00 Z"/>
</g>
<g fill="None" fill-opacity="0.0" stroke="#00672E" stroke-opacity="1.00" stroke-width="0.3"><path d="
M 382.00 436.00 
C 382.35 436.23 383.65 436.23 384.00 436.00
C 387.26 428.66 380.72 416.81 385.00 410.00
C 389.58 416.34 393.82 423.77 397.00 431.00
C 404.18 429.46 406.45 418.70 411.00 413.00
C 411.79 412.00 411.66 410.41 413.00 410.00
C 413.00 418.67 413.00 427.33 413.00 436.00
C 413.31 436.15 415.69 436.15 416.00 436.00
C 418.44 425.80 412.75 412.94 416.00 403.00
C 408.19 406.85 405.15 418.52 400.00 426.00
C 391.78 423.41 391.66 406.16 384.00 403.00
C 380.52 403.41 381.68 415.31 382.00 419.00 C 382.32 422.69 380.41 432.42 382.00 436.00 Z"/>
</g>
<g fill="None" fill-opacity="0.0" stroke="#0E7441" stroke-opacity="1.00" stroke-width="0.3"><path d="
M 384.00 436.00 
C 387.01 434.04 384.14 426.45 385.00 423.00 C 385.86 419.55 384.35 413.67 385.00 410.00
C 380.72 416.81 387.26 428.66 384.00 436.00 Z"/>
</g>
<g fill="None" fill-opacity="0.0" stroke="#EDF5F3" stroke-opacity="1.00" stroke-width="0.3"><path d="
M 411.00 413.00 
C 410.78 414.94 412.53 422.36 412.00 425.00 C 411.47 427.64 411.06 435.04 413.00 436.00
C 413.00 427.33 413.00 418.67 413.00 410.00
C 411.66 410.41 411.79 412.00 411.00 413.00 Z"/>
</g>
<g fill="None" fill-opacity="0.0" stroke="#BBD8CB" stroke-opacity="1.00" stroke-width="0.3"><path d="
M 424.00 412.00 
C 426.11 409.15 428.75 413.42 430.00 415.00
C 429.96 414.94 422.72 406.08 424.00 412.00 Z"/>
</g>
<g fill="None" fill-opacity="0.0" stroke="#00672E" stroke-opacity="1.00" stroke-width="0.3"><path d="
M 424.00 412.00 
C 426.84 415.78 431.23 419.50 433.00 424.00
C 428.58 426.96 426.50 432.10 423.00 436.00
C 428.62 436.47 430.44 429.43 434.00 426.00
C 439.44 427.98 439.45 437.08 446.00 436.00
C 442.96 431.17 438.30 427.09 436.00 422.00
C 439.77 419.18 442.61 415.02 445.00 411.00
C 439.14 410.83 438.15 418.43 434.00 421.00
C 433.14 418.72 431.52 416.93 430.00 415.00
C 428.75 413.42 426.11 409.15 424.00 412.00 Z"/>
</g>
<g fill="None" fill-opacity="0.0" stroke="#A8CC80" stroke-opacity="1.00" stroke-width="0.3"><path d="
M 248.00 448.00 
C 249.28 448.16 250.70 448.00 252.00 448.00
C 251.20 447.92 248.66 448.02 248.00 448.00 Z"/>
</g>
<g fill="#F7FDFD" fill-opacity="1.00" stroke="None">
<path d="
M 0.00 512.00 
L 512.00 512.00
L 512.00 0.00
L 0.00 0.00
L 0.00 512.00
M 265.00 66.00 
C 271.98 66.45 280.28 71.07 285.00 76.00
C 285.24 76.25 286.00 76.00 286.00 76.00
C 291.25 78.57 294.73 85.06 299.25 88.75 C 303.77 92.45 308.54 98.37 312.75 102.25 C 316.96 106.12 322.03 111.56 325.75 115.25 C 329.47 118.94 336.42 125.69 339.25 128.75 C 342.08 131.82 352.45 140.62 351.00 142.00
C 350.93 141.82 350.00 142.00 350.00 142.00
C 287.00 142.00 224.00 142.00 161.00 142.00
C 160.50 142.00 160.00 142.00 160.00 142.00
C 158.56 140.63 168.93 131.79 171.75 128.75 C 174.57 125.72 181.46 118.99 185.25 115.25 C 189.04 111.51 194.47 105.68 198.75 101.75 C 203.03 97.82 207.62 91.99 212.25 88.25 C 216.88 84.50 220.68 77.60 226.00 75.00
C 226.40 74.80 227.00 75.00 227.00 75.00
C 230.02 70.17 240.55 66.35 246.00 66.00
C 247.20 65.66 248.26 65.07 250.00 65.00
C 251.33 64.95 252.67 65.00 254.00 65.00
C 255.00 65.00 256.00 65.00 257.00 65.00
C 258.33 65.00 259.67 64.95 261.00 65.00
C 262.82 65.07 263.76 65.65 265.00 66.00
M 141.00 161.00 
C 140.82 161.07 141.00 162.00 141.00 162.00
C 141.00 225.00 141.00 288.00 141.00 351.00
C 141.00 351.50 141.00 352.00 141.00 352.00
C 139.60 353.47 130.83 343.04 127.75 340.25 C 124.67 337.46 118.08 330.49 114.25 326.75 C 110.42 323.01 104.89 317.43 100.75 313.25 C 96.61 309.06 91.45 304.17 87.25 299.75 C 83.05 295.33 77.62 290.86 74.00 286.00
C 60.39 270.42 61.06 245.05 73.00 229.00
C 74.24 227.33 75.69 225.53 77.00 224.00
C 83.41 216.50 91.10 209.89 98.00 203.00
C 101.30 199.70 104.75 195.37 108.25 192.25 C 111.74 189.12 116.00 184.20 119.25 181.25 C 122.49 178.29 127.54 172.56 130.25 170.25 C 132.96 167.94 139.56 159.48 141.00 161.00
M 436.00 226.00 
C 436.72 226.95 437.35 228.06 438.00 229.00
C 442.35 235.27 446.15 243.42 447.00 251.00
C 447.35 254.11 447.27 257.88 447.00 261.00
C 446.13 270.93 440.88 280.10 435.00 288.00
C 431.47 292.75 426.31 296.99 422.25 301.25 C 418.19 305.51 413.26 310.22 409.25 314.25 C 405.24 318.28 399.99 323.65 396.25 327.25 C 392.51 330.85 386.32 337.57 383.25 340.25 C 380.18 342.93 371.52 353.52 370.00 352.00
C 365.48 347.66 370.37 335.62 369.00 329.00 C 367.63 322.38 369.59 312.36 369.00 305.00 C 368.41 297.64 369.22 288.67 369.00 281.00 C 368.78 273.33 368.99 264.75 369.00 257.00 C 369.01 249.25 368.76 240.67 369.00 233.00 C 369.24 225.33 368.36 216.38 369.00 209.00 C 369.64 201.62 367.53 191.67 369.00 185.00 C 370.47 178.33 365.41 165.41 370.00 161.00
C 371.49 159.51 379.61 169.45 382.75 172.25 C 385.89 175.05 392.44 182.07 396.25 185.75 C 400.06 189.43 405.13 194.60 409.25 198.75 C 413.37 202.90 418.54 207.86 422.75 212.25 C 426.96 216.64 432.35 221.18 436.00 226.00
M 291.00 221.00 
C 295.11 225.11 290.62 233.86 292.00 240.00 C 293.38 246.14 290.88 254.08 292.00 261.00 C 293.12 267.92 290.38 274.36 292.00 282.00 C 293.62 289.64 289.90 294.76 282.00 293.00 C 274.10 291.24 268.05 294.22 261.00 293.00 C 253.95 291.78 246.23 294.49 240.00 293.00 C 233.77 291.51 224.21 296.21 220.00 292.00
C 215.48 287.48 220.41 275.73 219.00 269.00 C 217.59 262.27 219.71 252.47 219.00 245.00 C 218.29 237.53 219.53 227.69 219.00 220.00
C 242.83 220.67 267.99 218.67 291.00 221.00
M 286.00 437.00 
C 285.05 437.72 283.94 438.35 283.00 439.00
C 273.36 445.68 263.89 448.00 252.00 448.00
C 250.70 448.00 249.28 448.16 248.00 448.00
C 241.05 447.13 233.88 442.66 228.00 439.00
C 227.36 438.60 226.61 438.37 226.00 438.00
C 220.79 434.83 216.81 428.74 212.25 424.75 C 207.69 420.77 203.01 415.30 198.75 411.25 C 194.50 407.20 189.04 401.56 185.25 397.75 C 181.46 393.94 174.61 387.36 171.75 384.25 C 168.90 381.14 158.55 372.39 160.00 371.00
C 160.07 371.18 161.00 371.00 161.00 371.00
C 224.00 371.00 287.00 371.00 350.00 371.00
C 350.50 371.00 351.00 371.00 351.00 371.00
C 352.46 372.39 342.57 380.66 339.75 383.75 C 336.94 386.85 329.94 393.46 326.25 397.25 C 322.56 401.04 317.40 406.14 313.25 410.25 C 309.10 414.36 304.14 419.55 299.75 423.75 C 295.36 427.95 290.82 433.36 286.00 437.00
M 384.00 403.00 
C 391.66 406.16 391.78 423.41 400.00 426.00
C 405.15 418.52 408.19 406.85 416.00 403.00
C 417.31 403.23 417.76 414.63 417.00 418.00 C 416.24 421.37 419.19 434.43 416.00 436.00
C 415.69 436.15 413.31 436.15 413.00 436.00
C 411.06 435.04 411.47 427.64 412.00 425.00 C 412.53 422.36 410.78 414.94 411.00 413.00
C 406.45 418.70 404.18 429.46 397.00 431.00
C 393.82 423.77 389.58 416.34 385.00 410.00
C 384.35 413.67 385.86 419.55 385.00 423.00 C 384.14 426.45 387.01 434.04 384.00 436.00
C 383.65 436.23 382.35 436.23 382.00 436.00
C 378.86 433.96 381.52 421.69 381.00 418.00 C 380.48 414.31 379.53 401.16 384.00 403.00
M 430.00 415.00 
C 431.52 416.93 433.14 418.72 434.00 421.00
C 438.15 418.43 439.14 410.83 445.00 411.00
C 442.61 415.02 439.77 419.18 436.00 422.00
C 438.30 427.09 442.96 431.17 446.00 436.00
C 439.45 437.08 439.44 427.98 434.00 426.00
C 430.44 429.43 428.62 436.47 423.00 436.00
C 426.50 432.10 428.58 426.96 433.00 424.00
C 431.23 419.50 426.84 415.78 424.00 412.00
C 422.72 406.08 429.96 414.94 430.00 415.00 Z"/>
</g>
<g fill="#BDDAA1" fill-opacity="1.00" stroke="None">
<path d="
M 246.00 66.00 
C 247.33 65.91 248.67 66.05 250.00 66.00
C 250.22 65.87 250.00 65.00 250.00 65.00
C 248.26 65.07 247.20 65.66 246.00 66.00 Z"/>
</g>
<g fill="#7DB542" fill-opacity="1.00" stroke="None">
<path d="
M 250.00 66.00 
C 251.63 65.94 253.00 65.18 254.00 65.00
C 252.67 65.00 251.33 64.95 250.00 65.00
C 250.00 65.00 250.22 65.87 250.00 66.00 Z"/>
</g>
<g fill="#5C9E17" fill-opacity="1.00" stroke="None">
<path d="
M 250.00 66.00 
C 248.67 66.05 247.33 65.91 246.00 66.00
C 240.55 66.35 230.02 70.17 227.00 75.00
C 223.20 84.10 211.06 89.15 205.25 97.25 C 199.44 105.35 189.65 111.32 183.25 119.25 C 176.84 127.18 166.84 133.64 161.00 142.00
C 224.00 142.00 287.00 142.00 350.00 142.00
C 341.32 129.60 328.02 120.50 317.75 109.25 C 307.48 98.00 295.52 86.94 285.00 76.00
C 280.28 71.07 271.98 66.45 265.00 66.00
C 263.67 65.91 262.33 66.05 261.00 66.00
C 259.37 65.94 258.00 65.18 257.00 65.00
C 256.00 65.00 255.00 65.00 254.00 65.00
C 253.00 65.18 251.63 65.94 250.00 66.00 Z"/>
</g>
<g fill="#7DB542" fill-opacity="1.00" stroke="None">
<path d="
M 261.00 66.00 
C 260.78 65.87 261.00 65.00 261.00 65.00
C 259.67 64.95 258.33 65.00 257.00 65.00
C 258.00 65.18 259.37 65.94 261.00 66.00 Z"/>
</g>
<g fill="#BAD7A2" fill-opacity="1.00" stroke="None">
<path d="
M 261.00 66.00 
C 262.33 66.05 263.67 65.91 265.00 66.00
C 263.76 65.65 262.82 65.07 261.00 65.00
C 261.00 65.00 260.78 65.87 261.00 66.00 Z"/>
</g>
<g fill="#E6F0E2" fill-opacity="1.00" stroke="None">
<path d="
M 160.00 142.00 
C 163.80 132.90 175.94 127.85 181.75 119.75 C 187.56 111.65 197.35 105.68 203.75 97.75 C 210.15 89.82 220.16 83.36 226.00 75.00
C 220.68 77.60 216.88 84.50 212.25 88.25 C 207.62 91.99 203.03 97.82 198.75 101.75 C 194.47 105.68 189.04 111.51 185.25 115.25 C 181.46 118.99 174.57 125.72 171.75 128.75 C 168.93 131.79 158.56 140.63 160.00 142.00 Z"/>
</g>
<g fill="#72AD33" fill-opacity="1.00" stroke="None">
<path d="
M 160.00 142.00 
C 160.00 142.00 160.50 142.00 161.00 142.00
C 166.84 133.64 176.84 127.18 183.25 119.25 C 189.65 111.32 199.44 105.35 205.25 97.25 C 211.06 89.15 223.20 84.10 227.00 75.00
C 227.00 75.00 226.40 74.80 226.00 75.00
C 220.16 83.36 210.15 89.82 203.75 97.75 C 197.35 105.68 187.56 111.65 181.75 119.75 C 175.94 127.85 163.80 132.90 160.00 142.00 Z"/>
</g>
<g fill="#70AD3A" fill-opacity="1.00" stroke="None">
<path d="
M 350.00 142.00 
C 350.00 142.00 350.93 141.82 351.00 142.00
C 347.27 133.05 335.52 128.22 329.75 120.25 C 323.99 112.28 314.07 106.05 307.75 98.25 C 301.43 90.44 291.75 84.23 286.00 76.00
C 286.00 76.00 285.24 76.25 285.00 76.00
C 295.52 86.94 307.48 98.00 317.75 109.25 C 328.02 120.50 341.32 129.60 350.00 142.00 Z"/>
</g>
<g fill="#EBF6ED" fill-opacity="1.00" stroke="None">
<path d="
M 351.00 142.00 
C 352.45 140.62 342.08 131.82 339.25 128.75 C 336.42 125.69 329.47 118.94 325.75 115.25 C 322.03 111.56 316.96 106.12 312.75 102.25 C 308.54 98.37 303.77 92.45 299.25 88.75 C 294.73 85.06 291.25 78.57 286.00 76.00
C 291.75 84.23 301.43 90.44 307.75 98.25 C 314.07 106.05 323.99 112.28 329.75 120.25 C 335.52 128.22 347.27 133.05 351.00 142.00 Z"/>
</g>
<g fill="#DAF2F5" fill-opacity="1.00" stroke="None">
<path d="
M 98.00 203.00 
C 104.59 196.41 112.04 188.09 119.25 182.25 C 126.46 176.40 132.57 164.52 141.00 161.00
C 139.56 159.48 132.96 167.94 130.25 170.25 C 127.54 172.56 122.49 178.29 119.25 181.25 C 116.00 184.20 111.74 189.12 108.25 192.25 C 104.75 195.37 101.30 199.70 98.00 203.00 Z"/>
</g>
<g fill="#E4F3F4" fill-opacity="1.00" stroke="None">
<path d="
M 370.00 161.00 
C 378.80 164.67 384.11 176.25 391.75 182.25 C 399.39 188.25 406.65 197.27 413.75 204.25 C 420.85 211.23 429.32 218.72 436.00 226.00
C 432.35 221.18 426.96 216.64 422.75 212.25 C 418.54 207.86 413.37 202.90 409.25 198.75 C 405.13 194.60 400.06 189.43 396.25 185.75 C 392.44 182.07 385.89 175.05 382.75 172.25 C 379.61 169.45 371.49 159.51 370.00 161.00 Z"/>
</g>
<g fill="#00A9AC" fill-opacity="1.00" stroke="None">
<path d="
M 98.00 203.00 
C 91.08 209.92 83.87 217.13 77.00 224.00
C 75.69 225.53 74.24 227.33 73.00 229.00
C 83.12 217.39 95.61 206.52 106.75 195.75 C 117.89 184.98 128.38 170.81 141.00 162.00
C 141.00 162.00 140.82 161.07 141.00 161.00
C 132.57 164.52 126.46 176.40 119.25 182.25 C 112.04 188.09 104.59 196.41 98.00 203.00 Z"/>
</g>
<g fill="#F1FBFC" fill-opacity="1.00" stroke="None">
<path d="
M 370.00 352.00 
C 370.18 351.93 370.00 351.00 370.00 351.00
C 370.00 288.00 370.00 225.00 370.00 162.00
C 370.00 161.50 370.00 161.00 370.00 161.00
C 365.41 165.41 370.47 178.33 369.00 185.00 C 367.53 191.67 369.64 201.62 369.00 209.00 C 368.36 216.38 369.24 225.33 369.00 233.00 C 368.76 240.67 369.01 249.25 369.00 257.00 C 368.99 264.75 368.78 273.33 369.00 281.00 C 369.22 288.67 368.41 297.64 369.00 305.00 C 369.59 312.36 367.63 322.38 369.00 329.00 C 370.37 335.62 365.48 347.66 370.00 352.00 Z"/>
</g>
<g fill="#00A9AC" fill-opacity="1.00" stroke="None">
<path d="
M 370.00 162.00 
C 382.62 170.82 392.65 184.43 403.75 195.25 C 414.85 206.07 427.89 217.40 438.00 229.00
C 437.35 228.06 436.72 226.95 436.00 226.00
C 429.32 218.72 420.85 211.23 413.75 204.25 C 406.65 197.27 399.39 188.25 391.75 182.25 C 384.11 176.25 378.80 164.67 370.00 161.00
C 370.00 161.00 370.00 161.50 370.00 162.00 Z"/>
</g>
<g fill="#00A0A8" fill-opacity="1.00" stroke="None">
<path d="
M 73.00 229.00 
C 61.06 245.05 60.39 270.42 74.00 286.00
C 74.22 286.25 75.00 286.00 75.00 286.00
C 88.27 292.49 95.67 309.52 107.75 318.25 C 119.83 326.97 128.73 342.42 141.00 351.00
C 141.00 288.00 141.00 225.00 141.00 162.00
C 128.38 170.81 117.89 184.98 106.75 195.75 C 95.61 206.52 83.12 217.39 73.00 229.00 Z"/>
</g>
<g fill="#00A0A8" fill-opacity="1.00" stroke="None">
<path d="
M 370.00 351.00 
C 381.90 342.68 390.03 328.18 401.75 319.75 C 413.47 311.33 421.14 294.28 434.00 288.00
C 434.40 287.80 435.00 288.00 435.00 288.00
C 440.88 280.10 446.13 270.93 447.00 261.00
C 446.98 258.73 447.03 253.16 447.00 251.00
C 446.15 243.42 442.35 235.27 438.00 229.00
C 427.89 217.40 414.85 206.07 403.75 195.25 C 392.65 184.43 382.62 170.82 370.00 162.00
C 370.00 225.00 370.00 288.00 370.00 351.00 Z"/>
</g>
<g fill="#D6F3F5" fill-opacity="1.00" stroke="None">
<path d="
M 77.00 224.00 
C 83.87 217.13 91.08 209.92 98.00 203.00
C 91.10 209.89 83.41 216.50 77.00 224.00 Z"/>
</g>
<g fill="#F7D4D9" fill-opacity="1.00" stroke="None">
<path d="
M 220.00 292.00 
C 220.00 268.33 220.00 244.67 220.00 221.00
C 243.67 221.00 267.33 221.00 291.00 221.00
C 267.99 218.67 242.83 220.67 219.00 220.00
C 219.53 227.69 218.29 237.53 219.00 245.00 C 219.71 252.47 217.59 262.27 219.00 269.00 C 220.41 275.73 215.48 287.48 220.00 292.00 Z"/>
</g>
<g fill="#E00018" fill-opacity="1.00" stroke="None">
<path d="
M 220.00 292.00 
C 243.67 292.00 267.33 292.00 291.00 292.00
C 291.00 268.33 291.00 244.67 291.00 221.00
C 267.33 221.00 243.67 221.00 220.00 221.00
C 220.00 244.67 220.00 268.33 220.00 292.00 Z"/>
</g>
<g fill="#F9E9ED" fill-opacity="1.00" stroke="None">
<path d="
M 220.00 292.00 
C 224.21 296.21 233.77 291.51 240.00 293.00 C 246.23 294.49 253.95 291.78 261.00 293.00 C 268.05 294.22 274.10 291.24 282.00 293.00 C 289.90 294.76 293.62 289.64 292.00 282.00 C 290.38 274.36 293.12 267.92 292.00 261.00 C 290.88 254.08 293.38 246.14 292.00 240.00 C 290.62 233.86 295.11 225.11 291.00 221.00
C 291.00 244.67 291.00 268.33 291.00 292.00
C 267.33 292.00 243.67 292.00 220.00 292.00 Z"/>
</g>
<g fill="#34B3B7" fill-opacity="1.00" stroke="None">
<path d="
M 447.00 261.00 
C 447.27 257.88 447.35 254.11 447.00 251.00
C 447.03 253.16 446.98 258.73 447.00 261.00 Z"/>
</g>
<g fill="#D6F3F5" fill-opacity="1.00" stroke="None">
<path d="
M 141.00 352.00 
C 132.13 348.30 126.42 336.25 118.75 330.25 C 111.09 324.25 103.74 315.25 96.75 308.25 C 89.76 301.24 80.63 294.06 75.00 286.00
C 75.00 286.00 74.22 286.25 74.00 286.00
C 77.62 290.86 83.05 295.33 87.25 299.75 C 91.45 304.17 96.61 309.06 100.75 313.25 C 104.89 317.43 110.42 323.01 114.25 326.75 C 118.08 330.49 124.67 337.46 127.75 340.25 C 130.83 343.04 139.60 353.47 141.00 352.00 Z"/>
</g>
<g fill="#00A6AD" fill-opacity="1.00" stroke="None">
<path d="
M 141.00 352.00 
C 141.00 352.00 141.00 351.50 141.00 351.00
C 128.73 342.42 119.83 326.97 107.75 318.25 C 95.67 309.52 88.27 292.49 75.00 286.00
C 80.63 294.06 89.76 301.24 96.75 308.25 C 103.74 315.25 111.09 324.25 118.75 330.25 C 126.42 336.25 132.13 348.30 141.00 352.00 Z"/>
</g>
<g fill="#00A9AC" fill-opacity="1.00" stroke="None">
<path d="
M 370.00 351.00 
C 370.00 351.00 370.18 351.93 370.00 352.00
C 378.56 348.43 383.86 337.11 391.25 331.25 C 398.64 325.38 405.96 316.59 412.75 309.75 C 419.54 302.91 428.51 295.85 434.00 288.00
C 421.14 294.28 413.47 311.33 401.75 319.75 C 390.03 328.18 381.90 342.68 370.00 351.00 Z"/>
</g>
<g fill="#E1F4F6" fill-opacity="1.00" stroke="None">
<path d="
M 370.00 352.00 
C 371.52 353.52 380.18 342.93 383.25 340.25 C 386.32 337.57 392.51 330.85 396.25 327.25 C 399.99 323.65 405.24 318.28 409.25 314.25 C 413.26 310.22 418.19 305.51 422.25 301.25 C 426.31 296.99 431.47 292.75 435.00 288.00
C 435.00 288.00 434.40 287.80 434.00 288.00
C 428.51 295.85 419.54 302.91 412.75 309.75 C 405.96 316.59 398.64 325.38 391.25 331.25 C 383.86 337.11 378.56 348.43 370.00 352.00 Z"/>
</g>
<g fill="#E6F0E2" fill-opacity="1.00" stroke="None">
<path d="
M 226.00 438.00 
C 218.67 431.16 211.24 422.98 204.25 415.75 C 197.26 408.53 188.26 401.60 182.25 393.75 C 176.23 385.90 163.75 379.98 160.00 371.00
C 158.55 372.39 168.90 381.14 171.75 384.25 C 174.61 387.36 181.46 393.94 185.25 397.75 C 189.04 401.56 194.50 407.20 198.75 411.25 C 203.01 415.30 207.69 420.77 212.25 424.75 C 216.81 428.74 220.79 434.83 226.00 438.00 Z"/>
</g>
<g fill="#70AB2B" fill-opacity="1.00" stroke="None">
<path d="
M 226.00 438.00 
C 226.61 438.37 227.36 438.60 228.00 439.00
C 216.39 428.88 205.53 416.39 194.75 405.25 C 183.98 394.11 169.82 383.62 161.00 371.00
C 161.00 371.00 160.07 371.18 160.00 371.00
C 163.75 379.98 176.23 385.90 182.25 393.75 C 188.26 401.60 197.26 408.53 204.25 415.75 C 211.24 422.98 218.67 431.16 226.00 438.00 Z"/>
</g>
<g fill="#5C9E17" fill-opacity="1.00" stroke="None">
<path d="
M 228.00 439.00 
C 233.88 442.66 241.05 447.13 248.00 448.00
C 248.66 448.02 251.20 447.92 252.00 448.00
C 263.89 448.00 273.36 445.68 283.00 439.00
C 294.61 428.88 305.48 416.39 316.25 405.25 C 327.02 394.11 341.18 383.62 350.00 371.00
C 287.00 371.00 224.00 371.00 161.00 371.00
C 169.82 383.62 183.98 394.11 194.75 405.25 C 205.53 416.39 216.39 428.88 228.00 439.00 Z"/>
</g>
<g fill="#70AD3A" fill-opacity="1.00" stroke="None">
<path d="
M 283.00 439.00 
C 283.94 438.35 285.05 437.72 286.00 437.00
C 293.25 430.35 300.34 422.35 307.25 415.25 C 314.15 408.15 323.28 400.96 329.25 393.25 C 335.22 385.54 347.32 379.83 351.00 371.00
C 351.00 371.00 350.50 371.00 350.00 371.00
C 341.18 383.62 327.02 394.11 316.25 405.25 C 305.48 416.39 294.61 428.88 283.00 439.00 Z"/>
</g>
<g fill="#EBF6ED" fill-opacity="1.00" stroke="None">
<path d="
M 286.00 437.00 
C 290.82 433.36 295.36 427.95 299.75 423.75 C 304.14 419.55 309.10 414.36 313.25 410.25 C 317.40 406.14 322.56 401.04 326.25 397.25 C 329.94 393.46 336.94 386.85 339.75 383.75 C 342.57 380.66 352.46 372.39 351.00 371.00
C 347.32 379.83 335.22 385.54 329.25 393.25 C 323.28 400.96 314.15 408.15 307.25 415.25 C 300.34 422.35 293.25 430.35 286.00 437.00 Z"/>
</g>
<g fill="#6EAD8F" fill-opacity="1.00" stroke="None">
<path d="
M 382.00 436.00 
C 380.41 432.42 382.32 422.69 382.00 419.00 C 381.68 415.31 380.52 403.41 384.00 403.00
C 379.53 401.16 380.48 414.31 381.00 418.00 C 381.52 421.69 378.86 433.96 382.00 436.00 Z"/>
</g>
<g fill="#9DC7B2" fill-opacity="1.00" stroke="None">
<path d="
M 416.00 403.00 
C 412.75 412.94 418.44 425.80 416.00 436.00
C 419.19 434.43 416.24 421.37 417.00 418.00 C 417.76 414.63 417.31 403.23 416.00 403.00 Z"/>
</g>
<g fill="#00672E" fill-opacity="1.00" stroke="None">
<path d="
M 382.00 436.00 
C 382.35 436.23 383.65 436.23 384.00 436.00
C 387.26 428.66 380.72 416.81 385.00 410.00
C 389.58 416.34 393.82 423.77 397.00 431.00
C 404.18 429.46 406.45 418.70 411.00 413.00
C 411.79 412.00 411.66 410.41 413.00 410.00
C 413.00 418.67 413.00 427.33 413.00 436.00
C 413.31 436.15 415.69 436.15 416.00 436.00
C 418.44 425.80 412.75 412.94 416.00 403.00
C 408.19 406.85 405.15 418.52 400.00 426.00
C 391.78 423.41 391.66 406.16 384.00 403.00
C 380.52 403.41 381.68 415.31 382.00 419.00 C 382.32 422.69 380.41 432.42 382.00 436.00 Z"/>
</g>
<g fill="#0E7441" fill-opacity="1.00" stroke="None">
<path d="
M 384.00 436.00 
C 387.01 434.04 384.14 426.45 385.00 423.00 C 385.86 419.55 384.35 413.67 385.00 410.00
C 380.72 416.81 387.26 428.66 384.00 436.00 Z"/>
</g>
<g fill="#EDF5F3" fill-opacity="1.00" stroke="None">
<path d="
M 411.00 413.00 
C 410.78 414.94 412.53 422.36 412.00 425.00 C 411.47 427.64 411.06 435.04 413.00 436.00
C 413.00 427.33 413.00 418.67 413.00 410.00
C 411.66 410.41 411.79 412.00 411.00 413.00 Z"/>
</g>
<g fill="#BBD8CB" fill-opacity="1.00" stroke="None">
<path d="
M 424.00 412.00 
C 426.11 409.15 428.75 413.42 430.00 415.00
C 429.96 414.94 422.72 406.08 424.00 412.00 Z"/>
</g>
<g fill="#00672E" fill-opacity="1.00" stroke="None">
<path d="
M 424.00 412.00 
C 426.84 415.78 431.23 419.50 433.00 424.00
C 428.58 426.96 426.50 432.10 423.00 436.00
C 428.62 436.47 430.44 429.43 434.00 426.00
C 439.44 427.98 439.45 437.08 446.00 436.00
C 442.96 431.17 438.30 427.09 436.00 422.00
C 439.77 419.18 442.61 415.02 445.00 411.00
C 439.14 410.83 438.15 418.43 434.00 421.00
C 433.14 418.72 431.52 416.93 430.00 415.00
C 428.75 413.42 426.11 409.15 424.00 412.00 Z"/>
</g>
<g fill="#A8CC80" fill-opacity="1.00" stroke="None">
<path d="
M 248.00 448.00 
C 249.28 448.16 250.70 448.00 252.00 448.00
C 251.20 447.92 248.66 448.02 248.00 448.00 Z"/>
</g>
</svg>