<svg xmlns="http://www.w3.org/2000/svg" width="106" height="106" viewBox="0 0 106 106">
  <g id="Grupo_22278" data-name="Grupo 22278" transform="translate(-564.566 -617.038)">
    <g id="Grupo_16319" data-name="Grupo 16319" transform="translate(564.567 617.039)">
      <g id="Grupo_16277" data-name="Grupo 16277" transform="translate(0)">
        <g id="Grupo_16269" data-name="Grupo 16269">
          <g id="Grupo_16259" data-name="Grupo 16259">
            <g id="Grupo_16234" data-name="Grupo 16234">
              <g id="Grupo_16193" data-name="Grupo 16193">
                <g id="Grupo_15839" data-name="Grupo 15839">
                  <g id="Grupo_15836" data-name="Grupo 15836">
                    <g id="Rect치ngulo_235" data-name="Rect치ngulo 235">
                      <rect id="Rect치ngulo_7154" data-name="Rect치ngulo 7154" width="106" height="106" transform="translate(-0.001 -0.001)" fill="none"/>
                    </g>
                  </g>
                </g>
              </g>
            </g>
          </g>
        </g>
      </g>
    </g>
    <g id="Grupo_21813" data-name="Grupo 21813" transform="translate(585.901 639.339)">
      <g id="Trazado_4112" data-name="Trazado 4112" transform="translate(4.417 30.916)">
        <path id="Trazado_12428" data-name="Trazado 12428" d="M578.213,671.613a1.987,1.987,0,0,1,0-3.975h4.644l0-22.525h-4.64a1.987,1.987,0,0,1,0-3.975h5.36a3.254,3.254,0,0,1,2.226.85,3.2,3.2,0,0,1,1.029,2.237c0,.079,0,.311-.009.393l.006,23.682a3.061,3.061,0,0,1-.753,2.175,3.193,3.193,0,0,1-2.184,1.126c-.084.009-.322.011-.4.011Zm4.644-3.273a1.247,1.247,0,0,0,0,.128Zm.733-23.227h0Z" transform="translate(-576.228 -641.138)" fill="#006c30"/>
      </g>
      <g id="Trazado_4113" data-name="Trazado 4113" transform="translate(11.041 25.626)">
        <path id="Trazado_12429" data-name="Trazado 12429" d="M581.213,650.216a1.987,1.987,0,0,1,0-3.975H583.8a1.581,1.581,0,0,0,1.137-.6l4.942-6.155a1.988,1.988,0,1,1,3.1,2.489l-4.942,6.152a5.586,5.586,0,0,1-4.172,2.089Z" transform="translate(-579.228 -638.743)" fill="#006c30"/>
      </g>
      <g id="Trazado_4114" data-name="Trazado 4114" transform="translate(11.151 33.124)">
        <path id="Trazado_12430" data-name="Trazado 12430" d="M610.243,670.4H594.626c-3.374,0-8.274-2.411-14.559-7.17a1.987,1.987,0,1,1,2.4-3.169c7.316,5.538,10.759,6.364,12.161,6.364h15.617c1.526,0,1.6,0,1.983-1.126a157.26,157.26,0,0,0,2.548-18.724,3.073,3.073,0,0,0-1.926-.466H598.82a1.987,1.987,0,0,1,0-3.975h14.029c3.871,0,5.894,2.31,5.894,4.591A160.51,160.51,0,0,1,616.1,666.2a1.809,1.809,0,0,1-.064.241C614.819,670.1,612.507,670.4,610.243,670.4Z" transform="translate(-579.278 -642.138)" fill="#006c30"/>
      </g>
      <g id="Trazado_4115" data-name="Trazado 4115" transform="translate(17.862 0)">
        <path id="Trazado_12431" data-name="Trazado 12431" d="M588.291,660.567a1.987,1.987,0,0,1-1.965-1.707l-3.975-27.853a3.4,3.4,0,0,1,2.88-3.836c.093-.013.384-.033.477-.033h20.482a1.987,1.987,0,1,1,0,3.975H586.381l3.88,27.187a1.989,1.989,0,0,1-1.687,2.248A2.064,2.064,0,0,1,588.291,660.567Z" transform="translate(-582.317 -627.138)" fill="#006c30"/>
      </g>
      <g id="Trazado_4116" data-name="Trazado 4116" transform="translate(27.935 8.833)">
        <path id="Trazado_12432" data-name="Trazado 12432" d="M605.64,658.044a2.056,2.056,0,0,1-.327-.027,1.988,1.988,0,0,1-1.636-2.286l3.412-20.619H590.935l2.27,20.557a1.987,1.987,0,1,1-3.951.435L586.9,634.764a3.273,3.273,0,0,1,2.9-3.609c.071-.007.287-.018.355-.018H607.9a3.463,3.463,0,0,1,2.3.934,3.254,3.254,0,0,1,.985,2.3c0,.106-.022.426-.038.532L607.6,656.379A1.986,1.986,0,0,1,605.64,658.044Zm2.268-22.931h0Z" transform="translate(-586.878 -631.138)" fill="#006c30"/>
      </g>
      <g id="Trazado_4117" data-name="Trazado 4117" transform="translate(36.675 19.871)">
        <path id="Trazado_12433" data-name="Trazado 12433" d="M593.786,642.047h-.035a2.955,2.955,0,0,1-.5-5.859,1.474,1.474,0,0,1,.484-.046l.033,0v0a.113.113,0,0,1,.038,0h.024a2.953,2.953,0,0,1-.04,5.905Zm-.011-1.93h0Zm.024,0h0Z" transform="translate(-590.836 -636.136)" fill="#006c30"/>
      </g>
      <g id="Trazado_4146" data-name="Trazado 4146" transform="translate(0 6.625)">
        <path id="Trazado_12434" data-name="Trazado 12434" d="M585.047,634.113h-8.833a1.987,1.987,0,0,1,0-3.975h8.833a1.987,1.987,0,0,1,0,3.975Z" transform="translate(-574.228 -630.138)" fill="red"/>
      </g>
      <g id="Trazado_4148" data-name="Trazado 4148" transform="translate(4.417 2.208)">
        <path id="Trazado_12435" data-name="Trazado 12435" d="M578.213,640.946a1.986,1.986,0,0,1-1.985-1.987v-8.833a1.986,1.986,0,1,1,3.973,0v8.833A1.986,1.986,0,0,1,578.213,640.946Z" transform="translate(-576.228 -628.138)" fill="red"/>
      </g>
      <g id="Trazado_4146-2" data-name="Trazado 4146" transform="translate(54.938 22.673)">
        <path id="Trazado_12436" data-name="Trazado 12436" d="M609.927,641.382h-8.833a1.989,1.989,0,0,1,0-3.977h8.833a1.989,1.989,0,0,1,0,3.977Z" transform="translate(-599.106 -637.405)" fill="red"/>
      </g>
      <g id="Trazado_4148-2" data-name="Trazado 4148" transform="translate(59.355 18.256)">
        <path id="Trazado_12437" data-name="Trazado 12437" d="M603.094,648.215a1.987,1.987,0,0,1-1.988-1.987v-8.833a1.987,1.987,0,1,1,3.975,0v8.833A1.988,1.988,0,0,1,603.094,648.215Z" transform="translate(-601.106 -635.405)" fill="red"/>
      </g>
    </g>
  </g>
</svg>
