<svg xmlns="http://www.w3.org/2000/svg" width="65.621" height="65.622" viewBox="0 0 65.621 65.622">
  <g id="Grupo_22065" data-name="Grupo 22065" transform="translate(0 0)">
    <g id="Grupo_22028" data-name="Grupo 22028" transform="translate(30.188 30.411)">
      <g id="Grupo_22026" data-name="Grupo 22026">
        <path id="Trazado_12702" data-name="Trazado 12702" d="M334.012,114.291a11.607,11.607,0,1,1,11.605-11.607A11.619,11.619,0,0,1,334.012,114.291Zm0-20.753a9.146,9.146,0,1,0,9.144,9.146A9.156,9.156,0,0,0,334.012,93.538Z" transform="translate(-322.405 -91.077)" fill="#006c30"/>
      </g>
      <g id="Grupo_22027" data-name="Grupo 22027" transform="translate(6.232 6.236)">
        <g id="Trazado_4487" data-name="Trazado 4487" transform="translate(0.593 0.591)">
          <path id="Trazado_12703" data-name="Trazado 12703" d="M327.8,104.8a1.23,1.23,0,0,1-.869-2.1l7.1-7.1a1.23,1.23,0,1,1,1.739,1.741l-7.1,7.1A1.221,1.221,0,0,1,327.8,104.8Z" transform="translate(-326.565 -95.238)" fill="red"/>
        </g>
        <g id="Trazado_4488" data-name="Trazado 4488">
          <path id="Trazado_12704" data-name="Trazado 12704" d="M328.027,98.522a1.822,1.822,0,1,1,1.823-1.821A1.825,1.825,0,0,1,328.027,98.522Z" transform="translate(-326.204 -94.878)" fill="red"/>
        </g>
        <g id="Trazado_4489" data-name="Trazado 4489" transform="translate(7.102 7.099)">
          <path id="Trazado_12705" data-name="Trazado 12705" d="M332.356,102.85a1.823,1.823,0,1,1,1.821-1.823A1.826,1.826,0,0,1,332.356,102.85Z" transform="translate(-330.533 -99.205)" fill="red"/>
        </g>
      </g>
    </g>
    <g id="Componente_45_1" data-name="Componente 45 1" transform="translate(0 0)">
      <g id="Grupo_16183" data-name="Grupo 16183">
        <g id="Grupo_15849" data-name="Grupo 15849">
          <g id="Grupo_15839" data-name="Grupo 15839">
            <g id="Grupo_15836" data-name="Grupo 15836">
              <g id="Rect치ngulo_235" data-name="Rect치ngulo 235">
                <rect id="Rect치ngulo_7228" data-name="Rect치ngulo 7228" width="65.621" height="65.622" fill="none"/>
              </g>
            </g>
          </g>
        </g>
        <g id="streamline-icon-car-actions-check-1_50x50" data-name="streamline-icon-car-actions-check-1 50x50" transform="translate(11.757 12.442)">
          <g id="Trazado_3433" data-name="Trazado 3433" transform="translate(4.325)">
            <path id="Trazado_12706" data-name="Trazado 12706" d="M343.644,91.821a1.231,1.231,0,0,1-1.124-.727L339.5,84.373a2.691,2.691,0,0,0-2.508-1.788H321.677A2.658,2.658,0,0,0,319.2,84.3l-3.035,6.79a1.231,1.231,0,0,1-2.248-1.006l3.007-6.72a5.1,5.1,0,0,1,4.753-3.242H337a5.132,5.132,0,0,1,4.782,3.312l2.987,6.651a1.232,1.232,0,0,1-.62,1.626A1.209,1.209,0,0,1,343.644,91.821Z" transform="translate(-313.806 -80.124)" fill="#026d31"/>
          </g>
          <g id="Trazado_3434" data-name="Trazado 3434" transform="translate(1.367 22.556)">
            <path id="Trazado_12707" data-name="Trazado 12707" d="M315.975,101.657a4.321,4.321,0,0,1-1.91-.459A3.864,3.864,0,0,1,312,97.71V95.1a1.23,1.23,0,1,1,2.461,0V97.71a1.419,1.419,0,0,0,.687,1.28,1.6,1.6,0,0,0,1.611-.023,1.5,1.5,0,0,0,.71-1.278V95.1a1.23,1.23,0,1,1,2.461,0v2.585a3.969,3.969,0,0,1-3.959,3.968Z" transform="translate(-312.003 -93.873)" fill="#026d31"/>
          </g>
          <g id="Trazado_3435" data-name="Trazado 3435" transform="translate(5.702 16.082)">
            <path id="Trazado_12708" data-name="Trazado 12708" d="M315.876,93.036a1.231,1.231,0,0,1-1.23-1.23,1.88,1.88,0,0,1,1.875-1.878,1.71,1.71,0,0,1-.645,3.109Z" transform="translate(-314.646 -89.927)" fill="#026d31"/>
          </g>
          <g id="Trazado_3436" data-name="Trazado 3436" transform="translate(6.347 16.082)">
            <path id="Trazado_12709" data-name="Trazado 12709" d="M316.917,93.036a1.588,1.588,0,0,1-.648-3.109,1.881,1.881,0,0,1,1.878,1.878A1.231,1.231,0,0,1,316.917,93.036Z" transform="translate(-315.039 -89.927)" fill="#026d31"/>
          </g>
          <g id="Trazado_3437" data-name="Trazado 3437" transform="translate(6.349 16.73)">
            <path id="Trazado_12710" data-name="Trazado 12710" d="M316.27,93.429a1.587,1.587,0,1,1,1.878-1.877A1.881,1.881,0,0,1,316.27,93.429Z" transform="translate(-315.04 -90.322)" fill="#026d31"/>
          </g>
          <g id="Trazado_3438" data-name="Trazado 3438" transform="translate(5.702 16.732)">
            <path id="Trazado_12711" data-name="Trazado 12711" d="M316.521,93.43a1.879,1.879,0,0,1-1.875-1.877,1.586,1.586,0,1,1,1.875,1.877Zm.586-1.877h0Z" transform="translate(-314.646 -90.323)" fill="#026d31"/>
          </g>
          <g id="Trazado_3439" data-name="Trazado 3439" transform="translate(0 10.252)">
            <path id="Trazado_12712" data-name="Trazado 12712" d="M326.071,101.138h-12.3a2.6,2.6,0,0,1-2.6-2.6v-8.2a3.969,3.969,0,0,1,3.965-3.965h30.079a6.717,6.717,0,0,1,5.8,3.35,1.23,1.23,0,0,1-2.129,1.23,4.251,4.251,0,0,0-3.672-2.12H315.135a1.505,1.505,0,0,0-1.5,1.5v8.2a.136.136,0,0,0,.136.136h12.3a1.23,1.23,0,0,1,0,2.461Z" transform="translate(-311.17 -86.373)" fill="#026d31"/>
          </g>
        </g>
      </g>
    </g>
  </g>
</svg>
