<svg xmlns="http://www.w3.org/2000/svg" width="52" height="52" viewBox="0 0 52 52">
  <g id="Grupo_19717" data-name="Grupo 19717" transform="translate(19079 24246)">
    <g id="Grupo_19040" data-name="Grupo 19040" transform="translate(-19175 -24874)">
      <g id="local_shipping_FILL0_wght400_GRAD0_opsz48" transform="translate(94.9 626.8)">
        <path id="Trazado_11642" data-name="Trazado 11642" d="M2.1,30.9v5.973H5.745A6.913,6.913,0,0,0,7.681,41.66,6.112,6.112,0,0,0,12.464,43.6a6.913,6.913,0,0,0,4.784-1.936,6.112,6.112,0,0,0,1.936-4.784h15.49A6.913,6.913,0,0,0,36.61,41.66,6.273,6.273,0,0,0,41.394,43.6a6.913,6.913,0,0,0,4.784-1.936,6.112,6.112,0,0,0,1.936-4.784H52.1V27.081L44.355,16.717H38.433V13.3H35.016V30.9M14.742,39.268a3.035,3.035,0,0,1-2.278,1.025,2.867,2.867,0,0,1-2.278-1.025A3.035,3.035,0,0,1,9.162,36.99a2.867,2.867,0,0,1,1.025-2.278,2.925,2.925,0,0,1,2.278-.911,3.114,3.114,0,0,1,3.189,3.189A2.925,2.925,0,0,1,14.742,39.268Zm28.929,0a3.035,3.035,0,0,1-2.278,1.025,2.867,2.867,0,0,1-2.278-1.025A2.925,2.925,0,0,1,38.2,36.99a3.222,3.222,0,0,1,5.467-2.278,3.044,3.044,0,0,1,0,4.556ZM38.433,28.676V20.248h4.328l6.264,8.428Z" transform="translate(0 0.431)" fill="#006c30"/>
        <path id="Trazado_11643" data-name="Trazado 11643" d="M10.978,12.592a3.293,3.293,0,0,1,1.367-1.708,3.75,3.75,0,0,1,2.164-.683H22.6a3.75,3.75,0,0,1,2.164.683,3.293,3.293,0,0,1,1.367,1.708l1.708,4.1a4.949,4.949,0,0,1,3.3,1.481,4.381,4.381,0,0,1,1.367,3.3,4.877,4.877,0,0,1-.683,2.506,5.618,5.618,0,0,1-2.05,1.936,3.526,3.526,0,0,1-1.367,2.62,4.081,4.081,0,0,1-2.733,1.025,4.3,4.3,0,0,1-2.62-.911,3.23,3.23,0,0,1-1.367-2.278H15.306a4.258,4.258,0,0,1-1.367,2.278,4.188,4.188,0,0,1-5.353-.114A3.827,3.827,0,0,1,7.333,25.8a5.578,5.578,0,0,1-2.05-1.936A4.877,4.877,0,0,1,4.6,21.362,4.461,4.461,0,0,1,5.625,18.4,6.031,6.031,0,0,1,8.7,16.578m2.62,0h6.15V12.136H14.509a1.293,1.293,0,0,0-.911.342,2.043,2.043,0,0,0-.569.8Zm8.2,0h6.15l-1.595-3.417a2.043,2.043,0,0,0-.569-.8,1.293,1.293,0,0,0-.911-.342H19.52Zm-4.1,7.859H21.8a3.336,3.336,0,0,1,1.481-1.822,4.592,4.592,0,0,1,2.506-.683,3.933,3.933,0,0,1,2.05.569,4.637,4.637,0,0,1,1.595,1.367,3.929,3.929,0,0,0,.911-1.025,2.452,2.452,0,0,0,.228-1.253,2.852,2.852,0,0,0-.911-2.05,3.1,3.1,0,0,0-2.278-.8H9.839a3.283,3.283,0,0,0-2.278.8,2.852,2.852,0,0,0-.911,2.05,4.844,4.844,0,0,0,.228,1.253,2.48,2.48,0,0,0,.8,1.025,4.6,4.6,0,0,1,1.481-1.481,4.641,4.641,0,0,1,2.05-.569,4.877,4.877,0,0,1,2.506.683A3.522,3.522,0,0,1,15.42,24.437Zm-3.986,3.189a2.165,2.165,0,0,0,1.481-.569,1.925,1.925,0,0,0,0-2.733,2.165,2.165,0,0,0-1.481-.569,2.4,2.4,0,0,0-1.481.569,1.533,1.533,0,0,0-.569,1.367,1.886,1.886,0,0,0,.569,1.367A2.165,2.165,0,0,0,11.434,27.626Zm14.351,0a2.165,2.165,0,0,0,1.481-.569,1.925,1.925,0,0,0,0-2.733,2.165,2.165,0,0,0-1.481-.569,2.4,2.4,0,0,0-1.481.569,1.533,1.533,0,0,0-.569,1.367,1.886,1.886,0,0,0,.569,1.367A1.968,1.968,0,0,0,25.785,27.626Zm-7.175-6.15Z" transform="translate(0.347 2)" fill="#006c30"/>
      </g>
      <g id="Grupo_16180" data-name="Grupo 16180" transform="translate(72 -958)">
        <g id="Grupo_15839" data-name="Grupo 15839" transform="translate(24 1586)">
          <g id="Grupo_15836" data-name="Grupo 15836">
            <rect id="Rectángulo_235" data-name="Rectángulo 235" width="52" height="52" fill="none"/>
          </g>
        </g>
      </g>
    </g>
  </g>
</svg>
