<svg id="Icon_L" data-name="Icon L" xmlns="http://www.w3.org/2000/svg" width="24" height="24" viewBox="0 0 24 24">
  <g id="Grupo_620" data-name="Grupo 620">
    <path id="Trazado_11173" data-name="Trazado 11173" d="M0,0H24V24H0Z" fill="none"/>
  </g>
  <g id="Grupo_623" data-name="Grupo 623">
    <g id="Grupo_622" data-name="Grupo 622">
      <g id="Grupo_621" data-name="Grupo 621">
        <path id="Trazado_11174" data-name="Trazado 11174" d="M4,18H20a1,1,0,0,0,1-1h0a1,1,0,0,0-1-1H4a1,1,0,0,0-1,1H3A1,1,0,0,0,4,18Zm0-5H20a1,1,0,0,0,1-1h0a1,1,0,0,0-1-1H4a1,1,0,0,0-1,1H3A1,1,0,0,0,4,13ZM3,7H3A1,1,0,0,0,4,8H20a1,1,0,0,0,1-1h0a1,1,0,0,0-1-1H4A1,1,0,0,0,3,7Z" fill="#65a518"/>
      </g>
    </g>
  </g>
</svg>
