<svg xmlns="http://www.w3.org/2000/svg" xmlns:xlink="http://www.w3.org/1999/xlink" width="80" height="80" viewBox="0 0 80 80">
  <defs>
    <clipPath id="clip-path">
      <rect id="Rectangle_7187" data-name="Rectangle 7187" width="80" height="80" fill="none"/>
    </clipPath>
  </defs>
  <g id="Group_21876" data-name="Group 21876" clip-path="url(#clip-path)">
    <path id="Path_12563" data-name="Path 12563" d="M33.683,49.148a7.838,7.838,0,1,1,7.838-7.838,7.848,7.848,0,0,1-7.838,7.838m0-12.469a4.631,4.631,0,1,0,4.631,4.631,4.635,4.635,0,0,0-4.631-4.631" transform="translate(17.774 23.02)" fill="#006c30"/>
    <path id="Path_12564" data-name="Path 12564" d="M16.444,49.148a7.838,7.838,0,1,1,7.838-7.838,7.845,7.845,0,0,1-7.838,7.838m0-12.469a4.631,4.631,0,1,0,4.63,4.631,4.636,4.636,0,0,0-4.63-4.631" transform="translate(5.919 23.02)" fill="#006c30"/>
    <path id="Path_12565" data-name="Path 12565" d="M17.6,41.457a1.6,1.6,0,0,1,0-3.207H34.475a1.6,1.6,0,0,1,0,3.207Z" transform="translate(11 26.306)" fill="#006c30"/>
    <path id="Path_12566" data-name="Path 12566" d="M55.486,53.149a1.6,1.6,0,1,1,0-3.207h7.595A2.558,2.558,0,0,0,65.7,47.388V43.1a6.837,6.837,0,0,0-6.835-6.832H42.254a1.6,1.6,0,0,1-1.435-.888l-4.746-9.517a2.536,2.536,0,0,0-2.28-1.409H21.2a2.538,2.538,0,0,0-2.284,1.411l-4.758,9.514a1.6,1.6,0,0,1-1.433.886,6.279,6.279,0,0,0-6.273,6.272v4.849A2.557,2.557,0,0,0,9.01,49.942h4.579a1.6,1.6,0,0,1,0,3.207H9.01a5.767,5.767,0,0,1-5.76-5.76V42.539a9.508,9.508,0,0,1,8.2-9.392l.263-.037,4.341-8.677A5.731,5.731,0,0,1,21.2,21.25H33.793a5.723,5.723,0,0,1,5.149,3.185l4.3,8.63H58.852A10.044,10.044,0,0,1,68.9,43.095v4.294a5.767,5.767,0,0,1-5.76,5.76Z" transform="translate(2.235 14.614)" fill="#006c30"/>
    <path id="Path_12567" data-name="Path 12567" d="M9.853,31.457a1.6,1.6,0,0,1,0-3.207H41.921a1.6,1.6,0,0,1,0,3.207Z" transform="translate(5.674 19.429)" fill="#006c30"/>
    <path id="Path_12568" data-name="Path 12568" d="M28.679,36.428a1.6,1.6,0,0,1-1.134-2.738L40.014,21.221a1.6,1.6,0,0,1,1.134-.471h8.078a1.6,1.6,0,1,1,0,3.208H41.812l-12,12a1.6,1.6,0,0,1-1.134.469" transform="translate(18.622 14.27)" fill="#006c30"/>
    <path id="Path_12569" data-name="Path 12569" d="M41.84,25.831a1.6,1.6,0,0,1-1.112-.447,8.4,8.4,0,0,1-2.569-6.307c0-2.218,1.35-3.877,2.437-5.21,1.067-1.31,1.72-2.165,1.72-3.241a5.19,5.19,0,0,0-1.585-3.944,1.6,1.6,0,1,1,2.221-2.312,8.411,8.411,0,0,1,2.57,6.307c0,2.221-1.354,3.88-2.441,5.214-1.065,1.308-1.716,2.164-1.716,3.237a5.184,5.184,0,0,0,1.585,3.944,1.6,1.6,0,0,1-1.111,2.759" transform="translate(26.241 2.697)" fill="#006c30"/>
    <path id="Path_12570" data-name="Path 12570" d="M34.452,28.294a1.592,1.592,0,0,1-1.112-.449,8.4,8.4,0,0,1-2.569-6.305c0-2.221,1.352-3.88,2.439-5.212,1.065-1.308,1.718-2.164,1.718-3.239a5.186,5.186,0,0,0-1.585-3.944A1.6,1.6,0,0,1,33.3,6.878a1.6,1.6,0,0,1,2.267-.046,8.406,8.406,0,0,1,2.57,6.307c0,2.221-1.354,3.88-2.439,5.214-1.067,1.308-1.718,2.164-1.718,3.237a5.186,5.186,0,0,0,1.587,3.944,1.6,1.6,0,0,1-1.112,2.759" transform="translate(21.16 4.391)" fill="#006c30"/>
    <path id="Path_12571" data-name="Path 12571" d="M41.841,25.831a1.6,1.6,0,0,1-1.112-.447,8.4,8.4,0,0,1-2.569-6.307c0-2.218,1.35-3.877,2.437-5.21,1.067-1.31,1.72-2.165,1.72-3.241a5.19,5.19,0,0,0-1.585-3.944,1.6,1.6,0,1,1,2.221-2.312,8.411,8.411,0,0,1,2.57,6.307c0,2.221-1.354,3.88-2.441,5.214-1.065,1.308-1.716,2.164-1.716,3.237a5.184,5.184,0,0,0,1.585,3.944,1.6,1.6,0,0,1-1.111,2.759" transform="translate(26.242 2.697)" fill="#d4001a"/>
  </g>
</svg>
