<svg xmlns="http://www.w3.org/2000/svg" width="65" height="65" viewBox="0 0 65 65">
  <g id="Grupo_20781" data-name="Grupo 20781" transform="translate(-40 -510)">
    <g id="Rectángulo_6317" data-name="Rectángulo 6317" transform="translate(40 510)" fill="#fff" stroke="#c6c6c6" stroke-width="1">
      <rect width="65" height="65" rx="6" stroke="none"/>
      <rect x="0.5" y="0.5" width="64" height="64" rx="5.5" fill="none"/>
    </g>
    <g id="Componente_50_1" data-name="Componente 50 – 1" transform="translate(45 515)">
      <g id="Grupo_15850" data-name="Grupo 15850" transform="translate(5.307 18.412)">
        <g id="streamline-icon-navigation-car-pin_50x50" data-name="streamline-icon-navigation-car-pin@50x50" transform="translate(0 1.92)">
          <path id="Trazado_3151" data-name="Trazado 3151" d="M14.062,42.29a3.2,3.2,0,1,0,3.2-3.2,3.2,3.2,0,0,0-3.2,3.2Z" transform="translate(-5.527 -24.151)" fill="none" stroke="#006729" stroke-linecap="round" stroke-linejoin="round" stroke-width="2.5"/>
          <path id="Trazado_3152" data-name="Trazado 3152" d="M1.562,43.777H10.1" transform="translate(-1.562 -25.637)" fill="none" stroke="#006729" stroke-linecap="round" stroke-linejoin="round" stroke-width="2.5"/>
          <path id="Trazado_3153" data-name="Trazado 3153" d="M16.5,35.353h3.2a2.134,2.134,0,0,0,2.134-2.134v-3.2a4.268,4.268,0,0,0-4.268-4.268H13.3l-3.094-6.177a4.268,4.268,0,0,0-3.817-2.359H1.562" transform="translate(-1.562 -17.214)" fill="none" stroke="#006729" stroke-linecap="round" stroke-linejoin="round" stroke-width="2.5"/>
          <path id="Trazado_3154" data-name="Trazado 3154" d="M1.562,29.715H13.3" transform="translate(-1.562 -21.177)" fill="none" stroke="#006729" stroke-linecap="round" stroke-linejoin="round" stroke-width="2.5"/>
        </g>
        <g id="streamline-icon-navigation-car-pin_50x50-2" data-name="streamline-icon-navigation-car-pin@50x50" transform="translate(25.267 1.922)">
          <path id="Trazado_3151-2" data-name="Trazado 3151" d="M20.465,42.29a3.2,3.2,0,1,1-3.2-3.2,3.2,3.2,0,0,1,3.2,3.2Z" transform="translate(-8.729 -24.152)" fill="none" stroke="#006729" stroke-linecap="round" stroke-linejoin="round" stroke-width="2.5"/>
          <path id="Trazado_3152-2" data-name="Trazado 3152" d="M10.1,43.777H1.562" transform="translate(10.172 -25.638)" fill="none" stroke="#006729" stroke-linecap="round" stroke-linejoin="round" stroke-width="2.5"/>
          <path id="Trazado_3153-2" data-name="Trazado 3153" d="M6.9,35.352H3.7a2.134,2.134,0,0,1-2.134-2.134v-3.2A4.268,4.268,0,0,1,5.831,25.75H10.1l3.094-6.177a4.268,4.268,0,0,1,3.817-2.358H21.84" transform="translate(-1.563 -17.215)" fill="none" stroke="#006729" stroke-linecap="round" stroke-linejoin="round" stroke-width="2.5"/>
          <path id="Trazado_3154-2" data-name="Trazado 3154" d="M13.3,29.715H1.562" transform="translate(6.972 -21.179)" fill="none" stroke="#006729" stroke-linecap="round" stroke-linejoin="round" stroke-width="2.5"/>
        </g>
        <g id="Grupo_15847" data-name="Grupo 15847" transform="translate(17.578 0)">
          <path id="Trazado_3136" data-name="Trazado 3136" d="M37.39,3.753V1.562" transform="translate(-32.242 -1.562)" fill="none" stroke="#e60018" stroke-linecap="round" stroke-linejoin="round" stroke-width="2"/>
          <path id="Trazado_3155" data-name="Trazado 3155" d="M37.117,3.861,37.86,3.2" transform="translate(-27.477 -0.349)" fill="none" stroke="#e60018" stroke-linecap="round" stroke-linejoin="round" stroke-width="2"/>
          <path id="Trazado_3156" data-name="Trazado 3156" d="M37.86,3.861,37.117,3.2" transform="translate(-37.117 -0.02)" fill="none" stroke="#e60018" stroke-linecap="round" stroke-linejoin="round" stroke-width="2"/>
        </g>
      </g>
      <g id="Grupo_15849" data-name="Grupo 15849">
        <g id="Grupo_15839" data-name="Grupo 15839">
          <g id="Grupo_15836" data-name="Grupo 15836">
            <rect id="Rectángulo_235" data-name="Rectángulo 235" width="55" height="55" fill="none"/>
          </g>
        </g>
      </g>
    </g>
  </g>
</svg>
