<svg xmlns="http://www.w3.org/2000/svg" xmlns:xlink="http://www.w3.org/1999/xlink" width="32.516" height="41.168" viewBox="0 0 32.516 41.168">
  <defs>
    <clipPath id="clip-path">
      <rect id="Rectangle_7184" data-name="Rectangle 7184" width="32.516" height="41.168" fill="none"/>
    </clipPath>
  </defs>
  <g id="Group_21868" data-name="Group 21868" clip-path="url(#clip-path)">
    <path id="Path_12534" data-name="Path 12534" d="M71.57,88.788q0-8.055.01-16.11a1.276,1.276,0,0,1,.239-.806,1.162,1.162,0,0,1,.78-.287c3.549-.018,7.1-.012,10.646-.012,1.833,0,3.666.006,5.5,0a1.192,1.192,0,0,1,.907.379q3.646,3.658,7.3,7.3a1.252,1.252,0,0,1,.388.943q0,12.373,0,24.747c0,.761-.3,1.054-1.078,1.054H72.713c-.864,0-1.143-.275-1.143-1.131q0-8.037,0-16.075m24.05,15.5V80.832h-.442q-3.014,0-6.028,0c-.8,0-1.087-.292-1.087-1.081q0-3.032,0-6.064v-.395H73.291v31ZM89.774,79.116h4.463l-4.463-4.463Z" transform="translate(-64.827 -64.826)" fill="#026d31"/>
    <path id="Path_12535" data-name="Path 12535" d="M129.086,294.6q-3.243,0-6.485,0a.848.848,0,1,1-.082-1.689c.423-.008.846,0,1.269,0h11.772a.867.867,0,0,1,.952.612.843.843,0,0,1-.87,1.077c-.975.009-1.95,0-2.925,0h-3.63" transform="translate(-110.185 -265.308)" fill="#026d31"/>
    <path id="Path_12536" data-name="Path 12536" d="M129.086,247.977q-3.243,0-6.485,0a.848.848,0,1,1-.082-1.689c.423-.008.846,0,1.269,0h11.772a.867.867,0,0,1,.952.612.843.843,0,0,1-.87,1.077c-.975.009-1.95,0-2.925,0h-3.63" transform="translate(-110.185 -223.079)" fill="#026d31"/>
    <path id="Path_12537" data-name="Path 12537" d="M129.086,201.355q-3.243,0-6.485,0a.848.848,0,1,1-.082-1.689c.423-.008.846,0,1.269,0h11.772a.867.867,0,0,1,.952.612.843.843,0,0,1-.87,1.077c-.975.009-1.95,0-2.925,0h-3.63" transform="translate(-110.185 -180.849)" fill="#026d31"/>
    <path id="Path_12538" data-name="Path 12538" d="M126.766,339.529c1.408,0,2.817-.006,4.225,0a.836.836,0,0,1,.8,1.232.9.9,0,0,1-.883.46c-1.526,0-3.051,0-4.577,0-1.267,0-2.535.007-3.8,0a.842.842,0,0,1-.836-1.173.864.864,0,0,1,.88-.518c1.4.006,2.793,0,4.19,0" transform="translate(-110.163 -307.538)" fill="#d4001b"/>
    <path id="Path_12539" data-name="Path 12539" d="M37.506,37.508H52.278V37.9q0,.96,0,1.921h1.711V38.87l.954.954H57.52Q55.691,38,53.865,36.164a1.192,1.192,0,0,0-.907-.379c-1.833.01-3.666,0-5.5,0-3.549,0-7.1-.006-10.646.012a1.163,1.163,0,0,0-.78.287,1.276,1.276,0,0,0-.239.806q-.02,8.055-.01,16.11,0,8.037,0,16.075c0,.856.279,1.131,1.143,1.131H39.6v-1.7H37.506Z" transform="translate(-32.413 -32.413)" fill="#026d31"/>
    <path id="Path_12540" data-name="Path 12540" d="M1.721,1.723H16.493v.395q0,.929,0,1.858H18.2V3.085l.892.892h2.576q-1.8-1.8-3.592-3.6A1.192,1.192,0,0,0,17.173,0c-1.833.01-3.666,0-5.5,0C8.126,0,4.577,0,1.028.017A1.163,1.163,0,0,0,.249.3a1.276,1.276,0,0,0-.239.806Q-.01,9.164,0,17.219q0,8.037,0,16.075c0,.856.279,1.131,1.143,1.131H3.569v-1.7H1.721Z" transform="translate(0 0)" fill="#026d31"/>
  </g>
</svg>
