<?xml version="1.0" encoding="UTF-8"?><svg id="Layer_7" xmlns="http://www.w3.org/2000/svg" viewBox="0 0 32 32"><defs><style>.cls-1{fill:#fff;}.cls-2{fill:#096d33;}.cls-3{fill:#fe0707;}</style></defs><path class="cls-2" d="M5.01,28.72c0-.34,0-.57,0-.8,0-7.25,0-14.49,.01-21.74,0-.37,.13-.75,.28-1.09,.45-1.02,.95-2.02,1.4-3.04,.25-.56,.64-.78,1.24-.78,5.37,0,10.73,0,16.1,0,.6,0,.99,.22,1.25,.77,.54,1.15,1.14,2.27,1.67,3.42,.12,.25,.12,.57,.12,.86,0,7.19,0,14.37,0,21.56q0,.84,.83,.84c.59,0,1.18-.01,1.76,.01,.6,.03,.97,.42,.96,.97-.02,.51-.4,.88-.96,.92-.06,0-.12,0-.18,0-6.07,.04-12.13,.08-18.2,.12-1.49,0-2.98,.02-4.47,0-1.5-.02-3.01-.07-4.51-.12-.6-.02-.98-.41-.98-.95,0-.54,.37-.92,.99-.93,.86-.02,1.72,0,2.67,0ZM25.19,6.91H6.95V28.6h5.43c0-.67-.04-1.29,0-1.91,.17-2.47,2.71-4.04,5-3.09,1.6,.67,2.2,2.02,2.38,3.62,.05,.46,0,.92,0,1.38h5.42V6.91ZM7.5,4.87H24.5c-.22-.48-.38-.92-.62-1.31-.11-.17-.38-.35-.57-.35-4.87-.02-9.75-.02-14.62,0-.17,0-.42,.08-.49,.21-.26,.45-.45,.93-.69,1.46Zm10.4,23.74c-.06-.65-.11-1.27-.19-1.88-.11-.85-.77-1.46-1.61-1.52-.8-.06-1.64,.5-1.77,1.32-.11,.68-.02,1.38-.02,2.08h3.58Z"/><path class="cls-1" d="M25.19,6.91V28.6h-5.42c0-.46,.04-.93,0-1.38-.18-1.6-.78-2.95-2.38-3.62-2.29-.95-4.83,.61-5,3.09-.04,.62,0,1.25,0,1.91H6.95V6.91H25.19Zm-14.65,4.09c.76-.01,1.41-.7,1.39-1.46-.02-.72-.74-1.45-1.44-1.46-.68,0-1.48,.8-1.48,1.49,0,.67,.82,1.43,1.54,1.42Zm6.89,4.05c0-.69-.77-1.52-1.44-1.53-.73-.02-1.48,.72-1.48,1.46,0,.73,.69,1.41,1.43,1.43,.75,.02,1.47-.64,1.48-1.36Zm0-5.45c0-.74-.72-1.5-1.44-1.51-.67,0-1.47,.77-1.47,1.43,0,.69,.79,1.49,1.48,1.49,.76,0,1.43-.65,1.43-1.41Zm-5.52,5.42c0-.68-.81-1.5-1.47-1.49-.71,0-1.43,.72-1.45,1.43-.02,.72,.72,1.45,1.48,1.45,.75,0,1.45-.67,1.44-1.39Zm11.02,.01c0-.67-.82-1.51-1.47-1.51-.73,0-1.42,.71-1.42,1.45,0,.73,.68,1.42,1.42,1.43,.76,.01,1.47-.65,1.47-1.37Zm0-5.4c.03-.74-.66-1.5-1.4-1.55-.65-.04-1.47,.71-1.5,1.38-.03,.69,.73,1.5,1.43,1.53,.75,.03,1.44-.61,1.47-1.36Zm0,10.97c0-.76-.7-1.47-1.45-1.48-.73,0-1.46,.75-1.45,1.49,.01,.66,.85,1.37,1.64,1.4,.58,.02,1.25-.74,1.25-1.41Zm-5.51-.04c-.01-.75-.74-1.46-1.48-1.44-.7,.02-1.41,.75-1.42,1.47,0,.66,.92,1.44,1.69,1.41,.6-.02,1.22-.76,1.21-1.44Zm-5.51,.02c0-.76-.72-1.46-1.47-1.46-.72,0-1.46,.78-1.44,1.5,.02,.64,.92,1.38,1.67,1.38,.58,0,1.23-.75,1.23-1.43Z"/><path class="cls-1" d="M7.5,4.87c.24-.53,.44-1.01,.69-1.46,.07-.13,.32-.21,.49-.21,4.87-.01,9.75-.01,14.62,0,.2,0,.47,.18,.57,.35,.24,.39,.4,.83,.62,1.31H7.5Z"/><path class="cls-1" d="M17.9,28.62h-3.58c0-.7-.08-1.4,.02-2.08,.13-.82,.97-1.38,1.77-1.32,.84,.06,1.5,.68,1.61,1.52,.08,.61,.12,1.22,.19,1.88Z"/><path class="cls-2" d="M10.55,11c-.72,.01-1.54-.74-1.54-1.42,0-.69,.8-1.5,1.48-1.49,.7,0,1.42,.73,1.44,1.46,.02,.76-.63,1.44-1.39,1.46Z"/><path class="cls-2" d="M17.44,15.05c0,.72-.73,1.38-1.48,1.36-.74-.02-1.43-.7-1.43-1.43,0-.74,.75-1.48,1.48-1.46,.67,.02,1.44,.85,1.44,1.53Z"/><path class="cls-3" d="M17.45,9.6c0,.76-.68,1.42-1.43,1.41-.69,0-1.48-.81-1.48-1.49,0-.66,.8-1.44,1.47-1.43,.72,0,1.45,.77,1.44,1.51Z"/><path class="cls-2" d="M11.93,15.01c0,.72-.7,1.39-1.44,1.39-.75,0-1.5-.74-1.48-1.45,.02-.71,.74-1.42,1.45-1.43,.66,0,1.47,.81,1.47,1.49Z"/><path class="cls-2" d="M22.95,15.03c0,.72-.72,1.39-1.47,1.37-.74-.01-1.43-.7-1.42-1.43,0-.74,.69-1.44,1.42-1.45,.66,0,1.47,.83,1.47,1.51Z"/><path class="cls-2" d="M22.95,9.63c-.03,.75-.72,1.39-1.47,1.36-.7-.03-1.45-.83-1.43-1.53,.02-.67,.84-1.43,1.5-1.38,.74,.05,1.42,.81,1.4,1.55Z"/><path class="cls-2" d="M22.95,20.61c0,.67-.67,1.42-1.25,1.41-.79-.02-1.63-.74-1.64-1.4-.01-.74,.72-1.49,1.45-1.49,.75,0,1.45,.72,1.45,1.48Z"/><path class="cls-2" d="M17.44,20.57c.01,.68-.61,1.42-1.21,1.44-.77,.02-1.7-.75-1.69-1.41,0-.71,.72-1.45,1.42-1.47,.74-.02,1.47,.68,1.48,1.44Z"/><path class="cls-2" d="M11.93,20.58c0,.67-.64,1.43-1.23,1.43-.76,0-1.65-.74-1.67-1.38-.03-.72,.72-1.5,1.44-1.5,.75,0,1.46,.7,1.47,1.46Z"/></svg>