<?xml version="1.0" encoding="UTF-8"?><svg id="Layer_7" xmlns="http://www.w3.org/2000/svg" viewBox="0 0 32 32"><defs><style>.cls-1{fill:#fff;}</style></defs><path class="cls-1" d="M16.02,5.46c2.16,0,4.32,0,6.48,0,1.72,0,2.93,.8,3.65,2.34,.59,1.26,1.16,2.54,1.71,3.82,.15,.35,.34,.54,.73,.64,1.65,.39,2.72,1.75,2.73,3.43,0,1.56,0,3.13,0,4.69,0,.6-.15,1.17-.59,1.57-.35,.32-.41,.66-.39,1.09,.02,.43,.05,.86-.06,1.29-.35,1.38-1.68,2.36-3.02,2.21-1.55-.16-2.62-1.29-2.7-2.86q-.05-.95-.98-.95c-5.12,0-10.24,0-15.36,0q-.8,0-.81,.82c-.03,2.37-2.37,3.75-4.38,2.56-.97-.57-1.41-1.47-1.4-2.58,0-.68,.04-1.32-.55-1.84-.36-.32-.39-.84-.39-1.32,0-1.54,0-3.08,0-4.63,.01-1.78,1.04-3.08,2.78-3.5,.3-.07,.48-.2,.61-.5,.55-1.3,1.15-2.59,1.73-3.87,.72-1.58,1.93-2.4,3.68-2.4,2.18,0,4.36,0,6.54,0Zm0,15.3c4.2,0,8.39,0,12.59,0,.54,0,.77-.13,.75-.72-.04-1.4-.01-2.8-.01-4.2,0-1.14-.61-1.74-1.76-1.74-7.73,0-15.47,0-23.2,0-1.15,0-1.75,.59-1.76,1.74,0,1.38,.03,2.76-.02,4.13-.02,.65,.21,.79,.82,.79,4.2-.02,8.39-.01,12.59-.01ZM6.05,12.1H25.93c-.57-1.27-1.09-2.5-1.67-3.69-.31-.63-.86-.99-1.59-.99-4.46,0-8.92,0-13.38,0-.69,0-1.25,.33-1.55,.95-.59,1.21-1.12,2.45-1.7,3.73Zm-1.54,10.6c-.37,.12-1.01-.3-.94,.6,.06,.79,.35,1.27,.94,1.28,.6,.02,.91-.47,.96-1.31,.05-.9-.61-.43-.95-.57Zm22.92,.01c-.31,.13-.97-.35-.92,.56,.05,.82,.38,1.32,.98,1.3,.58-.02,.83-.46,.91-1.22,.09-.89-.52-.59-.98-.64Z"/><path class="cls-1" d="M7.38,17.43c0,.81-.66,1.45-1.45,1.43-.78-.02-1.4-.64-1.4-1.42,0-.82,.61-1.46,1.42-1.46,.81,0,1.44,.64,1.44,1.44Z"/><path class="cls-1" d="M26.02,15.97c.8,0,1.45,.63,1.47,1.42,.02,.8-.68,1.51-1.48,1.5-.77,0-1.45-.69-1.45-1.47,0-.78,.67-1.45,1.46-1.45Z"/></svg>