<svg xmlns="http://www.w3.org/2000/svg" xmlns:xlink="http://www.w3.org/1999/xlink" width="38.434" height="38.406" viewBox="0 0 38.434 38.406">
  <defs>
    <clipPath id="clip-path">
      <rect id="Rectangle_7168" data-name="Rectangle 7168" width="38.434" height="38.406" fill="none"/>
    </clipPath>
  </defs>
  <g id="Group_21861" data-name="Group 21861" transform="translate(0 0)">
    <g id="Group_21860" data-name="Group 21860" transform="translate(0 0)" clip-path="url(#clip-path)">
      <path id="Path_12516" data-name="Path 12516" d="M19.114,38.406a18.489,18.489,0,0,1-8.721-2.177,1.856,1.856,0,0,0-.882-.241,1.877,1.877,0,0,0-.577.1c-1.564.5-3.117.953-4.295,1.289a3.246,3.246,0,0,1-.888.127A2.813,2.813,0,0,1,.928,34.963a3.5,3.5,0,0,1,.15-1.345c.405-1.458.855-2.906,1.282-4.253a1.479,1.479,0,0,0-.112-1.223A19.089,19.089,0,0,1,6.21,5.06,18.625,18.625,0,0,1,19.1,0q.808,0,1.634.062A19.163,19.163,0,0,1,38.076,15.709c.152.819.226,1.666.287,2.348.024.278.047.53.071.749a19.412,19.412,0,0,1-6.3,14.585,18.561,18.561,0,0,1-10.61,4.869,20.226,20.226,0,0,1-2.41.146M9.536,33.8a3.7,3.7,0,0,1,1.741.466,16.657,16.657,0,0,0,7.807,1.972,17.416,17.416,0,0,0,2.946-.256A17.036,17.036,0,0,0,19.46,2.152l0-.038-.3-.066c-.39.053-.782.1-1.172.141a22.7,22.7,0,0,0-2.582.395A16.993,16.993,0,0,0,4.186,27.224a3.238,3.238,0,0,1,.261,2.643c-.393,1.237-.8,2.595-1.279,4.274a1.273,1.273,0,0,0,.065.929.593.593,0,0,0,.527.3,1.345,1.345,0,0,0,.434-.095l1.24-.372c.993-.291,1.984-.585,2.966-.911A3.541,3.541,0,0,1,9.536,33.8" transform="translate(0 0)" fill="#006729"/>
      <path id="Path_12517" data-name="Path 12517" d="M19.693,24.332a1.068,1.068,0,0,1-1.032-.874,5.717,5.717,0,0,1-.043-.691l-.01-.339a4.105,4.105,0,0,1,1.712-3.781,4.208,4.208,0,0,1,.581-.328c.106-.054.212-.106.315-.162a3.329,3.329,0,0,0,2.051-3.315,3.491,3.491,0,0,0-3.194-3.136A3,3,0,0,0,18.8,12,4.356,4.356,0,0,0,16.415,15.1l-.064.288a1.1,1.1,0,0,1-1.031.881.967.967,0,0,1-.214-.024,1.049,1.049,0,0,1-.847-1.289,6.514,6.514,0,0,1,1.5-3.2,5.765,5.765,0,0,1,3.568-2.126,4.989,4.989,0,0,1,.738-.054A5.484,5.484,0,0,1,25,13.074a5.277,5.277,0,0,1-2.763,6.943,2.31,2.31,0,0,0-1.475,2.436,5.267,5.267,0,0,1-.013.926,1.058,1.058,0,0,1-1.033.952Z" transform="translate(-0.634 -0.427)" fill="#006729"/>
      <path id="Path_12518" data-name="Path 12518" d="M20.023,30.082a1.495,1.495,0,1,1,1.078-.44,1.5,1.5,0,0,1-1.078.44Z" transform="translate(-0.825 -1.206)" fill="red"/>
    </g>
  </g>
</svg>
