<?xml version="1.0" encoding="UTF-8"?><svg id="Layer_7" xmlns="http://www.w3.org/2000/svg" viewBox="0 0 32 32"><defs><style>.cls-1{fill:#fff;}.cls-2{fill:#006c30;}.cls-3{fill:red;}</style></defs><g><path class="cls-1" d="M5.01,29.12c0-.34,0-.57,0-.8,0-7.25,0-14.49,.01-21.74,0-.37,.13-.75,.28-1.09,.45-1.02,.95-2.02,1.4-3.04,.25-.56,.64-.78,1.24-.78,5.37,0,10.73,0,16.1,0,.6,0,.99,.22,1.25,.77,.54,1.15,1.14,2.27,1.67,3.42,.12,.25,.12,.57,.12,.86,0,7.19,0,14.37,0,21.56q0,.84,.83,.84c.59,0,1.18-.01,1.76,.01,.6,.03,.97,.42,.96,.97-.02,.51-.4,.88-.96,.92-.06,0-.12,0-.18,0-6.07,.04-12.13,.08-18.2,.12-1.49,0-2.98,.02-4.47,0-1.5-.02-3.01-.07-4.51-.12-.6-.02-.98-.41-.98-.95,0-.54,.37-.92,.99-.93,.86-.02,1.72,0,2.67,0ZM25.19,7.31H6.95V29.01h5.43c0-.67-.04-1.29,0-1.91,.17-2.47,2.71-4.04,5-3.09,1.6,.67,2.2,2.02,2.38,3.62,.05,.46,0,.92,0,1.38h5.42V7.31ZM7.5,5.28H24.5c-.22-.48-.38-.92-.62-1.31-.11-.17-.38-.35-.57-.35-4.87-.02-9.75-.02-14.62,0-.17,0-.42,.08-.49,.21-.26,.45-.45,.93-.69,1.46Zm10.4,23.74c-.06-.65-.11-1.27-.19-1.88-.11-.85-.77-1.46-1.61-1.52-.8-.06-1.64,.5-1.77,1.32-.11,.68-.02,1.38-.02,2.08h3.58Z"/><path class="cls-1" d="M10.55,11.4c-.72,.01-1.54-.74-1.54-1.42,0-.69,.8-1.5,1.48-1.49,.7,0,1.42,.73,1.44,1.46,.02,.76-.63,1.44-1.39,1.46Z"/><path class="cls-1" d="M17.44,15.45c0,.72-.73,1.38-1.48,1.36-.74-.02-1.43-.7-1.43-1.43,0-.74,.75-1.48,1.48-1.46,.67,.02,1.44,.85,1.44,1.53Z"/><path class="cls-1" d="M17.45,10c0,.76-.68,1.42-1.43,1.41-.69,0-1.48-.81-1.48-1.49,0-.66,.8-1.44,1.47-1.43,.72,0,1.45,.77,1.44,1.51Z"/><path class="cls-1" d="M11.93,15.41c0,.72-.7,1.39-1.44,1.39-.75,0-1.5-.74-1.48-1.45,.02-.71,.74-1.42,1.45-1.43,.66,0,1.47,.81,1.47,1.49Z"/><path class="cls-1" d="M22.95,15.43c0,.72-.72,1.39-1.47,1.37-.74-.01-1.43-.7-1.42-1.43,0-.74,.69-1.44,1.42-1.45,.66,0,1.47,.83,1.47,1.51Z"/><path class="cls-1" d="M22.95,10.03c-.03,.75-.72,1.39-1.47,1.36-.7-.03-1.45-.83-1.43-1.53,.02-.67,.84-1.43,1.5-1.38,.74,.05,1.42,.81,1.4,1.55Z"/><path class="cls-1" d="M22.95,21.01c0,.67-.67,1.42-1.25,1.41-.79-.02-1.63-.74-1.64-1.4-.01-.74,.72-1.49,1.45-1.49,.75,0,1.45,.72,1.45,1.48Z"/><path class="cls-1" d="M17.44,20.97c.01,.68-.61,1.42-1.21,1.44-.77,.02-1.7-.75-1.69-1.41,0-.71,.72-1.45,1.42-1.47,.74-.02,1.47,.68,1.48,1.44Z"/><path class="cls-1" d="M11.93,20.99c0,.67-.64,1.43-1.23,1.43-.76,0-1.65-.74-1.67-1.38-.03-.72,.72-1.5,1.44-1.5,.75,0,1.46,.7,1.47,1.46Z"/></g><g id="streamlinehq-calendar-1-interface-essential-48"><g id="Rectángulo_1"><path class="cls-2" d="M27.98,30.33H4.02c-1.3,0-2.35-1.05-2.35-2.35V7.59c0-1.3,1.05-2.35,2.35-2.35H27.98c1.3,0,2.35,1.05,2.35,2.35V27.98c0,1.3-1.05,2.35-2.35,2.35ZM4.02,7.12c-.26,0-.47,.21-.47,.47V27.98c0,.26,.21,.47,.47,.47H27.98c.26,0,.47-.21,.47-.47V7.59c0-.26-.21-.47-.47-.47H4.02Z"/></g><g id="Línea_1"><path class="cls-3" d="M9.75,9.8c-.52,0-.94-.42-.94-.94V2.61c0-.52,.42-.94,.94-.94s.94,.42,.94,.94v6.25c0,.52-.42,.94-.94,.94Z"/></g><g id="Línea_2"><path class="cls-3" d="M22.25,9.8c-.52,0-.94-.42-.94-.94V2.61c0-.52,.42-.94,.94-.94s.94,.42,.94,.94v6.25c0,.52-.42,.94-.94,.94Z"/></g><g id="Rectángulo_2"><path class="cls-2" d="M13.32,24.93H7.96c-.39,0-.7-.32-.7-.7v-5.36c0-.39,.32-.7,.7-.7h5.36c.39,0,.7,.32,.7,.7v5.36c0,.39-.32,.7-.7,.7Zm-4.65-1.41h3.95v-3.95h-3.95v3.95Z"/></g><g id="Línea_3"><path class="cls-2" d="M18.68,24.74c-.39,0-.7-.32-.7-.7V13.32c0-.39,.32-.7,.7-.7s.7,.32,.7,.7v10.71c0,.39-.32,.7-.7,.7Z"/></g><g id="Rectángulo_3"><path class="cls-2" d="M24.23,24.93H12.95c-.39,0-.7-.32-.7-.7V12.94c0-.39,.32-.7,.7-.7h11.28c.39,0,.7,.32,.7,.7v11.28c0,.39-.32,.7-.7,.7Zm-10.57-1.41h9.87V13.65H13.65v9.87Z"/></g><g id="Línea_4"><path class="cls-2" d="M24.03,19.38H13.32c-.39,0-.7-.32-.7-.7s.32-.7,.7-.7h10.71c.39,0,.7,.32,.7,.7s-.32,.7-.7,.7Z"/></g></g></svg>