<svg xmlns="http://www.w3.org/2000/svg" xmlns:xlink="http://www.w3.org/1999/xlink" width="48.485" height="57.866" viewBox="0 0 48.485 57.866">
  <defs>
    <clipPath id="clip-path">
      <rect id="Rectangle_7164" data-name="Rectangle 7164" width="48.485" height="57.866" fill="none"/>
    </clipPath>
  </defs>
  <g id="Group_21854" data-name="Group 21854" transform="translate(0 0)">
    <g id="Group_21853" data-name="Group 21853" transform="translate(0 0)" clip-path="url(#clip-path)">
      <path id="Path_12474" data-name="Path 12474" d="M19.18,56.278H36.757a2.573,2.573,0,0,0,2.573-2.573V22.777A2.574,2.574,0,0,0,36.757,20.2H19.18a2.573,2.573,0,0,0-2.573,2.573V53.705a2.572,2.572,0,0,0,2.573,2.573" transform="translate(-1.69 -2.056)" fill="#fff"/>
      <line id="Line_60" data-name="Line 60" x2="22.456" transform="translate(15.183 45.588)" fill="none" stroke="#006729" stroke-miterlimit="10" stroke-width="2"/>
      <path id="Path_12475" data-name="Path 12475" d="M30.556,56.089a1.584,1.584,0,1,1,0-.013v.013" transform="translate(-2.788 -5.545)" fill="red" fill-rule="evenodd"/>
      <path id="Path_12476" data-name="Path 12476" d="M28.89,24.437H27.376a.76.76,0,0,1-.841-.737.73.73,0,0,1,.747-.824q1.6-.047,3.209,0a.778.778,0,0,1,.771.785c0,.012,0,.023,0,.035a.8.8,0,0,1-.854.745c-.508,0-1.012,0-1.517,0" transform="translate(-2.7 -2.325)" fill="#006729" fill-rule="evenodd"/>
      <path id="Path_12477" data-name="Path 12477" d="M36.8,57.511H18.953a3.429,3.429,0,0,1-3.425-3.425V22.311a3.429,3.429,0,0,1,3.425-3.425H36.8a3.43,3.43,0,0,1,3.426,3.425V54.086A3.43,3.43,0,0,1,36.8,57.511M18.953,20.682a1.63,1.63,0,0,0-1.629,1.629V54.086a1.63,1.63,0,0,0,1.629,1.629H36.8a1.631,1.631,0,0,0,1.629-1.629V22.311A1.631,1.631,0,0,0,36.8,20.682Z" transform="translate(-1.58 -1.921)" fill="#006729"/>
      <rect id="Rectangle_7163" data-name="Rectangle 7163" width="22.456" height="1.796" transform="translate(15.294 23.252)" fill="#006729"/>
      <path id="Path_12478" data-name="Path 12478" d="M17.394,23.976v5.347L3.658,20.334s-7.6-15.344,6.475-18.826H24.026s19.016,7.265,2.365,21.759Z" transform="translate(-0.164 -0.153)" fill="#fff"/>
      <path id="Path_12479" data-name="Path 12479" d="M33.9,11.26A12.487,12.487,0,0,0,21.739.019C19.185-.009,16.589,0,14.078.009L12.222.015A11.72,11.72,0,0,0,8.736.576a12.362,12.362,0,0,0-8.673,13.1,12.125,12.125,0,0,0,5.622,9.25c1.308.87,2.652,1.734,3.951,2.567q.891.573,1.781,1.147l1.073.693Q14.4,28.568,16.3,29.8a1.274,1.274,0,0,0,.684.254.864.864,0,0,0,.4-.1,1.01,1.01,0,0,0,.49-1.025c0-.919,0-1.837,0-2.756V24.935l.921,0c.887,0,1.723.009,2.573-.013a15.354,15.354,0,0,0,2.369-.2A12.441,12.441,0,0,0,33.9,11.26M16.08,27.524l-4.154-2.686q-.818-.53-1.639-1.055C9.069,23,7.809,22.2,6.59,21.377a10.263,10.263,0,0,1-4.736-7.788A10.657,10.657,0,0,1,10.894,1.916,10.036,10.036,0,0,1,12.487,1.8q2.576-.009,5.154-.01,1.905,0,3.811.006a10.665,10.665,0,0,1,8.814,16.753,10.5,10.5,0,0,1-6.973,4.418,18.92,18.92,0,0,1-2.524.153c-.249,0-.5.007-.746.014-.622.018-1.243.013-1.865.009l-1.021,0a.929.929,0,0,0-1.055,1.065c0,.852,0,1.7,0,2.584Z" transform="translate(0 0)" fill="#006729"/>
      <path id="Path_12480" data-name="Path 12480" d="M15.461,15.966a1.564,1.564,0,1,0,0-3.129h-.006a1.564,1.564,0,0,0-.013,3.129Z" transform="translate(-1.414 -1.306)" fill="#006729"/>
      <path id="Path_12481" data-name="Path 12481" d="M22.615,15.966a1.564,1.564,0,1,0,0-3.129h-.006a1.564,1.564,0,0,0-.013,3.129Z" transform="translate(-2.142 -1.306)" fill="#006729"/>
      <path id="Path_12482" data-name="Path 12482" d="M29.39,15.966a1.564,1.564,0,1,0,0-3.129h-.006a1.564,1.564,0,0,0-.013,3.129Z" transform="translate(-2.831 -1.306)" fill="#006729"/>
      <path id="Path_12483" data-name="Path 12483" d="M8.123,12.837a1.651,1.651,0,0,0-1.128.447A1.549,1.549,0,0,0,6.524,14.4a1.567,1.567,0,0,0,1.55,1.566h.012a1.565,1.565,0,0,0,.037-3.129" transform="translate(-0.664 -1.306)" fill="#006729"/>
    </g>
  </g>
</svg>
