<svg xmlns="http://www.w3.org/2000/svg" xmlns:xlink="http://www.w3.org/1999/xlink" width="38.314" height="38.021" viewBox="0 0 38.314 38.021">
  <defs>
    <clipPath id="clip-path">
      <rect id="Rectangle_7186" data-name="Rectangle 7186" width="38.314" height="38.021" fill="none"/>
    </clipPath>
  </defs>
  <g id="Group_21869" data-name="Group 21869" transform="translate(0 5.328)">
    <g id="Group_21871" data-name="Group 21871" transform="translate(0 -5.328)" clip-path="url(#clip-path)">
      <path id="Path_12549" data-name="Path 12549" d="M3.774,36.095A3.58,3.58,0,0,1,.059,33.151L.026,33.1,0,33V27.82l.02-.046c.071-.157.135-.32.2-.482a5.246,5.246,0,0,1,.534-1.1,3.238,3.238,0,0,1,2.716-1.4q2.766-.019,5.533-.02,2.444,0,4.888.019a3.515,3.515,0,0,1,3.479,3.552c.033,1.4.033,2.812,0,4.189a3.537,3.537,0,0,1-3.7,3.564q-2.2,0-4.409,0Zm9.846-1.94a1.637,1.637,0,0,0,1.8-1.742q.015-1.98,0-3.956a1.635,1.635,0,0,0-1.766-1.736H3.712a1.626,1.626,0,0,0-1.758,1.739q0,1.714,0,3.427v.459a1.648,1.648,0,0,0,1.838,1.809h9.83Z" transform="translate(0 -5.414)" fill="#026d31"/>
      <path id="Path_12550" data-name="Path 12550" d="M3.763,11.32a3.577,3.577,0,0,1-3.7-2.945L.027,8.32,0,8.229V3.095l.038-.153c.016-.047.033-.094.045-.141A3.541,3.541,0,0,1,2.413.206c.146-.053.3-.1.445-.139L3.049.009,14.206,0l.258.059c.138.036.277.071.413.115a3.532,3.532,0,0,1,2.49,3.367c.034,1.45.034,2.872,0,4.224a3.539,3.539,0,0,1-3.707,3.555l-4.372,0ZM3.71,1.94A1.63,1.63,0,0,0,1.949,3.678c0,1.132,0,3.885,0,3.885A1.645,1.645,0,0,0,3.774,9.383H13.6A1.65,1.65,0,0,0,15.426,7.59q.008-1.924,0-3.848a1.652,1.652,0,0,0-1.813-1.8l-8.031,0Z" transform="translate(0 0)" fill="#026d31"/>
      <path id="Path_12551" data-name="Path 12551" d="M20.012,43.838q-2.13,0-4.26-.006a6.084,6.084,0,0,1-6.062-5.069,1.163,1.163,0,0,1,.161-.881.91.91,0,0,1,.606-.375,1.143,1.143,0,0,1,.182-.015,1,1,0,0,1,.966.926,4.1,4.1,0,0,0,4.214,3.48q2.692,0,5.384,0,2.557,0,5.111,0a4.1,4.1,0,0,0,4.193-4.153q.008-2.77,0-5.54l0-2.3c-.112.125-.226.248-.348.363a1.053,1.053,0,0,1-.719.3.975.975,0,0,1-.956-.948,1,1,0,0,1,.3-.713q.981-1,1.99-1.976a1.027,1.027,0,0,1,.713-.313,1.006,1.006,0,0,1,.7.306Q33.2,27.9,34.18,28.9a.962.962,0,0,1-.642,1.666,1.1,1.1,0,0,1-.742-.314c-.117-.108-.234-.219-.34-.338l0,2.29c0,1.857,0,3.713,0,5.571a5.974,5.974,0,0,1-4.911,5.941,6.288,6.288,0,0,1-1.219.116q-3.155.007-6.312.009" transform="translate(-2.113 -5.818)" fill="#026d31"/>
      <path id="Path_12552" data-name="Path 12552" d="M10.058,21.892a1.089,1.089,0,0,1-.756-.357q-.962-.939-1.908-1.894a.973.973,0,0,1-.056-1.407.941.941,0,0,1,.674-.291,1.084,1.084,0,0,1,.738.316c.116.109.226.226.334.342v-.308c0-.634,0-1.268,0-1.9a.959.959,0,0,1,.876-1.016c.034,0,.069,0,.1,0a.955.955,0,0,1,.964,1.015c.006.548.005,1.1,0,1.645v.574c.1-.105.2-.21.3-.312a1.122,1.122,0,0,1,.78-.35.966.966,0,0,1,.942.938,1.114,1.114,0,0,1-.349.78q-.935.94-1.883,1.867a1.1,1.1,0,0,1-.766.363" transform="translate(-1.544 -3.36)" fill="#d4001b"/>
      <path id="Path_12553" data-name="Path 12553" d="M39.491,18.724H32.509a1.053,1.053,0,0,1-1-.552.832.832,0,0,1,.131-1.07,1.647,1.647,0,0,1,.91-.383c.3-.02.6-.027.9-.027l1.149.01h5.615a3.015,3.015,0,0,1,.52.035.961.961,0,0,1,.848,1.033.981.981,0,0,1-.962.945c-.163.009-.326.012-.488.012Z" transform="translate(-6.856 -3.649)" fill="#026d31"/>
      <path id="Path_12554" data-name="Path 12554" d="M5.759,32.723a1.2,1.2,0,0,1-.874-.308.92.92,0,0,1-.256-.672c0-.6.441-.964,1.141-.964h7.865a1.207,1.207,0,0,1,.881.319.906.906,0,0,1,.259.66,1.018,1.018,0,0,1-1.15.966l-6.171,0Z" transform="translate(-1.011 -6.727)" fill="#026d31"/>
      <path id="Path_12555" data-name="Path 12555" d="M5.749,7.942a.989.989,0,0,1-1.117-.951.915.915,0,0,1,.252-.674,1.192,1.192,0,0,1,.875-.313H13.7a1.12,1.12,0,0,1,.8.312.924.924,0,0,1,.264.664,1,1,0,0,1-1.074.961H5.749Z" transform="translate(-1.012 -1.313)" fill="#026d31"/>
      <path id="Path_12556" data-name="Path 12556" d="M30.536,22.071a3.575,3.575,0,0,1-3.7-2.945l-.032-.055-.027-.091V13.846l.039-.154c.016-.047.032-.095.045-.143a3.537,3.537,0,0,1,2.33-2.592c.141-.052.286-.094.431-.136l.2-.061,11.158-.009.253.058c.141.036.28.073.417.116a3.531,3.531,0,0,1,2.49,3.366c.034,1.459.034,2.88,0,4.224a3.54,3.54,0,0,1-3.707,3.555l-4.682,0Zm-.053-9.379a1.629,1.629,0,0,0-1.761,1.737q0,1.8,0,3.6v.284a1.646,1.646,0,0,0,1.826,1.819h9.83A1.65,1.65,0,0,0,42.2,18.341q.008-1.922,0-3.847a1.651,1.651,0,0,0-1.813-1.8l-7.85,0Z" transform="translate(-5.851 -2.35)" fill="#026d31"/>
    </g>
  </g>
</svg>
