<svg xmlns="http://www.w3.org/2000/svg" width="50" height="50" viewBox="0 0 50 50">
  <g id="Grupo_22031" data-name="Grupo 22031" transform="translate(-45.479 -518.203)">
    <g id="Grupo_22020" data-name="Grupo 22020">
      <g id="Grupo_22015" data-name="Grupo 22015">
        <path id="Trazado_12677" data-name="Trazado 12677" d="M70.479,547.176a9.581,9.581,0,1,1,9.581-9.581A9.592,9.592,0,0,1,70.479,547.176Zm0-16.662a7.081,7.081,0,1,0,7.081,7.081A7.089,7.089,0,0,0,70.479,530.514Z" fill="#65a518"/>
      </g>
      <g id="Grupo_22018" data-name="Grupo 22018">
        <g id="Grupo_22016" data-name="Grupo 22016">
          <path id="Trazado_12678" data-name="Trazado 12678" d="M82.929,560.311a1.251,1.251,0,0,1-1.206-.926c-.1-.354-2.437-8.581-11.276-8.581a1.25,1.25,0,0,1,0-2.5c10.789,0,13.664,10.33,13.692,10.435a1.25,1.25,0,0,1-.888,1.529A1.229,1.229,0,0,1,82.929,560.311Z" fill="#65a518"/>
        </g>
        <g id="Grupo_22017" data-name="Grupo 22017">
          <path id="Trazado_12679" data-name="Trazado 12679" d="M58.03,560.311a1.229,1.229,0,0,1-.322-.043,1.249,1.249,0,0,1-.887-1.529c.028-.105,2.9-10.435,13.69-10.435a1.25,1.25,0,0,1,0,2.5c-8.888,0-11.251,8.492-11.273,8.578A1.253,1.253,0,0,1,58.03,560.311Z" fill="#65a518"/>
        </g>
      </g>
      <g id="Grupo_22019" data-name="Grupo 22019">
        <path id="Trazado_12680" data-name="Trazado 12680" d="M70.479,564.747A21.544,21.544,0,1,1,92.023,543.2,21.568,21.568,0,0,1,70.479,564.747Zm0-40.589A19.044,19.044,0,1,0,89.523,543.2,19.067,19.067,0,0,0,70.479,524.158Z" fill="#00a3a8"/>
      </g>
    </g>
    <g id="Grupo_22021" data-name="Grupo 22021">
      <rect id="Rectángulo_7226" data-name="Rectángulo 7226" width="50" height="50" transform="translate(45.479 518.203)" fill="none"/>
    </g>
  </g>
</svg>
