<svg xmlns="http://www.w3.org/2000/svg" xmlns:xlink="http://www.w3.org/1999/xlink" width="51.443" height="65.651" viewBox="0 0 51.443 65.651">
  <defs>
    <clipPath id="clip-path">
      <rect id="Rectángulo_7236" data-name="Rectángulo 7236" width="51.443" height="65.651" fill="none"/>
    </clipPath>
  </defs>
  <g id="Grupo_22086" data-name="Grupo 22086" transform="translate(-13 117.453)">
    <g id="Grupo_22085" data-name="Grupo 22085" transform="translate(13 -117.453)" clip-path="url(#clip-path)">
      <path id="Trazado_12762" data-name="Trazado 12762" d="M22.135,65.651c-2.95-.011-5.918-.016-8.823-.016-2.862,0-5.741.005-8.556.016H4.729a4.787,4.787,0,0,1-3.651-1.467,4.489,4.489,0,0,1-1.034-3.4c.006-3.823,0-7.713,0-11.474V47.983c0-.143-.012-.292-.023-.437-.006-.077-.012-.15-.016-.222v-.035a5.963,5.963,0,0,0,0-1.561l0-.034,0-.033a5.925,5.925,0,0,0,.027-1.3H.013L0,44.123V27.449H.051c0-.146,0-.381,0-.486a5.234,5.234,0,0,1,.629-2.545l0-.008L.69,24.4.9,24.1.909,24.1A8.463,8.463,0,0,1,2.2,22.969l.008-.005.016-.01.535-.268,1.548-.3.035,0c.29.025.577.038.852.038s.563-.014.833-.04l.024,0,.024,0a7.306,7.306,0,0,0,.733.039,6.154,6.154,0,0,0,.7-.04l.027,0,.027,0a8.317,8.317,0,0,0,.838.042c.276,0,.56-.014.845-.04l.024,0h.011c.275.026.54.039.8.039s.521-.013.778-.038h.035c.3.028.586.041.86.041a8.114,8.114,0,0,0,.834-.042h.022c.193,0,.378.006.563.008H13.2c.459,0,.932.01,1.4.041l.067,0a.441.441,0,0,0,.081-.006,1.132,1.132,0,0,0-.032-.211,17.564,17.564,0,0,1-.38-3.861,22.555,22.555,0,0,1,.735-5.173l.562-1.634.173-.367c.115-.243.233-.494.345-.742a21.747,21.747,0,0,1,2.268-3.671l.1-.146.043-.026a.944.944,0,0,0,.3-.359L18.9,6.2l.036-.029a8.183,8.183,0,0,0,.971-.975c.082-.091.163-.183.245-.273l.017-.017.381-.323.054-.014c.035-.009.079-.032.132-.128l.024-.042,1.154-.933.051-.014a.371.371,0,0,0,.23-.158l.029-.045,1.561-.968.009,0a5.824,5.824,0,0,0,1.192-.633l.1-.074.12.038a.1.1,0,0,0,.029.005.385.385,0,0,0,.157-.088c.038-.028.076-.056.115-.08l.022-.014,1.5-.552L28.785.407a20.419,20.419,0,0,1,8.149.007l1.636.44,1.635.61.011.007c.444.276.913.513,1.366.743a13.57,13.57,0,0,1,1.877,1.081l1.75,1.392,1.929,1.945,0,.006a25.515,25.515,0,0,1,2.89,4.786l0,.009.007.021,0,.011a10.683,10.683,0,0,0,.607,1.676l.014.032,0,.035a5.841,5.841,0,0,0,.376,1.443l.015.037,0,.039a7.978,7.978,0,0,0,.27,1.682l.011.037v.039a8.192,8.192,0,0,0,.092,1.552l0,.012,0,.023-.033,1.74-.169,1.509L50.9,23.076l-.033.114-.412,1.378A27.969,27.969,0,0,1,49,27.837a19.931,19.931,0,0,1-3.8,4.636s-.017.048-.026.072-1.934,1.412-2.721,1.927l-.053.034-.438.287-.021.013-1.744.841-.026.006a3.555,3.555,0,0,0-1.058.423l-.048.03-.1.011a.523.523,0,0,0-.3.083l-.046.041-1.681.43h-.007c-.271.037-.535.076-.8.115-.579.086-1.178.175-1.774.226-.479.041-.974.062-1.471.062a21.341,21.341,0,0,1-4.095-.42l-.018,0-.466-.139-.033-.01c-.382-.113-.777-.231-1.166-.359a.444.444,0,0,0-.133-.027.073.073,0,0,0-.025,0,1.344,1.344,0,0,0-.028.531c.006.1.01.179.01.252l.014,22.363v.346c.007,1.823.013,3.545-1.42,4.959l-.014.013a5.085,5.085,0,0,1-3.352,1.07ZM2.562,57.478c-.058,0-.1.006-.1.288.013.662.01,1.329.008,1.974,0,.488,0,.993,0,1.493a1.8,1.8,0,0,0,1.918,1.935q4.548.005,9.1.005t9.1-.005A1.787,1.787,0,0,0,24.5,61.3c.017-.648.014-1.308.011-1.948v-.014q0-.408,0-.817a2.166,2.166,0,0,0-.089-.949,2.228,2.228,0,0,0-.963-.089H3.3c-.048,0-.121.009-.2.011l-.09,0c-.048,0-.1,0-.144,0a1.249,1.249,0,0,1-.177-.011c-.025,0-.049-.006-.072-.007Zm8.912-2.4c5.946,0,10.073,0,12.617.014H24.1c.076,0,.308,0,.367-.06.029-.029.063-.115.062-.359-.018-4.229-.017-8.519-.016-12.668q0-2.15,0-4.3c0-.118-.01-.24-.019-.357,0-.06-.01-.121-.013-.182,0-.188.008-.355.013-.522v-.017c.01-.355.02-.721.022-1.081a.922.922,0,0,0-.3-.631,1.471,1.471,0,0,0-.976-.441.728.728,0,0,0-.328.071q-1.286.642-2.569,1.289l-.151.076-1.813.91-.544.275-.084.042c-.609.309-1.239.628-1.873.917a2.1,2.1,0,0,1-.876.2,1.835,1.835,0,0,1-1.832-1.5,2.294,2.294,0,0,1,.313-1.523Q14.042,34.117,14.6,33l.038-.075c.658-1.317,1.337-2.677,2.014-4.018H13.213l-.189,0h-.731l-4.049,0c-1.613,0-2.844,0-3.99.009-.081,0-.157,0-.25-.01H2.557a.252.252,0,0,0-.05.047.5.5,0,0,0-.081.148v1.141c.024.2.045.4.05.584,0,.065,0,.118-.005.171l0,.057c0,.132-.009.264-.009.4v5.333c0,5.83,0,11.859-.015,17.787,0,.444.069.488.146.509h8.883M32.776,2.43c-.269,0-.543.006-.814.019A15.988,15.988,0,0,0,16.758,18.2a15.7,15.7,0,0,0,2.215,8.428,2.71,2.71,0,0,1,.083,2.93c-.5.912-.963,1.866-1.41,2.788l-.062.128c-.169.348-.355.708-.5,1-.283.547-.572,1.108-.819,1.682.025-.015.051-.029.079-.043l1.23-.606c1.4-.689,2.844-1.4,4.24-2.135a3.025,3.025,0,0,1,1.428-.388,3.067,3.067,0,0,1,1.548.459,15.878,15.878,0,0,0,8.006,2.19,17.354,17.354,0,0,0,3.22-.31,15.717,15.717,0,0,0,10.715-7.417,16.3,16.3,0,0,0,1.506-13.251A16.072,16.072,0,0,0,32.776,2.43M2.5,26.472a.466.466,0,0,0,.1.013h.513l.657,0,.691,0h11.67A13.452,13.452,0,0,1,15.5,25c-.033-.1-.053-.132-.228-.132q-1.793,0-3.579.005c-2.454,0-4.992,0-7.5.024a1.77,1.77,0,0,0-1.671,1.391.706.706,0,0,0-.033.184" fill="#006729" stroke="#006729" stroke-width="0.2"/>
      <path id="Trazado_12763" data-name="Trazado 12763" d="M84.814,479.4c-.278,0-.51,0-.731-.008a1.212,1.212,0,0,1-1.3-1.127,1.148,1.148,0,0,1,1.154-1.282c.715-.046,1.422-.069,2.1-.069.7,0,1.4.025,2.065.074a1.134,1.134,0,0,1,1.135,1.292,1.2,1.2,0,0,1-1.311,1.112c-.232.005-.481.008-.782.008l-.6,0h-.061l-.539,0-.563,0H85.33l-.515,0" transform="translate(-72.523 -417.828)" fill="#006729"/>
      <path id="Trazado_12764" data-name="Trazado 12764" d="M188.581,106.5l2.668-5.264a3.2,3.2,0,0,1-.792.092,3.032,3.032,0,0,1-1.723-.5,3.253,3.253,0,0,1-1.149-1.4,4.935,4.935,0,0,1-.4-2.038,5.12,5.12,0,0,1,.435-2.2,3.155,3.155,0,0,1,1.305-1.426,4.048,4.048,0,0,1,2.024-.483,3.969,3.969,0,0,1,2.022.493,3.212,3.212,0,0,1,1.3,1.443,5.185,5.185,0,0,1,.435,2.211,6.869,6.869,0,0,1-.179,1.506,9.162,9.162,0,0,1-.508,1.563c-.037.081-.071.156-.105.233s-.079.168-.121.247l-2.75,5.527Zm2.37-11.027a1.344,1.344,0,0,0-1.1.457,2.134,2.134,0,0,0-.4,1.392,2.237,2.237,0,0,0,.4,1.433,1.329,1.329,0,0,0,1.1.467,1.313,1.313,0,0,0,1.094-.471,2.237,2.237,0,0,0,.4-1.43,2.135,2.135,0,0,0-.4-1.392,1.335,1.335,0,0,0-1.1-.457" transform="translate(-163.996 -81.724)" fill="#e60018"/>
      <path id="Trazado_12765" data-name="Trazado 12765" d="M260.368,107.421V96.944l-1.793,1.1v-2.4l1.966-1.311h2.09v13.091Z" transform="translate(-226.54 -82.644)" fill="#e60018"/>
      <path id="Trazado_12766" data-name="Trazado 12766" d="M307.983,107.421V96.944l-1.793,1.1v-2.4l1.966-1.311h2.09v13.091Z" transform="translate(-268.256 -82.644)" fill="#e60018"/>
    </g>
  </g>
</svg>
