<svg xmlns="http://www.w3.org/2000/svg" width="48" height="48" viewBox="0 0 48 48">
  <g id="Grupo_22307" data-name="Grupo 22307" transform="translate(-35.338 -29.383)">
    <g id="Grupo_16370" data-name="Grupo 16370">
      <g id="Grupo_16277" data-name="Grupo 16277">
        <g id="Grupo_16269" data-name="Grupo 16269">
          <g id="Grupo_16259" data-name="Grupo 16259">
            <g id="Grupo_16234" data-name="Grupo 16234">
              <g id="Grupo_16193" data-name="Grupo 16193">
                <g id="Grupo_15839" data-name="Grupo 15839">
                  <g id="Grupo_15836" data-name="Grupo 15836">
                    <rect id="Rect치ngulo_235" data-name="Rect치ngulo 235" width="48" height="48" transform="translate(35.338 29.383)" fill="none"/>
                  </g>
                </g>
              </g>
            </g>
          </g>
        </g>
      </g>
    </g>
    <g id="Grupo_22295" data-name="Grupo 22295">
      <g id="Grupo_22289" data-name="Grupo 22289">
        <path id="Trazado_12855" data-name="Trazado 12855" d="M52.966,66.629H49.454a3.463,3.463,0,0,1-3.46-3.459V42.945a3.464,3.464,0,0,1,3.46-3.46h9.963a3.464,3.464,0,0,1,3.459,3.46v5.6a1,1,0,0,1-2,0v-5.6a1.461,1.461,0,0,0-1.459-1.46H49.454a1.462,1.462,0,0,0-1.46,1.46V63.17a1.461,1.461,0,0,0,1.46,1.459h3.512a1,1,0,1,1,0,2Z" fill="#006c30"/>
      </g>
      <g id="Grupo_22290" data-name="Grupo 22290">
        <path id="Trazado_12856" data-name="Trazado 12856" d="M55.643,61.42H46.994a1,1,0,0,1,0-2h8.649a1,1,0,1,1,0,2Z" fill="#006c30"/>
      </g>
      <g id="Grupo_22291" data-name="Grupo 22291">
        <path id="Trazado_12857" data-name="Trazado 12857" d="M61.679,46.295H46.994a1,1,0,0,1,0-2H61.679a1,1,0,0,1,0,2Z" fill="#006c30"/>
      </g>
      <g id="Grupo_22292" data-name="Grupo 22292">
        <circle id="Elipse_1384" data-name="Elipse 1384" cx="0.61" cy="0.61" r="0.61" transform="translate(53.894 42.38)" fill="#006c30"/>
      </g>
      <g id="Grupo_22293" data-name="Grupo 22293">
        <rect id="Rect치ngulo_7263" data-name="Rect치ngulo 7263" width="2.892" height="2.892" rx="0.568" transform="translate(49.429 47.731)" fill="#e60018"/>
      </g>
      <g id="Grupo_22294" data-name="Grupo 22294">
        <path id="Trazado_12858" data-name="Trazado 12858" d="M56.957,66.279a2.12,2.12,0,0,1-.918-.562,1.784,1.784,0,0,1-.242-2.071A2.549,2.549,0,0,1,57.955,62.1c1.376-.2,2.75-.424,4.125-.638a1.31,1.31,0,0,0,.193-.092,1.513,1.513,0,0,1-.287-.178q-3.627-3.621-7.25-7.247a2.15,2.15,0,0,1-.6-2.315,2.126,2.126,0,0,1,3.294-.99c.68.583,1.291,1.246,1.93,1.875.08.079.148.171.251.3a2.213,2.213,0,0,1,1.414-1.434,2.116,2.116,0,0,1,1.938.31,2.177,2.177,0,0,1,1.391-1.416,2.14,2.14,0,0,1,1.948.291.85.85,0,0,0,.068-.121A2.146,2.146,0,0,1,70,49.764q2.015,2.217,4.029,4.431a6.089,6.089,0,0,1,1.605,3.442.409.409,0,0,0,.049.116v1.308a1.053,1.053,0,0,0-.055.164,5.854,5.854,0,0,1-1.519,3.257c-.642.688-1.316,1.346-1.984,2.009a5.9,5.9,0,0,1-2.448,1.492c-.413.126-.842.2-1.262.3Zm5.83-1.129c1.613,0,3.226-.007,4.838,0a4.984,4.984,0,0,0,3.611-1.377c.663-.632,1.321-1.27,1.941-1.943a4.974,4.974,0,0,0,.086-6.8c-.371-.428-.76-.841-1.142-1.261q-1.478-1.626-2.956-3.25a.976.976,0,0,0-1.039-.323,1.011,1.011,0,0,0-.519,1.628,1.182,1.182,0,0,1,.247.572.476.476,0,0,1-.362.461.566.566,0,0,1-.618-.171c-.36-.355-.716-.715-1.074-1.071a1.019,1.019,0,0,0-.871-.329.974.974,0,0,0-.836.661A.963.963,0,0,0,64.327,53c.355.371.728.727,1.088,1.1a.568.568,0,1,1-.8.792c-.251-.242-.494-.493-.742-.742-.481-.481-.955-.965-1.445-1.439a1,1,0,0,0-1.554.086.991.991,0,0,0,.131,1.349c.686.695,1.379,1.382,2.07,2.073.371.371.426.712.16.97s-.594.195-.952-.162l-5.269-5.268a2.909,2.909,0,0,0-.228-.216,1,1,0,0,0-1.624.593,1.1,1.1,0,0,0,.406,1.039L63.69,61.3a.6.6,0,0,1-.364,1.1c-1.8.28-3.609.557-5.411.847a1.343,1.343,0,0,0-1.153,1.034c-.1.371-.01.681.259.795a1.3,1.3,0,0,0,.483.074q2.641,0,5.283,0Z" fill="#006729" fill-rule="evenodd"/>
        <path id="Trazado_12859" data-name="Trazado 12859" d="M56.956,66.628l-.11-.017a2.475,2.475,0,0,1-1.06-.652,2.1,2.1,0,0,1-.311-2.45,2.893,2.893,0,0,1,2.429-1.76c1.029-.152,2.056-.314,3.084-.475l.51-.08q-3.5-3.5-7.011-7.007A2.49,2.49,0,0,1,53.8,51.52a2.431,2.431,0,0,1,1.679-1.58,2.345,2.345,0,0,1,2.177.43c.494.424.955.89,1.4,1.342.154.157.307.312.462.466a2.43,2.43,0,0,1,1.4-1.138,2.4,2.4,0,0,1,1.885.143,2.5,2.5,0,0,1,3.347-1.116,2.5,2.5,0,0,1,4.106-.538l4.029,4.431A6.473,6.473,0,0,1,75.98,57.6l.05.157L76,59.2a.521.521,0,0,0-.035.1,6.165,6.165,0,0,1-1.6,3.414c-.545.584-1.112,1.147-1.68,1.709l-.313.309a6.253,6.253,0,0,1-2.591,1.578c-.292.09-.59.153-.888.217l-.4.087Zm.059-.7h11.4l.331-.081c.278-.059.557-.118.828-.2a5.579,5.579,0,0,0,2.3-1.4l.315-.314c.562-.555,1.123-1.111,1.662-1.688a5.524,5.524,0,0,0,1.428-3.068,1.7,1.7,0,0,1,.052-.182V57.836a.8.8,0,0,1-.038-.11,5.764,5.764,0,0,0-1.524-3.3L69.739,50a1.8,1.8,0,0,0-3.041.563,1.188,1.188,0,0,1-.1.191l-.194.288-.289-.192a1.79,1.79,0,0,0-1.647-.251,1.835,1.835,0,0,0-1.171,1.206l-.155.417-.369-.249a1.755,1.755,0,0,0-1.633-.267,1.864,1.864,0,0,0-1.2,1.225l-.214.563-.456-.557a2.1,2.1,0,0,0-.153-.176c-.187-.185-.371-.371-.554-.557-.436-.442-.886-.9-1.358-1.3a1.636,1.636,0,0,0-1.528-.287,1.733,1.733,0,0,0-1.2,1.117,1.813,1.813,0,0,0,.51,1.962q3.623,3.625,7.251,7.246a.876.876,0,0,0,.094.057l.639.377-.52.3a1.9,1.9,0,0,1-.241.114l-1.108.181c-1.031.163-2.06.325-3.091.477a2.21,2.21,0,0,0-1.887,1.341,1.435,1.435,0,0,0,.173,1.691A1.732,1.732,0,0,0,57.015,65.929Zm3.4-.426q-1.457,0-2.911,0a1.641,1.641,0,0,1-.6-.1.947.947,0,0,1-.476-1.218A1.7,1.7,0,0,1,57.858,62.9c1.414-.228,2.828-.446,4.242-.665l1.172-.182c.268-.041.306-.1.333-.176s.029-.143-.162-.334l-8.12-8.124a1.45,1.45,0,0,1-.5-1.353,1.352,1.352,0,0,1,1.2-1.1,1.329,1.329,0,0,1,.99.3c.094.08.177.16.258.244l5.263,5.264c.31.307.41.2.46.158s.061-.1.061-.109c0-.032-.016-.155-.223-.363l-.691-.689c-.462-.461-.924-.921-1.381-1.385a1.366,1.366,0,0,1,.808-2.353,1.407,1.407,0,0,1,1.108.42c.351.34.695.686,1.038,1.032l.624.627c.174.176.348.351.524.523.219.211.327.107.367.067.1-.1.078-.22-.063-.364s-.309-.311-.466-.466c-.21-.209-.42-.417-.624-.63a1.363,1.363,0,0,1,.823-2.312,1.364,1.364,0,0,1,1.15.429l1.073,1.07c.134.132.208.108.254.089.09-.031.133-.082.131-.1a.815.815,0,0,0-.172-.386,1.425,1.425,0,0,1-.235-1.322,1.336,1.336,0,0,1,.937-.863,1.318,1.318,0,0,1,1.39.427l3.311,3.638c.267.291.534.581.791.877a5.326,5.326,0,0,1-.092,7.271c-.594.644-1.212,1.249-1.957,1.958A5.348,5.348,0,0,1,67.662,65.5h-.039q-1.611-.006-3.222,0H62.787Zm-2.923-.7c1.775,0,3.534,0,5.3,0l1.612,0c1.08,0,2.155,0,3.228,0A4.664,4.664,0,0,0,71,63.519c.735-.7,1.344-1.3,1.924-1.927A4.639,4.639,0,0,0,73,55.255c-.253-.292-.515-.578-.777-.863l-3.315-3.641a.671.671,0,0,0-1.145.192.711.711,0,0,0,.124.665,1.517,1.517,0,0,1,.315.735.811.811,0,0,1-.592.839.9.9,0,0,1-.979-.25l-1.076-1.073a.657.657,0,0,0-.581-.229.663.663,0,0,0-.392,1.132c.2.208.4.412.611.616.159.158.318.316.474.475a.916.916,0,1,1-1.291,1.289c-.182-.176-.358-.354-.535-.534l-.623-.626c-.341-.342-.681-.685-1.029-1.022a.763.763,0,0,0-.564-.226.666.666,0,0,0-.367,1.164c.456.463.917.922,1.377,1.381l.692.691a1.236,1.236,0,0,1,.428.862.848.848,0,0,1-.273.606c-.151.149-.707.568-1.442-.165L56.77,52c-.07-.071-.138-.135-.209-.2a.653.653,0,0,0-.914.093.64.64,0,0,0-.138.3c-.052.26.032.456.307.727l8.122,8.125a.988.988,0,0,1,.331,1.049,1.007,1.007,0,0,1-.89.648l-1.172.181q-2.12.329-4.236.665a1,1,0,0,0-.87.782c-.042.147-.051.334.056.379A1.069,1.069,0,0,0,57.491,64.8Z" fill="#006729"/>
      </g>
    </g>
  </g>
</svg>
