<svg xmlns="http://www.w3.org/2000/svg" width="80" height="80" viewBox="0 0 80 80">
  <g id="Grupo_48" data-name="Grupo 48" transform="translate(-279.985 -91.404)">
    <g id="Grupo_16193" data-name="Grupo 16193" transform="translate(279.669 91.087)">
      <g id="Grupo_15839" data-name="Grupo 15839" transform="translate(0 0)">
        <g id="Grupo_15836" data-name="Grupo 15836">
          <g id="Rect치ngulo_235" data-name="Rect치ngulo 235">
            <rect id="Rect치ngulo_7295" data-name="Rect치ngulo 7295" width="80" height="80" transform="translate(0.316 0.317)" fill="none"/>
          </g>
        </g>
      </g>
    </g>
    <g id="Grupo_47" data-name="Grupo 47" transform="translate(286.391 101.171)">
      <g id="streamline-icon-crime-man-thief-3_50x50" data-name="streamline-icon-crime-man-thief-3 50x50">
        <g id="Trazado_3672" data-name="Trazado 3672" transform="translate(9.269)">
          <path id="Trazado_12921" data-name="Trazado 12921" d="M301.674,122.077a12.492,12.492,0,0,1-12.49-12.489h0v-.013a12.508,12.508,0,0,1,12.492-12.487h.008a12.495,12.495,0,0,1,0,24.989Zm-9.129-12.489a9.129,9.129,0,0,0,9.129,9.127h.005a9.133,9.133,0,0,0,0-18.267h-.005a9.142,9.142,0,0,0-9.131,9.127l-1.681.012Z" transform="translate(-289.184 -97.088)" fill="#006c30"/>
        </g>
        <g id="Trazado_3673" data-name="Trazado 3673" transform="translate(0 26.255)">
          <path id="Trazado_12922" data-name="Trazado 12922" d="M285.35,136.156a1.681,1.681,0,0,1-1.681-1.681,21.783,21.783,0,0,1,21.752-21.766,22.035,22.035,0,0,1,12.111,3.669,1.68,1.68,0,1,1-1.854,2.8,18.681,18.681,0,0,0-10.255-3.111,18.418,18.418,0,0,0-18.393,18.4,1.681,1.681,0,0,1-1.681,1.681Z" transform="translate(-283.669 -112.71)" fill="#006c30"/>
        </g>
        <g id="Trazado_3674" data-name="Trazado 3674" transform="translate(9.27 9.265)">
          <path id="Trazado_12923" data-name="Trazado 12923" d="M294.862,112.957a10.775,10.775,0,0,1-3.289-.531,1.682,1.682,0,0,1-.976-.822,12.724,12.724,0,0,1-1.294-7.553,1.676,1.676,0,0,1,1.664-1.45h10.717a1.682,1.682,0,0,1,1.664,1.918c-.486,3.415-1.857,5.852-4.075,7.24A8.259,8.259,0,0,1,294.862,112.957Zm-1.587-3.548a5.69,5.69,0,0,0,4.213-.5,5.264,5.264,0,0,0,2.1-2.949h-7.038A9.127,9.127,0,0,0,293.276,109.409Z" transform="translate(-289.185 -102.601)" fill="#006c30"/>
        </g>
        <g id="Trazado_3675" data-name="Trazado 3675" transform="translate(20.082 9.265)">
          <path id="Trazado_12924" data-name="Trazado 12924" d="M304.119,112.957a8.245,8.245,0,0,1-4.4-1.195c-2.222-1.388-3.595-3.823-4.084-7.242A1.68,1.68,0,0,1,297.3,102.6h10.711a1.68,1.68,0,0,1,1.664,1.447,12.246,12.246,0,0,1,.121,1.792,12.5,12.5,0,0,1-1.415,5.764,1.685,1.685,0,0,1-.975.822A10.746,10.746,0,0,1,304.119,112.957Zm-4.721-6.995a5.268,5.268,0,0,0,2.1,2.951,5.641,5.641,0,0,0,4.2.5,9.12,9.12,0,0,0,.731-3.447Z" transform="translate(-295.618 -102.601)" fill="#006c30"/>
        </g>
        <g id="Trazado_3676" data-name="Trazado 3676" transform="translate(7.726 9.265)">
          <path id="Trazado_12925" data-name="Trazado 12925" d="M314.662,105.962H289.947a1.681,1.681,0,1,1,0-3.361h24.715a1.681,1.681,0,0,1,0,3.361Z" transform="translate(-288.266 -102.601)" fill="#006c30"/>
        </g>
        <g id="Trazado_3677" data-name="Trazado 3677" transform="translate(4.265 33.982)">
          <path id="Trazado_12926" data-name="Trazado 12926" d="M310.362,120.669H287.888a1.681,1.681,0,0,1,0-3.361h22.475a1.681,1.681,0,0,1,0,3.361Z" transform="translate(-286.207 -117.308)" fill="#ff1f1f"/>
        </g>
        <g id="Trazado_3678" data-name="Trazado 3678" transform="translate(0.971 40.162)">
          <path id="Trazado_12927" data-name="Trazado 12927" d="M307.992,124.346H285.928a1.681,1.681,0,1,1,0-3.361h22.065a1.681,1.681,0,1,1,0,3.361Z" transform="translate(-284.247 -120.985)" fill="#006c30"/>
        </g>
      </g>
      <g id="streamline-icon-car_50x50" data-name="streamline-icon-car 50x50" transform="translate(26.836 34.064)">
        <g id="Trazado_3358" data-name="Trazado 3358" transform="translate(3.536)">
          <path id="Trazado_12928" data-name="Trazado 12928" d="M331.743,128.973a1.68,1.68,0,0,1-1.534-.993l-2.676-5.959a1.911,1.911,0,0,0-1.776-1.3H309.411a1.864,1.864,0,0,0-1.741,1.207l-2.716,6.055a1.68,1.68,0,0,1-3.065-1.375l2.674-5.959a5.2,5.2,0,0,1,4.843-3.289H325.76a5.239,5.239,0,0,1,4.881,3.388l2.634,5.86a1.679,1.679,0,0,1-.845,2.22A1.659,1.659,0,0,1,331.743,128.973Z" transform="translate(-301.741 -117.357)" fill="#006c30"/>
        </g>
        <g id="Trazado_3359" data-name="Trazado 3359" transform="translate(1.178 18.823)">
          <path id="Trazado_12929" data-name="Trazado 12929" d="M304.376,136.688a4.043,4.043,0,0,1-4.038-4.039v-2.412a1.681,1.681,0,1,1,3.361,0v2.412a.679.679,0,0,0,1.358,0v-2.355a1.681,1.681,0,1,1,3.361,0v2.355A4.045,4.045,0,0,1,304.376,136.688Z" transform="translate(-300.338 -128.557)" fill="#006c30"/>
        </g>
        <g id="Trazado_3360" data-name="Trazado 3360" transform="translate(29.493 18.823)">
          <path id="Trazado_12930" data-name="Trazado 12930" d="M321.226,136.688a4.043,4.043,0,0,1-4.04-4.039v-2.355a1.681,1.681,0,1,1,3.361,0v2.355a.678.678,0,0,0,1.356,0v-2.412a1.681,1.681,0,1,1,3.361,0v2.412A4.043,4.043,0,0,1,321.226,136.688Z" transform="translate(-317.186 -128.557)" fill="#006c30"/>
        </g>
        <g id="Trazado_3361" data-name="Trazado 3361" transform="translate(30.081 12.976)">
          <path id="Trazado_12931" data-name="Trazado 12931" d="M319.808,129.027a2,2,0,1,1-.592-3.949,2.273,2.273,0,0,1,2.272,2.269A1.68,1.68,0,0,1,319.808,129.027Zm-.592-.588h0Z" transform="translate(-317.536 -125.078)" fill="#006729"/>
        </g>
        <g id="Trazado_3362" data-name="Trazado 3362" transform="translate(29.493 12.976)">
          <path id="Trazado_12932" data-name="Trazado 12932" d="M318.867,129.027a1.679,1.679,0,0,1-1.681-1.681,2.27,2.27,0,0,1,2.269-2.269,2.061,2.061,0,0,1-.588,3.949Z" transform="translate(-317.186 -125.078)" fill="#006729"/>
        </g>
        <g id="Trazado_3363" data-name="Trazado 3363" transform="translate(29.493 13.564)">
          <path id="Trazado_12933" data-name="Trazado 12933" d="M319.455,129.381a2.273,2.273,0,0,1-2.269-2.272,2,2,0,1,1,2.269,2.272Z" transform="translate(-317.186 -125.428)" fill="#006729"/>
        </g>
        <g id="Trazado_3364" data-name="Trazado 3364" transform="translate(30.081 13.564)">
          <path id="Trazado_12934" data-name="Trazado 12934" d="M319.217,129.381a2,2,0,1,1,2.272-2.272A2.276,2.276,0,0,1,319.217,129.381Z" transform="translate(-317.536 -125.428)" fill="#006729"/>
        </g>
        <g id="Trazado_3365" data-name="Trazado 3365" transform="translate(4.714 12.976)">
          <path id="Trazado_12935" data-name="Trazado 12935" d="M304.123,129.027a1.68,1.68,0,0,1-1.681-1.681,2.272,2.272,0,0,1,2.271-2.269,2.061,2.061,0,0,1-.59,3.949Z" transform="translate(-302.442 -125.078)" fill="#006c30"/>
        </g>
        <g id="Trazado_3366" data-name="Trazado 3366" transform="translate(5.306 12.976)">
          <path id="Trazado_12936" data-name="Trazado 12936" d="M305.066,129.027a2,2,0,1,1-.592-3.949,2.273,2.273,0,0,1,2.272,2.269A1.68,1.68,0,0,1,305.066,129.027Z" transform="translate(-302.794 -125.078)" fill="#006c30"/>
        </g>
        <g id="Trazado_3367" data-name="Trazado 3367" transform="translate(5.306 13.564)">
          <path id="Trazado_12937" data-name="Trazado 12937" d="M304.475,129.381a2,2,0,1,1,2.272-2.272A2.276,2.276,0,0,1,304.475,129.381Z" transform="translate(-302.794 -125.428)" fill="#006c30"/>
        </g>
        <g id="Trazado_3368" data-name="Trazado 3368" transform="translate(4.714 13.564)">
          <path id="Trazado_12938" data-name="Trazado 12938" d="M304.713,129.381a2.274,2.274,0,0,1-2.271-2.272,2,2,0,1,1,2.271,2.272Zm1.091-2.272h0Z" transform="translate(-302.442 -125.428)" fill="#006c30"/>
        </g>
        <g id="Trazado_3369" data-name="Trazado 3369" transform="translate(0 8.255)">
          <path id="Trazado_12939" data-name="Trazado 12939" d="M335.135,136.248H302.889A3.256,3.256,0,0,1,299.637,133v-5.9a4.831,4.831,0,0,1,4.827-4.827h29.1a4.831,4.831,0,0,1,4.827,4.827V133A3.256,3.256,0,0,1,335.135,136.248ZM304.462,125.63A1.466,1.466,0,0,0,303,127.1V133l32.137-.109-.109-5.791a1.468,1.468,0,0,0-1.465-1.465Z" transform="translate(-299.637 -122.269)" fill="#006c30"/>
        </g>
      </g>
    </g>
  </g>
</svg>
