<svg xmlns="http://www.w3.org/2000/svg" width="27.734" height="27.707" viewBox="0 0 27.734 27.707">
  <g id="Grupo_22142" data-name="Grupo 22142" transform="translate(-53.133 -284.146)">
    <path id="Trazado_12773" data-name="Trazado 12773" d="M27.122,39.2h-7a.982.982,0,0,1,0-1.953h7a.982.982,0,0,1,0,1.953" transform="translate(43.258 270.334)" fill="#006729"/>
    <g id="Grupo_22141" data-name="Grupo 22141">
      <path id="Trazado_12772" data-name="Trazado 12772" d="M32.288,35.265H30.1c-.539,0,.023-.437.023-.977s-.563-.977-.023-.977h2.187a.743.743,0,0,0,.742-.742V30.7a2.464,2.464,0,0,0-2.461-2.461H28.8a.977.977,0,0,1-.876-.545l-3-6.07a.744.744,0,0,0-.67-.416H20.118a.772.772,0,0,0-.759.781v5.273a.976.976,0,0,1-.977.977H9.919a.752.752,0,0,0-.716.781V32.6a.717.717,0,0,0,.716.716h2.213a.977.977,0,0,1,0,1.953H9.919A2.673,2.673,0,0,1,7.25,32.6v-3.58a2.706,2.706,0,0,1,2.669-2.734h7.487v-4.3a2.727,2.727,0,0,1,2.712-2.734h4.139a2.685,2.685,0,0,1,2.422,1.5l2.728,5.526H30.57A4.419,4.419,0,0,1,34.984,30.7v1.836a2.707,2.707,0,0,1-2.7,2.734" transform="translate(45.883 274.271)" fill="#006729"/>
      <path id="Trazado_12774" data-name="Trazado 12774" d="M31.383,30.2H21.227a.977.977,0,0,1,0-1.953H31.383a.977.977,0,0,1,0,1.953" transform="translate(43.039 272.303)" fill="#006729"/>
      <path id="Trazado_12775" data-name="Trazado 12775" d="M26.351,20.3a.977.977,0,0,1-.977-.977V17.774a.682.682,0,0,0-.5-.7.571.571,0,0,0-.474.137.579.579,0,0,0-.2.442v1.669a.977.977,0,1,1-1.953,0V17.655a2.54,2.54,0,0,1,2.9-2.515,2.619,2.619,0,0,1,2.176,2.634v1.548a.977.977,0,0,1-.977.977" transform="translate(42.602 275.176)" fill="#e60018"/>
      <path id="Trazado_12776" data-name="Trazado 12776" d="M25.227,11.547a.977.977,0,0,1-.977-.977V8.227a.977.977,0,1,1,1.953,0V10.57a.977.977,0,0,1-.977.977" transform="translate(42.164 276.896)" fill="#006729"/>
      <path id="Trazado_12777" data-name="Trazado 12777" d="M20.219,13.891a.974.974,0,0,1-.691-.286l-1.823-1.823A.977.977,0,0,1,19.087,10.4l1.823,1.823a.977.977,0,0,1-.691,1.667" transform="translate(43.658 276.27)" fill="#006729"/>
      <path id="Trazado_12778" data-name="Trazado 12778" d="M18.351,19.2H15.227a.977.977,0,0,1,0-1.953h3.125a.977.977,0,0,1,0,1.953" transform="translate(44.352 274.709)" fill="#006729"/>
      <path id="Trazado_12779" data-name="Trazado 12779" d="M30.065,13.891a.977.977,0,0,1-.691-1.667L31.2,10.4a.977.977,0,0,1,1.381,1.381l-1.823,1.823a.974.974,0,0,1-.691.286" transform="translate(41.106 276.27)" fill="#006729"/>
      <path id="Trazado_12780" data-name="Trazado 12780" d="M34.57,19.2H32.227a.977.977,0,0,1,0-1.953H34.57a.977.977,0,0,1,0,1.953" transform="translate(40.633 274.709)" fill="#006729"/>
      <path id="Trazado_12781" data-name="Trazado 12781" d="M32.376,40.724A3.555,3.555,0,1,1,35.93,37.17a3.559,3.559,0,0,1-3.555,3.555m0-5.156a1.6,1.6,0,1,0,1.6,1.6,1.6,1.6,0,0,0-1.6-1.6" transform="translate(41.164 271.129)" fill="#006729"/>
      <path id="Trazado_12782" data-name="Trazado 12782" d="M15.877,40.724a3.555,3.555,0,1,1,3.555-3.555,3.559,3.559,0,0,1-3.555,3.555m0-5.156a1.6,1.6,0,1,0,1.6,1.6,1.6,1.6,0,0,0-1.6-1.6" transform="translate(44.774 271.129)" fill="#006729"/>
    </g>
  </g>
</svg>
