<svg id="Group_16448" data-name="Group 16448" xmlns="http://www.w3.org/2000/svg" width="44.491" height="44.491" viewBox="0 0 44.491 44.491">
  <g id="Grupo_16444" data-name="Grupo 16444">
    <g id="Grupo_16433" data-name="Grupo 16433">
      <g id="Grupo_16430" data-name="Grupo 16430">
        <g id="Grupo_16428" data-name="Grupo 16428">
          <g id="Grupo_16388" data-name="Grupo 16388">
            <g id="Grupo_16386" data-name="Grupo 16386">
              <g id="Grupo_16384" data-name="Grupo 16384">
                <g id="Grupo_16381" data-name="Grupo 16381">
                  <g id="Grupo_16378" data-name="Grupo 16378">
                    <g id="Grupo_16375" data-name="Grupo 16375">
                      <g id="Grupo_16321" data-name="Grupo 16321">
                        <g id="Grupo_16277" data-name="Grupo 16277">
                          <g id="Grupo_16269" data-name="Grupo 16269">
                            <g id="Grupo_16259" data-name="Grupo 16259">
                              <g id="Grupo_16234" data-name="Grupo 16234">
                                <g id="Grupo_16193" data-name="Grupo 16193">
                                  <g id="Grupo_15839" data-name="Grupo 15839">
                                    <g id="Grupo_15836" data-name="Grupo 15836">
                                      <g id="Rect치ngulo_235" data-name="Rect치ngulo 235">
                                        <rect id="Rect치ngulo_7266" data-name="Rect치ngulo 7266" width="44.491" height="44.491" fill="none"/>
                                      </g>
                                    </g>
                                  </g>
                                </g>
                              </g>
                            </g>
                          </g>
                        </g>
                      </g>
                    </g>
                  </g>
                </g>
              </g>
            </g>
          </g>
        </g>
      </g>
    </g>
  </g>
  <g id="Grupo_16447" data-name="Grupo 16447" transform="translate(6.866 9.551)">
    <g id="streamline-icon-factory-manufacturing-control_50x50" data-name="streamline-icon-factory-manufacturing-control 50x50" transform="translate(0 8.997)">
      <g id="Trazado_4791" data-name="Trazado 4791" transform="translate(0 4.624)">
        <path id="Trazado_12870" data-name="Trazado 12870" d="M55.706,183.845a.927.927,0,0,1-.907-.746l-.771-3.863-.8.892A5.944,5.944,0,0,1,48.8,182.1c-.1.006-.251,0-.379-.011a5.905,5.905,0,0,1-4.528-2.536l-1.866-2.811a3.088,3.088,0,1,1,5.08-3.512l1.7,2.564,3.887-4.308a3.065,3.065,0,0,1,2.088-1,.863.863,0,0,1,.2-.024H63.4a3.811,3.811,0,0,1,3.743,3.106l1.717,9.176a.927.927,0,1,1-1.822.34l-1.717-9.175a1.956,1.956,0,0,0-1.921-1.593H55.166a1.063,1.063,0,0,1-.184.019,1.15,1.15,0,0,0-.909.4l-4.063,4.5a1.646,1.646,0,0,1-2.57-.156l-1.869-2.816a1.235,1.235,0,0,0-2.038,1.394l1.9,2.855a4.053,4.053,0,0,0,3.105,1.728c.091.006.2,0,.267.007a4.091,4.091,0,0,0,3.045-1.36l2.04-2.266a.927.927,0,0,1,1.6.439l1.132,5.675a.925.925,0,0,1-.728,1.089A.88.88,0,0,1,55.706,183.845Z" transform="translate(-41.466 -170.465)" fill="#006c30"/>
      </g>
      <g id="Trazado_4792" data-name="Trazado 4792" transform="translate(0.362)">
        <path id="Trazado_12871" data-name="Trazado 12871" d="M46.733,174.717a.926.926,0,0,1-.8-.455l-3.95-6.685a.927.927,0,0,1,.9-1.393l5.766.64,2.7-1.261a.927.927,0,1,1,.785,1.68L49.2,168.615a.948.948,0,0,1-.495.082l-4.18-.465,3,5.087a.927.927,0,0,1-.8,1.4Z" transform="translate(-41.856 -165.476)" fill="red"/>
      </g>
    </g>
    <g id="streamline-icon-professions-man-construction-1_50x50" data-name="streamline-icon-professions-man-construction-1 50x50" transform="translate(8.809)">
      <g id="Trazado_4865" data-name="Trazado 4865">
        <path id="Trazado_12872" data-name="Trazado 12872" d="M58.774,169.782c-4.3,0-7.8-3.142-7.8-7.005s3.5-7.006,7.8-7.006,7.8,3.143,7.8,7.006S63.078,169.782,58.774,169.782Zm0-12.158c-3.281,0-5.951,2.311-5.951,5.153s2.669,5.152,5.951,5.152,5.951-2.311,5.951-5.152S62.056,157.624,58.774,157.624Z" transform="translate(-50.97 -155.77)" fill="#006c30"/>
      </g>
    </g>
  </g>
</svg>
