<svg xmlns="http://www.w3.org/2000/svg" width="44.508" height="44.508" viewBox="0 0 44.508 44.508">
  <g id="Grupo_22308" data-name="Grupo 22308" transform="translate(-35.338 -84.313)">
    <g id="Grupo_16370" data-name="Grupo 16370" transform="translate(35.338 84.313)">
      <g id="Grupo_16277" data-name="Grupo 16277">
        <g id="Grupo_16269" data-name="Grupo 16269">
          <g id="Grupo_16259" data-name="Grupo 16259">
            <g id="Grupo_16234" data-name="Grupo 16234">
              <g id="Grupo_16193" data-name="Grupo 16193">
                <g id="Grupo_15839" data-name="Grupo 15839">
                  <g id="Grupo_15836" data-name="Grupo 15836">
                    <rect id="Rectángulo_235" data-name="Rectángulo 235" width="44.508" height="44.508" fill="none"/>
                  </g>
                </g>
              </g>
            </g>
          </g>
        </g>
      </g>
    </g>
    <g id="Grupo_22304" data-name="Grupo 22304" transform="translate(35.492 89.967)">
      <g id="Rectángulo_6986" data-name="Rectángulo 6986" transform="translate(0 10.924)">
        <rect id="Rectángulo_7264" data-name="Rectángulo 7264" width="24.129" height="24.129" fill="none"/>
      </g>
      <g id="Grupo_20924" data-name="Grupo 20924" transform="translate(3.536 11.487)">
        <g id="Grupo_20922" data-name="Grupo 20922">
          <g id="Trazado_12006" data-name="Trazado 12006">
            <path id="Trazado_12860" data-name="Trazado 12860" d="M49.027,103.3a7.626,7.626,0,0,0-8.773,4.54c-1.345,3.343-.478,6.347,1.712,9.043,1.536,1.892,3.411,3.485,4.764,5.542a.672.672,0,0,0,1.227-.018,55.73,55.73,0,0,1,4.487-5.2,9.417,9.417,0,0,0,2.564-6.624A7.567,7.567,0,0,0,49.027,103.3Zm2.6,12.651c-1.354,1.667-3.025,3.048-4.285,4.9-1.23-1.736-2.761-3.076-4.071-4.618-1.743-2.056-2.729-4.343-1.975-7.085a6.279,6.279,0,0,1,7.728-4.374q.256.071.5.162a6.489,6.489,0,0,1,3.653,8.419c-.058.15-.123.3-.193.442a10.274,10.274,0,0,1-1.361,2.156Z" transform="translate(-39.339 -102.822)" fill="#016c30"/>
            <path id="Trazado_12861" data-name="Trazado 12861" d="M47.309,123.069h0a1.014,1.014,0,0,1-.829-.515,25.492,25.492,0,0,0-2.822-3.37c-.647-.688-1.318-1.4-1.926-2.149-2.443-3.007-3.033-6.144-1.754-9.323a7.95,7.95,0,0,1,15.29,2.843,9.6,9.6,0,0,1-2.632,6.811c-.49.565-1,1.11-1.51,1.655a29.094,29.094,0,0,0-2.956,3.518A1.053,1.053,0,0,1,47.309,123.069Zm-.04-19.713a7.318,7.318,0,0,0-6.779,4.566c-1.214,3.018-.668,5.885,1.67,8.762.6.734,1.259,1.439,1.9,2.12a25.964,25.964,0,0,1,2.881,3.445.482.482,0,0,0,.366.263h0a.537.537,0,0,0,.4-.283,29.286,29.286,0,0,1,3.012-3.588c.505-.541,1.011-1.081,1.5-1.638a9.088,9.088,0,0,0,2.5-6.44,7.255,7.255,0,0,0-5.761-7.014h0A7.413,7.413,0,0,0,47.269,103.355Zm.059,17.956-.232-.325a26.244,26.244,0,0,0-2.486-2.885c-.524-.552-1.067-1.123-1.57-1.714-2.058-2.426-2.722-4.825-2.031-7.338a6.563,6.563,0,0,1,8.071-4.569c.176.049.352.106.525.17a6.775,6.775,0,0,1,3.816,8.782q-.092.234-.2.46a10.567,10.567,0,0,1-1.4,2.211h0c-.559.687-1.179,1.335-1.778,1.962a23.235,23.235,0,0,0-2.493,2.915Zm0-16.514a6.014,6.014,0,0,0-5.785,4.4c-.647,2.354-.037,4.525,1.918,6.83.492.58,1.03,1.145,1.55,1.692a29.428,29.428,0,0,1,2.305,2.628,26.211,26.211,0,0,1,2.325-2.665c.592-.618,1.2-1.257,1.749-1.929h0a10.037,10.037,0,0,0,1.325-2.1c.068-.141.129-.281.185-.426a6.218,6.218,0,0,0-3.5-8.059c-.152-.056-.313-.108-.475-.153A6.023,6.023,0,0,0,47.331,104.8Z" transform="translate(-39.318 -102.8)" fill="#016c30"/>
          </g>
        </g>
      </g>
      <g id="Grupo_22297" data-name="Grupo 22297" transform="translate(8.011 16.02)">
        <path id="Trazado_12862" data-name="Trazado 12862" d="M47.636,114.672a3.492,3.492,0,1,1,3.492-3.492A3.5,3.5,0,0,1,47.636,114.672Zm0-5.13a1.638,1.638,0,1,0,1.638,1.638A1.64,1.64,0,0,0,47.636,109.542Z" transform="translate(-44.144 -107.688)" fill="red"/>
      </g>
      <g id="Rectángulo_6986-2" data-name="Rectángulo 6986" transform="translate(25.018)">
        <rect id="Rectángulo_7265" data-name="Rectángulo 7265" width="17.082" height="17.082" fill="none"/>
      </g>
      <g id="Grupo_20924-2" data-name="Grupo 20924" transform="translate(27.346 0.316)">
        <g id="Grupo_20922-2" data-name="Grupo 20922">
          <g id="Trazado_12006-2" data-name="Trazado 12006">
            <path id="Trazado_12863" data-name="Trazado 12863" d="M71.957,91.194a5.4,5.4,0,0,0-6.211,3.214,6.04,6.04,0,0,0,1.212,6.4,50.777,50.777,0,0,1,3.372,3.923.476.476,0,0,0,.869-.013,39.511,39.511,0,0,1,3.177-3.681,6.668,6.668,0,0,0,1.815-4.69A5.357,5.357,0,0,0,71.957,91.194Zm1.842,8.957c-.958,1.179-2.141,2.157-3.033,3.466-.871-1.229-1.955-2.177-2.882-3.269a5.271,5.271,0,0,1-1.4-5.015,4.445,4.445,0,0,1,5.471-3.1c.121.033.239.071.357.115a4.594,4.594,0,0,1,2.586,5.96c-.042.106-.087.21-.137.312a7.207,7.207,0,0,1-.963,1.526Z" transform="translate(-65.017 -90.774)" fill="#016c30"/>
            <path id="Trazado_12864" data-name="Trazado 12864" d="M70.735,105.265h0a.8.8,0,0,1-.654-.4,18.013,18.013,0,0,0-1.991-2.376c-.459-.489-.934-.993-1.366-1.525a6.317,6.317,0,0,1-1.254-6.682,5.709,5.709,0,0,1,10.98,2.041,6.956,6.956,0,0,1-1.883,4.876c-.348.4-.71.79-1.074,1.178a20.4,20.4,0,0,0-2.082,2.478A.822.822,0,0,1,70.735,105.265Zm-.028-13.956a5.1,5.1,0,0,0-4.724,3.182,5.728,5.728,0,0,0,1.169,6.121c.42.517.887,1.014,1.341,1.5a18.555,18.555,0,0,1,2.05,2.451c.061.1.131.149.191.149h0c.065,0,.145-.06.213-.163A20.766,20.766,0,0,1,73.085,102c.357-.382.716-.765,1.059-1.16a6.356,6.356,0,0,0,1.747-4.5,5.057,5.057,0,0,0-4.013-4.888h0A5.2,5.2,0,0,0,70.707,91.309Zm.043,12.773-.232-.325a18.557,18.557,0,0,0-1.751-2.032c-.373-.392-.758-.8-1.116-1.219a5.531,5.531,0,0,1-1.454-5.27,4.721,4.721,0,0,1,5.814-3.29c.128.035.254.076.378.121a4.882,4.882,0,0,1,2.749,6.325c-.045.111-.094.222-.146.329a7.511,7.511,0,0,1-1,1.583c-.4.49-.836.949-1.262,1.393a16.533,16.533,0,0,0-1.757,2.055Zm-.007-11.753a4.172,4.172,0,0,0-4.009,3.056,4.951,4.951,0,0,0,1.342,4.76c.35.413.722.8,1.1,1.2a22,22,0,0,1,1.571,1.779,19.324,19.324,0,0,1,1.589-1.808c.417-.437.848-.887,1.232-1.359h0a6.922,6.922,0,0,0,.927-1.468c.047-.1.091-.2.13-.3a4.321,4.321,0,0,0-2.43-5.6c-.1-.039-.215-.074-.328-.106A4.17,4.17,0,0,0,70.742,92.329Z" transform="translate(-64.996 -90.752)" fill="#016c30"/>
          </g>
        </g>
      </g>
      <g id="Grupo_22298" data-name="Grupo 22298" transform="translate(31.375 4.461)">
        <circle id="Elipse_1385" data-name="Elipse 1385" cx="1.717" cy="1.717" r="1.717" fill="red"/>
      </g>
      <g id="Grupo_22299" data-name="Grupo 22299" transform="translate(10.611 29.938)">
        <path id="Trazado_12865" data-name="Trazado 12865" d="M70.335,124.552H47.875a.927.927,0,0,1,0-1.854h22.46a.927.927,0,0,1,0,1.854Z" transform="translate(-46.948 -122.698)" fill="#006c30"/>
      </g>
      <g id="Grupo_22300" data-name="Grupo 22300" transform="translate(26.374 22.248)">
        <path id="Trazado_12866" data-name="Trazado 12866" d="M71.572,116.259h-6.7a.927.927,0,0,1,0-1.854h6.7a.927.927,0,0,1,0,1.854Z" transform="translate(-63.948 -114.405)" fill="#006c30"/>
      </g>
      <g id="Grupo_22301" data-name="Grupo 22301" transform="translate(26.374 13.447)">
        <path id="Trazado_12867" data-name="Trazado 12867" d="M70.645,110.445H64.875a.927.927,0,0,1,0-1.854h4.842v-2.75a.927.927,0,0,1,1.854,0v3.677A.926.926,0,0,1,70.645,110.445Z" transform="translate(-63.948 -104.913)" fill="#006c30"/>
      </g>
      <g id="Grupo_22302" data-name="Grupo 22302" transform="translate(32.934 22.248)">
        <path id="Trazado_12868" data-name="Trazado 12868" d="M71.95,123.949a.927.927,0,0,1,0-1.854,2.918,2.918,0,1,0,0-5.835.927.927,0,0,1,0-1.854,4.772,4.772,0,1,1,0,9.544Z" transform="translate(-71.023 -114.405)" fill="#006c30"/>
      </g>
      <g id="Grupo_22303" data-name="Grupo 22303" transform="translate(24.227 17.124)">
        <path id="Trazado_12869" data-name="Trazado 12869" d="M65.121,115.857a3.489,3.489,0,1,1,0-6.978.927.927,0,0,1,0,1.854,1.635,1.635,0,0,0,0,3.269.927.927,0,0,1,0,1.854Z" transform="translate(-61.632 -108.879)" fill="#006c30"/>
      </g>
    </g>
  </g>
</svg>
