<svg id="Grupo_21062" data-name="Grupo 21062" xmlns="http://www.w3.org/2000/svg" width="34" height="34" viewBox="0 0 34 34">
  <g id="Group_16478" data-name="Group 16478" transform="translate(0 0)">
    <g id="Grupo_16475" data-name="Grupo 16475">
      <g id="Grupo_16321" data-name="Grupo 16321">
        <g id="Grupo_16277" data-name="Grupo 16277">
          <g id="Grupo_16269" data-name="Grupo 16269">
            <g id="Grupo_16259" data-name="Grupo 16259">
              <g id="Grupo_16234-2" data-name="Grupo 16234-2">
                <g id="Grupo_16193-2" data-name="Grupo 16193-2">
                  <g id="Grupo_15839-3" data-name="Grupo 15839-3">
                    <g id="Grupo_15836-3" data-name="Grupo 15836-3">
                      <g id="Rectángulo_235-3" data-name="Rectángulo 235-3">
                        <rect id="Rectangle_7019" data-name="Rectangle 7019" width="34" height="34" fill="none"/>
                      </g>
                    </g>
                  </g>
                </g>
              </g>
            </g>
          </g>
        </g>
      </g>
    </g>
    <g id="streamline-icon-cash-payment-bill-3_50x50" data-name="streamline-icon-cash-payment-bill-3 50x50" transform="translate(7.305 8.868)">
      <g id="Trazado_4966" data-name="Trazado 4966" transform="translate(0 4.069)">
        <path id="Path_12051" data-name="Path 12051" d="M-97.079,616.163h-4.32a1.9,1.9,0,0,1-1.9-1.9V607.7a1.9,1.9,0,0,1,1.9-1.9h14.86a1.9,1.9,0,0,1,1.9,1.9v7.085a.691.691,0,0,1-.691.691.69.69,0,0,1-.691-.691V607.7a.52.52,0,0,0-.519-.518H-101.4a.52.52,0,0,0-.518.519v6.565a.519.519,0,0,0,.518.518h4.32a.691.691,0,0,1,.691.691A.691.691,0,0,1-97.079,616.163Z" transform="translate(103.299 -605.796)" fill="#006c30"/>
      </g>
      <g id="Trazado_4967" data-name="Trazado 4967" transform="translate(4.146 15.154)">
        <path id="Path_12052" data-name="Path 12052" d="M-95.917,625.955a.691.691,0,0,1-.691-.691v-1.545l-.563-.793a.69.69,0,0,1,.163-.964.691.691,0,0,1,.963.163l.691.972a.691.691,0,0,1,.128.4v1.766A.691.691,0,0,1-95.917,625.955Z" transform="translate(97.3 -621.834)" fill="#006c30"/>
      </g>
      <g id="Trazado_4972" data-name="Trazado 4972" transform="translate(9.676 8.414)">
        <path id="Path_12057" data-name="Path 12057" d="M-85.843,622.943a.691.691,0,0,1-.691-.691v-.739a2.158,2.158,0,0,1,.828-1.718l1.628-1.315a.8.8,0,0,0,.309-.634v-3.87a.517.517,0,0,0-.509-.512c-.386,0-.514.488-.543.638l-.227,1.658a2.317,2.317,0,0,1-1.109,1.692l-1.3.774a.96.96,0,0,0-.458.826v1.126a.691.691,0,0,1-.691.691.691.691,0,0,1-.691-.691v-1.12a2.347,2.347,0,0,1,1.129-2.017l1.3-.775a.94.94,0,0,0,.449-.688l.234-1.7a2.018,2.018,0,0,1,1.923-1.8,1.9,1.9,0,0,1,1.876,1.89v3.871a2.161,2.161,0,0,1-.829,1.717l-1.628,1.315a.787.787,0,0,0-.308.632v.744A.691.691,0,0,1-85.843,622.943Z" transform="translate(89.299 -612.082)" fill="#006c30"/>
      </g>
      <g id="Trazado_4973" data-name="Trazado 4973" transform="translate(6.591 6.279)">
        <path id="Path_12058" data-name="Path 12058" d="M-91.5,615.362a2.477,2.477,0,0,1-1.955-.979.691.691,0,0,1,.13-.968.69.69,0,0,1,.969.13,1.108,1.108,0,0,0,.922.434c.574,0,1-.3,1-.554s-.425-.553-.972-.553a2.154,2.154,0,0,1-2.354-1.941A2.152,2.152,0,0,1-91.409,609a2.472,2.472,0,0,1,2.042.966.691.691,0,0,1-.126.969.691.691,0,0,1-.969-.126,1.114,1.114,0,0,0-.918-.428c-.586,0-1,.292-1,.554s.415.559.972.559a2.153,2.153,0,0,1,2.355,1.935,2.152,2.152,0,0,1-2.355,1.935Z" transform="translate(93.763 -608.993)" fill="red"/>
      </g>
      <g id="Trazado_4974" data-name="Trazado 4974" transform="translate(8.294 10.981)">
        <path id="Path_12059" data-name="Path 12059" d="M-90.608,618.561a.691.691,0,0,1-.691-.691v-1.382a.69.69,0,0,1,.691-.691.691.691,0,0,1,.691.691v1.382A.691.691,0,0,1-90.608,618.561Z" transform="translate(91.299 -615.796)" fill="red"/>
      </g>
      <g id="Trazado_4975" data-name="Trazado 4975" transform="translate(8.294 5.451)">
        <path id="Path_12060" data-name="Path 12060" d="M-90.608,609.869a.691.691,0,0,1-.691-.691v-.691a.69.69,0,0,1,.691-.691.691.691,0,0,1,.691.691v.691A.691.691,0,0,1-90.608,609.869Z" transform="translate(91.299 -607.796)" fill="red"/>
      </g>
      <g id="Group_21061" data-name="Group 21061" transform="translate(0 -0.168)">
        <g id="Trazado_4968" data-name="Trazado 4968" transform="translate(2.764 1.984)">
          <path id="Path_12053" data-name="Path 12053" d="M-98.608,606.246a.691.691,0,0,1-.691-.691v-.823a1.923,1.923,0,0,1,1.27-1.847,2.328,2.328,0,0,1,.629-.107,1.888,1.888,0,0,1,1.342.556,1.891,1.891,0,0,1,.561,1.346.692.692,0,0,1-.69.693h0a.691.691,0,0,1-.691-.69.521.521,0,0,0-.153-.369.519.519,0,0,0-.369-.153h0a.53.53,0,0,0-.169.028.544.544,0,0,0-.345.525v.841A.691.691,0,0,1-98.608,606.246Z" transform="translate(99.3 -602.778)" fill="#006c30"/>
        </g>
        <g id="Trazado_4968-2" data-name="Trazado 4968" transform="translate(5.144 0.99)">
          <path id="Path_12053-2" data-name="Path 12053" d="M-98.608,606.246a.691.691,0,0,1-.691-.691v-.823a1.923,1.923,0,0,1,1.27-1.847,2.328,2.328,0,0,1,.629-.107,1.888,1.888,0,0,1,1.342.556,1.891,1.891,0,0,1,.561,1.346.692.692,0,0,1-.69.693h0a.691.691,0,0,1-.691-.69.521.521,0,0,0-.153-.369.519.519,0,0,0-.369-.153h0a.53.53,0,0,0-.169.028.544.544,0,0,0-.345.525v.841A.691.691,0,0,1-98.608,606.246Z" transform="translate(99.3 -602.778)" fill="#006c30"/>
        </g>
        <g id="Trazado_4970" data-name="Trazado 4970" transform="translate(7.603)">
          <path id="Path_12055" data-name="Path 12055" d="M-88.843,605.36a.691.691,0,0,1-.691-.691v-2.79a.77.77,0,0,0-.661-.586.866.866,0,0,0-.722.6v2.771a.691.691,0,0,1-.691.691.691.691,0,0,1-.691-.691v-2.86a.674.674,0,0,1,.017-.153,2.244,2.244,0,0,1,2.029-1.745.842.842,0,0,1,.091,0,2.146,2.146,0,0,1,2,1.781.689.689,0,0,1,.01.119v2.86A.691.691,0,0,1-88.843,605.36Z" transform="translate(92.299 -599.909)" fill="#006c30"/>
        </g>
        <g id="Trazado_4968-3" data-name="Trazado 4968" transform="translate(10.396 0.99)">
          <path id="Path_12053-3" data-name="Path 12053" d="M-96.19,606.618a.73.73,0,0,0,.691-.765v-.911a2.135,2.135,0,0,0-1.27-2.045,2.124,2.124,0,0,0-.629-.118,1.8,1.8,0,0,0-1.342.615,2.212,2.212,0,0,0-.56,1.49.732.732,0,0,0,.69.767h0a.73.73,0,0,0,.691-.764.61.61,0,0,1,.153-.409.494.494,0,0,1,.369-.169h0a.484.484,0,0,1,.169.031.607.607,0,0,1,.345.582v.931A.731.731,0,0,0-96.19,606.618Z" transform="translate(99.3 -602.778)" fill="#006c30"/>
        </g>
      </g>
    </g>
  </g>
</svg>
