<svg xmlns="http://www.w3.org/2000/svg" width="38" height="38" viewBox="0 0 38 38">
  <g id="Grupo_22354" data-name="Grupo 22354" transform="translate(-32 -720)">
    <g id="Grupo_22353" data-name="Grupo 22353">
      <circle id="Elipse_1370" data-name="Elipse 1370" cx="19" cy="19" r="19" transform="translate(32 720)" fill="#00a3a8"/>
      <path id="Icon_awesome-trash-alt" data-name="Icon awesome-trash-alt" d="M1.108,16.065A1.662,1.662,0,0,0,2.77,17.727h9.971A1.662,1.662,0,0,0,14.4,16.065V4.432H1.108ZM10.525,7.2a.554.554,0,1,1,1.108,0v7.755a.554.554,0,0,1-1.108,0ZM7.2,7.2a.554.554,0,1,1,1.108,0v7.755a.554.554,0,0,1-1.108,0Zm-3.324,0a.554.554,0,0,1,1.108,0v7.755a.554.554,0,0,1-1.108,0ZM14.957,1.108H10.8L10.477.46A.831.831,0,0,0,9.732,0H5.775a.821.821,0,0,0-.741.46l-.325.647H.554A.554.554,0,0,0,0,1.662V2.77a.554.554,0,0,0,.554.554h14.4a.554.554,0,0,0,.554-.554V1.662A.554.554,0,0,0,14.957,1.108Z" transform="translate(43.245 730.137)" fill="#fff"/>
    </g>
  </g>
</svg>
