<svg id="Grupo_21704" data-name="Grupo 21704" xmlns="http://www.w3.org/2000/svg" xmlns:xlink="http://www.w3.org/1999/xlink" width="30" height="30" viewBox="0 0 30 30">
  <defs>
    <clipPath id="clip-path">
      <rect id="Rectángulo_7123" data-name="Rectángulo 7123" width="30" height="30" fill="none"/>
    </clipPath>
  </defs>
  <g id="Grupo_21616" data-name="Grupo 21616" transform="translate(0 0)" clip-path="url(#clip-path)">
    <g id="Grupo_21615" data-name="Grupo 21615" transform="translate(0.444 6.337)">
      <g id="Grupo_21610" data-name="Grupo 21610" transform="translate(0 6.475)">
        <path id="Trazado_12303" data-name="Trazado 12303" d="M303.522,107.8a.815.815,0,0,1-.8-.952l.286-1.671-1.214-1.184a.814.814,0,0,1,.451-1.387l1.678-.244.751-1.52a.809.809,0,0,1,.728-.454h0a.81.81,0,0,1,.729.453h0l.75,1.521,1.678.243a.813.813,0,0,1,.451,1.387l-1.214,1.184.286,1.671a.814.814,0,0,1-1.179.858l-1.5-.79-1.5.789A.812.812,0,0,1,303.522,107.8Zm1.88-2.049a.812.812,0,0,1,.378.093l1.087.572-.207-1.211a.81.81,0,0,1,.235-.721l.877-.856-1.215-.177a.807.807,0,0,1-.614-.449l-.542-1.1-.544,1.1a.814.814,0,0,1-.614.446l-1.214.176.879.857a.81.81,0,0,1,.234.719l-.208,1.211,1.087-.572A.813.813,0,0,1,305.4,105.751Zm-2.277-.46h0Zm4.556,0h0Zm-.728-2.786,0,0Zm-2.868-.166h0Zm1.039-1Z" transform="translate(-301.547 -100.388)" fill="red"/>
      </g>
      <g id="Grupo_21611" data-name="Grupo 21611" transform="translate(21.316 6.475)">
        <path id="Trazado_12304" data-name="Trazado 12304" d="M331.943,107.8a.815.815,0,0,1-.8-.952l.286-1.672-1.214-1.184a.814.814,0,0,1,.451-1.387l1.678-.244.751-1.52a.808.808,0,0,1,.728-.454h0a.808.808,0,0,1,.728.453h0l.75,1.52,1.678.244a.813.813,0,0,1,.449,1.388l-1.213,1.183.286,1.672a.814.814,0,0,1-1.18.857l-1.5-.789-1.5.789A.812.812,0,0,1,331.943,107.8Zm1.88-2.049a.814.814,0,0,1,.378.093l1.087.572-.207-1.211a.814.814,0,0,1,.232-.718l.881-.859-1.215-.177a.813.813,0,0,1-.613-.445l-.542-1.1-.544,1.1a.814.814,0,0,1-.614.446l-1.213.176.878.857a.81.81,0,0,1,.234.719l-.207,1.211,1.087-.572A.813.813,0,0,1,333.823,105.751Zm-2.277-.46h0Zm5.1-2.1h0Zm-4.14-.849h0Z" transform="translate(-329.968 -100.388)" fill="#006c30"/>
      </g>
      <g id="Grupo_21612" data-name="Grupo 21612" transform="translate(6.13)">
        <path id="Trazado_12305" data-name="Trazado 12305" d="M322.583,107.83a1.156,1.156,0,0,1-.54-.134l-3.915-2.058-3.947,2.058a1.159,1.159,0,0,1-1.681-1.222l.748-4.359L310.072,99a1.158,1.158,0,0,1,.642-1.976l4.377-.636,1.982-3.985a1.16,1.16,0,0,1,2.079,0h0l1.958,3.966,4.4.655A1.158,1.158,0,0,1,326.153,99l-3.166,3.088.738,4.389a1.161,1.161,0,0,1-1.142,1.356Zm-4.471-3.322a1.157,1.157,0,0,1,.539.134l3.914,2.058-.7-4.394a1.159,1.159,0,0,1,.334-1.027l3.167-3.087-4.4-.694a1.156,1.156,0,0,1-.872-.633L318.143,92.9a.028.028,0,0,0-.031-.019l-1.987,3.985a1.157,1.157,0,0,1-.873.634l-4.377.636,3.148,3.145a1.159,1.159,0,0,1,.334,1.026l-.748,4.36,3.964-2.023A1.161,1.161,0,0,1,318.113,104.509Z" transform="translate(-309.721 -91.755)" fill="#006c30"/>
      </g>
      <g id="Grupo_21613" data-name="Grupo 21613" transform="translate(5.172 6.912)">
        <rect id="Rectángulo_7121" data-name="Rectángulo 7121" width="1.125" height="4.66" transform="translate(0 0.805) rotate(-45.716)" fill="#fff"/>
      </g>
      <g id="Grupo_21614" data-name="Grupo 21614" transform="translate(19.747 6.915)">
        <rect id="Rectángulo_7122" data-name="Rectángulo 7122" width="4.661" height="1.125" transform="matrix(0.716, -0.698, 0.698, 0.716, 0, 3.253)" fill="#fff"/>
      </g>
    </g>
  </g>
</svg>
