<svg id="Grupo_21708" data-name="Grupo 21708" xmlns="http://www.w3.org/2000/svg" xmlns:xlink="http://www.w3.org/1999/xlink" width="30" height="30" viewBox="0 0 30 30">
  <defs>
    <clipPath id="clip-path">
      <rect id="Rectángulo_7132" data-name="Rectángulo 7132" width="30" height="30" fill="none"/>
    </clipPath>
  </defs>
  <g id="Grupo_21656" data-name="Grupo 21656" transform="translate(0 0)">
    <g id="Grupo_21655" data-name="Grupo 21655" clip-path="url(#clip-path)">
      <g id="Grupo_21654" data-name="Grupo 21654" transform="translate(-40.842 -0.572)">
        <rect id="Rectángulo_7131" data-name="Rectángulo 7131" width="29.7" height="29.7" transform="translate(29.7 0) rotate(90)" fill="none"/>
      </g>
    </g>
  </g>
  <g id="Grupo_21660" data-name="Grupo 21660" transform="translate(7.121 5.823)">
    <g id="Grupo_21657" data-name="Grupo 21657" transform="translate(7.594 8.572)">
      <path id="Rectángulo_7133" data-name="Rectángulo 7133" d="M.569,0H7.433A.568.568,0,0,1,8,.568v0a.568.568,0,0,1-.568.568H.569A.569.569,0,0,1,0,.569v0A.569.569,0,0,1,.569,0Z" fill="red"/>
    </g>
    <g id="Grupo_21658" data-name="Grupo 21658" transform="translate(11.643 4.896)">
      <path id="Trazado_12328" data-name="Trazado 12328" d="M141.334,173.835a.51.51,0,0,1-.315-.11l-.1-.083a.5.5,0,0,1-.078-.706l2.7-3.381-2.7-3.38a.5.5,0,0,1,.079-.707l.1-.082a.506.506,0,0,1,.316-.111.527.527,0,0,1,.392.189l2.988,3.736a.563.563,0,0,1,.034.668l-3.022,3.779a.5.5,0,0,1-.338.186Z" transform="translate(-140.728 -165.274)" fill="red"/>
    </g>
    <g id="Grupo_21659" data-name="Grupo 21659">
      <path id="Trazado_12329" data-name="Trazado 12329" d="M128.4,177.46a2.335,2.335,0,0,1-2.333-2.333V161.442a2.335,2.335,0,0,1,2.333-2.332h6.551v0h.166a.6.6,0,0,1,.664.581.587.587,0,0,1-.587.585l-6.794,0a1.166,1.166,0,0,0-1.165,1.165v13.686a1.167,1.167,0,0,0,1.165,1.167h6.551v0h.168a.6.6,0,0,1,.662.581.587.587,0,0,1-.587.585v0Z" transform="translate(-126.068 -159.11)" fill="#006729"/>
    </g>
  </g>
</svg>
