<svg xmlns="http://www.w3.org/2000/svg" width="30" height="30" viewBox="0 0 30 30">
  <g id="Grupo_21718" data-name="Grupo 21718" transform="translate(21923.068 21240.572)">
    <g id="Grupo_21713" data-name="Grupo 21713" transform="translate(-21923.068 -21240.572)">
      <rect id="Rect치ngulo_7134" data-name="Rect치ngulo 7134" width="30" height="30" transform="translate(0 0)" fill="none"/>
    </g>
    <g id="Grupo_21717" data-name="Grupo 21717" transform="translate(-21914.348 -21235.475)">
      <g id="Grupo_21666" data-name="Grupo 21666" transform="translate(5.442 16.322)">
        <g id="Grupo_21665" data-name="Grupo 21665">
          <g id="Grupo_21663" data-name="Grupo 21663">
            <path id="Trazado_12330" data-name="Trazado 12330" d="M50.251,180.418a.842.842,0,0,1-.792-.8.836.836,0,1,1,1.672-.039.84.84,0,0,1-.836.836Z" transform="translate(-49.458 -178.746)" fill="#006729" fill-rule="evenodd"/>
          </g>
          <g id="Grupo_21664" data-name="Grupo 21664" transform="translate(0.04 0.04)">
            <path id="Trazado_12331" data-name="Trazado 12331" d="M51.1,179.6a.8.8,0,1,1-.8-.8h0a.8.8,0,0,1,.8.8Z" transform="translate(-49.508 -178.796)" fill="#006729" fill-rule="evenodd"/>
          </g>
        </g>
      </g>
      <g id="Grupo_21670" data-name="Grupo 21670" transform="translate(5.044 2.144)">
        <g id="Grupo_21669" data-name="Grupo 21669">
          <g id="Grupo_21667" data-name="Grupo 21667">
            <path id="Trazado_12332" data-name="Trazado 12332" d="M49.422,161.774a.423.423,0,0,1-.465-.41.445.445,0,0,1,.106-.328.425.425,0,0,1,.311-.13q.405-.011.811-.011t.812.011a.432.432,0,0,1,.428.437.446.446,0,0,1-.471.433h-.06Z" transform="translate(-48.957 -160.895)" fill="#006729" fill-rule="evenodd"/>
          </g>
          <g id="Grupo_21668" data-name="Grupo 21668" transform="translate(0.04 0.04)">
            <path id="Trazado_12333" data-name="Trazado 12333" d="M50.2,161.745h-.765a.385.385,0,0,1-.425-.372.37.37,0,0,1,.377-.417q.81-.023,1.622,0a.393.393,0,0,1,.389.4v.018a.405.405,0,0,1-.431.376C50.707,161.747,50.452,161.745,50.2,161.745Z" transform="translate(-49.007 -160.945)" fill="#006729" fill-rule="evenodd"/>
          </g>
        </g>
      </g>
      <g id="Grupo_21671" data-name="Grupo 21671" transform="translate(0 0)">
        <path id="Trazado_12334" data-name="Trazado 12334" d="M44.375,178a1.782,1.782,0,0,1-1.769-1.789V159.984a1.782,1.782,0,0,1,1.769-1.789h9.017a1.782,1.782,0,0,1,1.77,1.789v16.229A1.782,1.782,0,0,1,53.393,178Zm0-18.811a.789.789,0,0,0-.783.793v16.229a.789.789,0,0,0,.783.793h9.017a.789.789,0,0,0,.783-.793V159.984a.789.789,0,0,0-.783-.793Z" transform="translate(-42.606 -158.195)" fill="#006729"/>
      </g>
      <g id="Grupo_21672" data-name="Grupo 21672" transform="translate(0.04 0.04)">
        <path id="Trazado_12335" data-name="Trazado 12335" d="M53.4,177.973H44.386a1.742,1.742,0,0,1-1.73-1.75V159.995a1.742,1.742,0,0,1,1.73-1.75H53.4a1.742,1.742,0,0,1,1.73,1.75v16.229A1.742,1.742,0,0,1,53.4,177.973Zm-9.017-18.811a.829.829,0,0,0-.823.832v16.229a.829.829,0,0,0,.823.832H53.4a.829.829,0,0,0,.823-.832V159.995a.829.829,0,0,0-.823-.832Z" transform="translate(-42.656 -158.245)" fill="#006729"/>
      </g>
      <g id="Grupo_21675" data-name="Grupo 21675" transform="translate(0.567 4.015)">
        <g id="Grupo_21673" data-name="Grupo 21673">
          <path id="Trazado_12336" data-name="Trazado 12336" d="M43.359,164.236l-.04-.947,11.383-.04.04.987Z" transform="translate(-43.32 -163.25)" fill="#006729"/>
        </g>
        <g id="Grupo_21674" data-name="Grupo 21674" transform="translate(0.04 0.04)">
          <rect id="Rect치ngulo_7135" data-name="Rect치ngulo 7135" width="11.343" height="0.907" fill="#006729"/>
        </g>
      </g>
      <g id="Grupo_21676" data-name="Grupo 21676" transform="translate(0.385 14.729)">
        <path id="Trazado_12337" data-name="Trazado 12337" d="M43.54,177.637a.448.448,0,1,1,0-.9H54.429a.448.448,0,0,1,0,.9Z" transform="translate(-43.091 -176.741)" fill="red"/>
      </g>
      <g id="Grupo_21677" data-name="Grupo 21677" transform="translate(0.425 14.769)">
        <path id="Trazado_12338" data-name="Trazado 12338" d="M43.549,177.607a.408.408,0,1,1,0-.816h10.89a.408.408,0,1,1,0,.816Z" transform="translate(-43.141 -176.791)" fill="red"/>
      </g>
    </g>
  </g>
</svg>
