<svg id="Group_21222" data-name="Group 21222" xmlns="http://www.w3.org/2000/svg" xmlns:xlink="http://www.w3.org/1999/xlink" width="23.61" height="23.754" viewBox="0 0 23.61 23.754">
  <defs>
    <clipPath id="clip-path">
      <rect id="Rectangle_6973" data-name="Rectangle 6973" width="23.61" height="23.755" fill="#9d9d9d"/>
    </clipPath>
  </defs>
  <g id="Group_20904" data-name="Group 20904" transform="translate(0 0)" clip-path="url(#clip-path)">
    <path id="Path_11976" data-name="Path 11976" d="M2.946,22.129v-.647q0-8.762.01-17.524a2.3,2.3,0,0,1,.227-.883c.361-.822.765-1.626,1.13-2.447a.976.976,0,0,1,1-.629Q11.8.011,18.291,0A1,1,0,0,1,19.3.623c.436.925.915,1.83,1.349,2.756a1.674,1.674,0,0,1,.1.689q.007,8.691,0,17.382c0,.673,0,.673.668.675.473,0,.946-.012,1.42.008a.739.739,0,0,1,.771.778.769.769,0,0,1-.771.739c-.048,0-.1,0-.143,0q-7.335.048-14.669.1c-1.2.007-2.4.014-3.6,0S2,23.688.793,23.649A.755.755,0,0,1,0,22.886a.735.735,0,0,1,.795-.753c.692-.018,1.383,0,2.151,0m16.27-17.58H4.509V22.038H8.888c0-.537-.028-1.042.006-1.541a2.909,2.909,0,0,1,4.028-2.489,3.226,3.226,0,0,1,1.92,2.915,9.9,9.9,0,0,1,.007,1.116h4.366ZM4.953,2.908h13.7a10.031,10.031,0,0,0-.5-1.059.647.647,0,0,0-.46-.282q-5.895-.023-11.787,0a.522.522,0,0,0-.4.168c-.206.363-.364.754-.559,1.178m8.381,19.14c-.052-.527-.088-1.022-.151-1.514a1.391,1.391,0,0,0-1.295-1.228,1.353,1.353,0,0,0-1.426,1.065,10.962,10.962,0,0,0-.017,1.677Z" transform="translate(0 0)" fill="#9d9d9d"/>
    <path id="Path_11980" data-name="Path 11980" d="M8.892,9.165A1.332,1.332,0,0,1,7.654,8.022a1.369,1.369,0,0,1,1.194-1.2,1.29,1.29,0,0,1,1.161,1.174A1.171,1.171,0,0,1,8.892,9.165" transform="translate(-1.484 -1.322)" fill="#9d9d9d"/>
    <path id="Path_11981" data-name="Path 11981" d="M15.518,13.483a1.191,1.191,0,0,1-1.194,1.093,1.231,1.231,0,0,1-1.154-1.154,1.255,1.255,0,0,1,1.191-1.175,1.392,1.392,0,0,1,1.158,1.237" transform="translate(-2.553 -2.374)" fill="#9d9d9d"/>
    <path id="Path_11982" data-name="Path 11982" d="M15.526,8.036A1.177,1.177,0,0,1,14.37,9.174a1.379,1.379,0,0,1-1.195-1.2,1.334,1.334,0,0,1,1.187-1.151,1.291,1.291,0,0,1,1.164,1.218" transform="translate(-2.554 -1.322)" fill="#9d9d9d"/>
    <path id="Path_11983" data-name="Path 11983" d="M10.008,13.457a1.194,1.194,0,0,1-1.164,1.121,1.256,1.256,0,0,1-1.19-1.171,1.28,1.28,0,0,1,1.169-1.151,1.382,1.382,0,0,1,1.185,1.2" transform="translate(-1.484 -2.376)" fill="#9d9d9d"/>
    <path id="Path_11984" data-name="Path 11984" d="M21.035,13.469a1.194,1.194,0,0,1-1.187,1.108,1.161,1.161,0,0,1,0-2.322,1.4,1.4,0,0,1,1.187,1.214" transform="translate(-3.625 -2.376)" fill="#9d9d9d"/>
    <path id="Path_11985" data-name="Path 11985" d="M21.035,8.065a1.175,1.175,0,0,1-1.185,1.1A1.34,1.34,0,0,1,18.7,7.934a1.317,1.317,0,0,1,1.207-1.115,1.289,1.289,0,0,1,1.127,1.246" transform="translate(-3.625 -1.322)" fill="#9d9d9d"/>
    <path id="Path_11986" data-name="Path 11986" d="M21.035,19.053a1.2,1.2,0,0,1-1.008,1.133A1.409,1.409,0,0,1,18.7,19.061a1.265,1.265,0,0,1,1.166-1.2,1.24,1.24,0,0,1,1.166,1.19" transform="translate(-3.626 -3.463)" fill="#9d9d9d"/>
    <path id="Path_11987" data-name="Path 11987" d="M15.521,19.021a1.2,1.2,0,0,1-.974,1.163,1.425,1.425,0,0,1-1.362-1.14,1.288,1.288,0,0,1,1.142-1.181,1.234,1.234,0,0,1,1.194,1.158" transform="translate(-2.556 -3.463)" fill="#9d9d9d"/>
    <path id="Path_11988" data-name="Path 11988" d="M10.013,19.036a1.2,1.2,0,0,1-.991,1.149,1.458,1.458,0,0,1-1.349-1.109,1.283,1.283,0,0,1,1.158-1.212,1.239,1.239,0,0,1,1.182,1.173" transform="translate(-1.487 -3.463)" fill="#9d9d9d"/>
  </g>
</svg>
