<svg xmlns="http://www.w3.org/2000/svg" width="40" height="40" viewBox="0 0 40 40">
  <g id="Grupo_22034" data-name="Grupo 22034" transform="translate(-1386 -3245)">
    <rect id="Rectángulo_7235" data-name="Rectángulo 7235" width="40" height="40" transform="translate(1386 3245)" fill="none"/>
    <g id="Grupo_22033" data-name="Grupo 22033" transform="translate(19.59 -119.143)">
      <path id="Trazado_12681" data-name="Trazado 12681" d="M64.55,841.542a.738.738,0,1,1,0-1.475h9.015a.738.738,0,1,1,0,1.475Z" transform="translate(1316.695 2537.813)" fill="#65a518" stroke="#65a518" stroke-width="0.1"/>
      <path id="Trazado_12682" data-name="Trazado 12682" d="M64.55,845.229a.738.738,0,1,1,0-1.475h9.015a.738.738,0,1,1,0,1.475Z" transform="translate(1316.695 2537.027)" fill="#65a518" stroke="#65a518" stroke-width="0.1"/>
      <path id="Trazado_12683" data-name="Trazado 12683" d="M64.55,848.833a.738.738,0,1,1,0-1.475h5.737a.738.738,0,1,1,0,1.475Z" transform="translate(1316.695 2536.259)" fill="#00a3a8" stroke="#00a3a8" stroke-width="0.1"/>
      <path id="Trazado_12684" data-name="Trazado 12684" d="M59.342,856.378a.739.739,0,0,1-.738-.738V833.512a.739.739,0,0,1,.738-.737h18.03a.739.739,0,0,1,.738.737V855.64a.739.739,0,0,1-.738.738Zm.738-1.475H76.634V834.25H60.08Z" transform="translate(1317.806 2539.368)" fill="#65a518" stroke="#65a518" stroke-width="0.1"/>
      <path id="Trazado_12685" data-name="Trazado 12685" d="M59.342,857.167a.738.738,0,1,1,0-1.475h18.03a.738.738,0,1,1,0,1.475Z" transform="translate(1317.806 2534.482)" fill="#65a518" stroke="#65a518" stroke-width="0.1"/>
    </g>
  </g>
</svg>
