<svg xmlns="http://www.w3.org/2000/svg" width="18" height="18" viewBox="0 0 18 18">
  <path id="help_FILL1_wght600_GRAD0_opsz48" d="M12.354,17.32a.876.876,0,0,0,.641-.271.9.9,0,0,0,.271-.662.927.927,0,0,0-.912-.912.9.9,0,0,0-.662.271.876.876,0,0,0-.271.641.927.927,0,0,0,.934.934Zm-.869-3.17h1.476a3.474,3.474,0,0,1,.141-1.01,2.5,2.5,0,0,1,.836-1.053,3.034,3.034,0,0,0,.923-1.064,2.819,2.819,0,0,0,.271-1.238A2.533,2.533,0,0,0,14.406,7.9a2.678,2.678,0,0,0-1.965-.717,3.445,3.445,0,0,0-1.965.575A3.288,3.288,0,0,0,9.228,9.33l1.346.5a2.142,2.142,0,0,1,.717-.955,1.748,1.748,0,0,1,1.042-.326,1.5,1.5,0,0,1,1.021.358,1.166,1.166,0,0,1,.413.923,1.567,1.567,0,0,1-.261.847,3.419,3.419,0,0,1-.738.8,4.225,4.225,0,0,0-.955,1.129,3.166,3.166,0,0,0-.326,1.542Zm.8,7.1A8.72,8.72,0,0,1,8.8,20.544a9.079,9.079,0,0,1-4.8-4.788,9.038,9.038,0,0,1,0-7A9.059,9.059,0,0,1,5.927,5.9,9.212,9.212,0,0,1,8.783,3.967a8.965,8.965,0,0,1,7.024,0,9,9,0,0,1,4.777,4.766,8.712,8.712,0,0,1,.717,3.528,8.659,8.659,0,0,1-.717,3.507,9.212,9.212,0,0,1-1.932,2.855,9.093,9.093,0,0,1-2.844,1.922A8.75,8.75,0,0,1,12.289,21.25Z" transform="translate(-3.3 -3.25)" fill="#65a518"/>
</svg>
