<svg xmlns="http://www.w3.org/2000/svg" width="119.001" height="20.001" viewBox="0 0 119.001 20.001">
  <g id="Grupo_19716" data-name="Grupo 19716" transform="translate(20541.91 18850.424)">
    <path id="Trazado_5" data-name="Trazado 5" d="M0,363.983H3.044v5.984h6v-5.984h3.023V379.01H9.046v-6.5h-6v6.5H0Z" transform="translate(-20541.91 -19214.219)" fill="#65a518"/>
    <path id="Trazado_6" data-name="Trazado 6" d="M56,363.984a14.653,14.653,0,0,1,3.5.4,7.567,7.567,0,0,1,2.808,1.3,6.089,6.089,0,0,1,1.855,2.347,8.416,8.416,0,0,1,.664,3.531,7.689,7.689,0,0,1-.686,3.39,6.352,6.352,0,0,1-1.876,2.315,7.839,7.839,0,0,1-2.8,1.323,13.684,13.684,0,0,1-3.473.42H51.9V363.984Zm-1.072,12.723h.793a9.751,9.751,0,0,0,2.336-.269,5.182,5.182,0,0,0,1.9-.872,4.219,4.219,0,0,0,1.275-1.593,5.634,5.634,0,0,0,.472-2.432,5.883,5.883,0,0,0-.472-2.508,4.2,4.2,0,0,0-1.275-1.6,4.831,4.831,0,0,0-1.9-.84,11.02,11.02,0,0,0-2.336-.236h-.793Z" transform="translate(-20578.141 -19214.217)" fill="#65a518"/>
    <rect id="Rectángulo_6314" data-name="Rectángulo 6314" width="3.023" height="15.027" transform="translate(-20510.482 -18850.23)" fill="#65a518"/>
    <path id="Trazado_7" data-name="Trazado 7" d="M151.969,365.747a6.68,6.68,0,0,0-3.108-.667,6.29,6.29,0,0,0-2.423.452,5.6,5.6,0,0,0-1.875,1.249,5.662,5.662,0,0,0-1.222,1.9,6.522,6.522,0,0,0-.44,2.422,6.641,6.641,0,0,0,.451,2.5,5.441,5.441,0,0,0,3.215,3.144,6.969,6.969,0,0,0,2.487.43,9.179,9.179,0,0,0,1.479-.119,6.778,6.778,0,0,0,1.544-.462l.128,1.743a7.206,7.206,0,0,1-1.5.356,12.3,12.3,0,0,1-1.672.118,9.814,9.814,0,0,1-3.259-.517,7.2,7.2,0,0,1-2.551-1.507,6.722,6.722,0,0,1-1.661-2.422,8.5,8.5,0,0,1-.59-3.262,7.842,7.842,0,0,1,.59-3.078,7.081,7.081,0,0,1,1.65-2.411,7.508,7.508,0,0,1,2.518-1.572,8.8,8.8,0,0,1,3.173-.559,11.834,11.834,0,0,1,1.693.118,6.866,6.866,0,0,1,1.565.42Z" transform="translate(-20640.322 -19213.867)" fill="#006729"/>
    <path id="Trazado_8" data-name="Trazado 8" d="M189.655,376.622a5.419,5.419,0,0,1,2.143.42,4.88,4.88,0,0,1,1.694,1.184,5.468,5.468,0,0,1,1.1,1.83,6.658,6.658,0,0,1,.4,2.336,6.389,6.389,0,0,1-.4,2.3,5.325,5.325,0,0,1-1.115,1.786,4.907,4.907,0,0,1-1.714,1.163,5.746,5.746,0,0,1-2.2.41,5.556,5.556,0,0,1-2.175-.42,5.109,5.109,0,0,1-1.715-1.163,5.3,5.3,0,0,1-1.126-1.787,6.26,6.26,0,0,1-.407-2.292,6.473,6.473,0,0,1,.407-2.347,5.525,5.525,0,0,1,1.126-1.819,4.909,4.909,0,0,1,1.737-1.184,5.823,5.823,0,0,1,2.24-.42m-.129,1.442a3.308,3.308,0,0,0-1.446.313,3.172,3.172,0,0,0-1.115.883,4.222,4.222,0,0,0-.718,1.367,5.722,5.722,0,0,0-.257,1.766,5.516,5.516,0,0,0,.257,1.743,3.878,3.878,0,0,0,.729,1.324,3.264,3.264,0,0,0,1.125.85,3.7,3.7,0,0,0,2.926,0,3.189,3.189,0,0,0,1.137-.861,4.014,4.014,0,0,0,.728-1.335,5.525,5.525,0,0,0,.258-1.743,5.731,5.731,0,0,0-.258-1.766,3.887,3.887,0,0,0-.739-1.357,3.37,3.37,0,0,0-2.626-1.184" transform="translate(-20670.465 -19223.02)" fill="#006729"/>
    <path id="Trazado_9" data-name="Trazado 9" d="M231.337,378.753a4.574,4.574,0,0,1,1.533-1.56,4.086,4.086,0,0,1,2.175-.571,4.357,4.357,0,0,1,1.9.366A3.069,3.069,0,0,1,238.154,378a4.217,4.217,0,0,1,.643,1.55,9.514,9.514,0,0,1,.193,1.981v6.286h-1.758v-5.6a13.539,13.539,0,0,0-.1-1.691,3.976,3.976,0,0,0-.375-1.313,1.953,1.953,0,0,0-.793-.84,2.684,2.684,0,0,0-1.329-.291,3.273,3.273,0,0,0-1.308.259,2.682,2.682,0,0,0-1.029.785,3.893,3.893,0,0,0-.676,1.356,6.968,6.968,0,0,0-.246,1.97v5.361h-1.757v-7.686q0-.883-.022-1.733t-.086-1.539h1.694q.043.387.065.925c.014.359.021.682.021.969Z" transform="translate(-20702.133 -19223.02)" fill="#006729"/>
    <path id="Trazado_10" data-name="Trazado 10" d="M271.5,370.441h2.916v1.4H271.5v5.425a7.4,7.4,0,0,0,.085,1.174,2.46,2.46,0,0,0,.3.883,1.472,1.472,0,0,0,.579.549,1.958,1.958,0,0,0,.922.194,2.822,2.822,0,0,0,1.158-.259l.064,1.4a7.633,7.633,0,0,1-.761.182,4.36,4.36,0,0,1-.825.076,4.034,4.034,0,0,1-1.587-.269,2.4,2.4,0,0,1-1-.775,2.958,2.958,0,0,1-.515-1.206,7.856,7.856,0,0,1-.14-1.539v-5.834h-2.422v-1.4h2.422V367.9l1.715-.581Z" transform="translate(-20728.559 -19216.537)" fill="#006729"/>
    <path id="Trazado_11" data-name="Trazado 11" d="M301.069,365.368H299.1v-2.024h1.973Zm-.108,13.2H299.2V367.607h1.757Z" transform="translate(-20750.717 -19213.768)" fill="#006729"/>
    <path id="Trazado_12" data-name="Trazado 12" d="M325.149,376.859V387.3a7.02,7.02,0,0,1-.3,2.089,4.492,4.492,0,0,1-.932,1.679,4.358,4.358,0,0,1-1.619,1.12,6.206,6.206,0,0,1-2.379.409,11.538,11.538,0,0,1-2.048-.172,10.344,10.344,0,0,1-1.94-.56l.172-1.743a8.575,8.575,0,0,0,1.876.753,7.428,7.428,0,0,0,1.875.237,4.286,4.286,0,0,0,1.672-.291,2.928,2.928,0,0,0,1.126-.818,3.215,3.215,0,0,0,.631-1.281,6.646,6.646,0,0,0,.193-1.658v-.679a5.292,5.292,0,0,1,.043-.7h-.043a4.334,4.334,0,0,1-1.393,1.517,3.905,3.905,0,0,1-2.251.614,4.656,4.656,0,0,1-1.95-.4,4.347,4.347,0,0,1-1.5-1.109,5.039,5.039,0,0,1-.964-1.711,6.842,6.842,0,0,1-.343-2.228,7.264,7.264,0,0,1,.353-2.325,5.509,5.509,0,0,1,1-1.819,4.449,4.449,0,0,1,1.543-1.184,4.663,4.663,0,0,1,1.993-.42,4.049,4.049,0,0,1,2.2.56,3.93,3.93,0,0,1,1.382,1.463h.043q-.043-.517-.043-.936v-.85Zm-5.016,1.2a2.661,2.661,0,0,0-1.3.323,3.181,3.181,0,0,0-1.019.894,4.294,4.294,0,0,0-.664,1.345,6.244,6.244,0,0,0-.01,3.358,3.905,3.905,0,0,0,.643,1.292,2.871,2.871,0,0,0,1.008.829,2.932,2.932,0,0,0,1.318.291,2.987,2.987,0,0,0,1.34-.3,3.182,3.182,0,0,0,1.061-.851,3.979,3.979,0,0,0,.7-1.3,5.31,5.31,0,0,0,.246-1.658,5.413,5.413,0,0,0-.246-1.668,4.5,4.5,0,0,0-.675-1.335,3.082,3.082,0,0,0-1.05-.894,2.9,2.9,0,0,0-1.351-.323" transform="translate(-20761.867 -19223.02)" fill="#006729"/>
    <path id="Trazado_13" data-name="Trazado 13" d="M363.755,376.622a5.419,5.419,0,0,1,2.143.42,4.88,4.88,0,0,1,1.694,1.184,5.463,5.463,0,0,1,1.1,1.83,6.665,6.665,0,0,1,.4,2.336,6.4,6.4,0,0,1-.4,2.3,5.327,5.327,0,0,1-1.115,1.786,4.913,4.913,0,0,1-1.715,1.163,5.746,5.746,0,0,1-2.2.41,5.555,5.555,0,0,1-2.176-.42,5.109,5.109,0,0,1-1.715-1.163,5.3,5.3,0,0,1-1.126-1.787,6.26,6.26,0,0,1-.407-2.292,6.473,6.473,0,0,1,.407-2.347,5.527,5.527,0,0,1,1.126-1.819,4.909,4.909,0,0,1,1.737-1.184,5.822,5.822,0,0,1,2.24-.42m-.129,1.442a3.307,3.307,0,0,0-1.446.313,3.171,3.171,0,0,0-1.115.883,4.221,4.221,0,0,0-.718,1.367,5.726,5.726,0,0,0-.257,1.766,5.52,5.52,0,0,0,.257,1.743,3.878,3.878,0,0,0,.729,1.324,3.265,3.265,0,0,0,1.125.85,3.7,3.7,0,0,0,2.926,0,3.188,3.188,0,0,0,1.137-.861,4.015,4.015,0,0,0,.728-1.335,5.526,5.526,0,0,0,.258-1.743,5.731,5.731,0,0,0-.258-1.766,3.888,3.888,0,0,0-.74-1.357,3.37,3.37,0,0,0-2.626-1.184" transform="translate(-20792.002 -19223.02)" fill="#006729"/>
  </g>
</svg>
