<svg xmlns="http://www.w3.org/2000/svg" width="54" height="54" viewBox="0 0 54 54">
  <g id="Grupo_18643" data-name="Grupo 18643" transform="translate(-40 -485)">
    <path id="Trazado_11506" data-name="Trazado 11506" d="M0,0H54V54H0Z" transform="translate(40 485)" fill="none"/>
    <path id="Trazado_11507" data-name="Trazado 11507" d="M39.667,27.591v8.182H35.083V27.591h4.583m-27.5,0v8.182H9.875a2.186,2.186,0,0,1-2.292-2.045V27.591h4.583M23.625,1C12.235,1,3,9.243,3,19.409V33.727c0,3.4,3.071,6.136,6.875,6.136H16.75V23.5H7.583V19.409c0-7.916,7.173-14.318,16.042-14.318s16.042,6.4,16.042,14.318V23.5H30.5V39.864h9.167v2.045H23.625V46h13.75c3.8,0,6.875-2.741,6.875-6.136V19.409C44.25,9.243,35.015,1,23.625,1Z" transform="translate(43 489)" fill="#006c30"/>
  </g>
</svg>
