<svg xmlns="http://www.w3.org/2000/svg" width="120" height="120" viewBox="0 0 120 120">
  <g id="Grupo_22963" data-name="Grupo 22963" transform="translate(-173.969 -162)">
    <g id="Grupo_22930" data-name="Grupo 22930" transform="translate(173.969 162)">
      <g id="Grupo_15836" data-name="Grupo 15836" transform="translate(0 0)">
        <g id="Rect치ngulo_235" data-name="Rect치ngulo 235" transform="translate(0 0)">
          <rect id="Rect치ngulo_7532" data-name="Rect치ngulo 7532" width="120" height="120" transform="translate(0 0)" fill="none"/>
        </g>
      </g>
      <g id="Grupo_22903" data-name="Grupo 22903" transform="translate(20.82 20.357)">
        <g id="Grupo_22896" data-name="Grupo 22896" transform="translate(24.974 8.031)">
          <path id="Trazado_13305" data-name="Trazado 13305" d="M428.8,603.746a20.1,20.1,0,0,1-20.06-20.088,19.685,19.685,0,0,1,3.246-10.894,2.343,2.343,0,0,1,2.226-1.122A2.508,2.508,0,0,1,416.307,573c3.058,5.961,9.795,9.81,17.155,9.81a20.154,20.154,0,0,0,11.345-3.4,2.5,2.5,0,0,1,3.882,1.731,18.254,18.254,0,0,1,.178,2.519A20.1,20.1,0,0,1,428.8,603.746Zm-14.37-24.566a14.878,14.878,0,0,0-.681,4.478,15.052,15.052,0,0,0,29.968,2.043,25.559,25.559,0,0,1-10.258,2.114A24.818,24.818,0,0,1,414.434,579.18Z" transform="translate(-408.744 -571.629)" fill="#006729"/>
        </g>
        <g id="Grupo_22897" data-name="Grupo 22897" transform="translate(27.803)">
          <path id="Trazado_13306" data-name="Trazado 13306" d="M431.763,592.64c-9.219,0-17.7-4.919-21.613-12.53a2.506,2.506,0,0,1,.123-2.5A20.032,20.032,0,0,1,447,586.005a2.505,2.505,0,0,1-1.082,2.374A25.146,25.146,0,0,1,431.763,592.64Zm-16.414-13.526a19.42,19.42,0,0,0,16.414,8.517,20.3,20.3,0,0,0,9.993-2.564,15.026,15.026,0,0,0-26.407-5.953Z" transform="translate(-409.874 -568.422)" fill="#006729"/>
        </g>
        <g id="Grupo_22898" data-name="Grupo 22898" transform="translate(28.903 39.079)">
          <path id="Trazado_13307" data-name="Trazado 13307" d="M425.941,608.271a15.644,15.644,0,0,1-15.628-15.628V586.53a2.5,2.5,0,0,1,5.009,0v6.113a10.616,10.616,0,1,0,21.232,0V586.53a2.5,2.5,0,0,1,5.009,0v6.113A15.643,15.643,0,0,1,425.941,608.271Z" transform="translate(-410.313 -584.026)" fill="#006729"/>
        </g>
        <g id="Grupo_22899" data-name="Grupo 22899" transform="translate(55.143 45.193)">
          <path id="Trazado_13308" data-name="Trazado 13308" d="M441.659,620.214c-.085,0-.17-.005-.258-.012a2.507,2.507,0,0,1-2.236-2.742h0c.075-.769,1.633-18.954-16.78-26.154a2.5,2.5,0,1,1,1.823-4.666c22.016,8.61,19.963,31.1,19.94,31.328A2.506,2.506,0,0,1,441.659,620.214Z" transform="translate(-420.79 -586.467)" fill="#006729"/>
        </g>
        <g id="Grupo_22900" data-name="Grupo 22900" transform="translate(9.857 51.729)">
          <path id="Trazado_13309" data-name="Trazado 13309" d="M405.213,616.763a2.5,2.5,0,0,1-2.5-2.479c-.008-.764-.032-18.793,10.749-24.886a2.505,2.505,0,1,1,2.464,4.363c-8.212,4.638-8.2,20.326-8.2,20.483a2.5,2.5,0,0,1-2.484,2.52Z" transform="translate(-402.708 -589.077)" fill="#006729"/>
        </g>
        <g id="Grupo_22901" data-name="Grupo 22901" transform="translate(13.161 30.222)">
          <path id="Trazado_13310" data-name="Trazado 13310" d="M429.71,629.207H418.9a8.707,8.707,0,0,1-8.7-8.7V594.736c0-8.159-4.06-9.254-4.232-9.3a2.535,2.535,0,0,1-1.886-2.97,2.479,2.479,0,0,1,2.873-1.939c.338.065,8.255,1.7,8.255,14.205v25.775A3.69,3.69,0,0,0,418.9,624.2H429.71a3.69,3.69,0,0,0,3.686-3.687v-8.244a2.5,2.5,0,0,1,5.009,0v8.244A8.707,8.707,0,0,1,429.71,629.207Z" transform="translate(-404.027 -580.489)" fill="#006729"/>
        </g>
        <g id="Grupo_22902" data-name="Grupo 22902" transform="translate(0 22.437)">
          <path id="Trazado_13311" data-name="Trazado 13311" d="M407.893,595.623a9.121,9.121,0,1,1,9.121-9.121A9.132,9.132,0,0,1,407.893,595.623Zm0-13.233a4.112,4.112,0,1,0,4.112,4.112A4.118,4.118,0,0,0,407.893,582.39Z" transform="translate(-398.772 -577.381)" fill="red"/>
        </g>
      </g>
    </g>
  </g>
</svg>
