<svg id="Group_19737" data-name="Group 19737" xmlns="http://www.w3.org/2000/svg" xmlns:xlink="http://www.w3.org/1999/xlink" width="89.825" height="94" viewBox="0 0 89.825 94">
  <defs>
    <clipPath id="clip-path">
      <rect id="Rectangle_6381" data-name="Rectangle 6381" width="89.825" height="94"/>
    </clipPath>
  </defs>
  <g id="Group_19736" data-name="Group 19736" opacity="0.2" clip-path="url(#clip-path)">
    <path id="Path_11190" data-name="Path 11190" d="M67.835,91.124H3.876A3.873,3.873,0,0,1,0,87.247V4.876A3.873,3.873,0,0,1,3.876,1H67.835a3.873,3.873,0,0,1,3.876,3.876V29.588a3.876,3.876,0,0,1-7.753,0V8.753H7.753V83.371H63.959V52.035a3.876,3.876,0,0,1,7.753,0V87.247a3.873,3.873,0,0,1-3.876,3.876" transform="translate(0 2.876)"/>
    <path id="Path_11191" data-name="Path 11191" d="M38.152,16.474H11.987A8.237,8.237,0,0,1,11.987,0H38.152a8.237,8.237,0,1,1,0,16.474M11.987,7.753a.485.485,0,0,0,0,.969H38.152a.485.485,0,1,0,0-.969Z" transform="translate(10.786)"/>
    <path id="Path_11192" data-name="Path 11192" d="M23.008,57.543a4.305,4.305,0,0,1-.492-.031L9.98,55.9a3.875,3.875,0,0,1-3.264-4.791L9.79,38.844a3.859,3.859,0,0,1,1.574-2.26L55.321,6.593a3.882,3.882,0,0,1,5.392,1.023l9.454,13.865a3.869,3.869,0,0,1-1.012,5.388l-43.957,30a3.922,3.922,0,0,1-2.19.674m-7.714-8.78,6.745.872L61.581,22.657l-5.093-7.47L16.953,42.162Z" transform="translate(18.98 17.033)"/>
    <path id="Path_11193" data-name="Path 11193" d="M27.964,24.206a1.929,1.929,0,0,1-1.6-.845L17.851,10.887a1.939,1.939,0,1,1,3.2-2.186l8.516,12.474a1.938,1.938,0,0,1-1.6,3.031" transform="translate(50.379 22.6)"/>
    <path id="Path_11194" data-name="Path 11194" d="M11.64,36.787a1.938,1.938,0,0,1-1.089-3.539L44.867,9.839a1.94,1.94,0,1,1,2.19,3.2L12.737,36.45a1.951,1.951,0,0,1-1.1.337" transform="translate(27.91 27.342)"/>
    <path id="Path_11195" data-name="Path 11195" d="M9.452,16.3c-.1,0-.205.008-.31.008H9.1l-1.492,5.95,5.838.74c.093-.205.19-.419.267-.643A4.6,4.6,0,0,0,9.58,16.308c-.047,0-.081,0-.128,0" transform="translate(21.891 46.895)"/>
    <path id="Path_11196" data-name="Path 11196" d="M14.889,26.37a1.652,1.652,0,0,1-.244-.016l-5.838-.736a1.936,1.936,0,0,1-1.64-2.392l1.488-5.95a2,2,0,0,1,1.93-1.469l.616,0a6.528,6.528,0,0,1,5.814,8.508,9.705,9.705,0,0,1-.372.926,1.928,1.928,0,0,1-1.756,1.124m-3.431-4.326,1.977.248a2.714,2.714,0,0,0-.446-1.465,2.631,2.631,0,0,0-1.008-.849Z" transform="translate(20.452 45.461)"/>
  </g>
</svg>
