<svg id="Group_21824" data-name="Group 21824" xmlns="http://www.w3.org/2000/svg" width="106" height="106" viewBox="0 0 106 106">
  <g id="Group_16448" data-name="Group 16448">
    <g id="Grupo_16444" data-name="Grupo 16444" transform="translate(0 0)">
      <g id="Grupo_16433" data-name="Grupo 16433">
        <g id="Grupo_16430" data-name="Grupo 16430">
          <g id="Grupo_16428" data-name="Grupo 16428">
            <g id="Grupo_16388" data-name="Grupo 16388">
              <g id="Grupo_16386" data-name="Grupo 16386">
                <g id="Grupo_16384" data-name="Grupo 16384">
                  <g id="Grupo_16381" data-name="Grupo 16381">
                    <g id="Grupo_16378" data-name="Grupo 16378">
                      <g id="Grupo_16375" data-name="Grupo 16375">
                        <g id="Grupo_16321" data-name="Grupo 16321">
                          <g id="Grupo_16277" data-name="Grupo 16277">
                            <g id="Grupo_16269" data-name="Grupo 16269">
                              <g id="Grupo_16259" data-name="Grupo 16259">
                                <g id="Grupo_16234" data-name="Grupo 16234">
                                  <g id="Grupo_16193" data-name="Grupo 16193">
                                    <g id="Grupo_15839" data-name="Grupo 15839">
                                      <g id="Grupo_15836" data-name="Grupo 15836">
                                        <g id="Rectángulo_235" data-name="Rectángulo 235">
                                          <rect id="Rectangle_7152" data-name="Rectangle 7152" width="106" height="106" fill="none"/>
                                        </g>
                                      </g>
                                    </g>
                                  </g>
                                </g>
                              </g>
                            </g>
                          </g>
                        </g>
                      </g>
                    </g>
                  </g>
                </g>
              </g>
            </g>
          </g>
        </g>
      </g>
    </g>
    <g id="Grupo_16447" data-name="Grupo 16447" transform="translate(16.707 23.144)">
      <g id="streamline-icon-factory-manufacturing-control_50x50" data-name="streamline-icon-factory-manufacturing-control 50x50" transform="translate(0 21.563)">
        <g id="Trazado_4791" data-name="Trazado 4791" transform="translate(0 11.084)">
          <path id="Path_12418" data-name="Path 12418" d="M488.539,675.069a2.222,2.222,0,0,1-2.175-1.788l-1.848-9.26-1.924,2.137a14.248,14.248,0,0,1-10.6,4.735c-.246.013-.6-.009-.906-.027a14.162,14.162,0,0,1-10.855-6.078l-4.47-6.741a7.4,7.4,0,1,1,12.177-8.417l4.077,6.147,9.318-10.326a7.367,7.367,0,0,1,5.005-2.395,2.2,2.2,0,0,1,.489-.056h20.166a9.134,9.134,0,0,1,8.971,7.445l4.115,21.994a2.222,2.222,0,1,1-4.368.815L511.6,651.262a4.688,4.688,0,0,0-4.6-3.819H487.246a2.557,2.557,0,0,1-.442.045,2.763,2.763,0,0,0-2.179.946l-9.74,10.8a3.944,3.944,0,0,1-6.158-.373l-4.479-6.75a2.959,2.959,0,0,0-4.885,3.341l4.546,6.843a9.716,9.716,0,0,0,7.44,4.141c.22.013.482.011.64.018a9.8,9.8,0,0,0,7.3-3.259l4.892-5.432a2.221,2.221,0,0,1,3.828,1.051l2.713,13.6a2.218,2.218,0,0,1-1.742,2.613A2.122,2.122,0,0,1,488.539,675.069Z" transform="translate(-454.408 -643)" fill="#006c30"/>
        </g>
        <g id="Trazado_4792" data-name="Trazado 4792" transform="translate(0.866)">
          <path id="Path_12419" data-name="Path 12419" d="M466.489,660.158a2.22,2.22,0,0,1-1.915-1.091l-9.466-16.023a2.223,2.223,0,0,1,2.157-3.339l13.821,1.537,6.478-3.026a2.223,2.223,0,0,1,1.882,4.028l-7.045,3.288a2.221,2.221,0,0,1-1.186.2l-10.02-1.115,7.2,12.195a2.218,2.218,0,0,1-1.911,3.35Z" transform="translate(-454.798 -638.011)" fill="red"/>
        </g>
      </g>
      <g id="streamline-icon-professions-man-construction-1_50x50" data-name="streamline-icon-professions-man-construction-1 50x50" transform="translate(21.115)">
        <g id="Trazado_4865" data-name="Trazado 4865">
          <path id="Path_12420" data-name="Path 12420" d="M482.618,661.89c-10.315,0-18.706-7.534-18.706-16.793s8.391-16.791,18.706-16.791,18.706,7.531,18.706,16.791S492.933,661.89,482.618,661.89Zm0-29.141c-7.865,0-14.263,5.539-14.263,12.348s6.4,12.35,14.263,12.35,14.263-5.539,14.263-12.35S490.483,632.748,482.618,632.748Z" transform="translate(-463.912 -628.305)" fill="#006c30"/>
        </g>
      </g>
    </g>
  </g>
</svg>
