<?xml version="1.0" encoding="UTF-8"?>
<svg id="Capa_2" data-name="Capa 2" xmlns="http://www.w3.org/2000/svg" viewBox="0 0 36.21 64.2">
  <defs>
    <style>
      .cls-1 {
        fill: #006729;
      }

      .cls-1, .cls-2 {
        stroke-width: 0px;
      }

      .cls-2 {
        fill: red;
      }
    </style>
  </defs>
  <g id="Capa_18" data-name="Capa 18">
    <path class="cls-1" d="M13.23,42.24c-.25,0-.49-.07-.71-.2-.41-.25-.66-.69-.66-1.17v-2.02s0-.03-.02-.03c-2.55-1.81-4.01-4.5-4.01-7.4,0-5.21,4.77-9.46,10.64-9.46s10.64,4.24,10.64,9.46-4.77,9.46-10.64,9.46c-.65,0-1.31-.05-1.94-.16-.01,0-.03,0-.03,0l-2.64,1.37c-.2.1-.42.16-.63.16ZM18.47,23.29c-5.14,0-9.31,3.65-9.31,8.13,0,2.46,1.26,4.76,3.45,6.32.36.26.58.67.58,1.11v2.02s0,.03.02.04c.02.01.04,0,.04,0l2.64-1.37c.26-.14.56-.18.86-.13.57.09,1.15.14,1.73.14,5.14,0,9.31-3.65,9.31-8.13s-4.18-8.13-9.31-8.13Z"/>
    <path class="cls-2" d="M13.53,33.04c-1,0-1.82-.81-1.82-1.82s.81-1.82,1.82-1.82,1.82.81,1.82,1.82-.81,1.82-1.82,1.82ZM13.53,30.2c-.56,0-1.02.46-1.02,1.02s.46,1.02,1.02,1.02,1.02-.46,1.02-1.02-.46-1.02-1.02-1.02Z"/>
    <path class="cls-2" d="M18.56,33.04c-1,0-1.82-.81-1.82-1.82s.81-1.82,1.82-1.82,1.82.81,1.82,1.82-.81,1.82-1.82,1.82ZM18.56,30.2c-.56,0-1.02.46-1.02,1.02s.46,1.02,1.02,1.02,1.02-.46,1.02-1.02-.46-1.02-1.02-1.02Z"/>
    <path class="cls-2" d="M23.59,33.04c-1,0-1.82-.81-1.82-1.82s.81-1.82,1.82-1.82,1.82.81,1.82,1.82-.81,1.82-1.82,1.82ZM23.59,30.2c-.56,0-1.02.46-1.02,1.02s.46,1.02,1.02,1.02,1.02-.46,1.02-1.02-.46-1.02-1.02-1.02Z"/>
    <path class="cls-1" d="M29.4,64.2H6.81c-3.76,0-6.81-3.06-6.81-6.81V6.81C0,3.06,3.06,0,6.81,0h22.58c3.76,0,6.81,3.06,6.81,6.81v50.57c0,3.76-3.06,6.81-6.81,6.81ZM6.81,1.32C3.79,1.32,1.32,3.79,1.32,6.81v50.57c0,3.03,2.46,5.49,5.49,5.49h22.58c3.03,0,5.49-2.46,5.49-5.49V6.81c0-3.03-2.46-5.49-5.49-5.49H6.81Z"/>
    <path class="cls-1" d="M23.84,5.25h-11.47c-.37,0-.66-.3-.66-.66s.3-.66.66-.66h11.47c.37,0,.66.3.66.66s-.3.66-.66.66Z"/>
    <path class="cls-1" d="M18.11,61.2c-1.78,0-3.22-1.44-3.22-3.22s1.44-3.22,3.22-3.22,3.22,1.44,3.22,3.22-1.44,3.22-3.22,3.22ZM18.11,56.08c-1.04,0-1.89.85-1.89,1.89s.85,1.9,1.89,1.9,1.89-.85,1.89-1.9-.85-1.89-1.89-1.89Z"/>
  </g>
</svg>