<?xml version="1.0" encoding="UTF-8"?><svg id="Layer_7" xmlns="http://www.w3.org/2000/svg" xmlns:xlink="http://www.w3.org/1999/xlink" viewBox="0 0 32 32"><defs><style>.cls-1{fill:#fff;}.cls-2{fill:#096d33;}.cls-3{clip-path:url(#clippath);}.cls-4{fill:#fe0707;}.cls-5{fill:none;}</style><clipPath id="clippath"><rect class="cls-5" x=".68" y="4.02" width="30.64" height="23.96"/></clipPath></defs><g id="Group_19087"><ellipse id="Ellipse_1287" class="cls-1" cx="8.36" cy="19.38" rx="2.55" ry=".96"/><circle id="Ellipse_1288" class="cls-1" cx="26.84" cy="13.32" r="3.82"/><g id="Group_19086"><g id="Group_19086-2"><g class="cls-3"><g id="Group_19086-3"><path id="Path_11654" class="cls-2" d="M5.53,19.95c-1.42,0-2.64-1-2.94-2.39L.74,8.76c-.33-1.58,.64-3.13,2.2-3.53l1.36-.35,.33,1.3-1.36,.35c-.86,.22-1.4,1.08-1.21,1.95l1.85,8.8c.16,.77,.84,1.31,1.62,1.32v1.35Z"/><path id="Path_11655" class="cls-2" d="M11.03,19.93l-.16-1.34c.71-.08,1.28-.61,1.42-1.3l1.84-8.79c.18-.87-.35-1.73-1.22-1.95l-1.4-.35,.33-1.31,1.4,.35c1.57,.39,2.54,1.95,2.21,3.53l-1.84,8.79c-.26,1.26-1.3,2.21-2.58,2.36"/><path id="Path_11656" class="cls-2" d="M6.33,5.52c0,.83-.67,1.5-1.5,1.5-.83,0-1.5-.67-1.5-1.5,0-.83,.67-1.5,1.5-1.5,0,0,0,0,0,0,.83,0,1.5,.67,1.5,1.5"/><path id="Path_11657" class="cls-2" d="M13.37,5.52c0,.83-.67,1.5-1.5,1.5-.83,0-1.5-.67-1.5-1.5,0-.83,.67-1.5,1.5-1.5,0,0,0,0,0,0,.83,0,1.5,.67,1.5,1.5h0"/><path id="Path_11658" class="cls-2" d="M6.57,18.81c-.28-.03-.53,.18-.56,.46s.18,.53,.46,.56c.03,0,.07,0,.1,0h3.2c.28,.03,.53-.18,.56-.46,.03-.28-.18-.53-.46-.56-.03,0-.07,0-.1,0h-3.2Zm3.2,2.36h-3.2c-1.02,0-1.85-.83-1.85-1.85,0-1.02,.83-1.85,1.85-1.85h3.2c1.02,0,1.85,.83,1.85,1.85s-.83,1.85-1.85,1.85"/><path id="Path_11659" class="cls-2" d="M15.61,27.98h-5.37c-1.52,0-2.74-1.23-2.74-2.74v-4.75h1.35v4.75c0,.77,.63,1.4,1.4,1.4h5.37c.77,0,1.4-.63,1.4-1.4V15.87c0-1.52,1.23-2.74,2.74-2.74h3.72v1.35h-3.72c-.77,0-1.4,.63-1.4,1.4v9.36c0,1.52-1.23,2.74-2.74,2.74"/><path id="Path_11660" class="cls-2" d="M26.97,10.62c-1.66,0-3.01,1.35-3.01,3.01,0,1.66,1.35,3.01,3.01,3.01s3.01-1.35,3.01-3.01h0c0-1.66-1.35-3-3.01-3.01m0,7.36c-2.4,0-4.35-1.95-4.35-4.35s1.95-4.35,4.35-4.35,4.35,1.95,4.35,4.35h0c0,2.4-1.95,4.35-4.35,4.35"/><path id="Path_11661" class="cls-4" d="M26.97,12.63c-.55,0-.99,.44-.99,.99s.44,.99,.99,.99,.99-.44,.99-.99h0c0-.54-.44-.99-.99-.99m0,3.32c-1.29,0-2.33-1.04-2.34-2.33,0-1.29,1.04-2.33,2.33-2.34,1.29,0,2.33,1.04,2.34,2.33,0,0,0,0,0,0,0,1.29-1.05,2.33-2.33,2.33"/></g></g></g></g></g></svg>