<svg xmlns="http://www.w3.org/2000/svg" xmlns:xlink="http://www.w3.org/1999/xlink" width="67.328" height="70.639" viewBox="0 0 67.328 70.639">
  <defs>
    <clipPath id="clip-path">
      <rect id="Rectangle_7235" data-name="Rectangle 7235" width="67.328" height="70.639" fill="none"/>
    </clipPath>
  </defs>
  <g id="Group_22078" data-name="Group 22078" clip-path="url(#clip-path)">
    <path id="Path_12760" data-name="Path 12760" d="M17.765,18.344c-1.793,0-3.131-.969-3.131-1.814s1.338-1.8,3.228-1.8A3.549,3.549,0,0,1,20.811,16.1l.012.017a2.168,2.168,0,1,0,3.422-2.663,7.834,7.834,0,0,0-4.294-2.811v-1.9c0-.043,0-.087,0-.13a2.168,2.168,0,1,0-4.333.13V10.68c-3.1.742-5.316,3.026-5.316,5.85,0,3.448,3.281,6.147,7.464,6.147,1.793,0,3.131.963,3.131,1.793,0,.777-1.2,1.666-2.871,1.779a1.9,1.9,0,0,0-.315-.054,1.779,1.779,0,0,0-.249.058,3.552,3.552,0,0,1-2.748-1.381A2.168,2.168,0,0,0,11.268,27.5a7.85,7.85,0,0,0,4.341,2.859v1.892a2.165,2.165,0,0,0,2.168,2.164l.01,0h0a2.165,2.165,0,0,0,2.154-2.177V30.307c3.049-.771,5.287-3.082,5.287-5.837,0-3.434-3.279-6.126-7.464-6.126" transform="translate(9.707 6.136)" fill="red"/>
    <path id="Path_12761" data-name="Path 12761" d="M64.107,70.639a3.212,3.212,0,0,1-2.381-1.059L43.933,50.008l-1.1.705a27.448,27.448,0,0,1-11.188,4.122,28.648,28.648,0,0,1-3.809.26A27.963,27.963,0,0,1,.313,31.1,25.994,25.994,0,0,1,5.854,10.642a27.648,27.648,0,0,1,45.7,3.115l.445.8a25.98,25.98,0,0,1-.62,27.52,28.342,28.342,0,0,1-1.845,2.595l-.825,1.037,17.8,19.578a3.215,3.215,0,0,1-2.3,5.355ZM27.619,6.147a21.423,21.423,0,0,0-16.941,8.325A19.886,19.886,0,0,0,6.413,30.2a21.63,21.63,0,0,0,39.794,8.556,20.109,20.109,0,0,0,.486-21.113l-.453-.8A21.681,21.681,0,0,0,28.414,6.167L28.4,6.147Z" transform="translate(0 -0.001)" fill="#006729"/>
  </g>
</svg>
