<svg xmlns="http://www.w3.org/2000/svg" xmlns:xlink="http://www.w3.org/1999/xlink" width="41.029" height="42.132" viewBox="0 0 41.029 42.132">
  <defs>
    <clipPath id="clip-path">
      <rect id="Rectángulo_7072" data-name="Rectángulo 7072" width="18.697" height="18.697" fill="none"/>
    </clipPath>
  </defs>
  <g id="Grupo_21280" data-name="Grupo 21280" transform="translate(-1008.998 -579.73)">
    <g id="Grupo_21276" data-name="Grupo 21276" transform="translate(1010.498 600.962)">
      <path id="Trazado_3621" data-name="Trazado 3621" d="M1010.5,595.188v19.4" transform="translate(-1010.498 -595.188)" fill="none" stroke="#006c30" stroke-linecap="round" stroke-linejoin="round" stroke-width="3"/>
      <path id="Trazado_3622" data-name="Trazado 3622" d="M1010.5,611.878h34.169a7.055,7.055,0,0,0-7.056-7.054h-8.3a7.055,7.055,0,0,0-7.056-7.054H1010.5" transform="translate(-1010.498 -594.242)" fill="none" stroke="#006c30" stroke-linecap="round" stroke-linejoin="round" stroke-width="3"/>
      <path id="Trazado_3623" data-name="Trazado 3623" d="M1019.532,602.932h7.055" transform="translate(-1007.187 -592.349)" fill="none" stroke="#006c30" stroke-linecap="round" stroke-linejoin="round" stroke-width="3"/>
    </g>
    <g id="Grupo_21279" data-name="Grupo 21279" transform="translate(1027.335 584.202)">
      <g id="Grupo_21278" data-name="Grupo 21278" transform="translate(0 0)" clip-path="url(#clip-path)">
        <g id="Group_21146" data-name="Group 21146" transform="translate(6.787 2.923)">
          <g id="Grupo_21277" data-name="Grupo 21277">
            <path id="Path_12116" data-name="Path 12116" d="M1027.635,595.65c2.968,3.685,8.35-2.22,2.423-2.88s-.57-6.567,2.418-2.907" transform="translate(-1027.392 -586.55)" fill="none" stroke="red" stroke-linecap="round" stroke-linejoin="round" stroke-width="2.5"/>
            <line id="Line_21" data-name="Line 21" y2="1.933" transform="translate(2.666)" fill="none" stroke="red" stroke-linecap="round" stroke-linejoin="round" stroke-width="2.5"/>
            <line id="Line_22" data-name="Line 22" y2="1.933" transform="translate(2.666 10.378)" fill="none" stroke="red" stroke-linecap="round" stroke-linejoin="round" stroke-width="2.5"/>
          </g>
        </g>
      </g>
    </g>
    <path id="Trazado_12176" data-name="Trazado 12176" d="M1021.457,589.709a11.936,11.936,0,1,1,6.611,16.45" transform="translate(4.392 -1.774)" fill="none" stroke="#006729" stroke-linecap="round" stroke-linejoin="round" stroke-width="3"/>
    <circle id="Elipse_1311" data-name="Elipse 1311" cx="1.361" cy="1.361" r="1.361" transform="translate(1022.752 590.828)" fill="#006729" stroke="#006729" stroke-width="0.5"/>
  </g>
</svg>
