<svg id="post_add_black_24dp" xmlns="http://www.w3.org/2000/svg" width="24" height="24" viewBox="0 0 24 24">
  <g id="Grupo_18827" data-name="Grupo 18827">
    <rect id="Rectángulo_6435" data-name="Rectángulo 6435" width="24" height="24" fill="none"/>
  </g>
  <g id="Grupo_18829" data-name="Grupo 18829">
    <g id="Grupo_18828" data-name="Grupo 18828">
      <path id="Trazado_11539" data-name="Trazado 11539" d="M17,19.22H5V7h7V5H5A2.006,2.006,0,0,0,3,7V19a2.006,2.006,0,0,0,2,2H17a2.006,2.006,0,0,0,2-2V12H17Z" fill="#fff"/>
      <path id="Trazado_11540" data-name="Trazado 11540" d="M19,2H17V5H14c.01.01,0,2,0,2h3V9.99c.01.01,2,0,2,0V7h3V5H19Z" fill="#fff"/>
      <rect id="Rectángulo_6436" data-name="Rectángulo 6436" width="8" height="2" transform="translate(7 9)" fill="#fff"/>
      <path id="Trazado_11541" data-name="Trazado 11541" d="M7,12v2h8V12H7Z" fill="#fff"/>
      <rect id="Rectángulo_6437" data-name="Rectángulo 6437" width="8" height="2" transform="translate(7 15)" fill="#fff"/>
    </g>
  </g>
</svg>
