<svg xmlns="http://www.w3.org/2000/svg" width="33.801" height="35.884" viewBox="0 0 33.801 35.884">
  <g id="Grupo_23022" data-name="Grupo 23022" transform="translate(-349.145 -558.988)">
    <g id="streamline-icon-legal-hammer_50x50" data-name="streamline-icon-legal-hammer 50x50" transform="translate(351.948 558.988)">
      <g id="Trazado_5363" data-name="Trazado 5363" transform="translate(11.456 11.387)">
        <path id="Trazado_13261" data-name="Trazado 13261" d="M377.6,589.095a2.972,2.972,0,0,1-2.075-.84l-.033-.032-12.821-13.586a1.078,1.078,0,1,1,1.568-1.48l12.772,13.535.01.009a.814.814,0,0,0,.58.24h0a.82.82,0,0,0,.582-.242l1.342-1.343a.83.83,0,0,0,0-1.171l-13.549-12.771a1.077,1.077,0,1,1,1.478-1.568l13.573,12.793a3,3,0,0,1,.025,4.24l-1.343,1.343A2.967,2.967,0,0,1,377.6,589.095Z" transform="translate(-362.373 -569.552)" fill="#9d9d9d"/>
      </g>
      <g id="Trazado_5364" data-name="Trazado 5364">
        <path id="Trazado_13262" data-name="Trazado 13262" d="M359.83,580.833a2.965,2.965,0,0,1-2.107-.871l-.027-.029-5.079-5.079a2.988,2.988,0,0,1,0-4.218,1.123,1.123,0,0,1,.24-.18A26.594,26.594,0,0,0,363.214,560.1a1.1,1.1,0,0,1,.178-.238,2.963,2.963,0,0,1,2.106-.875h0a2.956,2.956,0,0,1,2.091.858.269.269,0,0,1,.026.025l5.1,5.1a2.984,2.984,0,0,1,0,4.209,1.121,1.121,0,0,1-.258.192,25.206,25.206,0,0,0-10.336,10.335,1.123,1.123,0,0,1-.186.252,2.968,2.968,0,0,1-2.108.874Zm-.267-1.634h0Zm-.3-.746a.824.824,0,0,0,1.055.064,27.356,27.356,0,0,1,10.953-10.952.821.821,0,0,0-.079-1.069l-5.109-5.109h0a.819.819,0,0,0-.581-.24h0a.816.816,0,0,0-.491.164,28.757,28.757,0,0,1-10.945,10.945.825.825,0,0,0,.077,1.078l5.1,5.1Z" transform="translate(-351.745 -558.988)" fill="#9d9d9d"/>
      </g>
    </g>
    <g id="Grupo_22874" data-name="Grupo 22874" transform="translate(350.962 587.992)">
      <path id="Trazado_13263" data-name="Trazado 13263" d="M367.8,591.7a1.077,1.077,0,0,1-1.078-1.078,2.572,2.572,0,0,0-2.57-2.571h-8.6a2.572,2.572,0,0,0-2.571,2.571,1.078,1.078,0,0,1-2.156,0,4.732,4.732,0,0,1,4.727-4.726h8.6a4.731,4.731,0,0,1,4.725,4.726A1.077,1.077,0,0,1,367.8,591.7Z" transform="translate(-350.831 -585.896)" fill="#9d9d9d"/>
    </g>
    <g id="Grupo_22875" data-name="Grupo 22875" transform="translate(349.145 592.716)">
      <path id="Trazado_13264" data-name="Trazado 13264" d="M369.753,592.435h-19.53a1.078,1.078,0,1,1,0-2.156h19.53a1.078,1.078,0,1,1,0,2.156Z" transform="translate(-349.145 -590.279)" fill="#9d9d9d"/>
    </g>
  </g>
</svg>
