<svg id="receipt_long_black_24dp" xmlns="http://www.w3.org/2000/svg" width="24" height="24" viewBox="0 0 24 24">
  <path id="Trazado_11542" data-name="Trazado 11542" d="M0,0H24V24H0Z" fill="none"/>
  <g id="Grupo_18830" data-name="Grupo 18830">
    <path id="Trazado_11543" data-name="Trazado 11543" d="M19.5,3.5,18,2,16.5,3.5,15,2,13.5,3.5,12,2,10.5,3.5,9,2,7.5,3.5,6,2V16H3v3a3,3,0,0,0,3,3H18a3,3,0,0,0,3-3V2ZM15,20H6a1,1,0,0,1-1-1V18H15Zm4-1a1,1,0,0,1-2,0V16H8V5H19Z" fill="#fff"/>
    <rect id="Rectángulo_6438" data-name="Rectángulo 6438" width="6" height="2" transform="translate(9 7)" fill="#fff"/>
    <rect id="Rectángulo_6439" data-name="Rectángulo 6439" width="2" height="2" transform="translate(16 7)" fill="#fff"/>
    <rect id="Rectángulo_6440" data-name="Rectángulo 6440" width="6" height="2" transform="translate(9 10)" fill="#fff"/>
    <rect id="Rectángulo_6441" data-name="Rectángulo 6441" width="2" height="2" transform="translate(16 10)" fill="#fff"/>
  </g>
</svg>
