<svg id="Grupo_19711" data-name="Grupo 19711" xmlns="http://www.w3.org/2000/svg" xmlns:xlink="http://www.w3.org/1999/xlink" width="169.86" height="185" viewBox="0 0 169.86 185">
  <defs>
    <clipPath id="clip-path">
      <rect id="Rectángulo_6315" data-name="Rectángulo 6315" width="169.86" height="185" fill="none"/>
    </clipPath>
  </defs>
  <rect id="Rectángulo_6313" data-name="Rectángulo 6313" width="25.168" height="25.168" transform="translate(72.346 55.037)" fill="#e60018"/>
  <g id="Grupo_19710" data-name="Grupo 19710">
    <g id="Grupo_19709" data-name="Grupo 19709" clip-path="url(#clip-path)">
      <path id="Trazado_1" data-name="Trazado 1" d="M140.867,4.746l-22.44,22.44H186.22l-22.44-22.44a16.2,16.2,0,0,0-22.914,0" transform="translate(-67.394 0)" fill="#65a518"/>
      <path id="Trazado_2" data-name="Trazado 2" d="M140.867,273.195a16.2,16.2,0,0,0,22.914,0l22.44-22.44H118.427Z" transform="translate(-67.394 -142.698)" fill="#65a518"/>
      <path id="Trazado_3" data-name="Trazado 3" d="M313.361,100.7l-22.44-22.44v67.793l22.44-22.44a16.2,16.2,0,0,0,0-22.914" transform="translate(-165.556 -44.536)" fill="#00a3a8"/>
      <path id="Trazado_4" data-name="Trazado 4" d="M44.913,123.614l22.44,22.44V78.26L44.913,100.7a16.2,16.2,0,0,0,0,22.914" transform="translate(-22.858 -44.536)" fill="#00a3a8"/>
      <path id="Trazado_5" data-name="Trazado 5" d="M0,363.983H4.345v8.506h8.567v-8.506h4.314V385.34H12.912V376.1H4.345v9.24H0Z" transform="translate(0 -207.133)" fill="#65a518"/>
      <path id="Trazado_6" data-name="Trazado 6" d="M57.749,363.984a21,21,0,0,1,5,.566,10.817,10.817,0,0,1,4.008,1.851,8.655,8.655,0,0,1,2.648,3.335,11.915,11.915,0,0,1,.948,5.018,10.889,10.889,0,0,1-.979,4.819,9.036,9.036,0,0,1-2.677,3.29,11.21,11.21,0,0,1-3.993,1.881,19.619,19.619,0,0,1-4.957.6H51.9V363.984Zm-1.53,18.083H57.35a13.965,13.965,0,0,0,3.335-.383,7.414,7.414,0,0,0,2.709-1.239,6,6,0,0,0,1.82-2.264,7.979,7.979,0,0,0,.674-3.457,8.33,8.33,0,0,0-.674-3.565,5.977,5.977,0,0,0-1.82-2.28,6.913,6.913,0,0,0-2.709-1.193,15.785,15.785,0,0,0-3.335-.336H56.218Z" transform="translate(-29.537 -207.134)" fill="#65a518"/>
      <rect id="Rectángulo_6314" data-name="Rectángulo 6314" width="4.314" height="21.357" transform="translate(44.856 156.85)" fill="#65a518"/>
      <path id="Trazado_7" data-name="Trazado 7" d="M156.668,366.7a9.57,9.57,0,0,0-4.436-.948,9.013,9.013,0,0,0-3.458.642,7.847,7.847,0,0,0-4.421,4.483,9.235,9.235,0,0,0-.627,3.442,9.4,9.4,0,0,0,.643,3.549,7.848,7.848,0,0,0,1.8,2.724,7.969,7.969,0,0,0,2.784,1.744,9.99,9.99,0,0,0,3.55.611,13.17,13.17,0,0,0,2.111-.169,9.711,9.711,0,0,0,2.2-.657l.183,2.478a10.309,10.309,0,0,1-2.142.505,17.626,17.626,0,0,1-2.387.168,14.069,14.069,0,0,1-4.651-.735,10.292,10.292,0,0,1-3.641-2.142,9.551,9.551,0,0,1-2.371-3.442,12.028,12.028,0,0,1-.842-4.635,11.105,11.105,0,0,1,.842-4.375,10.062,10.062,0,0,1,2.356-3.427,10.72,10.72,0,0,1,3.595-2.234,12.608,12.608,0,0,1,4.529-.795,16.937,16.937,0,0,1,2.416.167,9.818,9.818,0,0,1,2.234.6Z" transform="translate(-80.224 -206.851)" fill="#006729"/>
      <path id="Trazado_8" data-name="Trazado 8" d="M192.01,376.622a7.766,7.766,0,0,1,3.06.6,6.973,6.973,0,0,1,2.417,1.683,7.77,7.77,0,0,1,1.576,2.6,9.424,9.424,0,0,1,.566,3.32,9.045,9.045,0,0,1-.566,3.274,7.565,7.565,0,0,1-1.592,2.539,7,7,0,0,1-2.447,1.652,8.227,8.227,0,0,1-3.137.582,7.957,7.957,0,0,1-3.105-.6,7.3,7.3,0,0,1-2.448-1.652,7.535,7.535,0,0,1-1.607-2.54,8.865,8.865,0,0,1-.58-3.258,9.165,9.165,0,0,1,.58-3.335,7.855,7.855,0,0,1,1.607-2.586,7.015,7.015,0,0,1,2.479-1.683,8.346,8.346,0,0,1,3.2-.6m-.184,2.049a4.74,4.74,0,0,0-2.065.444,4.53,4.53,0,0,0-1.592,1.254,5.994,5.994,0,0,0-1.025,1.943,8.1,8.1,0,0,0-.367,2.51,7.809,7.809,0,0,0,.367,2.478,5.506,5.506,0,0,0,1.041,1.882,4.656,4.656,0,0,0,1.606,1.208,5.3,5.3,0,0,0,4.177,0,4.547,4.547,0,0,0,1.623-1.224,5.7,5.7,0,0,0,1.039-1.9,7.813,7.813,0,0,0,.368-2.478,8.108,8.108,0,0,0-.368-2.51,5.511,5.511,0,0,0-1.055-1.928,4.818,4.818,0,0,0-3.749-1.683" transform="translate(-104.793 -214.326)" fill="#006729"/>
      <path id="Trazado_9" data-name="Trazado 9" d="M232.116,379.651a6.516,6.516,0,0,1,2.189-2.218,5.852,5.852,0,0,1,3.1-.811,6.243,6.243,0,0,1,2.708.521,4.375,4.375,0,0,1,1.73,1.438,5.975,5.975,0,0,1,.917,2.2,13.453,13.453,0,0,1,.276,2.816v8.934h-2.51v-7.954a19.132,19.132,0,0,0-.138-2.4,5.637,5.637,0,0,0-.535-1.866,2.785,2.785,0,0,0-1.132-1.193,3.846,3.846,0,0,0-1.9-.413,4.686,4.686,0,0,0-1.866.368,3.824,3.824,0,0,0-1.469,1.116,5.525,5.525,0,0,0-.964,1.928,9.86,9.86,0,0,0-.352,2.8v7.619h-2.508V381.61q0-1.254-.031-2.463t-.123-2.187h2.417q.061.55.092,1.315c.019.51.031.969.031,1.377Z" transform="translate(-130.611 -214.326)" fill="#006729"/>
      <path id="Trazado_10" data-name="Trazado 10" d="M273.267,371.756h4.162v1.989h-4.162v7.71a10.473,10.473,0,0,0,.122,1.668,3.483,3.483,0,0,0,.429,1.255,2.1,2.1,0,0,0,.826.78,2.8,2.8,0,0,0,1.316.275,4.044,4.044,0,0,0,1.652-.368l.091,1.989a11.1,11.1,0,0,1-1.086.259,6.271,6.271,0,0,1-1.177.107,5.779,5.779,0,0,1-2.265-.382,3.42,3.42,0,0,1-1.422-1.1,4.194,4.194,0,0,1-.735-1.714,11.125,11.125,0,0,1-.2-2.187v-8.292h-3.457v-1.989h3.457v-3.611l2.448-.826Z" transform="translate(-152.149 -209.032)" fill="#006729"/>
      <path id="Trazado_11" data-name="Trazado 11" d="M301.912,366.22H299.1v-2.876h2.816Zm-.154,18.756H299.25V369.4h2.508Z" transform="translate(-170.208 -206.77)" fill="#006729"/>
      <path id="Trazado_12" data-name="Trazado 12" d="M329.455,376.959V391.8a9.939,9.939,0,0,1-.428,2.969,6.381,6.381,0,0,1-1.331,2.386,6.223,6.223,0,0,1-2.311,1.591,8.9,8.9,0,0,1-3.4.582,16.552,16.552,0,0,1-2.923-.245,14.816,14.816,0,0,1-2.769-.8l.245-2.478a12.274,12.274,0,0,0,2.678,1.07,10.651,10.651,0,0,0,2.677.337,6.143,6.143,0,0,0,2.386-.413,4.18,4.18,0,0,0,1.607-1.163,4.562,4.562,0,0,0,.9-1.821,9.415,9.415,0,0,0,.276-2.356V390.5a7.528,7.528,0,0,1,.061-.994h-.061a6.17,6.17,0,0,1-1.988,2.156,5.59,5.59,0,0,1-3.213.873,6.673,6.673,0,0,1-2.784-.566,6.2,6.2,0,0,1-2.142-1.576,7.146,7.146,0,0,1-1.377-2.432,9.679,9.679,0,0,1-.49-3.166,10.285,10.285,0,0,1,.5-3.3A7.827,7.827,0,0,1,317,378.9a6.352,6.352,0,0,1,2.2-1.683,6.684,6.684,0,0,1,2.845-.6,5.8,5.8,0,0,1,3.137.8,5.6,5.6,0,0,1,1.973,2.08h.062q-.062-.734-.062-1.331v-1.208Zm-7.16,1.712a3.808,3.808,0,0,0-1.85.459,4.527,4.527,0,0,0-1.454,1.271,6.089,6.089,0,0,0-.948,1.912,8.833,8.833,0,0,0-.015,4.773,5.539,5.539,0,0,0,.918,1.836,4.094,4.094,0,0,0,1.438,1.178,4.2,4.2,0,0,0,1.881.414,4.28,4.28,0,0,0,1.913-.428,4.536,4.536,0,0,0,1.514-1.209,5.643,5.643,0,0,0,.994-1.852,7.513,7.513,0,0,0,.352-2.356,7.66,7.66,0,0,0-.352-2.371,6.385,6.385,0,0,0-.963-1.9,4.389,4.389,0,0,0-1.5-1.271,4.149,4.149,0,0,0-1.928-.459" transform="translate(-179.301 -214.326)" fill="#006729"/>
      <path id="Trazado_13" data-name="Trazado 13" d="M366.11,376.622a7.766,7.766,0,0,1,3.06.6,6.973,6.973,0,0,1,2.417,1.683,7.77,7.77,0,0,1,1.576,2.6,9.434,9.434,0,0,1,.566,3.32,9.055,9.055,0,0,1-.566,3.274,7.566,7.566,0,0,1-1.592,2.539,7.008,7.008,0,0,1-2.447,1.652,8.227,8.227,0,0,1-3.137.582,7.957,7.957,0,0,1-3.105-.6,7.3,7.3,0,0,1-2.448-1.652,7.534,7.534,0,0,1-1.607-2.54,8.865,8.865,0,0,1-.58-3.258,9.165,9.165,0,0,1,.58-3.335,7.855,7.855,0,0,1,1.607-2.586,7.015,7.015,0,0,1,2.479-1.683,8.346,8.346,0,0,1,3.2-.6m-.184,2.049a4.74,4.74,0,0,0-2.065.444,4.53,4.53,0,0,0-1.592,1.254,5.994,5.994,0,0,0-1.025,1.943,8.1,8.1,0,0,0-.367,2.51,7.811,7.811,0,0,0,.367,2.478,5.506,5.506,0,0,0,1.041,1.882,4.656,4.656,0,0,0,1.606,1.208,5.3,5.3,0,0,0,4.177,0,4.547,4.547,0,0,0,1.623-1.224,5.7,5.7,0,0,0,1.039-1.9,7.814,7.814,0,0,0,.368-2.478,8.108,8.108,0,0,0-.368-2.51,5.512,5.512,0,0,0-1.055-1.928,4.818,4.818,0,0,0-3.749-1.683" transform="translate(-203.868 -214.326)" fill="#006729"/>
    </g>
  </g>
</svg>
