<svg xmlns="http://www.w3.org/2000/svg" xmlns:xlink="http://www.w3.org/1999/xlink" width="88" height="88" viewBox="0 0 88 88">
  <defs>
    <clipPath id="clip-path">
      <rect id="Rectangle_7167" data-name="Rectangle 7167" width="88" height="88" fill="none"/>
    </clipPath>
  </defs>
  <g id="Group_21858" data-name="Group 21858" transform="translate(0 0)">
    <g id="Group_21858-2" data-name="Group 21858" transform="translate(0 0)" clip-path="url(#clip-path)">
      <path id="Path_12505" data-name="Path 12505" d="M52.026,25.139A1.772,1.772,0,0,1,50.415,24.1l-4.094-9.127A3.581,3.581,0,0,0,43,12.6H22.2a3.518,3.518,0,0,0-3.286,2.271l-4.127,9.225a1.767,1.767,0,0,1-1.61,1.043,1.766,1.766,0,0,1-1.61-2.486l4.084-9.123a7.053,7.053,0,0,1,6.539-4.459h20.8a7.069,7.069,0,0,1,6.589,4.56l4.055,9.026a1.766,1.766,0,0,1-.889,2.33,1.729,1.729,0,0,1-.72.156" transform="translate(9.776 7.765)" fill="#026d31"/>
      <path id="Path_12506" data-name="Path 12506" d="M14.73,36a5.989,5.989,0,0,1-2.629-.624A5.347,5.347,0,0,1,9.25,30.552V27.014a1.765,1.765,0,0,1,3.529,0v3.539a1.832,1.832,0,0,0,.882,1.656,2.424,2.424,0,0,0,1.069.269,1.953,1.953,0,0,0,1.946-1.951V27.014a1.765,1.765,0,0,1,3.529,0v3.513A5.463,5.463,0,0,1,14.73,36" transform="translate(7.923 21.627)" fill="#026d31"/>
      <path id="Path_12507" data-name="Path 12507" d="M14.185,24.922a1.765,1.765,0,0,1-1.764-1.764,2.646,2.646,0,0,1,2.642-2.644,1.765,1.765,0,0,1,.867,3.3l-.134.076-.076.134a1.765,1.765,0,0,1-1.535.9" transform="translate(10.639 17.571)" fill="#026d31"/>
      <path id="Path_12508" data-name="Path 12508" d="M15.536,24.922a1.772,1.772,0,0,1-1.537-.9l-.074-.134-.134-.076a1.765,1.765,0,0,1,.867-3.3A2.646,2.646,0,0,1,17.3,23.159a1.765,1.765,0,0,1-1.764,1.764" transform="translate(11.044 17.571)" fill="#026d31"/>
      <path id="Path_12509" data-name="Path 12509" d="M14.659,25.394a1.765,1.765,0,0,1-.869-3.3l.134-.074L14,21.883a1.765,1.765,0,0,1,3.3.869,2.644,2.644,0,0,1-2.642,2.642" transform="translate(11.045 17.976)" fill="#026d31"/>
      <path id="Path_12510" data-name="Path 12510" d="M15.063,25.4a2.645,2.645,0,0,1-2.642-2.642,1.763,1.763,0,0,1,3.3-.869l.078.136.134.076a1.752,1.752,0,0,1,.585.538l-.011.674h.019v-.663a1.746,1.746,0,0,1,.3.986A1.765,1.765,0,0,1,15.063,25.4" transform="translate(10.639 17.977)" fill="#026d31"/>
      <path id="Path_12511" data-name="Path 12511" d="M11.87,36.486a3.625,3.625,0,0,1-3.62-3.62V21.727a5.483,5.483,0,0,1,5.477-5.477H54.57a9.215,9.215,0,0,1,7.963,4.595,1.763,1.763,0,1,1-3.054,1.764,5.679,5.679,0,0,0-4.9-2.831H13.727a1.952,1.952,0,0,0-1.949,1.949V32.959h16.8a1.764,1.764,0,0,1,0,3.527Z" transform="translate(7.066 13.918)" fill="#026d31"/>
      <path id="Path_12512" data-name="Path 12512" d="M37.68,53.07a15.8,15.8,0,1,1,15.8-15.8,15.823,15.823,0,0,1-15.8,15.8m0-28.082A12.277,12.277,0,1,0,49.957,37.266,12.292,12.292,0,0,0,37.68,24.988" transform="translate(18.737 18.381)" fill="#026d31"/>
      <path id="Path_12513" data-name="Path 12513" d="M29.079,38.045a1.765,1.765,0,0,1-1.227-3.032L36,27.134a1.758,1.758,0,0,1,1.227-.5,1.74,1.74,0,0,1,1.266.537,1.763,1.763,0,0,1-.041,2.493l-8.143,7.879a1.755,1.755,0,0,1-1.227.5" transform="translate(23.397 22.816)" fill="#d4001b"/>
      <path id="Path_12514" data-name="Path 12514" d="M33.4,34.426a1.705,1.705,0,1,1,1.7-1.7,1.707,1.707,0,0,1-1.7,1.7" transform="translate(27.148 26.565)" fill="#d4001b"/>
      <path id="Path_12515" data-name="Path 12515" d="M29.056,30.083a1.705,1.705,0,1,1,1.7-1.7,1.707,1.707,0,0,1-1.7,1.7" transform="translate(23.428 22.846)" fill="#d4001b"/>
    </g>
  </g>
</svg>
