<svg id="Grupo_21061" data-name="Grupo 21061" xmlns="http://www.w3.org/2000/svg" width="34" height="34" viewBox="0 0 34 34">
  <g id="Grupo_16159" data-name="Grupo 16159" transform="translate(0 0)">
    <g id="Grupo_15839-2" data-name="Grupo 15839-2">
      <g id="Grupo_15836-2" data-name="Grupo 15836-2">
        <g id="Rectángulo_235-2" data-name="Rectángulo 235-2">
          <rect id="Rectangle_7018" data-name="Rectangle 7018" width="34" height="34" fill="none"/>
        </g>
      </g>
    </g>
  </g>
  <g id="streamline-icon-car_50x50" data-name="streamline-icon-car 50x50" transform="translate(5.959 10.407)">
    <g id="Trazado_3358" data-name="Trazado 3358" transform="translate(2.296)">
      <path id="Path_12039" data-name="Path 12039" d="M-84.433,322.091a.691.691,0,0,1-.631-.409l-1.59-3.546a1.437,1.437,0,0,0-1.34-.959h-9.729a1.421,1.421,0,0,0-1.326.919l-1.606,3.587a.691.691,0,0,1-.914.348.691.691,0,0,1-.348-.914l1.59-3.547a2.793,2.793,0,0,1,2.6-1.776h9.731a2.807,2.807,0,0,1,2.617,1.816l1.573,3.506a.691.691,0,0,1-.348.914A.7.7,0,0,1-84.433,322.091Z" transform="translate(101.976 -315.795)" fill="#006c30"/>
    </g>
    <g id="Trazado_3359" data-name="Trazado 3359" transform="translate(1.14 11.441)">
      <path id="Path_12040" data-name="Path 12040" d="M-101.525,336.569l-.089,0a2.123,2.123,0,0,1-2.033-2.206V333.04a.691.691,0,0,1,.691-.691.691.691,0,0,1,.691.691v1.348a.755.755,0,0,0,.194.56.737.737,0,0,0,.514.238.707.707,0,0,0,.532-.2.732.732,0,0,0,.238-.514v-1.436a.691.691,0,0,1,.691-.691.691.691,0,0,1,.691.691v1.49a2.112,2.112,0,0,1-.683,1.476A2.107,2.107,0,0,1-101.525,336.569Z" transform="translate(103.649 -332.349)" fill="#006c30"/>
    </g>
    <g id="Trazado_3360" data-name="Trazado 3360" transform="translate(17.733 11.441)">
      <path id="Path_12041" data-name="Path 12041" d="M-77.522,336.569a2.107,2.107,0,0,1-1.435-.562,2.11,2.11,0,0,1-.682-1.474c0-.044,0-.086,0-.128v-1.365a.691.691,0,0,1,.691-.691.691.691,0,0,1,.691.691v1.382a.764.764,0,0,0,.238.567.738.738,0,0,0,.531.2.737.737,0,0,0,.514-.238.738.738,0,0,0,.2-.532V333.04a.691.691,0,0,1,.691-.691.691.691,0,0,1,.691.691v1.348a2.093,2.093,0,0,1-.561,1.5,2.11,2.11,0,0,1-1.474.682Z" transform="translate(79.641 -332.349)" fill="#006c30"/>
    </g>
    <g id="Trazado_3361" data-name="Trazado 3361" transform="translate(18.094 7.907)">
      <path id="Path_12042" data-name="Path 12042" d="M-78.076,328.969a.69.69,0,0,1-.632-.411.69.69,0,0,1-.411-.632.691.691,0,0,1,.691-.691,1.044,1.044,0,0,1,1.042,1.042A.691.691,0,0,1-78.076,328.969Zm-.351-.351h0Z" transform="translate(79.118 -327.236)" fill="red"/>
    </g>
    <g id="Trazado_3362" data-name="Trazado 3362" transform="translate(17.743 7.91)">
      <path id="Path_12043" data-name="Path 12043" d="M-78.935,328.973a.691.691,0,0,1-.691-.691,1.044,1.044,0,0,1,1.042-1.043.691.691,0,0,1,.691.691.69.69,0,0,1-.411.632A.693.693,0,0,1-78.935,328.973Z" transform="translate(79.626 -327.239)" fill="red"/>
    </g>
    <g id="Trazado_3363" data-name="Trazado 3363" transform="translate(17.743 8.259)">
      <path id="Path_12044" data-name="Path 12044" d="M-78.584,329.477a1.043,1.043,0,0,1-1.042-1.042.691.691,0,0,1,.691-.691.692.692,0,0,1,.632.411.692.692,0,0,1,.411.632A.691.691,0,0,1-78.584,329.477Z" transform="translate(79.626 -327.744)" fill="red"/>
    </g>
    <g id="Trazado_3364" data-name="Trazado 3364" transform="translate(18.094 8.256)">
      <path id="Path_12045" data-name="Path 12045" d="M-78.427,329.475a.691.691,0,0,1-.691-.691.692.692,0,0,1,.41-.632.692.692,0,0,1,.632-.411.691.691,0,0,1,.691.691A1.044,1.044,0,0,1-78.427,329.475Z" transform="translate(79.118 -327.741)" fill="red"/>
    </g>
    <g id="Trazado_3365" data-name="Trazado 3365" transform="translate(2.996 7.907)">
      <path id="Path_12046" data-name="Path 12046" d="M-100.272,328.969a.691.691,0,0,1-.691-.691,1.043,1.043,0,0,1,1.042-1.042.691.691,0,0,1,.691.691.691.691,0,0,1-.41.632A.692.692,0,0,1-100.272,328.969Z" transform="translate(100.963 -327.236)" fill="#006c30"/>
    </g>
    <g id="Trazado_3366" data-name="Trazado 3366" transform="translate(3.347 7.91)">
      <path id="Path_12047" data-name="Path 12047" d="M-99.412,328.973a.691.691,0,0,1-.632-.411.691.691,0,0,1-.411-.632.691.691,0,0,1,.691-.691,1.044,1.044,0,0,1,1.043,1.043A.691.691,0,0,1-99.412,328.973Z" transform="translate(100.455 -327.239)" fill="#006c30"/>
    </g>
    <g id="Trazado_3367" data-name="Trazado 3367" transform="translate(3.347 8.259)">
      <path id="Path_12048" data-name="Path 12048" d="M-99.764,329.477a.691.691,0,0,1-.691-.691.693.693,0,0,1,.411-.632.69.69,0,0,1,.632-.411.691.691,0,0,1,.691.691A1.044,1.044,0,0,1-99.764,329.477Z" transform="translate(100.455 -327.744)" fill="#006c30"/>
    </g>
    <g id="Trazado_3368" data-name="Trazado 3368" transform="translate(2.996 8.256)">
      <path id="Path_12049" data-name="Path 12049" d="M-99.921,329.475a1.043,1.043,0,0,1-1.042-1.043.691.691,0,0,1,.691-.691.692.692,0,0,1,.632.411.692.692,0,0,1,.41.632A.691.691,0,0,1-99.921,329.475Zm.341-1.043h0Z" transform="translate(100.963 -327.741)" fill="#006c30"/>
    </g>
    <g id="Trazado_3369" data-name="Trazado 3369" transform="translate(0 5.148)">
      <path id="Path_12050" data-name="Path 12050" d="M-84.378,330.919H-103.67a1.629,1.629,0,0,1-1.628-1.628v-3.483a2.567,2.567,0,0,1,2.563-2.563h17.421a2.566,2.566,0,0,1,2.563,2.563V329.3a1.619,1.619,0,0,1-.482,1.151A1.616,1.616,0,0,1-84.378,330.919Zm-18.348-6.292a1.189,1.189,0,0,0-1.19,1.182v3.483a.245.245,0,0,0,.245.245h19.29a.246.246,0,0,0,.248-.244v-3.485a1.183,1.183,0,0,0-1.181-1.181Z" transform="translate(105.298 -323.244)" fill="#006c30"/>
    </g>
  </g>
</svg>
