<svg xmlns="http://www.w3.org/2000/svg" width="64" height="64" viewBox="0 0 64 64">
  <path id="account_circle_FILL1_wght400_GRAD0_opsz48" d="M91.36,226a45.505,45.505,0,0,1,9.96-4.84A33.58,33.58,0,0,1,112,219.52a33.95,33.95,0,0,1,10.72,1.64,45.186,45.186,0,0,1,10,4.84,28.085,28.085,0,0,0,5-8.72A28.914,28.914,0,0,0,139.2,208,26.651,26.651,0,0,0,112,180.8,26.651,26.651,0,0,0,84.8,208a28.219,28.219,0,0,0,1.52,9.28A28.791,28.791,0,0,0,91.36,226Zm20.625-15.6a10.818,10.818,0,1,1,7.8-3.16,10.554,10.554,0,0,1-7.8,3.16Zm-.018,29.6a31.264,31.264,0,0,1-12.5-2.52A31.878,31.878,0,0,1,82.48,220.413,31.465,31.465,0,0,1,80,207.96a31.033,31.033,0,0,1,2.52-12.453A32.019,32.019,0,0,1,89.4,185.36a32.844,32.844,0,0,1,10.187-6.84,32.028,32.028,0,0,1,24.905,0,31.984,31.984,0,0,1,16.987,17,32.011,32.011,0,0,1,0,24.9,32.863,32.863,0,0,1-6.84,10.181,31.949,31.949,0,0,1-10.17,6.88A31.264,31.264,0,0,1,111.968,240Z" transform="translate(-80 -176)" fill="#006729"/>
</svg>
