<svg xmlns="http://www.w3.org/2000/svg" width="48" height="48" viewBox="0 0 48 48">
  <g id="Group_21529" data-name="Group 21529" transform="translate(20572 21914)">
    <g id="Group_21451" data-name="Group 21451" transform="translate(-20699.35 -22118.564)">
      <g id="streamline-icon-family-hold_50x50" data-name="streamline-icon-family-hold 50x50">
        <g id="Trazado_3628" data-name="Trazado 3628">
          <path id="Path_12265" data-name="Path 12265" d="M145.36,226.594a7.816,7.816,0,1,1,7.817-7.816A7.825,7.825,0,0,1,145.36,226.594Zm0-13.533a5.716,5.716,0,1,0,5.718,5.717A5.723,5.723,0,0,0,145.36,213.061Z" fill="#9d9d9d"/>
        </g>
        <g id="Trazado_3629" data-name="Trazado 3629">
          <path id="Path_12266" data-name="Path 12266" d="M150.126,231.161a1.058,1.058,0,0,1-.442-.1,10.145,10.145,0,0,0-4.314-.955h-.014a1.05,1.05,0,1,1,.014-2.1,12.252,12.252,0,0,1,5.2,1.15,1.051,1.051,0,0,1-.445,2Z" fill="#9d9d9d"/>
        </g>
        <g id="Trazado_3630" data-name="Trazado 3630">
          <path id="Path_12267" data-name="Path 12267" d="M134.087,241.383a1.05,1.05,0,0,1-1.05-1.05,12.34,12.34,0,0,1,12.326-12.325,1.05,1.05,0,0,1,0,2.1,10.237,10.237,0,0,0-10.226,10.225A1.05,1.05,0,0,1,134.087,241.383Z" fill="#9d9d9d"/>
        </g>
      </g>
      <g id="Group_21448" data-name="Group 21448">
        <path id="Path_12268" data-name="Path 12268" d="M167.688,237.3c-.916-.872-.917-1.029-.011-1.87a2.168,2.168,0,0,0,.74-2.636,2.242,2.242,0,0,0-2.349-1.275c-1.25.037-1.279.02-1.285-1.256a2.271,2.271,0,0,0-1.375-2.389c-.958-.385-1.72-.137-2.614.819-.761.813-.964.823-1.728-.028a2.188,2.188,0,0,0-2.54-.811c-.965.349-1.378,1.063-1.391,2.356-.013,1.273-.084,1.34-1.366,1.308a2.232,2.232,0,0,0-2.328,1.306,2.264,2.264,0,0,0,.713,2.58c.959.915.959,1.022-.005,1.932a2.188,2.188,0,0,0-.7,2.576,2.156,2.156,0,0,0,2.154,1.286c1.486,0,1.486.023,1.528,1.574a2.067,2.067,0,0,0,1.606,2.188h1.008a2.186,2.186,0,0,0,1.377-.95c.545-.673,1.046-.719,1.606-.012a2.3,2.3,0,0,0,1.374.964l1.18-.031a2.268,2.268,0,0,0,1.5-2.4c.01-1.3.038-1.342,1.353-1.326a2.178,2.178,0,0,0,2.3-1.347A2.117,2.117,0,0,0,167.688,237.3Zm-.714,1.946c-.17.584-.731.39-1.147.4-1.9.039-2.562.7-2.583,2.608-.005.43.134.971-.415,1.154-.511.17-.791-.273-1.091-.6-1.157-1.267-2.392-1.263-3.6,0a2.525,2.525,0,0,1-.552.519c-.446.242-.815.173-.9-.41a5.121,5.121,0,0,1-.015-.668c-.026-1.853-.761-2.571-2.632-2.6-.389-.006-.9.179-1.108-.308-.237-.563.259-.851.6-1.17a2.229,2.229,0,0,0,.01-3.617c-.336-.319-.859-.6-.607-1.164.234-.528.773-.291,1.2-.308,1.717.041,2.51-.728,2.538-2.461,0-.223-.019-.448.006-.668.079-.682.5-.852,1.048-.43a2.277,2.277,0,0,1,.2.207c1.626,1.606,2.347,1.6,4.039-.034.254-.245.514-.518.9-.346s.373.545.382.9a3.416,3.416,0,0,0,.229,1.774,2.262,2.262,0,0,0,2.377,1.056c.4-.032.879-.184,1.092.319.227.536-.232.8-.55,1.091a2.24,2.24,0,0,0-.06,3.68C166.658,238.473,167.122,238.739,166.974,239.25Z" fill="#9d9d9d"/>
        <path id="Path_12269" data-name="Path 12269" d="M162.109,245.066a2.41,2.41,0,0,1-1.454-1,1,1,0,0,0-.711-.474h0a1.044,1.044,0,0,0-.738.486,2.291,2.291,0,0,1-1.44.987l-1.021,0h0a.1.1,0,0,1-.035-.006,2.17,2.17,0,0,1-1.671-2.279c-.041-1.476-.041-1.476-1.429-1.477a2.26,2.26,0,0,1-2.244-1.344,2.291,2.291,0,0,1,.717-2.691c.489-.46.693-.686.693-.891s-.2-.432-.689-.9a2.365,2.365,0,0,1-.736-2.689,2.292,2.292,0,0,1,2.318-1.37h.106c.575.014.931.012,1.088-.138s.169-.5.176-1.071a2.264,2.264,0,0,1,4.1-1.611c.343.382.583.6.792.6h0c.205,0,.434-.2.785-.578.924-.988,1.741-1.24,2.724-.844a2.4,2.4,0,0,1,1.438,2.482c0,.6.011.918.146,1.048s.429.127,1.037.108a2.335,2.335,0,0,1,2.443,1.335,2.273,2.273,0,0,1-.764,2.749c-.427.4-.644.637-.646.846s.212.453.659.879h0a2.216,2.216,0,0,1,.771,2.662,2.261,2.261,0,0,1-2.34,1.408h-.054c-.6-.008-.946,0-1.094.141s-.153.47-.158,1.087a2.345,2.345,0,0,1-1.562,2.5.087.087,0,0,1-.032.006Zm-2.168-1.677h0a1.172,1.172,0,0,1,.866.55,2.209,2.209,0,0,0,1.312.928l1.144-.032a2.168,2.168,0,0,0,1.417-2.307c0-.69.017-1.03.218-1.228s.566-.206,1.235-.2h.053a2.053,2.053,0,0,0,2.153-1.285,2.017,2.017,0,0,0-.723-2.442h0c-.5-.474-.722-.735-.721-1.024s.221-.537.71-.991a2.072,2.072,0,0,0,.717-2.524,2.108,2.108,0,0,0-2.131-1.216c-.041,0-.082,0-.123,0-.636.018-.984.029-1.182-.164s-.2-.518-.206-1.191a2.151,2.151,0,0,0-1.314-2.3c-.907-.365-1.632-.136-2.5.794-.4.426-.653.642-.932.642h-.006c-.284,0-.55-.238-.938-.671a2.086,2.086,0,0,0-2.431-.784c-.917.331-1.314,1.008-1.326,2.263-.007.676-.032,1.016-.237,1.213s-.547.209-1.232.194l-.1,0a2.105,2.105,0,0,0-2.133,1.245,2.176,2.176,0,0,0,.689,2.471c.511.487.751.748.75,1.04s-.242.553-.756,1.036a2.083,2.083,0,0,0-.673,2.463,2.051,2.051,0,0,0,2.063,1.227c1.523,0,1.585.064,1.628,1.669a1.975,1.975,0,0,0,1.524,2.093h.99a2.1,2.1,0,0,0,1.3-.914A1.223,1.223,0,0,1,159.941,243.389Zm-2.781.169a.52.52,0,0,1-.235-.052.7.7,0,0,1-.334-.574,2.946,2.946,0,0,1-.017-.478c0-.068,0-.135,0-.2-.027-1.794-.713-2.472-2.535-2.5-.081,0-.171.006-.259.014-.333.029-.751.064-.939-.384-.229-.544.154-.874.464-1.139.055-.047.11-.1.161-.143a2.132,2.132,0,0,0,.01-3.471c-.058-.054-.12-.107-.184-.161-.3-.258-.684-.579-.447-1.115.206-.464.629-.422.97-.386a2.107,2.107,0,0,0,.316.018l.126,0a2.352,2.352,0,0,0,1.705-.535,2.48,2.48,0,0,0,.611-1.829c0-.078,0-.156,0-.234a3.3,3.3,0,0,1,.009-.444c.055-.467.249-.643.4-.708s.422-.085.8.209a.906.906,0,0,1,.138.139c.023.027.045.053.069.077,1.589,1.569,2.245,1.561,3.9-.035l.028-.028c.244-.235.544-.53.985-.337.421.187.431.585.44.937v.055c0,.139,0,.279,0,.418a2.325,2.325,0,0,0,.218,1.308,2.147,2.147,0,0,0,2.283,1.007c.058-.005.118-.012.179-.019.357-.044.8-.1,1.012.4.222.524-.138.831-.428,1.077-.05.043-.1.084-.146.127a2.51,2.51,0,0,0-.96,1.791,2.415,2.415,0,0,0,.9,1.742c.053.05.111.1.169.149.3.255.635.543.494,1.029h0c-.158.542-.617.509-.982.482a1.562,1.562,0,0,0-.26-.012c-1.86.038-2.463.648-2.485,2.509,0,.072,0,.148.006.223.018.379.038.85-.489,1.025-.5.168-.807-.182-1.075-.492-.04-.047-.081-.093-.122-.137a2.376,2.376,0,0,0-1.686-.917h-.018a2.481,2.481,0,0,0-1.744.919c-.04.042-.08.086-.119.131a1.792,1.792,0,0,1-.458.407A1.038,1.038,0,0,1,157.16,243.558Zm-3.138-4.01h.023c1.938.032,2.7.79,2.73,2.7,0,.07,0,.14,0,.21a2.828,2.828,0,0,0,.014.445.526.526,0,0,0,.227.424.616.616,0,0,0,.527-.087,1.629,1.629,0,0,0,.4-.365c.041-.046.082-.092.124-.135a2.668,2.668,0,0,1,1.888-.981h.02a2.564,2.564,0,0,1,1.833.981c.041.045.082.093.124.141.249.287.484.558.861.433.358-.119.372-.391.353-.826,0-.08-.007-.159-.006-.234.021-1.958.724-2.666,2.681-2.707.087,0,.183,0,.278.012.415.029.67.022.775-.338s-.156-.585-.432-.821c-.061-.052-.12-.1-.176-.155a2.605,2.605,0,0,1-.965-1.889,2.7,2.7,0,0,1,1.025-1.937c.048-.045.1-.088.151-.132.289-.246.539-.458.375-.847-.143-.334-.4-.328-.805-.279-.063.008-.126.015-.187.02a2.351,2.351,0,0,1-2.471-1.1,2.508,2.508,0,0,1-.246-1.415c0-.136.007-.272,0-.408l0-.056c-.008-.334-.015-.622-.321-.758s-.523.064-.765.3l-.028.028c-1.733,1.671-2.513,1.679-4.179.033-.028-.028-.054-.058-.08-.088a.767.767,0,0,0-.109-.111c-.238-.182-.451-.248-.6-.184s-.249.257-.282.547a2.855,2.855,0,0,0-.009.416c0,.081,0,.161,0,.242a2.256,2.256,0,0,1-2.639,2.559,2.627,2.627,0,0,1-.339-.019c-.33-.033-.618-.064-.765.268-.178.4.087.623.392.881.067.056.132.112.192.169a2.328,2.328,0,0,1-.01,3.763c-.054.05-.11.1-.168.148-.313.268-.582.5-.41.91.123.292.36.294.738.262C153.853,239.555,153.94,239.548,154.022,239.548Zm12.952-.3h0Z" fill="#9d9d9d"/>
      </g>
      <path id="Subtraction_3" data-name="Subtraction 3" d="M20702.1,22123.98h-.021a2.728,2.728,0,0,1-1.965-.818,2.625,2.625,0,0,1-.762-1.9,2.761,2.761,0,0,1,2.77-2.693h.012a2.724,2.724,0,0,1,2.711,2.754A2.665,2.665,0,0,1,20702.1,22123.98Zm-.006-3.854a1.164,1.164,0,0,0-.033,2.326,1.175,1.175,0,0,0,1.232-1.105.987.987,0,0,0-.256-.775,1.242,1.242,0,0,0-.9-.447h-.01l-.012,0Z" transform="translate(-20542.166 -21884.963)" fill="#9d9d9d" stroke="rgba(0,0,0,0)" stroke-miterlimit="10" stroke-width="1"/>
    </g>
    <rect id="Rectangle_7094" data-name="Rectangle 7094" width="48" height="48" transform="translate(-20572 -21914)" fill="none"/>
  </g>
</svg>
