<svg id="Grupo_21711" data-name="Grupo 21711" xmlns="http://www.w3.org/2000/svg" xmlns:xlink="http://www.w3.org/1999/xlink" width="30" height="30" viewBox="0 0 30 30">
  <defs>
    <clipPath id="clip-path">
      <rect id="Rect치ngulo_7127" data-name="Rect치ngulo 7127" width="30" height="30" fill="none"/>
    </clipPath>
  </defs>
  <g id="Grupo_21632" data-name="Grupo 21632" transform="translate(0 0)" clip-path="url(#clip-path)">
    <g id="Grupo_21631" data-name="Grupo 21631" transform="translate(4.397 6.444)">
      <g id="streamline-icon-family-hold_50x50" data-name="streamline-icon-family-hold 50x50">
        <g id="Trazado_3628" data-name="Trazado 3628" transform="translate(2.442)">
          <path id="Trazado_12313" data-name="Trazado 12313" d="M128.978,35.012a4.23,4.23,0,1,1,4.23-4.23A4.235,4.235,0,0,1,128.978,35.012Zm0-7.335a3.1,3.1,0,1,0,3.105,3.1A3.109,3.109,0,0,0,128.978,27.677Z" transform="translate(-124.748 -26.552)" fill="#006c30"/>
        </g>
        <g id="Trazado_3629" data-name="Trazado 3629" transform="translate(6.107 9.239)">
          <path id="Trazado_12314" data-name="Trazado 12314" d="M132.782,40.567a.567.567,0,0,1-.237-.052A5.5,5.5,0,0,0,130.2,40H130.2a.562.562,0,0,1,0-1.125h.008a6.628,6.628,0,0,1,2.816.623.563.563,0,0,1-.238,1.073Z" transform="translate(-129.634 -38.871)" fill="#006c30"/>
        </g>
        <g id="Trazado_3630" data-name="Trazado 3630" transform="translate(0 9.239)">
          <path id="Trazado_12315" data-name="Trazado 12315" d="M122.054,46.107a.562.562,0,0,1-.562-.562,6.681,6.681,0,0,1,6.673-6.673.562.562,0,0,1,0,1.125,5.554,5.554,0,0,0-5.548,5.548A.563.563,0,0,1,122.054,46.107Z" transform="translate(-121.492 -38.871)" fill="#006c30"/>
        </g>
      </g>
      <g id="Grupo_21627" data-name="Grupo 21627" transform="translate(10.555 10.212)">
        <rect id="Rect치ngulo_7126" data-name="Rect치ngulo 7126" width="3.694" height="3.694" fill="#fff"/>
      </g>
      <g id="Grupo_21628" data-name="Grupo 21628" transform="translate(10.555 8.019)">
        <path id="Trazado_12316" data-name="Trazado 12316" d="M145.825,43.244c-.573-.544-.573-.643-.007-1.168a1.356,1.356,0,0,0,.463-1.648,1.4,1.4,0,0,0-1.468-.8c-.782.023-.8.013-.8-.785a1.42,1.42,0,0,0-.86-1.493,1.347,1.347,0,0,0-1.633.512c-.476.508-.6.514-1.08-.018a1.368,1.368,0,0,0-1.587-.507c-.6.218-.862.664-.87,1.473s-.052.838-.854.817a1.393,1.393,0,0,0-1.455.816,1.413,1.413,0,0,0,.445,1.612c.6.572.6.639,0,1.208a1.368,1.368,0,0,0-.435,1.61,1.346,1.346,0,0,0,1.346.8c.929,0,.929.015.955.984a1.293,1.293,0,0,0,1,1.368h.63a1.365,1.365,0,0,0,.86-.594c.341-.42.654-.45,1-.007a1.44,1.44,0,0,0,.858.6l.738-.019a1.42,1.42,0,0,0,.936-1.5c.006-.812.023-.838.845-.829a1.361,1.361,0,0,0,1.438-.842A1.324,1.324,0,0,0,145.825,43.244Zm-.446,1.216c-.107.365-.457.243-.717.249-1.19.024-1.6.437-1.615,1.63,0,.268.085.607-.259.721-.319.106-.494-.171-.682-.376a1.361,1.361,0,0,0-2.247,0,1.569,1.569,0,0,1-.346.325c-.278.151-.509.109-.563-.257a3.091,3.091,0,0,1-.009-.417c-.016-1.159-.476-1.606-1.645-1.626-.244,0-.565.112-.693-.193-.148-.353.162-.532.376-.731a1.394,1.394,0,0,0,.006-2.261c-.21-.2-.536-.372-.379-.727.146-.33.483-.182.749-.193,1.072.025,1.568-.455,1.586-1.537a4.086,4.086,0,0,1,0-.419c.049-.426.311-.532.655-.268a1.445,1.445,0,0,1,.123.13c1.016,1,1.467,1,2.524-.022.159-.153.321-.323.564-.216s.233.341.239.565a2.131,2.131,0,0,0,.143,1.109,1.414,1.414,0,0,0,1.485.66c.249-.02.55-.116.682.2.142.335-.145.5-.343.682a1.4,1.4,0,0,0-.038,2.3C145.181,43.975,145.472,44.141,145.379,44.461Z" transform="translate(-135.565 -37.244)" fill="#006c30"/>
      </g>
      <g id="Grupo_21629" data-name="Grupo 21629" transform="translate(14.249 11.704)">
        <path id="Trazado_12317" data-name="Trazado 12317" d="M142.194,45.545a1.683,1.683,0,0,1-1.7-1.7,1.723,1.723,0,0,1,1.738-1.686,1.7,1.7,0,0,1,1.693,1.721A1.668,1.668,0,0,1,142.194,45.545Z" transform="translate(-140.491 -42.158)" fill="red"/>
      </g>
      <g id="Grupo_21630" data-name="Grupo 21630" transform="translate(15.244 12.68)">
        <path id="Trazado_12318" data-name="Trazado 12318" d="M142.515,44.913a.678.678,0,0,1-.7-.732.689.689,0,0,1,.72-.722.748.748,0,0,1,.748.765A.73.73,0,0,1,142.515,44.913Z" transform="translate(-141.817 -43.458)" fill="#fefafa"/>
      </g>
    </g>
  </g>
</svg>
