<svg xmlns="http://www.w3.org/2000/svg" xmlns:xlink="http://www.w3.org/1999/xlink" width="48" height="48" viewBox="0 0 48 48">
  <defs>
    <clipPath id="clip-path">
      <rect id="Rectangle_7090" data-name="Rectangle 7090" width="11.537" height="11.537" transform="translate(150.656 281.64)" fill="#9d9d9d"/>
    </clipPath>
  </defs>
  <g id="Group_21533" data-name="Group 21533" transform="translate(20400 22003)">
    <g id="Group_21432" data-name="Group 21432" transform="translate(-20526.951 -22271.273)">
      <g id="Group_21426" data-name="Group 21426">
        <g id="Trazado_3621" data-name="Trazado 3621">
          <path id="Path_12255" data-name="Path 12255" d="M137.951,306.465a1,1,0,0,1-1-1v-14.2a1,1,0,0,1,2,0v14.2A1,1,0,0,1,137.951,306.465Z" fill="#9d9d9d"/>
        </g>
        <g id="Trazado_3622" data-name="Trazado 3622">
          <path id="Path_12256" data-name="Path 12256" d="M162.953,305.174h-25a1,1,0,0,1,0-2h23.881a4.17,4.17,0,0,0-4.041-3.162h-6.078a1,1,0,0,1-1-1,4.167,4.167,0,0,0-4.162-4.163h-8.6a1,1,0,0,1,0-2h8.6a6.172,6.172,0,0,1,6.081,5.163h5.538a1,1,0,0,1,.252.032,6.17,6.17,0,0,1,5.531,6.13A1,1,0,0,1,162.953,305.174Z" fill="#9d9d9d"/>
        </g>
        <g id="Trazado_3623" data-name="Trazado 3623">
          <path id="Path_12257" data-name="Path 12257" d="M152.147,300.012h-5.162a1,1,0,1,1,0-2h5.162a1,1,0,1,1,0,2Z" fill="#9d9d9d"/>
        </g>
      </g>
      <g id="Group_21429" data-name="Group 21429">
        <g id="Group_21428" data-name="Group 21428" clip-path="url(#clip-path)">
          <g id="Group_21146" data-name="Group 21146">
            <g id="Group_21427" data-name="Group 21427">
              <g id="Path_12116" data-name="Path 12116">
                <path id="Path_12258" data-name="Path 12258" d="M156.412,290.65a2.623,2.623,0,0,1-2.081-1.058.85.85,0,0,1,1.325-1.066.912.912,0,0,0,1.078.368.822.822,0,0,0,.55-.5,1.635,1.635,0,0,0-.889-.273c-1.943-.217-2.313-1.266-2.381-1.708a2.248,2.248,0,0,1,1.46-2.278,2.6,2.6,0,0,1,3.165.81.85.85,0,0,1-1.316,1.076.917.917,0,0,0-1.087-.362.817.817,0,0,0-.542.5h0a1.537,1.537,0,0,0,.889.277c1.947.217,2.314,1.267,2.381,1.709a2.248,2.248,0,0,1-1.469,2.275A2.727,2.727,0,0,1,156.412,290.65Z" fill="#9d9d9d"/>
              </g>
              <g id="Line_21" data-name="Line 21">
                <path id="Path_12259" data-name="Path 12259" d="M156.489,285.487a.85.85,0,0,1-.85-.85v-1.193a.849.849,0,1,1,1.7,0v1.193A.85.85,0,0,1,156.489,285.487Z" fill="#9d9d9d"/>
              </g>
              <g id="Line_22" data-name="Line 22">
                <path id="Path_12260" data-name="Path 12260" d="M156.489,291.89a.849.849,0,0,1-.85-.85v-1.193a.849.849,0,1,1,1.7,0v1.193A.849.849,0,0,1,156.489,291.89Z" fill="#9d9d9d"/>
              </g>
            </g>
          </g>
        </g>
      </g>
      <g id="Group_21430" data-name="Group 21430">
        <path id="Path_12261" data-name="Path 12261" d="M156.407,296.767a9.316,9.316,0,0,1-3.224-.572,1,1,0,1,1,.689-1.877,7.342,7.342,0,1,0-4.065-10.113,1,1,0,1,1-1.8-.878,9.342,9.342,0,1,1,8.4,13.44Z" fill="#9d9d9d"/>
      </g>
      <g id="Group_21431" data-name="Group 21431">
        <circle id="Ellipse_1339" data-name="Ellipse 1339" cx="0.996" cy="0.996" r="0.996" transform="translate(146.984 286.127)" fill="#9d9d9d"/>
      </g>
    </g>
    <rect id="Rectangle_7106" data-name="Rectangle 7106" width="48" height="48" transform="translate(-20400 -22003)" fill="none"/>
  </g>
</svg>
