<svg xmlns="http://www.w3.org/2000/svg" width="48" height="48" viewBox="0 0 48 48">
  <g id="Group_21534" data-name="Group 21534" transform="translate(20485 22003)">
    <g id="streamline-icon-cash-payment-bill-3_50x50" data-name="streamline-icon-cash-payment-bill-3 50x50" transform="translate(-20519.094 -22271.273)">
      <g id="Trazado_4966" data-name="Trazado 4966">
        <g id="Group_21384" data-name="Group 21384">
          <path id="Path_12208" data-name="Path 12208" d="M53.429,301.012H46.946a2.906,2.906,0,0,1-2.853-2.949V287.872a2.909,2.909,0,0,1,2.851-2.95H69.25a2.909,2.909,0,0,1,2.853,2.949v10.995a1.038,1.038,0,1,1-2.075,0V287.872a.793.793,0,0,0-.779-.8h-22.3a.793.793,0,0,0-.779.8v10.189a.793.793,0,0,0,.779.8h6.483a1.074,1.074,0,0,1,0,2.146Z" fill="#9d9d9d"/>
        </g>
      </g>
      <g id="Trazado_4967" data-name="Trazado 4967">
        <g id="Group_21385" data-name="Group 21385">
          <path id="Path_12209" data-name="Path 12209" d="M52.392,308.274a1.037,1.037,0,0,1-1.037-1.038v-2.319l-.846-1.19a1.037,1.037,0,1,1,1.691-1.2l1.037,1.46a1.029,1.029,0,0,1,.192.6v2.65A1.037,1.037,0,0,1,52.392,308.274Z" fill="#9d9d9d"/>
        </g>
      </g>
      <g id="Trazado_4968" data-name="Trazado 4968">
        <g id="Group_21386" data-name="Group 21386">
          <path id="Path_12210" data-name="Path 12210" d="M49.722,286.488a1.038,1.038,0,0,1-1.037-1.038v-1.235a2.888,2.888,0,0,1,1.906-2.774,3.5,3.5,0,0,1,.944-.159,2.859,2.859,0,0,1,2.856,2.854,1.038,1.038,0,0,1-1.036,1.04h0a1.037,1.037,0,0,1-1.037-1.036.784.784,0,0,0-.784-.783h0a.77.77,0,0,0-.254.043.816.816,0,0,0-.518.788v1.262A1.038,1.038,0,0,1,49.722,286.488Z" fill="#9d9d9d"/>
        </g>
      </g>
      <g id="Trazado_4970" data-name="Trazado 4970">
        <g id="Group_21387" data-name="Group 21387">
          <path id="Path_12211" data-name="Path 12211" d="M61.729,286.488a1.037,1.037,0,0,1-1.037-1.038v-4.188a1.154,1.154,0,0,0-.992-.878,1.3,1.3,0,0,0-1.083.907v4.159a1.038,1.038,0,1,1-2.075,0v-4.292a1,1,0,0,1,.026-.231,3.367,3.367,0,0,1,3.046-2.619,1.245,1.245,0,0,1,.137,0,3.22,3.22,0,0,1,3,2.672,1.072,1.072,0,0,1,.015.179v4.292A1.037,1.037,0,0,1,61.729,286.488Z" fill="#9d9d9d"/>
        </g>
      </g>
      <g id="Trazado_4970-2" data-name="Trazado 4970">
        <g id="Group_21388" data-name="Group 21388">
          <path id="Path_12212" data-name="Path 12212" d="M57.52,286.422a1.037,1.037,0,0,1-1.038-1.037V282.3a1.154,1.154,0,0,0-.992-.878,1.3,1.3,0,0,0-1.083.908v3.056a1.037,1.037,0,0,1-2.074,0V282.2a1,1,0,0,1,.026-.231,3.368,3.368,0,0,1,3.046-2.619,1.257,1.257,0,0,1,.137,0,3.22,3.22,0,0,1,3,2.673,1.052,1.052,0,0,1,.015.178v3.19A1.037,1.037,0,0,1,57.52,286.422Z" fill="#9d9d9d"/>
        </g>
      </g>
      <g id="Trazado_4970-3" data-name="Trazado 4970">
        <g id="Group_21389" data-name="Group 21389">
          <path id="Path_12213" data-name="Path 12213" d="M65.885,286.422a1.037,1.037,0,0,1-1.037-1.037V282.3a1.154,1.154,0,0,0-.992-.878,1.3,1.3,0,0,0-1.083.908v3.056a1.037,1.037,0,0,1-2.075,0V282.2a1.056,1.056,0,0,1,.026-.231,3.368,3.368,0,0,1,3.046-2.619,1.277,1.277,0,0,1,.138,0,3.221,3.221,0,0,1,3,2.673,1.052,1.052,0,0,1,.015.178v3.19A1.037,1.037,0,0,1,65.885,286.422Z" fill="#9d9d9d"/>
        </g>
      </g>
      <g id="Trazado_4972" data-name="Trazado 4972">
        <g id="Group_21390" data-name="Group 21390">
          <path id="Path_12214" data-name="Path 12214" d="M63.8,308.274a1.038,1.038,0,0,1-1.038-1.038v-1.109a3.241,3.241,0,0,1,1.244-2.578l2.443-1.974a1.191,1.191,0,0,0,.463-.951v-5.809a.775.775,0,0,0-.764-.768c-.579,0-.771.732-.815.957L65,297.493a3.476,3.476,0,0,1-1.665,2.539l-1.952,1.162a1.442,1.442,0,0,0-.687,1.24v1.69a1.038,1.038,0,0,1-2.075,0v-1.681a3.523,3.523,0,0,1,1.695-3.028l1.954-1.163a1.412,1.412,0,0,0,.673-1.033l.351-2.549a3.029,3.029,0,0,1,2.886-2.7,2.847,2.847,0,0,1,2.815,2.836v5.811a3.248,3.248,0,0,1-1.243,2.578L65.3,305.171a1.187,1.187,0,0,0-.463.949v1.116A1.037,1.037,0,0,1,63.8,308.274Z" fill="#9d9d9d"/>
        </g>
      </g>
      <g id="Trazado_4973" data-name="Trazado 4973">
        <g id="Group_21391" data-name="Group 21391">
          <path id="Path_12215" data-name="Path 12215" d="M57.439,298.565a3.72,3.72,0,0,1-2.934-1.47,1.037,1.037,0,1,1,1.649-1.259,1.666,1.666,0,0,0,1.384.652c.863,0,1.5-.447,1.5-.831s-.637-.83-1.46-.83c-1.981,0-3.533-1.28-3.533-2.914s1.552-2.9,3.533-2.9a3.708,3.708,0,0,1,3.066,1.45A1.037,1.037,0,1,1,59,291.724a1.672,1.672,0,0,0-1.378-.642c-.879,0-1.5.439-1.5.831s.624.84,1.458.84c1.983,0,3.535,1.275,3.535,2.9s-1.552,2.9-3.535,2.9Z" fill="#9d9d9d"/>
        </g>
      </g>
      <g id="Trazado_4975" data-name="Trazado 4975">
        <g id="Group_21392" data-name="Group 21392">
          <path id="Path_12216" data-name="Path 12216" d="M57.579,290.042a1.037,1.037,0,0,1-1.037-1.037h0a1.038,1.038,0,0,1,2.075,0h0A1.037,1.037,0,0,1,57.579,290.042Z" fill="#9d9d9d"/>
        </g>
      </g>
      <g id="Trazado_4975-2" data-name="Trazado 4975">
        <g id="Group_21393" data-name="Group 21393">
          <path id="Path_12217" data-name="Path 12217" d="M57.579,299.682a1.037,1.037,0,0,1-1.037-1.038h0a1.038,1.038,0,0,1,2.075,0h0A1.038,1.038,0,0,1,57.579,299.682Z" fill="#9d9d9d"/>
        </g>
      </g>
    </g>
    <rect id="Rectangle_7108" data-name="Rectangle 7108" width="48" height="48" transform="translate(-20485 -22003)" fill="none"/>
  </g>
</svg>
