<svg xmlns="http://www.w3.org/2000/svg" width="48" height="48" viewBox="0 0 48 48">
  <g id="Group_21536" data-name="Group 21536" transform="translate(20487 22079)">
    <g id="Grupo_16256" data-name="Grupo 16256" transform="translate(-20710.285 -22283.564)">
      <g id="Grupo_16254" data-name="Grupo 16254">
        <g id="Grupo_16234" data-name="Grupo 16234">
          <g id="Grupo_16193" data-name="Grupo 16193">
            <g id="Grupo_15839" data-name="Grupo 15839">
              <g id="Grupo_15836" data-name="Grupo 15836">
                <g id="Rectángulo_235" data-name="Rectángulo 235">
                  <g id="Group_21394" data-name="Group 21394">
                    <rect id="Rectangle_7083" data-name="Rectangle 7083" width="48" height="48" transform="translate(223.286 204.564)" fill="none"/>
                  </g>
                </g>
              </g>
            </g>
          </g>
        </g>
      </g>
      <g id="streamline-icon-kindle_50x50" data-name="streamline-icon-kindle 50x50">
        <g id="Trazado_3803" data-name="Trazado 3803">
          <g id="Group_21395" data-name="Group 21395">
            <path id="Path_12218" data-name="Path 12218" d="M252.286,222.564h-11a1,1,0,0,1,0-2h11a1,1,0,0,1,0,2Z" fill="#9d9d9d"/>
          </g>
        </g>
        <g id="Trazado_3804" data-name="Trazado 3804">
          <g id="Group_21396" data-name="Group 21396">
            <path id="Path_12219" data-name="Path 12219" d="M252.286,226.1h-11a1,1,0,0,1,0-2h11a1,1,0,0,1,0,2Z" fill="#9d9d9d"/>
          </g>
        </g>
        <g id="Trazado_3805" data-name="Trazado 3805">
          <g id="Group_21397" data-name="Group 21397">
            <path id="Path_12220" data-name="Path 12220" d="M248.286,229.564h-7a1,1,0,0,1,0-2h7a1,1,0,0,1,0,2Z" fill="#9d9d9d"/>
          </g>
        </g>
        <g id="Trazado_3806" data-name="Trazado 3806">
          <g id="Group_21398" data-name="Group 21398">
            <path id="Path_12221" data-name="Path 12221" d="M258.286,242.564h-22a1,1,0,0,1-1-1v-27a1,1,0,0,1,1-1h22a1,1,0,0,1,1,1v27A1,1,0,0,1,258.286,242.564Zm-21-2h20v-25h-20Z" fill="#9d9d9d"/>
          </g>
        </g>
        <g id="Trazado_3807" data-name="Trazado 3807">
          <g id="Group_21399" data-name="Group 21399">
            <path id="Path_12222" data-name="Path 12222" d="M258.286,237.564h-22a1,1,0,0,1,0-2h22a1,1,0,0,1,0,2Z" fill="#9d9d9d"/>
          </g>
        </g>
      </g>
    </g>
  </g>
</svg>
