<svg id="Grupo_21699" data-name="Grupo 21699" xmlns="http://www.w3.org/2000/svg" width="30" height="30" viewBox="0 0 30 30">
  <g id="Grupo_21634" data-name="Grupo 21634" transform="translate(0 0)">
    <rect id="Rectángulo_7128" data-name="Rectángulo 7128" width="30" height="30" fill="none"/>
  </g>
  <g id="Grupo_21638" data-name="Grupo 21638" transform="translate(7.237 4.686)">
    <g id="Trazado_3628" data-name="Trazado 3628" transform="translate(4.01 16.821)">
      <path id="Trazado_12319" data-name="Trazado 12319" d="M235.237,182.665a3.518,3.518,0,0,1-3.753-3.21.6.6,0,0,1,1.191,0,2.635,2.635,0,0,0,5.124,0,.6.6,0,1,1,1.191,0A3.518,3.518,0,0,1,235.237,182.665Z" transform="translate(-231.484 -178.859)" fill="red"/>
    </g>
    <g id="Grupo_21635" data-name="Grupo 21635" transform="translate(0 15.275)">
      <path id="Trazado_12320" data-name="Trazado 12320" d="M241.366,178.1H227.031a.6.6,0,1,1,0-1.191h14.336a.6.6,0,0,1,0,1.191Z" transform="translate(-226.435 -176.912)" fill="#006c30"/>
    </g>
    <g id="Grupo_21636" data-name="Grupo 21636" transform="translate(0.957 2.157)">
      <path id="Trazado_12321" data-name="Trazado 12321" d="M240.654,172.428h-.027a.6.6,0,0,1-.569-.622c0-.164,0-4.8,0-4.867a5.622,5.622,0,0,0-11.23,0c0,.068,0,4.722,0,4.882a.6.6,0,0,1-.582.606h-.014a.6.6,0,0,1-.595-.573c0-.087,0-4.867,0-4.915a6.812,6.812,0,0,1,13.613,0c0,.048,0,4.829,0,4.921A.6.6,0,0,1,240.654,172.428Z" transform="translate(-227.64 -160.395)" fill="#006c30"/>
    </g>
    <g id="Grupo_21637" data-name="Grupo 21637" transform="translate(5.528)">
      <path id="Trazado_12322" data-name="Trazado 12322" d="M237.271,160.661a.6.6,0,0,1-.6-.6,1.054,1.054,0,1,0-2.089,0,.6.6,0,1,1-1.191,0,2.24,2.24,0,1,1,4.471,0A.6.6,0,0,1,237.271,160.661Z" transform="translate(-233.395 -157.679)" fill="#006c30"/>
    </g>
  </g>
</svg>
