<svg xmlns="http://www.w3.org/2000/svg" width="54" height="54" viewBox="0 0 54 54">
  <g id="Group_21165" data-name="Group 21165" transform="translate(-598.398 -559.338)">
    <g id="Grupo_16319" data-name="Grupo 16319" transform="translate(598.398 559.508)">
      <g id="Grupo_16277" data-name="Grupo 16277">
        <g id="Grupo_16269" data-name="Grupo 16269">
          <g id="Grupo_16259" data-name="Grupo 16259">
            <g id="Grupo_16234" data-name="Grupo 16234">
              <g id="Grupo_16193" data-name="Grupo 16193">
                <g id="Grupo_15839" data-name="Grupo 15839">
                  <g id="Grupo_15836" data-name="Grupo 15836">
                    <rect id="Rectángulo_235" data-name="Rectángulo 235" width="54" height="54" transform="translate(0 -0.17)" fill="none"/>
                  </g>
                </g>
              </g>
            </g>
          </g>
        </g>
      </g>
    </g>
    <g id="Group_21164" data-name="Group 21164" transform="translate(606.569 567.585)">
      <path id="Trazado_4112" data-name="Trazado 4112" d="M610.958,584.508h3.5a.8.8,0,0,1,.831.766.775.775,0,0,1,0,.1v15.577a.8.8,0,0,1-.728.864.764.764,0,0,1-.1,0h-3.5" transform="translate(-608.073 -564.314)" fill="none" stroke="#006c30" stroke-linecap="round" stroke-linejoin="round" stroke-width="3"/>
      <path id="Trazado_4113" data-name="Trazado 4113" d="M620.631,582.113l-3.228,4.019a2.357,2.357,0,0,1-1.756.878h-1.689" transform="translate(-606.746 -565.373)" fill="none" stroke="#006c30" stroke-linecap="round" stroke-linejoin="round" stroke-width="3"/>
      <path id="Trazado_4114" data-name="Trazado 4114" d="M614.008,596.954c3.494,2.644,6.673,4.421,8.728,4.421h10.2c1.238,0,2.015-.088,2.552-1.7a103.1,103.1,0,0,0,1.7-12.466c0-.85-.851-1.7-2.552-1.7h-9.164" transform="translate(-606.724 -563.871)" fill="none" stroke="#006c30" stroke-linecap="round" stroke-linejoin="round" stroke-width="3"/>
      <path id="Trazado_4115" data-name="Trazado 4115" d="M619.653,589.747l-2.6-18.194a.918.918,0,0,1,.78-1.037.941.941,0,0,1,.127-.009h13.379" transform="translate(-605.379 -570.508)" fill="none" stroke="#006c30" stroke-linecap="round" stroke-linejoin="round" stroke-width="3"/>
      <path id="Trazado_4116" data-name="Trazado 4116" d="M623.153,589.377l-1.539-13.94a.84.84,0,0,1,.744-.925.709.709,0,0,1,.1,0h11.59a.839.839,0,0,1,.85.829.906.906,0,0,1-.01.14l-2.318,14.009" transform="translate(-603.361 -568.738)" fill="none" stroke="#006c30" stroke-linecap="round" stroke-linejoin="round" stroke-width="3"/>
      <path id="Trazado_4117" data-name="Trazado 4117" d="M626.206,579.509a.577.577,0,1,1-.014,0h-.061" transform="translate(-601.609 -566.526)" fill="none" stroke="#006c30" stroke-linecap="round" stroke-linejoin="round" stroke-width="3"/>
      <path id="Trazado_4146" data-name="Trazado 4146" d="M608.958,573.508h5.77" transform="translate(-608.958 -569.181)" fill="none" stroke="red" stroke-linecap="round" stroke-linejoin="round" stroke-width="3"/>
      <path id="Trazado_4148" data-name="Trazado 4148" d="M610.958,571.508v5.77" transform="translate(-608.073 -570.066)" fill="none" stroke="red" stroke-linecap="round" stroke-linejoin="round" stroke-width="3"/>
      <path id="Trazado_4146-2" data-name="Trazado 4146" d="M633.837,580.775h5.77" transform="translate(-597.95 -565.965)" fill="none" stroke="red" stroke-linecap="round" stroke-linejoin="round" stroke-width="3"/>
      <path id="Trazado_4148-2" data-name="Trazado 4148" d="M635.837,578.775v5.77" transform="translate(-597.065 -566.85)" fill="none" stroke="red" stroke-linecap="round" stroke-linejoin="round" stroke-width="3"/>
    </g>
  </g>
</svg>
