<?xml version="1.0" encoding="UTF-8"?>
<svg id="notificaciones" xmlns="http://www.w3.org/2000/svg" viewBox="0 0 40 40">
  <defs>
    <style>
      .cls-1 {
        fill: #9d9d9d;
      }

      .cls-2 {
        fill: none;
      }
    </style>
  </defs>
  <g id="Grupo_16254" data-name="Grupo 16254">
    <g id="Grupo_16234" data-name="Grupo 16234">
      <g id="Grupo_16193" data-name="Grupo 16193">
        <g id="Grupo_15839" data-name="Grupo 15839">
          <g id="Grupo_15836" data-name="Grupo 15836">
            <g id="Rectángulo_235" data-name="Rectángulo 235">
              <rect class="cls-2" width="40" height="40"/>
            </g>
          </g>
        </g>
      </g>
    </g>
  </g>
  <g>
    <path class="cls-1" d="M30.93,16.76h-1.52c-.41,0-.75-.34-.75-.75s.34-.75,.75-.75h.77v-5.6H9.82v5.6h.89c.41,0,.75,.34,.75,.75s-.34,.75-.75,.75h-1.64c-.41,0-.75-.34-.75-.75v-7.1c0-.41,.34-.75,.75-.75H30.93c.41,0,.75,.34,.75,.75v7.1c0,.41-.34,.75-.75,.75Z"/>
    <path class="cls-1" d="M28.37,31.83H11.63c-.41,0-.75-.34-.75-.75s.34-.75,.75-.75H28.37c.41,0,.75,.34,.75,.75s-.34,.75-.75,.75Z"/>
    <path class="cls-1" d="M28.04,28.55H11.96c-.22,0-.42-.09-.56-.25-.14-.16-.21-.38-.18-.59l2-15.79c.05-.38,.37-.66,.74-.66h12.09c.38,0,.7,.28,.74,.66l2,15.79c.03,.21-.04,.43-.18,.59-.14,.16-.35,.25-.56,.25Zm-15.24-1.5h14.39l-1.81-14.29H14.62l-1.81,14.29Z"/>
    <path class="cls-1" d="M19.88,23.55c-.89,0-1.75-.43-2.3-1.15-.23-.3-.17-.73,.13-.95,.12-.09,.26-.14,.41-.14,.21,0,.41,.1,.54,.27,.29,.39,.76,.62,1.25,.62,.92,0,1.48-.46,1.48-.88s-.57-.87-1.4-.87c-1.55,0-2.76-.99-2.76-2.25s1.21-2.24,2.76-2.24h.12c.88,0,1.74,.42,2.29,1.14,.11,.14,.16,.32,.14,.5-.02,.18-.12,.34-.26,.45-.12,.09-.26,.14-.42,.14-.21,0-.41-.1-.54-.27-.29-.38-.76-.61-1.24-.61-.93,0-1.49,.45-1.49,.88s.56,.88,1.4,.88c1.55,0,2.76,.98,2.76,2.24s-1.21,2.24-2.76,2.24h-.12Z"/>
    <path class="cls-1" d="M20,16.45c-.38,0-.68-.31-.68-.68s.31-.68,.68-.68,.68,.31,.68,.68-.31,.68-.68,.68Z"/>
    <path class="cls-1" d="M20,24.48c-.38,0-.68-.31-.68-.68s.31-.68,.68-.68,.68,.31,.68,.68-.31,.68-.68,.68Z"/>
  </g>
</svg>