<svg xmlns="http://www.w3.org/2000/svg" width="56" height="56" viewBox="0 0 56 56">
  <g id="Group_20918" data-name="Group 20918" transform="translate(16231 21581)">
    <g id="Grupo_16351" data-name="Grupo 16351" transform="translate(-20234 -11524)">
      <g id="Grupo_16347" data-name="Grupo 16347" transform="translate(12062 -4933)">
        <g id="Grupo_16199" data-name="Grupo 16199" transform="translate(-8059 -5124)">
          <g id="Grupo_16193" data-name="Grupo 16193">
            <g id="Grupo_15839" data-name="Grupo 15839">
              <g id="Grupo_15836" data-name="Grupo 15836">
                <rect id="Rectángulo_235" data-name="Rectángulo 235" width="56" height="56" fill="none"/>
              </g>
            </g>
          </g>
        </g>
      </g>
    </g>
    <g id="Group_20915" data-name="Group 20915" transform="translate(103.366 -0.541)">
      <g id="Grupo_16350" data-name="Grupo 16350" transform="translate(-16328.366 -21569.459)">
        <g id="streamline-icon-hybrid-car-2_50x50" data-name="streamline-icon-hybrid-car-2@50x50" transform="translate(23.248 5.17)">
          <path id="Trazado_4471" data-name="Trazado 4471" d="M26.083,40.141H44.221a2.613,2.613,0,0,0,2.613-2.613,6.314,6.314,0,0,0-1.849-4.462l-3.379-3.379H30.884" transform="translate(-26.083 -19.234)" fill="none" stroke="#006c30" stroke-linecap="round" stroke-linejoin="round" stroke-width="2"/>
          <line id="Línea_309" data-name="Línea 309" x1="7.274" transform="translate(12.912 15.681)" fill="none" stroke="#006c30" stroke-linecap="round" stroke-linejoin="round" stroke-width="2"/>
          <path id="Trazado_4473" data-name="Trazado 4473" d="M31.9,17.187h2.51a3.918,3.918,0,0,1,3.669,2.543l2.962,7.911" transform="translate(-25.519 -17.187)" fill="none" stroke="#006c30" stroke-linecap="round" stroke-linejoin="round" stroke-width="2"/>
          <path id="Trazado_4476" data-name="Trazado 4476" d="M44.29,42.187V44.8a2.613,2.613,0,0,1-5.227,0V42.187Z" transform="translate(-26.151 -21.279)" fill="none" stroke="#006c30" stroke-linecap="round" stroke-linejoin="round" stroke-width="2"/>
        </g>
        <g id="streamline-icon-american-football-run-ball_50x50" data-name="streamline-icon-american-football-run-ball@50x50" transform="translate(4.111 0) rotate(8)">
          <path id="Trazado_4466" data-name="Trazado 4466" d="M0,3.446A3.446,3.446,0,1,0,3.446,0,3.446,3.446,0,0,0,0,3.446Z" transform="translate(5.908)" fill="none" stroke="#006c30" stroke-linecap="round" stroke-linejoin="round" stroke-width="2"/>
          <path id="Trazado_4467" data-name="Trazado 4467" d="M22.494,5.169a1,1,0,0,1-.46.624A1.97,1.97,0,0,0,24.058,9.17,4.95,4.95,0,0,0,19.3.5L7.226,6.542a2.017,2.017,0,0,1-1.271.171l-3.6-.728A1.949,1.949,0,0,0,.039,7.529,1.97,1.97,0,0,0,1.583,9.847l3.6.72a5.889,5.889,0,0,0,1.154.113,5.97,5.97,0,0,0,2.65-.624L11.4,8.847l1.881,3.572L9.159,14.555a3.927,3.927,0,0,0-2.1,2.989l-.642,4.888a1.97,1.97,0,0,0,1.7,2.207,1.894,1.894,0,0,0,.263.017,1.97,1.97,0,0,0,1.95-1.707l.644-4.888L15.3,15.815a2.034,2.034,0,0,0,.185-.149l4.67,2.8a1.97,1.97,0,0,0,1.895.074l5.908-2.954A1.97,1.97,0,0,0,26.2,12.071l-4.942,2.47-1.05-.631" transform="translate(0 4.885)" fill="none" stroke="#006c30" stroke-linecap="round" stroke-linejoin="round" stroke-width="2"/>
          <path id="Trazado_4468" data-name="Trazado 4468" d="M4.968,3.376C2.537,5.969,0,3.4,0,3.4S.257.94,2.192.175a3.361,3.361,0,0,1,3.215.6" transform="translate(17.098 8.895)" fill="none" stroke="#d4001a" stroke-linecap="round" stroke-linejoin="round" stroke-width="2"/>
        </g>
      </g>
    </g>
  </g>
</svg>
