<?xml version="1.0" encoding="UTF-8"?>
<svg id="_40_px" data-name="40 px" xmlns="http://www.w3.org/2000/svg" viewBox="0 0 40 40">
  <defs>
    <style>
      .cls-1 {
        fill: #9d9d9d;
      }

      .cls-2 {
        stroke-miterlimit: 10;
      }

      .cls-2, .cls-3 {
        stroke: #9d9d9d;
        stroke-width: 1.5px;
      }

      .cls-2, .cls-3, .cls-4 {
        fill: none;
      }

      .cls-3 {
        stroke-linecap: round;
        stroke-linejoin: round;
      }
    </style>
  </defs>
  <g id="Grupo_16256" data-name="Grupo 16256">
    <g id="Grupo_16254" data-name="Grupo 16254">
      <g id="Grupo_16234" data-name="Grupo 16234">
        <g id="Grupo_16193" data-name="Grupo 16193">
          <g id="Grupo_15839" data-name="Grupo 15839">
            <g id="Grupo_15836" data-name="Grupo 15836">
              <rect id="Rectángulo_235" data-name="Rectángulo 235" class="cls-4" y="-.07" width="40" height="40"/>
            </g>
          </g>
        </g>
      </g>
    </g>
  </g>
  <g>
    <rect class="cls-2" x="8.27" y="11.21" width="23.46" height="17.43" rx="2.15" ry="2.15"/>
    <line class="cls-3" x1="8.64" y1="15.55" x2="31.45" y2="15.55"/>
    <path class="cls-1" d="M27.37,25.74c-.66,0-1.31-.32-1.72-.86-.17-.22-.13-.54,.1-.71,.09-.07,.2-.11,.31-.11,.16,0,.31,.07,.41,.2,.22,.29,.57,.46,.93,.46,.69,0,1.11-.34,1.11-.66s-.43-.65-1.05-.65c-1.16,0-2.06-.74-2.06-1.68s.91-1.67,2.06-1.67h.09c.66,0,1.3,.32,1.71,.85,.08,.11,.12,.24,.1,.38-.02,.13-.09,.26-.19,.34-.09,.07-.2,.11-.31,.11-.16,0-.31-.07-.4-.2-.22-.28-.57-.45-.93-.45-.7,0-1.11,.33-1.11,.65s.42,.66,1.04,.66c1.16,0,2.06,.73,2.06,1.67s-.91,1.67-2.06,1.67h-.09Z"/>
    <path class="cls-1" d="M27.45,20.43c-.28,0-.51-.23-.51-.51s.23-.51,.51-.51,.51,.23,.51,.51-.23,.51-.51,.51Z"/>
    <path class="cls-1" d="M27.45,26.43c-.28,0-.51-.23-.51-.51s.23-.51,.51-.51,.51,.23,.51,.51-.23,.51-.51,.51Z"/>
  </g>
  <rect class="cls-4" y="-.07" width="40" height="40"/>
</svg>