<?xml version="1.0" encoding="UTF-8"?>
<svg id="Capa_2" data-name="Capa 2" xmlns="http://www.w3.org/2000/svg" viewBox="0 0 80 80">
  <defs>
    <style>
      .cls-1 {
        fill: #66a630;
      }

      .cls-2 {
        fill: #65a630;
      }

      .cls-3 {
        fill: none;
      }

      .cls-4 {
        fill: #06a3a8;
      }
    </style>
  </defs>
  <rect class="cls-3" x="4.54" y="4.54" width="70.92" height="70.92"/>
  <g>
    <path class="cls-4" d="M54.21,32.63c-2.7,0-4.22-1.39-4.53-4.13-.24-2.13-2.1-2.46-3.18-2.47-4.38-.04-8.77-.04-13.15,0-1.77,.02-2.9,.96-3.09,2.59-.32,2.73-1.91,4.11-4.71,4-1.43-.04-2.85-.04-4.28-.03-.75,0-1.51,0-2.27,0-2.36-.01-3.8-1.4-3.95-3.8-.41-6.32,2.98-10.58,9.29-11.69,10.32-1.82,20.96-1.8,31.62,.04,5.98,1.04,9.58,5.8,8.97,11.85-.23,2.25-1.63,3.57-3.85,3.6-.87,.01-1.74,0-2.61,0h-2c-.56-.01-1.11-.03-1.67,.01-.2,.01-.39,.02-.58,.02Zm-14.41-10.18c2.15,0,4.38,0,6.72,.03,3.67,.03,6.29,2.23,6.68,5.62,.11,.98,.11,1.05,1.35,.97,.65-.04,1.31-.03,1.97-.02h1.96c.84,0,1.69,.01,2.54,0,.18,0,.27-.03,.31-.04,0-.02,.04-.14,.06-.37,.42-4.15-1.95-7.29-6.05-8-10.25-1.78-20.48-1.79-30.4-.05-4.51,.8-6.65,3.48-6.36,7.97,.02,.27,.06,.41,.08,.46,.03,0,.14,.02,.35,.02,.74,0,1.49,0,2.24,0,1.46,0,2.93-.02,4.4,.03,.7,.03,.87-.1,.87-.1,0,0,.14-.15,.21-.77,.4-3.39,3.04-5.69,6.58-5.73,2.1-.02,4.25-.03,6.5-.03Z"/>
    <g>
      <circle class="cls-2" cx="27.61" cy="41.37" r="2.44"/>
      <path class="cls-1" d="M27.61,44.26c-1.59,0-2.89-1.3-2.89-2.89s1.3-2.89,2.89-2.89,2.89,1.3,2.89,2.89-1.3,2.89-2.89,2.89Zm0-4.89c-1.1,0-2,.9-2,2s.9,2,2,2,2-.9,2-2-.9-2-2-2Z"/>
    </g>
    <g>
      <circle class="cls-4" cx="40.21" cy="41.37" r="2.44"/>
      <path class="cls-4" d="M40.21,44.26c-1.59,0-2.89-1.3-2.89-2.89s1.3-2.89,2.89-2.89,2.89,1.3,2.89,2.89-1.3,2.89-2.89,2.89Zm0-4.89c-1.1,0-2,.9-2,2s.9,2,2,2,2-.9,2-2-.9-2-2-2Z"/>
    </g>
    <g>
      <circle class="cls-2" cx="52.81" cy="41.37" r="2.44"/>
      <path class="cls-1" d="M52.81,44.26c-1.59,0-2.89-1.3-2.89-2.89s1.3-2.89,2.89-2.89,2.89,1.3,2.89,2.89-1.3,2.89-2.89,2.89Zm0-4.89c-1.1,0-2,.9-2,2s.9,2,2,2,2-.9,2-2-.9-2-2-2Z"/>
    </g>
    <g>
      <circle class="cls-2" cx="27.61" cy="51.26" r="2.44"/>
      <path class="cls-1" d="M27.61,54.15c-1.59,0-2.89-1.3-2.89-2.89s1.3-2.89,2.89-2.89,2.89,1.3,2.89,2.89-1.3,2.89-2.89,2.89Zm0-4.89c-1.1,0-2,.9-2,2s.9,2,2,2,2-.9,2-2-.9-2-2-2Z"/>
    </g>
    <g>
      <circle class="cls-2" cx="40.21" cy="51.26" r="2.44"/>
      <path class="cls-1" d="M40.21,54.15c-1.59,0-2.89-1.3-2.89-2.89s1.3-2.89,2.89-2.89,2.89,1.3,2.89,2.89-1.3,2.89-2.89,2.89Zm0-4.89c-1.1,0-2,.9-2,2s.9,2,2,2,2-.9,2-2-.9-2-2-2Z"/>
    </g>
    <g>
      <circle class="cls-2" cx="52.81" cy="51.26" r="2.44"/>
      <path class="cls-1" d="M52.81,54.15c-1.59,0-2.89-1.3-2.89-2.89s1.3-2.89,2.89-2.89,2.89,1.3,2.89,2.89-1.3,2.89-2.89,2.89Zm0-4.89c-1.1,0-2,.9-2,2s.9,2,2,2,2-.9,2-2-.9-2-2-2Z"/>
    </g>
    <g>
      <circle class="cls-2" cx="27.61" cy="61.36" r="2.44"/>
      <path class="cls-1" d="M27.61,64.25c-1.59,0-2.89-1.3-2.89-2.89s1.3-2.89,2.89-2.89,2.89,1.3,2.89,2.89-1.3,2.89-2.89,2.89Zm0-4.89c-1.1,0-2,.9-2,2s.9,2,2,2,2-.9,2-2-.9-2-2-2Z"/>
    </g>
    <g>
      <circle class="cls-2" cx="40.21" cy="61.36" r="2.44"/>
      <path class="cls-1" d="M40.21,64.25c-1.59,0-2.89-1.3-2.89-2.89s1.3-2.89,2.89-2.89,2.89,1.3,2.89,2.89-1.3,2.89-2.89,2.89Zm0-4.89c-1.1,0-2,.9-2,2s.9,2,2,2,2-.9,2-2-.9-2-2-2Z"/>
    </g>
    <g>
      <circle class="cls-2" cx="52.81" cy="61.36" r="2.44"/>
      <path class="cls-1" d="M52.81,64.25c-1.59,0-2.89-1.3-2.89-2.89s1.3-2.89,2.89-2.89,2.89,1.3,2.89,2.89-1.3,2.89-2.89,2.89Zm0-4.89c-1.1,0-2,.9-2,2s.9,2,2,2,2-.9,2-2-.9-2-2-2Z"/>
    </g>
  </g>
</svg>