<svg xmlns="http://www.w3.org/2000/svg" xmlns:xlink="http://www.w3.org/1999/xlink" width="54" height="54" viewBox="0 0 54 54">
  <defs>
    <clipPath id="clip-path">
      <rect id="Rectangle_7036" data-name="Rectangle 7036" width="54" height="54" transform="translate(-12859 -22243)" fill="none" stroke="#707070" stroke-width="1"/>
    </clipPath>
  </defs>
  <g id="Mask_Group_21" data-name="Mask Group 21" transform="translate(12859 22243)" clip-path="url(#clip-path)">
    <g id="Group_21138" data-name="Group 21138" transform="translate(2.512 5)">
      <g id="Group_21131" data-name="Group 21131" transform="translate(-12850 -22244)">
        <g id="Path_12115" data-name="Path 12115" transform="translate(0.488)" fill="none">
          <path d="M6,0H24a6,6,0,0,1,6,6V40a6,6,0,0,1-6,6H6a6,6,0,0,1-6-6V6A6,6,0,0,1,6,0Z" stroke="none"/>
          <path d="M 6 3 C 4.345790863037109 3 3 4.345790863037109 3 6 L 3 40 C 3 41.65420913696289 4.345790863037109 43 6 43 L 24 43 C 25.65420913696289 43 27 41.65420913696289 27 40 L 27 6 C 27 4.345790863037109 25.65420913696289 3 24 3 L 6 3 M 6 0 L 24 0 C 27.3137092590332 0 30 2.686290740966797 30 6 L 30 40 C 30 43.3137092590332 27.3137092590332 46 24 46 L 6 46 C 2.686290740966797 46 0 43.3137092590332 0 40 L 0 6 C 0 2.686290740966797 2.686290740966797 0 6 0 Z" stroke="none" fill="#006729"/>
        </g>
        <path id="Path_12106" data-name="Path 12106" d="M-12847.378-22193.334h26.349" transform="translate(12849.684 22227)" fill="none" stroke="#e60018" stroke-linecap="round" stroke-width="3"/>
        <circle id="Ellipse_1298" data-name="Ellipse 1298" cx="2" cy="2" r="2" transform="translate(13.488 37)" fill="#006729"/>
        <path id="Path_12107" data-name="Path 12107" d="M-12847.378-22193.334h26.349" transform="translate(12849.684 22201)" fill="none" stroke="#006729" stroke-linecap="round" stroke-width="3"/>
      </g>
    </g>
  </g>
</svg>
