<svg id="warning-24px" xmlns="http://www.w3.org/2000/svg" width="60" height="60" viewBox="0 0 60 60">
  <g id="Grupo_42" data-name="Grupo 42">
    <rect id="Rectángulo_12" data-name="Rectángulo 12" width="60" height="60" fill="none"/>
  </g>
  <g id="Grupo_43" data-name="Grupo 43" transform="translate(1.727 2.997)">
    <path id="Trazado_10762" data-name="Trazado 10762" d="M4.488,57H55.5a3.015,3.015,0,0,0,2.4-4.5L32.376,4.5a2.635,2.635,0,0,0-4.763,0L2.093,52.5A3.015,3.015,0,0,0,4.488,57ZM30.009,39a2.893,2.893,0,0,1-2.753-3V27a2.763,2.763,0,1,1,5.506,0v9A2.893,2.893,0,0,1,30.009,39Zm2.753,6a2.763,2.763,0,1,1-2.753-3A2.893,2.893,0,0,1,32.762,45Z" transform="translate(-1.727 -2.998)" fill="#f7b500"/>
  </g>
</svg>
