<svg xmlns="http://www.w3.org/2000/svg" width="40" height="40" viewBox="0 0 40 40">
  <g id="Group_21956" data-name="Group 21956" transform="translate(-466.527 -231.533)">
    <g id="Group_21963" data-name="Group 21963">
      <g id="Group_21957" data-name="Group 21957">
        <path id="Path_12660" data-name="Path 12660" d="M494.1,244.974a2.75,2.75,0,1,1,2.75-2.75A2.754,2.754,0,0,1,494.1,244.974Zm0-4a1.25,1.25,0,1,0,1.25,1.25A1.251,1.251,0,0,0,494.1,240.974Z" fill="#006c30"/>
      </g>
      <g id="Group_21958" data-name="Group 21958">
        <path id="Path_12661" data-name="Path 12661" d="M494.1,240.974h-6.335a.75.75,0,0,1,0-1.5H494.1a.75.75,0,0,1,0,1.5Z" fill="#006c30"/>
      </g>
      <g id="Group_21959" data-name="Group 21959">
        <path id="Path_12662" data-name="Path 12662" d="M488.107,263.593c-.161,0-.262-.01-.279-.011l-10.871,0a.75.75,0,0,1,0-1.5,2.477,2.477,0,0,0,1.858-.688,4.18,4.18,0,0,0,.945-2.624v-9.25a.75.75,0,0,1,1.5,0v9.242a5.9,5.9,0,0,1-1.058,3.32h7.7a3.394,3.394,0,0,0,2.384-.777,4.067,4.067,0,0,0,1.067-3.116V242.009a.75.75,0,1,1,1.5,0v16.183a5.464,5.464,0,0,1-1.569,4.236A4.8,4.8,0,0,1,488.107,263.593Z" fill="#006c30"/>
      </g>
      <g id="Group_21960" data-name="Group 21960">
        <path id="Path_12663" data-name="Path 12663" d="M489.054,254.2h-5a.75.75,0,0,1,0-1.5h5a.75.75,0,0,1,0,1.5Z" fill="#006c30"/>
      </g>
      <g id="Group_21961" data-name="Group 21961">
        <path id="Path_12664" data-name="Path 12664" d="M489.054,257.159h-2a.75.75,0,0,1,0-1.5h2a.75.75,0,0,1,0,1.5Z" fill="#006c30"/>
      </g>
      <g id="Group_21962" data-name="Group 21962">
        <path id="Path_12665" data-name="Path 12665" d="M489.054,251.239h-5a.75.75,0,0,1,0-1.5h5a.75.75,0,0,1,0,1.5Z" fill="#006c30"/>
      </g>
      <g id="Trazado_3619" data-name="Trazado 3619">
        <path id="Path_12666" data-name="Path 12666" d="M481.51,247.936a4.206,4.206,0,1,1,0-8.412.7.7,0,1,1,0,1.4,2.806,2.806,0,1,0,2.806,2.806.7.7,0,1,1,1.4,0A4.21,4.21,0,0,1,481.51,247.936Z" fill="#006c30"/>
      </g>
      <g id="Trazado_3620" data-name="Trazado 3620">
        <path id="Path_12667" data-name="Path 12667" d="M481.507,245.121a1.132,1.132,0,0,1-.8-.331l-1.008-1.007a.7.7,0,0,1,.99-.99l.819.82,3.012-3.012a.7.7,0,0,1,.99.991l-3.194,3.194a1.131,1.131,0,0,1-.8.335Zm-.184-1.324h0Zm.366,0h0Z" fill="red"/>
      </g>
    </g>
    <g id="Group_21964" data-name="Group 21964">
      <rect id="Rectangle_7214" data-name="Rectangle 7214" width="40" height="40" transform="translate(466.528 231.533)" fill="none"/>
    </g>
  </g>
</svg>
