<svg id="Grupo_21060" data-name="Grupo 21060" xmlns="http://www.w3.org/2000/svg" width="34" height="34" viewBox="0 0 34 34">
  <g id="Grupo_16256" data-name="Grupo 16256" transform="translate(0 0)">
    <g id="Grupo_16254" data-name="Grupo 16254">
      <g id="Grupo_16234" data-name="Grupo 16234">
        <g id="Grupo_16193" data-name="Grupo 16193">
          <g id="Grupo_15839" data-name="Grupo 15839">
            <g id="Grupo_15836" data-name="Grupo 15836">
              <g id="Rectángulo_235" data-name="Rectángulo 235">
                <rect id="Rectangle_7017" data-name="Rectangle 7017" width="34" height="34" fill="none"/>
              </g>
            </g>
          </g>
        </g>
      </g>
    </g>
    <g id="streamline-icon-kindle_50x50" data-name="streamline-icon-kindle 50x50" transform="translate(8.706 6.611)">
      <g id="Trazado_3803" data-name="Trazado 3803" transform="translate(3.456 4.838)">
        <path id="Path_12034" data-name="Path 12034" d="M-88.005,254.012h-7.6a.691.691,0,0,1-.691-.691.691.691,0,0,1,.691-.691h7.6a.691.691,0,0,1,.691.691A.691.691,0,0,1-88.005,254.012Z" transform="translate(96.299 -252.63)" fill="#006c30"/>
      </g>
      <g id="Trazado_3804" data-name="Trazado 3804" transform="translate(3.456 6.911)">
        <path id="Path_12035" data-name="Path 12035" d="M-88.005,257.012h-7.6a.691.691,0,0,1-.691-.691.691.691,0,0,1,.691-.691h7.6a.691.691,0,0,1,.691.691A.691.691,0,0,1-88.005,257.012Z" transform="translate(96.299 -255.63)" fill="#006c30"/>
      </g>
      <g id="Trazado_3805" data-name="Trazado 3805" transform="translate(3.456 9.676)">
        <path id="Path_12036" data-name="Path 12036" d="M-90.77,261.012h-4.838a.691.691,0,0,1-.691-.691.691.691,0,0,1,.691-.691h4.838a.691.691,0,0,1,.691.691A.691.691,0,0,1-90.77,261.012Z" transform="translate(96.299 -259.63)" fill="#962b2b"/>
      </g>
      <g id="Trazado_3806" data-name="Trazado 3806">
        <path id="Path_12037" data-name="Path 12037" d="M-85.4,265.673h-15.205a.691.691,0,0,1-.691-.691V246.321a.691.691,0,0,1,.691-.691H-85.4a.691.691,0,0,1,.691.691v18.661A.691.691,0,0,1-85.4,265.673Zm-14.514-1.382h13.823V247.012H-99.917Z" transform="translate(101.299 -245.63)" fill="#006c30"/>
      </g>
      <g id="Trazado_3807" data-name="Trazado 3807" transform="translate(0 15.205)">
        <path id="Path_12038" data-name="Path 12038" d="M-85.4,269.012h-15.205a.691.691,0,0,1-.691-.691.691.691,0,0,1,.691-.691H-85.4a.691.691,0,0,1,.691.691A.691.691,0,0,1-85.4,269.012Z" transform="translate(101.299 -267.63)" fill="#006c30"/>
      </g>
    </g>
  </g>
</svg>
