<svg id="Grupo_21063" data-name="Grupo 21063" xmlns="http://www.w3.org/2000/svg" width="34" height="34" viewBox="0 0 34 34">
  <g id="Grupo_16257" data-name="Grupo 16257" transform="translate(0 0)">
    <g id="Grupo_16253" data-name="Grupo 16253">
      <g id="Grupo_16234-3" data-name="Grupo 16234-3">
        <g id="Grupo_16193-3" data-name="Grupo 16193-3">
          <g id="Grupo_15839-4" data-name="Grupo 15839-4">
            <g id="Grupo_15836-4" data-name="Grupo 15836-4">
              <g id="Rectángulo_235-4" data-name="Rectángulo 235-4">
                <rect id="Rectangle_7020" data-name="Rectangle 7020" width="34" height="34" fill="none"/>
              </g>
            </g>
          </g>
        </g>
      </g>
    </g>
    <g id="streamline-icon-tablet_50x50" data-name="streamline-icon-tablet 50x50" transform="translate(9.432 5.941)">
      <g id="Trazado_3798" data-name="Trazado 3798" transform="translate(0 16.588)">
        <path id="Path_12061" data-name="Path 12061" d="M-84.4,410.344H-99.608a.691.691,0,0,1-.691-.691.691.691,0,0,1,.691-.691H-84.4a.691.691,0,0,1,.691.691A.691.691,0,0,1-84.4,410.344Z" transform="translate(100.299 -408.962)" fill="#006c30"/>
      </g>
      <g id="Trazado_3799" data-name="Trazado 3799">
        <path id="Path_12062" data-name="Path 12062" d="M-84.4,407.079H-99.608a.69.69,0,0,1-.691-.691V385.653a.691.691,0,0,1,.691-.691H-84.4a.691.691,0,0,1,.691.691v20.734A.691.691,0,0,1-84.4,407.079ZM-98.917,405.7h13.823V386.344H-98.917Z" transform="translate(100.299 -384.962)" fill="#006c30"/>
      </g>
      <g id="Trazado_3800" data-name="Trazado 3800" transform="translate(3.456 4.147)">
        <path id="Path_12063" data-name="Path 12063" d="M-91.843,395.109h-2.765a.691.691,0,0,1-.691-.691v-2.765a.691.691,0,0,1,.691-.691h2.765a.691.691,0,0,1,.691.691v2.765A.691.691,0,0,1-91.843,395.109Zm-2.073-1.382h1.382v-1.382h-1.382Z" transform="translate(95.299 -390.962)" fill="#006c30"/>
      </g>
      <g id="Trazado_3801" data-name="Trazado 3801" transform="translate(8.985 4.147)">
        <path id="Path_12064" data-name="Path 12064" d="M-83.843,395.109h-2.765a.691.691,0,0,1-.691-.691v-2.765a.691.691,0,0,1,.691-.691h2.765a.691.691,0,0,1,.691.691v2.765A.691.691,0,0,1-83.843,395.109Zm-2.073-1.382h1.382v-1.382h-1.382Z" transform="translate(87.299 -390.962)" fill="#962b2b"/>
      </g>
      <g id="Trazado_3802" data-name="Trazado 3802" transform="translate(3.456 9.676)">
        <path id="Path_12065" data-name="Path 12065" d="M-91.843,403.109h-2.765a.691.691,0,0,1-.691-.691v-2.765a.691.691,0,0,1,.691-.691h2.765a.691.691,0,0,1,.691.691v2.765A.691.691,0,0,1-91.843,403.109Zm-2.073-1.382h1.382v-1.382h-1.382Z" transform="translate(95.299 -398.962)" fill="#006c30"/>
      </g>
    </g>
  </g>
</svg>
