<?xml version="1.0" encoding="UTF-8"?>
<svg xmlns="http://www.w3.org/2000/svg" xmlns:xlink="http://www.w3.org/1999/xlink" width="12pt" height="20pt" viewBox="0 0 12 20" version="1.1">
<defs>
<radialGradient id="radial0" gradientUnits="userSpaceOnUse" cx="27.47" cy="-4022.42" fx="27.47" fy="-4022.42" r="29.57" gradientTransform="matrix(0.220287,0,0,0.394706,-0.136059,1601.797131)">
<stop offset="0" style="stop-color:rgb(96.862745%,97.254902%,97.254902%);stop-opacity:1;"/>
<stop offset="1" style="stop-color:rgb(66.27451%,67.45098%,67.058824%);stop-opacity:1;"/>
</radialGradient>
<linearGradient id="linear0" gradientUnits="userSpaceOnUse" x1="15.91" y1="3.14" x2="39.1" y2="3.14" gradientTransform="matrix(0.215968,0,0,0.200358,0.000000000000000823,0.000000000000001421)">
<stop offset="0" style="stop-color:rgb(32.54902%,35.294118%,34.117647%);stop-opacity:1;"/>
<stop offset="1" style="stop-color:rgb(17.647059%,18.039216%,18.039216%);stop-opacity:1;"/>
</linearGradient>
<linearGradient id="linear1" gradientUnits="userSpaceOnUse" x1="12.7" y1="21.83" x2="17.78" y2="5.89" gradientTransform="matrix(0.215968,0,0,0.200358,0.000000000000000823,0.000000000000001421)">
<stop offset="0" style="stop-color:rgb(82.352941%,86.27451%,85.882353%);stop-opacity:1;"/>
<stop offset="1" style="stop-color:rgb(70.980392%,71.372549%,71.372549%);stop-opacity:1;"/>
</linearGradient>
<linearGradient id="linear2" gradientUnits="userSpaceOnUse" x1="41.9" y1="22.76" x2="37.86" y2="6.71" gradientTransform="matrix(0.215968,0,0,0.200358,0.000000000000000823,0.000000000000001421)">
<stop offset="0" style="stop-color:rgb(82.352941%,86.27451%,85.882353%);stop-opacity:1;"/>
<stop offset="1" style="stop-color:rgb(70.980392%,71.372549%,71.372549%);stop-opacity:1;"/>
</linearGradient>
<linearGradient id="linear3" gradientUnits="userSpaceOnUse" x1="27.56" y1="30.4" x2="38.21" y2="37.97" gradientTransform="matrix(0.215968,0,0,0.200358,0.000000000000000823,0.000000000000001421)">
<stop offset="0" style="stop-color:rgb(21.568627%,23.529412%,22.745098%);stop-opacity:1;"/>
<stop offset="1" style="stop-color:rgb(0.392157%,0.392157%,0.392157%);stop-opacity:1;"/>
</linearGradient>
<linearGradient id="linear4" gradientUnits="userSpaceOnUse" x1="20.28" y1="71.18" x2="28.16" y2="83.26" gradientTransform="matrix(0.215968,0,0,0.200358,0.000000000000000823,0.000000000000001421)">
<stop offset="0" style="stop-color:rgb(21.568627%,23.529412%,22.745098%);stop-opacity:1;"/>
<stop offset="1" style="stop-color:rgb(0.392157%,0.392157%,0.392157%);stop-opacity:1;"/>
</linearGradient>
</defs>
<g id="surface1">
<path style=" stroke:none;fill-rule:nonzero;fill:url(#radial0);" d="M 11.132812 3.21875 C 11.011719 2.335938 10.824219 1.878906 10.484375 1.515625 C 10.339844 1.539062 10.1875 1.515625 10.066406 1.4375 L 8.855469 0.671875 C 8.738281 0.59375 8.65625 0.46875 8.640625 0.335938 L 8.460938 0.289062 L 8.460938 1.257812 L 3.4375 1.257812 L 3.4375 0.289062 L 3.257812 0.335938 C 3.238281 0.46875 3.160156 0.59375 3.042969 0.671875 L 1.8125 1.4375 C 1.691406 1.515625 1.539062 1.539062 1.394531 1.515625 C 1.058594 1.878906 0.863281 2.335938 0.746094 3.21875 C 0.433594 5.558594 0.964844 9.234375 0.964844 10.140625 C 0.894531 14.96875 0.847656 17.90625 1.21875 18.929688 C 1.316406 19.136719 1.492188 19.308594 1.714844 19.410156 C 1.773438 19.386719 1.839844 19.375 1.90625 19.375 C 2.339844 19.375 2.554688 19.621094 3.035156 19.550781 C 3.144531 19.53125 3.257812 19.558594 3.347656 19.625 C 3.433594 19.6875 3.488281 19.785156 3.496094 19.890625 C 3.78125 19.929688 4.066406 19.953125 4.34375 19.976562 C 4.386719 19.921875 4.464844 19.890625 4.539062 19.890625 L 7.34375 19.890625 C 7.421875 19.890625 7.492188 19.921875 7.542969 19.976562 C 7.746094 19.960938 7.953125 19.941406 8.167969 19.917969 C 8.199219 19.757812 8.300781 19.503906 8.640625 19.550781 C 9.121094 19.621094 9.332031 19.375 9.765625 19.375 C 9.875 19.375 9.976562 19.40625 10.058594 19.46875 C 10.328125 19.367188 10.546875 19.171875 10.667969 18.929688 C 11.039062 17.90625 10.992188 14.96875 10.921875 10.140625 C 10.914062 9.234375 11.445312 5.558594 11.132812 3.21875 Z M 11.132812 3.21875 "/>
<path style=" stroke:none;fill-rule:nonzero;fill:url(#linear0);" d="M 8.445312 1.257812 L 8.445312 0.289062 C 6.800781 -0.09375 5.082031 -0.09375 3.4375 0.289062 L 3.4375 1.257812 Z M 8.445312 1.257812 "/>
<path style=" stroke:none;fill-rule:nonzero;fill:rgb(100%,100%,100%);fill-opacity:1;" d="M 10.820312 3.367188 C 10.628906 1.898438 10.238281 1.652344 9.277344 0.960938 C 7.984375 0.0273438 3.90625 0.0273438 2.605469 0.960938 C 1.644531 1.652344 1.253906 1.898438 1.058594 3.367188 C 0.761719 5.609375 1.265625 9.15625 1.253906 10.015625 C 1.1875 14.664062 1.140625 17.496094 1.496094 18.476562 C 1.898438 19.601562 5.941406 19.542969 5.941406 19.542969 C 5.941406 19.542969 9.984375 19.601562 10.386719 18.476562 C 10.738281 17.496094 10.695312 14.667969 10.628906 10.015625 C 10.617188 9.15625 11.117188 5.609375 10.820312 3.367188 Z M 10.820312 3.367188 "/>
<path style=" stroke:none;fill-rule:nonzero;fill:rgb(13.72549%,12.156863%,12.54902%);fill-opacity:1;" d="M 3.949219 8.214844 C 3.375 8.28125 2.8125 8.417969 2.273438 8.617188 L 2.339844 8.9375 C 2.882812 8.722656 3.449219 8.578125 4.035156 8.515625 C 5.300781 8.398438 6.578125 8.398438 7.84375 8.515625 C 8.429688 8.578125 9 8.722656 9.539062 8.9375 L 9.609375 8.617188 C 9.070312 8.417969 8.507812 8.28125 7.929688 8.214844 C 6.605469 8.101562 5.273438 8.101562 3.949219 8.214844 Z M 3.949219 8.214844 "/>
<path style=" stroke:none;fill-rule:nonzero;fill:rgb(13.72549%,12.156863%,12.54902%);fill-opacity:1;" d="M 2.015625 5.8125 C 2.59375 5.59375 3.195312 5.429688 3.804688 5.316406 C 5.21875 5.078125 6.664062 5.078125 8.074219 5.316406 C 8.6875 5.429688 9.289062 5.59375 9.867188 5.8125 C 9.972656 5.84375 10.066406 5.890625 10.152344 5.953125 L 10.152344 5.945312 C 10.152344 5.945312 10.210938 5.710938 10.171875 5.648438 C 10.089844 5.566406 9.984375 5.507812 9.863281 5.476562 C 9.285156 5.257812 8.683594 5.09375 8.074219 4.984375 C 6.660156 4.746094 5.21875 4.746094 3.804688 4.984375 C 3.191406 5.09375 2.589844 5.257812 2.011719 5.476562 C 1.894531 5.507812 1.789062 5.566406 1.707031 5.648438 C 1.667969 5.710938 1.726562 5.945312 1.726562 5.945312 L 1.726562 5.953125 C 1.8125 5.890625 1.910156 5.84375 2.015625 5.8125 Z M 2.015625 5.8125 "/>
<path style=" stroke:none;fill-rule:nonzero;fill:rgb(34.509804%,34.901961%,35.686275%);fill-opacity:1;" d="M 3.949219 8.214844 C 5.273438 8.101562 6.605469 8.101562 7.929688 8.214844 C 8.507812 8.28125 9.070312 8.417969 9.609375 8.617188 L 10.152344 5.945312 C 10.066406 5.886719 9.972656 5.839844 9.867188 5.8125 C 9.289062 5.59375 8.6875 5.429688 8.074219 5.316406 C 6.664062 5.078125 5.21875 5.078125 3.804688 5.316406 C 3.195312 5.429688 2.59375 5.59375 2.015625 5.8125 C 1.910156 5.84375 1.816406 5.890625 1.730469 5.953125 L 2.273438 8.617188 C 2.8125 8.417969 3.375 8.28125 3.949219 8.214844 Z M 3.949219 8.214844 "/>
<path style=" stroke:none;fill-rule:nonzero;fill:rgb(13.72549%,12.156863%,12.54902%);fill-opacity:1;" d="M 9.335938 15.898438 C 9.308594 15.789062 9.277344 15.671875 9.242188 15.554688 C 9.242188 15.554688 9.195312 15.578125 9.097656 15.609375 C 8.742188 15.730469 7.726562 16.007812 5.941406 16.007812 C 4.875 16.023438 3.8125 15.882812 2.789062 15.597656 C 2.691406 15.570312 2.640625 15.550781 2.640625 15.550781 C 2.605469 15.664062 2.574219 15.773438 2.546875 15.882812 C 2.386719 16.589844 2.339844 17.3125 2.410156 18.03125 C 2.976562 18.234375 3.558594 18.378906 4.15625 18.46875 C 5.34375 18.59375 6.539062 18.59375 7.722656 18.46875 C 8.324219 18.378906 8.90625 18.234375 9.472656 18.03125 C 9.539062 17.320312 9.496094 16.601562 9.335938 15.898438 Z M 9.222656 17.75 C 8.703125 17.945312 8.160156 18.09375 7.601562 18.1875 C 6.496094 18.3125 5.382812 18.3125 4.28125 18.1875 C 3.722656 18.09375 3.179688 17.945312 2.65625 17.75 C 2.601562 17.140625 2.625 16.53125 2.722656 15.929688 C 3.777344 16.15625 4.859375 16.269531 5.941406 16.257812 C 7.023438 16.28125 8.105469 16.171875 9.160156 15.945312 C 9.257812 16.539062 9.28125 17.148438 9.222656 17.75 Z M 9.222656 17.75 "/>
<path style=" stroke:none;fill-rule:nonzero;fill:rgb(34.509804%,34.901961%,35.686275%);fill-opacity:1;" d="M 2.722656 15.929688 C 2.625 16.53125 2.601562 17.140625 2.65625 17.75 C 3.179688 17.945312 3.722656 18.09375 4.28125 18.1875 C 5.382812 18.3125 6.496094 18.3125 7.601562 18.1875 C 8.160156 18.09375 8.703125 17.945312 9.222656 17.75 C 9.28125 17.148438 9.257812 16.539062 9.160156 15.945312 C 8.105469 16.171875 7.023438 16.28125 5.941406 16.257812 C 4.859375 16.269531 3.777344 16.15625 2.722656 15.929688 Z M 2.722656 15.929688 "/>
<path style=" stroke:none;fill-rule:nonzero;fill:rgb(34.509804%,34.901961%,35.686275%);fill-opacity:1;" d="M 1.519531 11.648438 L 2.238281 11.851562 L 2.113281 9.109375 L 1.433594 5.851562 C 1.394531 6.53125 1.394531 7.210938 1.433594 7.886719 C 1.472656 8.640625 1.574219 9.6875 1.574219 10.359375 C 1.570312 10.996094 1.546875 11.421875 1.519531 11.648438 Z M 1.519531 11.648438 "/>
<path style=" stroke:none;fill-rule:nonzero;fill:rgb(34.509804%,34.901961%,35.686275%);fill-opacity:1;" d="M 10.367188 11.648438 L 9.652344 11.851562 L 9.777344 9.101562 L 10.457031 5.84375 C 10.457031 5.84375 10.515625 6.679688 10.457031 7.878906 C 10.417969 8.636719 10.316406 9.679688 10.316406 10.351562 C 10.308594 10.996094 10.332031 11.433594 10.367188 11.648438 Z M 10.367188 11.648438 "/>
<path style=" stroke:none;fill-rule:nonzero;fill:rgb(34.509804%,34.901961%,35.686275%);fill-opacity:1;" d="M 1.511719 11.90625 L 2.25 12.171875 L 2.332031 14.46875 C 2.253906 14.734375 2.136719 14.992188 1.984375 15.226562 C 1.859375 15.472656 1.699219 15.703125 1.511719 15.914062 C 1.511719 15.914062 1.421875 12.765625 1.511719 11.90625 Z M 1.511719 11.90625 "/>
<path style=" stroke:none;fill-rule:nonzero;fill:rgb(34.509804%,34.901961%,35.686275%);fill-opacity:1;" d="M 10.378906 11.90625 L 9.640625 12.171875 L 9.558594 14.46875 C 9.636719 14.734375 9.75 14.992188 9.898438 15.226562 C 10.027344 15.472656 10.1875 15.703125 10.378906 15.914062 C 10.378906 15.914062 10.460938 12.765625 10.378906 11.90625 Z M 10.378906 11.90625 "/>
<path style=" stroke:none;fill-rule:nonzero;fill:rgb(81.960784%,82.745098%,83.137255%);fill-opacity:1;" d="M 1.8125 1.4375 L 3.035156 0.671875 C 3.152344 0.59375 3.234375 0.46875 3.25 0.335938 C 2.941406 0.421875 2.648438 0.5625 2.386719 0.738281 C 2.027344 0.960938 1.695312 1.222656 1.394531 1.515625 C 1.539062 1.539062 1.691406 1.515625 1.8125 1.4375 Z M 1.8125 1.4375 "/>
<path style=" stroke:none;fill-rule:nonzero;fill:rgb(81.960784%,82.745098%,83.137255%);fill-opacity:1;" d="M 8.855469 0.671875 L 10.074219 1.4375 C 10.199219 1.515625 10.347656 1.539062 10.496094 1.515625 C 10.191406 1.21875 9.859375 0.957031 9.496094 0.726562 C 9.234375 0.554688 8.941406 0.421875 8.632812 0.335938 C 8.652344 0.46875 8.734375 0.59375 8.855469 0.671875 Z M 8.855469 0.671875 "/>
<path style=" stroke:none;fill-rule:nonzero;fill:rgb(74.509804%,11.764706%,17.647059%);fill-opacity:1;" d="M 3.023438 19.550781 C 2.542969 19.621094 2.328125 19.375 1.894531 19.375 C 1.832031 19.375 1.765625 19.386719 1.703125 19.410156 C 2.261719 19.664062 2.863281 19.828125 3.484375 19.890625 C 3.480469 19.785156 3.425781 19.6875 3.335938 19.625 C 3.25 19.558594 3.136719 19.53125 3.023438 19.550781 Z M 3.023438 19.550781 "/>
<path style=" stroke:none;fill-rule:nonzero;fill:rgb(74.509804%,11.764706%,17.647059%);fill-opacity:1;" d="M 8.640625 19.550781 C 8.300781 19.503906 8.207031 19.75 8.167969 19.917969 C 8.820312 19.859375 9.457031 19.710938 10.058594 19.46875 C 9.976562 19.40625 9.875 19.375 9.765625 19.375 C 9.339844 19.375 9.125 19.621094 8.640625 19.550781 Z M 8.640625 19.550781 "/>
<path style=" stroke:none;fill-rule:nonzero;fill:url(#linear1);" d="M 2.546875 4.808594 C 2.546875 4.808594 3.375 3.515625 3.484375 3.03125 C 3.570312 2.664062 3.4375 1.53125 3.4375 1.53125 C 3.4375 1.53125 3.347656 2.613281 3.257812 2.960938 C 3.140625 3.429688 2.546875 4.808594 2.546875 4.808594 Z M 2.546875 4.808594 "/>
<path style=" stroke:none;fill-rule:nonzero;fill:url(#linear2);" d="M 9.34375 4.808594 C 9.34375 4.808594 8.519531 3.515625 8.40625 3.03125 C 8.316406 2.664062 8.453125 1.53125 8.453125 1.53125 C 8.453125 1.53125 8.542969 2.613281 8.632812 2.960938 C 8.753906 3.429688 9.34375 4.808594 9.34375 4.808594 Z M 9.34375 4.808594 "/>
<path style=" stroke:none;fill-rule:nonzero;fill:url(#linear3);" d="M 9.867188 5.8125 C 8.976562 5.476562 8.035156 5.265625 7.074219 5.1875 C 6.171875 6.019531 5.105469 7.53125 4.667969 8.171875 C 5.757812 8.109375 6.847656 8.125 7.929688 8.214844 C 8.507812 8.28125 9.070312 8.417969 9.609375 8.617188 L 10.152344 5.945312 C 10.066406 5.886719 9.972656 5.839844 9.867188 5.8125 Z M 9.867188 5.8125 "/>
<path style=" stroke:none;fill-rule:nonzero;fill:rgb(81.960784%,82.745098%,83.137255%);fill-opacity:1;" d="M 6.398438 19.367188 C 8.9375 19.304688 10.066406 18.683594 10.066406 18.683594 L 9.566406 18.164062 C 7.984375 18.929688 5.949219 18.765625 5.949219 18.765625 C 5.949219 18.765625 3.917969 18.921875 2.332031 18.164062 L 1.824219 18.683594 C 1.824219 18.683594 2.945312 19.304688 5.492188 19.367188 C 5.625 19.367188 5.949219 19.367188 5.949219 19.367188 C 6.113281 19.375 6.261719 19.375 6.398438 19.367188 Z M 6.398438 19.367188 "/>
<path style=" stroke:none;fill-rule:nonzero;fill:rgb(81.960784%,82.745098%,83.137255%);fill-opacity:1;" d="M 3.023438 0.84375 C 3.023438 0.84375 1.457031 1.523438 1.296875 3.046875 C 1.195312 3.816406 1.144531 4.59375 1.144531 5.375 C 1.144531 5.375 1.683594 1.664062 3.023438 0.84375 Z M 3.023438 0.84375 "/>
<path style=" stroke:none;fill-rule:nonzero;fill:rgb(81.960784%,82.745098%,83.137255%);fill-opacity:1;" d="M 8.855469 0.84375 C 8.855469 0.84375 10.429688 1.523438 10.597656 3.046875 C 10.695312 3.820312 10.742188 4.597656 10.742188 5.375 C 10.742188 5.375 10.210938 1.664062 8.855469 0.84375 Z M 8.855469 0.84375 "/>
<path style=" stroke:none;fill-rule:nonzero;fill:rgb(34.509804%,34.901961%,35.686275%);fill-opacity:1;" d="M 10.417969 6.054688 C 10.417969 6.054688 10.828125 6.125 10.835938 6.429688 C 10.847656 6.726562 10.429688 7.335938 10.417969 6.953125 C 10.394531 6.652344 10.394531 6.355469 10.417969 6.054688 Z M 10.417969 6.054688 "/>
<path style=" stroke:none;fill-rule:nonzero;fill:rgb(100%,100%,100%);fill-opacity:1;" d="M 11.839844 6.714844 C 11.75 6.613281 10.925781 6.390625 10.925781 6.390625 C 10.761719 6.34375 10.710938 6.46875 10.691406 6.574219 L 11.878906 6.882812 C 11.894531 6.820312 11.878906 6.761719 11.839844 6.714844 Z M 11.839844 6.714844 "/>
<path style=" stroke:none;fill-rule:nonzero;fill:rgb(34.509804%,34.901961%,35.686275%);fill-opacity:1;" d="M 10.691406 6.574219 C 10.6875 6.617188 10.6875 6.660156 10.691406 6.703125 L 11.847656 6.953125 C 11.859375 6.929688 11.871094 6.90625 11.878906 6.882812 Z M 10.691406 6.574219 "/>
<path style=" stroke:none;fill-rule:nonzero;fill:rgb(34.509804%,34.901961%,35.686275%);fill-opacity:1;" d="M 1.457031 6.039062 C 1.457031 6.039062 1.023438 6.101562 1.023438 6.40625 C 1.023438 6.707031 1.457031 7.3125 1.46875 6.929688 C 1.492188 6.632812 1.488281 6.335938 1.457031 6.039062 Z M 1.457031 6.039062 "/>
<path style=" stroke:none;fill-rule:nonzero;fill:rgb(100%,100%,100%);fill-opacity:1;" d="M 0.953125 6.371094 C 0.953125 6.371094 0.128906 6.589844 0.0390625 6.695312 C -0.00390625 6.75 -0.0117188 6.8125 0.0117188 6.875 L 1.191406 6.566406 C 1.171875 6.460938 1.121094 6.324219 0.953125 6.371094 Z M 0.953125 6.371094 "/>
<path style=" stroke:none;fill-rule:nonzero;fill:rgb(34.509804%,34.901961%,35.686275%);fill-opacity:1;" d="M 0.0117188 6.875 C 0.0195312 6.894531 0.03125 6.914062 0.0390625 6.929688 L 1.195312 6.679688 C 1.199219 6.640625 1.199219 6.601562 1.195312 6.566406 Z M 0.0117188 6.875 "/>
<path style=" stroke:none;fill-rule:nonzero;fill:rgb(13.72549%,12.156863%,12.54902%);fill-opacity:1;" d="M 0.964844 10 C 0.9375 10 0.910156 10.007812 0.890625 10.027344 C 0.871094 10.046875 0.859375 10.070312 0.859375 10.09375 L 0.859375 10.867188 C 0.859375 10.890625 0.871094 10.914062 0.890625 10.933594 C 0.910156 10.953125 0.9375 10.960938 0.964844 10.960938 Z M 0.964844 10 "/>
<path style=" stroke:none;fill-rule:nonzero;fill:rgb(13.72549%,12.156863%,12.54902%);fill-opacity:1;" d="M 0.910156 13.867188 C 0.882812 13.867188 0.855469 13.875 0.835938 13.890625 C 0.816406 13.910156 0.800781 13.9375 0.800781 13.960938 L 0.800781 14.734375 C 0.804688 14.757812 0.816406 14.785156 0.835938 14.800781 C 0.855469 14.820312 0.882812 14.828125 0.910156 14.828125 Z M 0.910156 13.867188 "/>
<path style=" stroke:none;fill-rule:nonzero;fill:rgb(13.72549%,12.156863%,12.54902%);fill-opacity:1;" d="M 10.917969 10 C 10.945312 10 10.972656 10.007812 10.992188 10.027344 C 11.011719 10.046875 11.023438 10.070312 11.027344 10.09375 L 11.027344 10.867188 C 11.023438 10.890625 11.011719 10.914062 10.992188 10.933594 C 10.972656 10.953125 10.945312 10.960938 10.917969 10.960938 Z M 10.917969 10 "/>
<path style=" stroke:none;fill-rule:nonzero;fill:rgb(13.72549%,12.156863%,12.54902%);fill-opacity:1;" d="M 10.972656 13.867188 C 11 13.867188 11.027344 13.875 11.046875 13.890625 C 11.066406 13.910156 11.078125 13.9375 11.078125 13.960938 L 11.078125 14.734375 C 11.078125 14.757812 11.066406 14.785156 11.046875 14.800781 C 11.027344 14.820312 11 14.828125 10.972656 14.828125 Z M 10.972656 13.867188 "/>
<path style=" stroke:none;fill-rule:nonzero;fill:rgb(34.509804%,34.901961%,35.686275%);fill-opacity:1;" d="M 7.34375 19.890625 L 4.535156 19.890625 C 4.457031 19.890625 4.382812 19.921875 4.339844 19.976562 C 5.222656 20.046875 5.949219 20.039062 5.949219 20.039062 C 5.949219 20.039062 6.671875 20.039062 7.554688 19.976562 C 7.507812 19.917969 7.425781 19.882812 7.34375 19.890625 Z M 7.34375 19.890625 "/>
<path style=" stroke:none;fill-rule:nonzero;fill:url(#linear4);" d="M 9.160156 15.945312 C 8.105469 16.171875 7.023438 16.28125 5.941406 16.257812 C 5.613281 16.257812 5.292969 16.257812 5.015625 16.234375 C 4.105469 16.589844 3.535156 17.710938 3.40625 17.992188 C 3.691406 18.074219 3.984375 18.140625 4.28125 18.191406 C 5.382812 18.316406 6.496094 18.316406 7.601562 18.191406 C 8.160156 18.101562 8.703125 17.953125 9.222656 17.753906 C 9.28125 17.148438 9.257812 16.542969 9.160156 15.945312 Z M 9.160156 15.945312 "/>
</g>
</svg>
