<svg xmlns="http://www.w3.org/2000/svg" xmlns:xlink="http://www.w3.org/1999/xlink" width="33.042" height="33.243" viewBox="0 0 33.042 33.243">
  <defs>
    <clipPath id="clip-path">
      <rect id="Rectangle_7244" data-name="Rectangle 7244" width="33.042" height="33.243" transform="translate(0 0.006)" fill="none"/>
    </clipPath>
  </defs>
  <g id="Group_22207" data-name="Group 22207" transform="translate(0 -0.006)">
    <g id="Group_22206" data-name="Group 22206" clip-path="url(#clip-path)">
      <path id="Path_12849" data-name="Path 12849" d="M4.122,30.973v-.9q0-12.262.014-24.524a3.219,3.219,0,0,1,.318-1.243C4.959,3.159,5.525,2.034,6.036.886a1.366,1.366,0,0,1,1.4-.88q9.079.015,18.163,0a1.391,1.391,0,0,1,1.408.872c.61,1.294,1.28,2.561,1.887,3.857a2.349,2.349,0,0,1,.141.965q.01,12.162,0,24.325c0,.942,0,.942.935.944.662,0,1.324-.017,1.987.011a1.032,1.032,0,0,1,1.08.983.936.936,0,0,1,0,.106,1.077,1.077,0,0,1-1.078,1.037h-.2q-10.265.068-20.529.133c-1.679.01-3.357.019-5.037,0S2.8,33.155,1.11,33.106A1.058,1.058,0,0,1,0,32.1c0-.023,0-.046,0-.069a1.028,1.028,0,0,1,1-1.057,1.085,1.085,0,0,1,.114,0c.968-.025,1.936-.007,3.01-.007M26.89,6.371H6.31V30.846h6.128c0-.751-.039-1.458.008-2.157a4.071,4.071,0,0,1,5.637-3.483,4.514,4.514,0,0,1,2.687,4.079,13.779,13.779,0,0,1,.01,1.561h6.11ZM6.931,4.075H26.1a14.009,14.009,0,0,0-.7-1.482.906.906,0,0,0-.643-.395q-8.25-.031-16.495-.007a.73.73,0,0,0-.555.236c-.289.508-.509,1.055-.783,1.648M18.661,30.86c-.073-.738-.123-1.43-.211-2.119a1.947,1.947,0,0,0-1.812-1.718,1.894,1.894,0,0,0-2,1.49,15.325,15.325,0,0,0-.024,2.347Z" fill="#006729"/>
      <path id="Path_12850" data-name="Path 12850" d="M10.368,10.979a1.865,1.865,0,0,1-1.733-1.6A1.914,1.914,0,0,1,10.306,7.7,1.805,1.805,0,0,1,11.931,9.34a1.64,1.64,0,0,1-1.563,1.639" fill="#006729"/>
      <path id="Path_12851" data-name="Path 12851" d="M18.144,15.552a1.668,1.668,0,0,1-1.671,1.53,1.723,1.723,0,0,1-1.615-1.615,1.758,1.758,0,0,1,1.666-1.645,1.947,1.947,0,0,1,1.62,1.731" fill="#006729"/>
      <path id="Path_12852" data-name="Path 12852" d="M18.153,9.4a1.647,1.647,0,0,1-1.618,1.592,1.929,1.929,0,0,1-1.672-1.685A1.867,1.867,0,0,1,16.524,7.7a1.806,1.806,0,0,1,1.629,1.7" fill="#e60018"/>
      <path id="Path_12853" data-name="Path 12853" d="M11.929,15.513A1.67,1.67,0,0,1,10.3,17.081a1.757,1.757,0,0,1-1.665-1.638,1.792,1.792,0,0,1,1.636-1.611,1.934,1.934,0,0,1,1.658,1.681" fill="#006729"/>
      <path id="Path_12854" data-name="Path 12854" d="M24.363,15.53A1.671,1.671,0,0,1,22.7,17.08,1.7,1.7,0,0,1,21.1,15.462a1.717,1.717,0,0,1,1.6-1.631,1.964,1.964,0,0,1,1.662,1.7" fill="#006729"/>
      <path id="Path_12855" data-name="Path 12855" d="M24.363,9.442A1.645,1.645,0,0,1,22.7,10.979,1.875,1.875,0,0,1,21.1,9.258,1.844,1.844,0,0,1,22.785,7.7a1.8,1.8,0,0,1,1.577,1.744" fill="#006729"/>
      <path id="Path_12856" data-name="Path 12856" d="M24.364,21.823a1.682,1.682,0,0,1-1.41,1.586A1.972,1.972,0,0,1,21.1,21.834a1.771,1.771,0,0,1,1.631-1.676,1.736,1.736,0,0,1,1.632,1.665" fill="#006729"/>
      <path id="Path_12857" data-name="Path 12857" d="M18.144,21.778a1.674,1.674,0,0,1-1.363,1.628,2,2,0,0,1-1.9-1.6,1.8,1.8,0,0,1,1.6-1.653,1.728,1.728,0,0,1,1.671,1.62" fill="#006729"/>
      <path id="Path_12858" data-name="Path 12858" d="M11.931,21.8A1.685,1.685,0,0,1,10.545,23.4a2.041,2.041,0,0,1-1.889-1.548,1.8,1.8,0,0,1,1.621-1.7,1.733,1.733,0,0,1,1.654,1.64" fill="#006729"/>
    </g>
  </g>
</svg>
