<svg xmlns="http://www.w3.org/2000/svg" width="36" height="36" viewBox="0 0 36 36">
  <g id="Group_22531" data-name="Group 22531" transform="translate(-7.199 -577.09)">
    <rect id="Rectangle_6986" data-name="Rectangle 6986" width="36" height="36" transform="translate(7.199 577.09)" fill="none"/>
    <g id="Group_20924" data-name="Group 20924" transform="translate(12.478 578.378)">
      <g id="Group_20922" data-name="Group 20922" transform="translate(0.407)">
        <path id="Path_12006" data-name="Path 12006" d="M537.99,358.744a11.376,11.376,0,0,0-13.088,6.773c-2.006,4.988-.714,9.47,2.553,13.493,2.291,2.821,5.092,5.2,7.108,8.269a1,1,0,0,0,1.83-.027c1.921-2.86,4.455-5.179,6.694-7.758a14.049,14.049,0,0,0,3.825-9.884A11.289,11.289,0,0,0,537.99,358.744Zm3.884,18.876c-2.02,2.487-4.513,4.547-6.39,7.3-1.835-2.59-4.12-4.588-6.073-6.889-2.6-3.066-4.072-6.479-2.947-10.57a9.368,9.368,0,0,1,12.281-6.283,9.682,9.682,0,0,1,5.162,13.218A15.27,15.27,0,0,1,541.873,377.621Z" transform="translate(-523.945 -358.481)" fill="#016c30"/>
        <path id="Path_12007" data-name="Path 12007" d="M535.082,364.383a5.239,5.239,0,1,0,5.219,5.27A5.16,5.16,0,0,0,535.082,364.383Zm-.09,8.352a3.119,3.119,0,1,1,3.192-3.142A3.179,3.179,0,0,1,534.993,372.735Z" transform="translate(-523.554 -358.091)" fill="#016c30"/>
      </g>
      <rect id="Rectangle_6982" data-name="Rectangle 6982" width="7.748" height="1.848" rx="0.924" transform="matrix(-0.924, -0.382, 0.382, -0.924, 23.05, 33.79)" fill="#e60018"/>
      <rect id="Rectangle_6983" data-name="Rectangle 6983" width="4.855" height="1.848" rx="0.924" transform="matrix(0.924, -0.382, 0.382, 0.924, 18.562, 24.666)" fill="#016c30"/>
      <g id="Group_20923" data-name="Group 20923" transform="translate(0 22.811)">
        <rect id="Rectangle_6984" data-name="Rectangle 6984" width="7.748" height="1.848" rx="0.924" transform="matrix(0.924, -0.382, 0.382, 0.924, 0, 9.271)" fill="#016c30"/>
        <rect id="Rectangle_6985" data-name="Rectangle 6985" width="4.855" height="1.848" rx="0.924" transform="matrix(-0.924, -0.382, 0.382, -0.924, 4.488, 3.563)" fill="#016c30"/>
      </g>
    </g>
  </g>
</svg>
