<?xml version="1.0" encoding="UTF-8"?>
<svg id="_40_px" data-name="40 px" xmlns="http://www.w3.org/2000/svg" viewBox="0 0 40 39.57">
  <defs>
    <style>
      .cls-1 {
        fill: #9d9d9d;
      }

      .cls-2 {
        stroke: #9d9d9d;
        stroke-linecap: round;
        stroke-linejoin: round;
        stroke-width: 1.5px;
      }

      .cls-2, .cls-3 {
        fill: none;
      }
    </style>
  </defs>
  <rect class="cls-3" width="40" height="40"/>
  <g>
    <circle class="cls-2" cx="17.14" cy="14.61" r="5.07"/>
    <path class="cls-2" d="M30.68,26.87c0,1.36-.91,2.45-2.04,2.45-.24,0-.47-.05-.68-.14-.79-.33-1.36-1.23-1.36-2.31,0-1.35,.91-2.45,2.04-2.45,.23,0,.45,.04,.67,.13,.8,.33,1.38,1.24,1.38,2.32Z"/>
    <path class="cls-2" d="M30.46,20.57l-1.16,3.99c-.21-.09-.44-.13-.67-.13-1.13,0-2.04,1.1-2.04,2.45,0,1.07,.57,1.98,1.36,2.31l-.79,2.73c-.09,.3-.36,.51-.68,.51h-6.68c-.46,0-.8-.44-.67-.89l3.3-11.34c.09-.3,.36-.51,.68-.51h6.68c.46,0,.8,.44,.67,.89Z"/>
    <path class="cls-2" d="M19.24,30.19H7.98s-1.3-5.04,4.13-7.44c1.36-.6,2.84-.84,4.32-.84h1.93s1.5,.03,2.84,.57"/>
    <path class="cls-1" d="M28.52,20.35h-3.71c-.35,0-.61-.34-.51-.68l.31-1.12c.06-.23,.27-.39,.51-.39h3.71c.35,0,.61,.34,.51,.68l-.31,1.12c-.06,.23-.27,.39-.51,.39Z"/>
  </g>
</svg>