<?xml version="1.0" encoding="UTF-8"?>
<svg id="notificaciones" xmlns="http://www.w3.org/2000/svg" viewBox="0 0 40 40">
  <defs>
    <style>
      .cls-1 {
        fill: #9d9d9d;
      }

      .cls-2 {
        fill: none;
      }

      .cls-3 {
        opacity: .89;
      }
    </style>
  </defs>
  <rect class="cls-2" width="40" height="40"/>
  <g id="Grupo_22080" data-name="Grupo 22080" class="cls-3">
    <g id="Grupo_21946" data-name="Grupo 21946">
      <path id="Trazado_12665" data-name="Trazado 12665" class="cls-1" d="M31.12,17.88c-.52-2.94-2.22-5.54-4.7-7.2-2.31-1.64-5.16-2.32-7.96-1.91-2.2,.28-4.27,1.22-5.93,2.7-1.95,1.69-3.26,4.01-3.7,6.55-.05,.29-.09,.6-.12,.87-.02,.13-.03,.26-.05,.41v1.42c.02,.13,.03,.26,.05,.4,.03,.28,.07,.57,.12,.85,.87,4.84,4.75,8.58,9.62,9.26,.19,.03,.38,.05,.57,.07l.27,.03h1.43s.06-.02,.06-.02c.05,0,.09-.02,.14-.03,.11-.02,.22-.03,.33-.04h.06c.25-.04,.53-.07,.8-.12,2.75-.51,5.21-2.04,6.88-4.28,1.99-2.54,2.76-5.82,2.12-8.98m-4.12,9.14c-3.88,3.87-10.16,3.86-14.03-.02-3.87-3.88-3.86-10.16,.02-14.03,3.88-3.87,10.16-3.86,14.03,.02,3.87,3.88,3.86,10.16-.02,14.03h0"/>
      <path id="Trazado_12666" data-name="Trazado 12666" class="cls-1" d="M17.55,18.45h-1.39v.07c-.78,.19-1.31,.92-1.24,1.72v4.84c-.06,.9,.62,1.68,1.52,1.73,.07,0,.15,0,.22,0,.74,0,1.48,0,2.22,0h3.2c.44,0,.87,0,1.31,0,.9,.03,1.65-.67,1.68-1.56,0-.03,0-.06,0-.09,0-.19,0-.38,0-.57v-4.43c.04-.71-.4-1.36-1.08-1.59-.1-.03-.14-.06-.16-.13h-6.29Zm6.11,1.8v4.79c0,.32-.05,.36-.36,.36h-6.6c-.32,0-.37-.05-.37-.36v-4.81c0-.3,.05-.35,.35-.35h6.6c.34,0,.38,.04,.38,.37"/>
      <path id="Trazado_12667" data-name="Trazado 12667" class="cls-1" d="M23.82,17.91c.02-.5,0-1.01-.07-1.51-.34-2.08-2.31-3.49-4.39-3.15-1.69,.28-2.99,1.66-3.18,3.36-.03,.43-.03,.87-.03,1.3v.54h1.39c0-.15,0-.31,0-.46v-.04c-.01-.47,.02-.95,.09-1.41,.21-1.13,1.2-1.94,2.34-1.93,.07,0,.13,0,.2,0,1.22,.1,2.17,1.09,2.22,2.31,.02,.39,.02,.78,0,1.15,0,.12,0,.24,0,.37h1.42s-.01-.09-.01-.14c0-.13,0-.27,0-.41"/>
      <path id="Trazado_12668" data-name="Trazado 12668" class="cls-1" d="M19.99,24.72c-.4,0-.73-.33-.73-.73v-1.47c0-.4,.33-.73,.73-.73,.4,0,.73,.33,.73,.73h0v1.48c0,.4-.33,.73-.73,.73"/>
    </g>
  </g>
</svg>