<?xml version="1.0" encoding="UTF-8"?>
<svg id="notificaciones" xmlns="http://www.w3.org/2000/svg" viewBox="0 0 40 40">
  <defs>
    <style>
      .cls-1 {
        fill: #9d9d9d;
      }

      .cls-2 {
        fill: none;
      }
    </style>
  </defs>
  <g id="Grupo_16388" data-name="Grupo 16388">
    <g id="Grupo_16386" data-name="Grupo 16386">
      <g id="Grupo_16384" data-name="Grupo 16384">
        <g id="Grupo_16381" data-name="Grupo 16381">
          <g id="Grupo_16378" data-name="Grupo 16378">
            <g id="Grupo_16375" data-name="Grupo 16375">
              <g id="Grupo_16321" data-name="Grupo 16321">
                <g id="Grupo_16277" data-name="Grupo 16277">
                  <g id="Grupo_16269" data-name="Grupo 16269">
                    <g id="Grupo_16259" data-name="Grupo 16259">
                      <g id="Grupo_16234" data-name="Grupo 16234">
                        <g id="Grupo_16193" data-name="Grupo 16193">
                          <g id="Grupo_15839" data-name="Grupo 15839">
                            <g id="Grupo_15836" data-name="Grupo 15836">
                              <g id="Rectángulo_235" data-name="Rectángulo 235">
                                <rect class="cls-2" width="40" height="40"/>
                              </g>
                            </g>
                          </g>
                        </g>
                      </g>
                    </g>
                  </g>
                </g>
              </g>
            </g>
          </g>
        </g>
      </g>
    </g>
  </g>
  <g>
    <g id="streamline-icon-business-contract-handshake-sign_50x50" data-name="streamline-icon-business-contract-handshake-sign 50x50">
      <g id="Trazado_4752" data-name="Trazado 4752">
        <path class="cls-1" d="M12.08,30.78h-1.17c-1.15,0-2.08-.93-2.08-2.08V12.7c0-1.88,1.53-3.42,3.42-3.42h12.33c.41,0,.75,.34,.75,.75s-.34,.75-.75,.75H12.25c-1.06,0-1.92,.86-1.92,1.92V28.7c0,.32,.26,.58,.58,.58h1.17c.41,0,.75,.34,.75,.75s-.34,.75-.75,.75Z"/>
      </g>
      <g id="Trazado_4756" data-name="Trazado 4756">
        <path class="cls-1" d="M22.08,19.11c-.41,0-.75-.34-.75-.75v-6.36c0-1.53,1.28-2.78,2.83-2.79,1.56,0,2.83,1.25,2.83,2.78v1.36c0,.41-.34,.75-.75,.75h-3.42v4.25c0,.41-.34,.75-.75,.75Zm.75-6.5h2.67v-.61c0-.71-.6-1.28-1.33-1.29-.73,0-1.33,.58-1.33,1.29v.61Z"/>
      </g>
      <g id="Trazado_4757" data-name="Trazado 4757">
        <path class="cls-1" d="M24.1,28.35c-.35,0-.66-.25-.73-.6-.08-.41,.18-.8,.59-.88l4.33-.87c.41-.08,.8,.18,.88,.59,.08,.41-.18,.8-.59,.88l-4.33,.87s-.1,.01-.15,.01Z"/>
      </g>
      <g id="Trazado_4758" data-name="Trazado 4758">
        <path class="cls-1" d="M21.99,24.4c-.28,0-.57-.06-.83-.18-.51-.23-.9-.64-1.1-1.17-.39-1,.03-2.14,.99-2.65l2.06-1.03c.63-.32,1.37-.37,2.04-.11l4.21,1.66c.38,.15,.57,.59,.42,.97-.15,.39-.59,.57-.97,.42l-4.2-1.65c-.26-.1-.56-.08-.82,.05l-2.05,1.02c-.27,.14-.39,.48-.28,.78,.06,.15,.17,.27,.31,.34,.13,.06,.29,.06,.42,0l2.04-.86c.38-.16,.82,.02,.98,.4,.16,.38-.02,.82-.4,.98l-2.05,.86c-.25,.1-.52,.16-.79,.16Z"/>
      </g>
      <g id="Trazado_4759" data-name="Trazado 4759">
        <path class="cls-1" d="M20.94,30.64c-.39,0-.77-.15-1.07-.45l-2.51-1.91h-1.11c-.41,0-.75-.34-.75-.75s.34-.75,.75-.75h1.36c.16,0,.32,.05,.46,.15l2.76,2.1s.08,.06,.11,.1l3.86-3.18-2.02-2.26c-.28-.31-.25-.78,.06-1.06,.31-.28,.78-.25,1.06,.06l2.06,2.29c.54,.69,.43,1.61-.2,2.13l-3.86,3.18c-.28,.23-.62,.35-.96,.35Z"/>
      </g>
      <g id="Trazado_4760" data-name="Trazado 4760">
        <path class="cls-1" d="M16.16,22.95c-.29,0-.57-.17-.69-.46-.16-.38,.02-.82,.4-.98l3.23-1.37c.78-.31,1.63-.2,2.3,.28l.25,.2c.32,.26,.37,.73,.11,1.06-.26,.32-.73,.37-1.05,.11l-.22-.18c-.21-.16-.54-.2-.81-.09l-3.22,1.36c-.1,.04-.2,.06-.29,.06Z"/>
      </g>
      <g id="Trazado_4761" data-name="Trazado 4761">
        <path class="cls-1" d="M15.24,29.12s-.06,0-.09,0h-.57c-.41,0-.75-.33-.75-.75s.34-.75,.75-.75h.6c.19,.01,.31-.1,.31-.25v-4.72c0-.1-.15-.21-.28-.2h-.64c-.41,0-.75-.33-.75-.75s.34-.75,.75-.75h.6c.92-.05,1.75,.69,1.81,1.66v4.81c-.06,.98-.84,1.7-1.76,1.7Z"/>
      </g>
      <g id="Trazado_4762" data-name="Trazado 4762">
        <path class="cls-1" d="M29.73,29.12c-.89,0-1.67-.73-1.73-1.66v-4.81c.06-1.01,.89-1.74,1.85-1.7h.56c.41,0,.75,.33,.75,.75s-.34,.75-.75,.75h-.6c-.19-.01-.31,.1-.32,.25v4.72c0,.1,.13,.2,.28,.2h.64c.41,0,.75,.33,.75,.75s-.34,.75-.75,.75h-.6s-.06,0-.08,0Z"/>
      </g>
    </g>
    <g id="Trazado_3808" data-name="Trazado 3808">
      <path class="cls-1" d="M15.02,14.79h-2.52c-.41,0-.75-.34-.75-.75s.34-.75,.75-.75h2.52c.41,0,.75,.34,.75,.75s-.34,.75-.75,.75Z"/>
    </g>
    <g id="Trazado_3808-2" data-name="Trazado 3808">
      <path class="cls-1" d="M15.02,17.86h-2.52c-.41,0-.75-.34-.75-.75s.34-.75,.75-.75h2.52c.41,0,.75,.34,.75,.75s-.34,.75-.75,.75Z"/>
    </g>
    <g id="Trazado_3620" data-name="Trazado 3620">
      <path class="cls-1" d="M17.97,15.75c-.25,0-.48-.1-.66-.27l-.64-.64c-.25-.25-.25-.67,0-.92s.67-.25,.92,0l.38,.38,1.77-1.77c.25-.25,.67-.25,.92,0s.25,.67,0,.92l-2.03,2.03c-.17,.17-.41,.27-.65,.27h0Zm-.26-1.19s0,0,0,0h0Z"/>
    </g>
  </g>
</svg>