<?xml version="1.0" encoding="UTF-8"?>
<svg id="_40_px" data-name="40 px" xmlns="http://www.w3.org/2000/svg" viewBox="0 0 40 40">
  <defs>
    <style>
      .cls-1 {
        fill: #9d9d9d;
      }

      .cls-2 {
        fill: none;
      }
    </style>
  </defs>
  <g id="Grupo_21062" data-name="Grupo 21062">
    <g id="Group_16478" data-name="Group 16478">
      <g id="Grupo_16475" data-name="Grupo 16475">
        <g id="Grupo_16321" data-name="Grupo 16321">
          <g id="Grupo_16277" data-name="Grupo 16277">
            <g id="Grupo_16269" data-name="Grupo 16269">
              <g id="Grupo_16259" data-name="Grupo 16259">
                <g id="Grupo_16234-2" data-name="Grupo 16234-2">
                  <g id="Grupo_16193-2" data-name="Grupo 16193-2">
                    <g id="Grupo_15839-3" data-name="Grupo 15839-3">
                      <g id="Grupo_15836-3" data-name="Grupo 15836-3">
                        <g id="Rectángulo_235-3" data-name="Rectángulo 235-3">
                          <rect class="cls-2" width="40" height="40"/>
                          <rect class="cls-2" x=".1" y=".1" width="39.8" height="39.8"/>
                        </g>
                      </g>
                    </g>
                  </g>
                </g>
              </g>
            </g>
          </g>
        </g>
      </g>
      <path class="cls-1" d="M10.71,27.1c-1.21,0-2.19-1.02-2.2-2.27v-8.49c0-1.25,.99-2.27,2.19-2.27H29.3c1.21,0,2.19,1.02,2.2,2.27v9.16c0,.39-.31,.71-.68,.71s-.68-.32-.68-.71v-9.16c0-.47-.37-.85-.83-.85H10.71c-.46,0-.83,.38-.83,.85v8.49c0,.47,.37,.85,.83,.85h5.4c.38,0,.68,.32,.68,.71s-.31,.71-.68,.71h-5.4Z"/>
      <path class="cls-1" d="M15.25,33.15c-.38,0-.68-.31-.68-.68v-1.93l-.74-1.1c-.11-.15-.15-.33-.12-.51,.03-.18,.13-.34,.28-.44,.12-.08,.25-.13,.39-.13,.22,0,.43,.11,.55,.29l.87,1.22c.08,.12,.13,.25,.13,.39v2.21c0,.38-.31,.68-.68,.68Z"/>
      <path class="cls-1" d="M13.02,14.99c-.38,0-.68-.31-.68-.68v-1.03c-.02-.95,.57-1.81,1.47-2.14,.26-.09,.52-.11,.73-.12,.58,0,1.13,.23,1.54,.64,.42,.42,.65,.97,.65,1.55,0,.18-.07,.35-.2,.48-.13,.13-.3,.2-.48,.2-.38,0-.68-.3-.68-.68,0-.22-.09-.43-.25-.59-.16-.16-.37-.24-.59-.24-.09,0-.18,.02-.27,.05-.34,.12-.56,.46-.55,.83v1.05c0,.38-.31,.68-.68,.68Z"/>
      <path class="cls-1" d="M23.03,14.99c-.38,0-.68-.31-.68-.68v-3.49c-.11-.5-.51-.86-.99-.91-.53,.06-.95,.41-1.1,.88v3.52c0,.38-.31,.68-.69,.68s-.68-.31-.68-.68v-3.58s0-.1,.02-.15c.26-1.13,1.21-1.95,2.37-2.04h.1c1.16,.07,2.12,.92,2.32,2.08,0,.04,.01,.08,.01,.12v3.58c0,.38-.31,.68-.68,.68Z"/>
      <path class="cls-1" d="M19.52,14.94c-.38,0-.68-.31-.68-.68v-2.57c-.12-.51-.5-.86-.99-.91-.53,.06-.95,.41-1.1,.88v2.6c0,.38-.31,.68-.69,.68s-.68-.31-.68-.68v-2.66c0-.05,0-.1,.02-.15,.26-1.14,1.21-1.96,2.37-2.04h.1c1.17,.07,2.12,.92,2.32,2.08,0,.04,0,.08,0,.12v2.66c0,.38-.31,.68-.68,.68Z"/>
      <path class="cls-1" d="M26.49,14.94c-.38,0-.68-.31-.68-.68v-2.57c-.12-.51-.5-.86-.99-.91-.54,.06-.95,.4-1.1,.88v2.6c0,.38-.31,.68-.69,.68s-.68-.31-.68-.68v-2.66c0-.05,0-.1,.02-.15,.26-1.13,1.21-1.96,2.37-2.04h.1c1.17,.07,2.12,.92,2.32,2.08,0,.04,.01,.08,.01,.12v2.66c0,.38-.31,.68-.68,.68Z"/>
      <path class="cls-1" d="M24.76,33.15c-.38,0-.68-.31-.68-.68v-.92c0-.79,.35-1.52,.97-2l2.04-1.65c.29-.23,.46-.57,.45-.94v-4.84c0-.45-.36-.81-.82-.82-.63,0-.82,.72-.86,.95l-.29,2.08c-.11,.83-.58,1.55-1.3,1.98l-1.62,.97c-.41,.25-.67,.71-.66,1.19v1.41c0,.38-.31,.68-.68,.68s-.68-.31-.68-.68v-1.4c0-.96,.5-1.87,1.33-2.37l1.63-.97c.36-.22,.6-.58,.65-1l.29-2.12c.2-1.01,.89-2.09,2.22-2.09,1.2,.03,2.16,.99,2.16,2.18v4.84c0,.79-.35,1.52-.97,2l-2.04,1.65c-.29,.23-.46,.57-.45,.94v.93c0,.38-.31,.68-.68,.68Z"/>
      <path class="cls-1" d="M19.45,25.06c-.89,0-1.75-.43-2.3-1.15-.23-.3-.17-.73,.13-.95,.12-.09,.26-.14,.41-.14,.21,0,.41,.1,.54,.27,.29,.39,.76,.62,1.25,.62,.92,0,1.48-.46,1.48-.88s-.57-.87-1.4-.87c-1.55,0-2.76-.99-2.76-2.25s1.21-2.24,2.76-2.24h.12c.88,0,1.74,.42,2.29,1.14,.11,.14,.16,.32,.14,.5-.02,.18-.12,.34-.26,.45-.12,.09-.26,.14-.42,.14-.21,0-.41-.1-.54-.27-.29-.38-.76-.61-1.24-.61-.93,0-1.49,.45-1.49,.88s.56,.88,1.4,.88c1.55,0,2.76,.98,2.76,2.24s-1.21,2.24-2.76,2.24h-.12Z"/>
      <path class="cls-1" d="M19.57,17.96c-.38,0-.68-.31-.68-.68s.31-.68,.68-.68,.68,.31,.68,.68-.31,.68-.68,.68Z"/>
      <path class="cls-1" d="M19.57,25.99c-.38,0-.68-.31-.68-.68s.31-.68,.68-.68,.68,.31,.68,.68-.31,.68-.68,.68Z"/>
    </g>
  </g>
  <rect class="cls-2" y="-.07" width="40" height="40"/>
</svg>