<?xml version="1.0" encoding="UTF-8"?>
<svg id="notificaciones" xmlns="http://www.w3.org/2000/svg" viewBox="0 0 40 40">
  <defs>
    <style>
      .cls-1 {
        fill: #9d9d9d;
      }

      .cls-2 {
        fill: none;
      }
    </style>
  </defs>
  <g id="Grupo_16254" data-name="Grupo 16254">
    <g id="Grupo_16234" data-name="Grupo 16234">
      <g id="Grupo_16193" data-name="Grupo 16193">
        <g id="Grupo_15839" data-name="Grupo 15839">
          <g id="Grupo_15836" data-name="Grupo 15836">
            <g id="Rectángulo_235" data-name="Rectángulo 235">
              <rect class="cls-2" width="40" height="40"/>
            </g>
          </g>
        </g>
      </g>
    </g>
  </g>
  <g>
    <circle class="cls-1" cx="13.99" cy="25.49" r=".73"/>
    <circle class="cls-1" cx="19.83" cy="25.49" r=".73"/>
    <circle class="cls-1" cx="25.68" cy="25.49" r=".73"/>
    <circle class="cls-1" cx="22.76" cy="25.49" r=".73"/>
    <circle class="cls-1" cx="16.91" cy="25.49" r=".73"/>
  </g>
  <path class="cls-1" d="M22.98,31.49c-.29,0-.57-.07-.82-.22l-2.12-1.19c-.06-.03-.12-.03-.18,0l-2,1.17c-.52,.3-1.16,.3-1.68,0l-2.06-1.18c-.05-.03-.12-.03-.18,0l-1.13,.65c-.53,.3-1.16,.3-1.68,0-.52-.3-.84-.85-.84-1.45V10.19c0-.93,.75-1.68,1.68-1.68h4.31c.63,0,1.2,.34,1.48,.9,.43,.85,1.29,1.38,2.23,1.38s1.8-.53,2.23-1.38c.28-.55,.85-.9,1.48-.9h4.31c.93,0,1.68,.75,1.68,1.68V29.28c0,.61-.31,1.15-.84,1.45-.53,.3-1.15,.31-1.68,0l-1.13-.65c-.06-.03-.12-.03-.18,0l-2.06,1.18c-.26,.15-.55,.22-.84,.22Zm-3.03-2.93c.28,0,.57,.07,.82,.21l2.12,1.19c.05,.03,.12,.03,.18,0l2.06-1.18c.52-.3,1.16-.29,1.67,0l1.13,.65c.08,.04,.14,.02,.18,0,.04-.02,.09-.07,.09-.16V10.19c0-.1-.08-.18-.18-.18h-4.31c-.06,0-.12,.03-.14,.08-.69,1.35-2.06,2.2-3.57,2.2s-2.88-.84-3.57-2.19c-.02-.05-.08-.08-.15-.08h-4.31c-.1,0-.18,.08-.18,.18V29.28c0,.09,.05,.13,.09,.16,.04,.02,.1,.04,.18,0l1.13-.65c.52-.29,1.16-.29,1.67,0l2.06,1.18c.05,.03,.12,.03,.18,0l2-1.17c.26-.15,.55-.23,.85-.23Z"/>
  <g>
    <path class="cls-1" d="M22.65,19.25H13.99c-.41,0-.75-.34-.75-.75s.34-.75,.75-.75h8.67c.41,0,.75,.34,.75,.75s-.34,.75-.75,.75Z"/>
    <path class="cls-1" d="M22.65,22.2H13.99c-.41,0-.75-.34-.75-.75s.34-.75,.75-.75h8.67c.41,0,.75,.34,.75,.75s-.34,.75-.75,.75Z"/>
    <path class="cls-1" d="M19.32,16.37h-5.33c-.41,0-.75-.34-.75-.75s.34-.75,.75-.75h5.33c.41,0,.75,.34,.75,.75s-.34,.75-.75,.75Z"/>
  </g>
</svg>