<?xml version="1.0" encoding="UTF-8"?>
<svg id="notificaciones" xmlns="http://www.w3.org/2000/svg" viewBox="0 0 40 39.57">
  <defs>
    <style>
      .cls-1 {
        fill: #9d9d9d;
      }

      .cls-2 {
        fill: none;
      }
    </style>
  </defs>
  <g id="Grupo_16255" data-name="Grupo 16255">
    <g id="Grupo_16234" data-name="Grupo 16234">
      <g id="Grupo_16193" data-name="Grupo 16193">
        <g id="Grupo_15839" data-name="Grupo 15839">
          <g id="Grupo_15836" data-name="Grupo 15836">
            <g id="Rectángulo_235" data-name="Rectángulo 235">
              <rect class="cls-2" y="-.43" width="40" height="40"/>
            </g>
          </g>
        </g>
      </g>
    </g>
  </g>
  <g>
    <g id="streamline-icon-tablet-1_50x50" data-name="streamline-icon-tablet-1 50x50">
      <g id="Trazado_3808" data-name="Trazado 3808">
        <path class="cls-1" d="M17.96,14.5h-4.48c-.41,0-.75-.34-.75-.75s.34-.75,.75-.75h4.48c.41,0,.75,.34,.75,.75s-.34,.75-.75,.75Z"/>
      </g>
      <g id="Trazado_3808-2" data-name="Trazado 3808">
        <path class="cls-1" d="M17.96,17.56h-4.48c-.41,0-.75-.34-.75-.75s.34-.75,.75-.75h4.48c.41,0,.75,.34,.75,.75s-.34,.75-.75,.75Z"/>
      </g>
      <g id="Trazado_3809" data-name="Trazado 3809">
        <path class="cls-1" d="M25.69,30.66H10.52c-.41,0-.75-.34-.75-.75V9.23c0-.41,.34-.75,.75-.75h15.17c.41,0,.75,.34,.75,.75v7.15c0,.41-.34,.75-.75,.75s-.75-.34-.75-.75v-6.4H11.27V29.16h13.67v-.82c0-.41,.34-.75,.75-.75s.75,.34,.75,.75v1.57c0,.41-.34,.75-.75,.75Z"/>
      </g>
    </g>
    <path class="cls-1" d="M24.83,26.83c-2.41,0-4.36-1.96-4.36-4.36s1.96-4.36,4.36-4.36,4.36,1.96,4.36,4.36-1.96,4.36-4.36,4.36Zm0-7.23c-1.58,0-2.86,1.28-2.86,2.86s1.28,2.86,2.86,2.86,2.86-1.28,2.86-2.86-1.28-2.86-2.86-2.86Z"/>
    <path class="cls-1" d="M29.48,28.96c-.22,0-.45-.1-.59-.29l-2.07-2.67c-.25-.33-.19-.8,.13-1.05,.33-.25,.8-.19,1.05,.13l2.07,2.67c.25,.33,.19,.8-.13,1.05-.14,.11-.3,.16-.46,.16Z"/>
    <g id="Trazado_3620" data-name="Trazado 3620">
      <path class="cls-1" d="M21.31,15.33c-.24,0-.47-.09-.66-.27l-.64-.64c-.25-.25-.25-.67,0-.92s.67-.25,.92,0l.38,.38,1.77-1.77c.25-.25,.67-.25,.92,0s.25,.67,0,.92l-2.03,2.03c-.18,.18-.42,.27-.66,.27Zm-.26-1.19s0,0,0,0h0Z"/>
    </g>
  </g>
</svg>