<?xml version="1.0" encoding="UTF-8"?>
<svg id="notificaciones" xmlns="http://www.w3.org/2000/svg" viewBox="0 0 40 40">
  <defs>
    <style>
      .cls-1 {
        fill: #9d9d9d;
      }

      .cls-2 {
        fill: none;
      }
    </style>
  </defs>
  <g>
    <path class="cls-1" d="M25.48,32.69c-3.9,0-7.08-3.17-7.08-7.08s3.17-7.07,7.08-7.07,7.08,3.17,7.08,7.07-3.17,7.08-7.08,7.08Zm0-12.65c-3.07,0-5.58,2.5-5.58,5.57s2.5,5.58,5.58,5.58,5.58-2.5,5.58-5.58-2.5-5.57-5.58-5.57Z"/>
    <g>
      <g id="Trazado_4487" data-name="Trazado 4487">
        <path class="cls-1" d="M23.31,28.53c-.19,0-.38-.07-.53-.22-.29-.29-.29-.77,0-1.06l4.33-4.33c.29-.29,.77-.29,1.06,0s.29,.77,0,1.06l-4.33,4.33c-.15,.15-.34,.22-.53,.22Z"/>
      </g>
      <g id="Trazado_4488" data-name="Trazado 4488">
        <path class="cls-1" d="M23.31,24.56c-.61,0-1.11-.5-1.11-1.11s.5-1.11,1.11-1.11,1.11,.5,1.11,1.11-.5,1.11-1.11,1.11Z"/>
      </g>
      <g id="Trazado_4489" data-name="Trazado 4489">
        <path class="cls-1" d="M27.64,28.89c-.61,0-1.11-.5-1.11-1.11s.5-1.11,1.11-1.11,1.11,.5,1.11,1.11-.5,1.11-1.11,1.11Z"/>
      </g>
    </g>
  </g>
  <g id="Componente_45_1" data-name="Componente 45 1">
    <g id="Grupo_16183" data-name="Grupo 16183">
      <g id="Grupo_15849" data-name="Grupo 15849">
        <g id="Grupo_15839" data-name="Grupo 15839">
          <g id="Grupo_15836" data-name="Grupo 15836">
            <g id="Rectángulo_235" data-name="Rectángulo 235">
              <rect class="cls-2" width="40" height="40"/>
            </g>
          </g>
        </g>
      </g>
      <g id="streamline-icon-car-actions-check-1_50x50" data-name="streamline-icon-car-actions-check-1 50x50">
        <g id="Trazado_3433" data-name="Trazado 3433">
          <path class="cls-1" d="M27.99,14.71c-.29,0-.56-.16-.68-.44l-1.84-4.1c-.25-.67-.86-1.09-1.53-1.09H14.6c-.67,0-1.28,.42-1.51,1.05l-1.85,4.14c-.17,.38-.61,.55-.99,.38-.38-.17-.55-.61-.38-.99l1.83-4.1c.44-1.17,1.61-1.98,2.9-1.98h9.34c1.29,0,2.46,.81,2.92,2.02l1.82,4.05c.17,.38,0,.82-.38,.99-.1,.04-.2,.07-.31,.07Z"/>
        </g>
        <g id="Trazado_3434" data-name="Trazado 3434">
          <path class="cls-1" d="M10.42,26.08c-.39,0-.78-.09-1.16-.28-.76-.38-1.26-1.21-1.26-2.13v-1.59c0-.41,.34-.75,.75-.75s.75,.34,.75,.75v1.59c0,.34,.17,.66,.42,.78,.47,.23,.82,.09,.98-.01,.27-.17,.43-.46,.43-.78v-1.58c0-.41,.34-.75,.75-.75s.75,.34,.75,.75v1.58c0,.84-.43,1.61-1.14,2.05-.39,.24-.83,.37-1.27,.37Z"/>
        </g>
        <g id="Trazado_3435" data-name="Trazado 3435">
          <path class="cls-1" d="M11.39,19.28c-.41,0-.75-.34-.75-.75,0-.63,.51-1.14,1.14-1.14,.41,0,.75,.34,.75,.75,0,.31-.19,.58-.46,.69-.12,.27-.38,.45-.69,.45Z"/>
        </g>
        <g id="Trazado_3436" data-name="Trazado 3436">
          <path class="cls-1" d="M12.18,19.28c-.31,0-.57-.19-.69-.45-.27-.11-.46-.38-.46-.69,0-.41,.34-.75,.75-.75,.63,0,1.14,.51,1.14,1.14,0,.41-.34,.75-.75,.75Z"/>
        </g>
        <g id="Trazado_3437" data-name="Trazado 3437">
          <path class="cls-1" d="M11.79,19.68c-.41,0-.75-.34-.75-.75,0-.31,.19-.58,.46-.69,.12-.27,.38-.45,.69-.45,.41,0,.75,.34,.75,.75,0,.63-.51,1.14-1.14,1.14Z"/>
        </g>
        <g id="Trazado_3438" data-name="Trazado 3438">
          <path class="cls-1" d="M11.79,19.68c-.63,0-1.14-.51-1.14-1.14,0-.41,.34-.75,.75-.75,.31,0,.57,.19,.69,.45,.27,.11,.46,.38,.46,.69,0,.41-.34,.75-.75,.75Zm.36-1.14h0Z"/>
        </g>
        <g id="Trazado_3439" data-name="Trazado 3439">
          <path class="cls-1" d="M16.25,22.83h-7.5c-.87,0-1.58-.71-1.58-1.58v-5c0-1.33,1.08-2.42,2.42-2.42H27.92c1.45,0,2.81,.78,3.54,2.04,.21,.36,.08,.82-.27,1.02-.36,.21-.82,.08-1.02-.27-.46-.8-1.32-1.29-2.24-1.29H9.58c-.51,0-.92,.41-.92,.92v5s.04,.08,.08,.08h7.5c.41,0,.75,.34,.75,.75s-.34,.75-.75,.75Z"/>
        </g>
      </g>
    </g>
  </g>
</svg>