<svg xmlns="http://www.w3.org/2000/svg" width="58" height="58" viewBox="0 0 58 58">
  <g id="Group_21247" data-name="Group 21247" transform="translate(13441 21187.365)">
    <rect id="Rectangle_7067" data-name="Rectangle 7067" width="58" height="58" transform="translate(-13441 -21187.365)" fill="none"/>
    <g id="Group_21246" data-name="Group 21246" transform="translate(-13437.093 -21179.184)">
      <g id="Group_21243" data-name="Group 21243" transform="translate(0 2.062)">
        <g id="Grupo_21139" data-name="Grupo 21139" transform="translate(0)">
          <g id="Grupo_21135" data-name="Grupo 21135">
            <g id="Grupo_21134" data-name="Grupo 21134">
              <g id="Trazado_12141" data-name="Trazado 12141">
                <path id="Path_12165" data-name="Path 12165" d="M56.551,621.376V598a6.376,6.376,0,0,1,6.375-6.375H99.053A6.375,6.375,0,0,1,105.429,598v23.376c0,3.521-2.854,6.375-23.67,6.375H62.926A6.376,6.376,0,0,1,56.551,621.376Z" transform="translate(-56.551 -591.624)" fill="none"/>
                <path id="Path_12166" data-name="Path 12166" d="M59.739,621.376a3.192,3.192,0,0,0,3.188,3.188H81.76c9.114,0,15.369-.568,18.593-1.691a3.953,3.953,0,0,0,1.788-.971c.035-.046.1-.13.1-.526V598a3.191,3.191,0,0,0-3.188-3.188H62.926A3.192,3.192,0,0,0,59.739,598v23.376m-3.188,0V598a6.376,6.376,0,0,1,6.375-6.375H99.053A6.375,6.375,0,0,1,105.429,598v23.376c0,3.521-2.854,6.375-23.668,6.375H62.926A6.376,6.376,0,0,1,56.551,621.376Z" transform="translate(-56.551 -591.624)" fill="#006729"/>
              </g>
            </g>
          </g>
        </g>
        <rect id="Rectángulo_7062" data-name="Rectángulo 7062" width="24.943" height="23.809" transform="translate(24.926 17.001)" fill="#fff"/>
        <g id="Grupo_21211" data-name="Grupo 21211" transform="translate(30.413 21.482)">
          <g id="Grupo_21210" data-name="Grupo 21210" transform="translate(0 0)">
            <path id="Trazado_3619" data-name="Trazado 3619" d="M94.466,630.383h-.09a9.331,9.331,0,0,1,.008-18.663,1.465,1.465,0,1,1,0,2.931,6.4,6.4,0,0,0,0,12.8h.082a5.811,5.811,0,0,0,1.478-.191,6.52,6.52,0,0,0,4.84-6.224,1.465,1.465,0,0,1,1.465-1.451h.015a1.465,1.465,0,0,1,1.451,1.48,9.434,9.434,0,0,1-7.023,9.029A8.746,8.746,0,0,1,94.466,630.383Z" transform="translate(-85.052 -611.72)" fill="#006729"/>
            <path id="Trazado_3620" data-name="Trazado 3620" d="M94.088,623.949a2.446,2.446,0,0,1-1.733-.715l-2.252-2.25a1.465,1.465,0,0,1,2.071-2.073l1.913,1.912,6.829-6.829a1.465,1.465,0,0,1,2.072,2.072l-7.167,7.167A2.443,2.443,0,0,1,94.088,623.949Z" transform="translate(-84.763 -611.605)" fill="#e60018"/>
          </g>
        </g>
        <g id="Elipse_1301" data-name="Elipse 1301" transform="translate(23.44 32.94)">
          <circle id="Ellipse_1308" data-name="Ellipse 1308" cx="1.594" cy="1.594" r="1.594" fill="#006729"/>
          <path id="Elipse_1309" data-name="Elipse 1309" d="M1.051-.5A1.551,1.551,0,1,1-.5,1.051,1.553,1.553,0,0,1,1.051-.5Zm0,2.125a.574.574,0,1,0-.574-.574A.575.575,0,0,0,1.051,1.625Z" transform="translate(0.543 0.543)" fill="#006729"/>
        </g>
        <g id="Elipse_1301-2" data-name="Elipse 1301" transform="translate(45.694 15.407)">
          <circle id="Ellipse_1310" data-name="Ellipse 1310" cx="1.594" cy="1.594" r="1.594" fill="#006729"/>
          <path id="Elipse_1311" data-name="Elipse 1311" d="M1.051-.5A1.551,1.551,0,1,1-.5,1.051,1.553,1.553,0,0,1,1.051-.5Zm0,2.125a.574.574,0,1,0-.574-.574A.575.575,0,0,0,1.051,1.625Z" transform="translate(0.543 0.543)" fill="#006729"/>
        </g>
      </g>
      <g id="Group_21244" data-name="Group 21244" transform="translate(21.49 15.747)">
        <g id="Trazado_4973" data-name="Trazado 4973" transform="translate(0 1.608)">
          <path id="Path_12058" data-name="Path 12058" d="M-90.284,618.8a3.811,3.811,0,0,1-3.008-1.507,1.063,1.063,0,0,1,.2-1.49,1.062,1.062,0,0,1,1.491.2,1.705,1.705,0,0,0,1.419.668c.884,0,1.538-.458,1.538-.852s-.654-.851-1.5-.851c-2.032,0-3.623-1.313-3.623-2.988S-92.172,609-90.14,609A3.8,3.8,0,0,1-87,610.483a1.063,1.063,0,0,1-.194,1.491,1.063,1.063,0,0,1-1.491-.194,1.715,1.715,0,0,0-1.413-.658c-.9,0-1.541.45-1.541.852s.639.861,1.5.861c2.032,0,3.624,1.309,3.624,2.979s-1.592,2.979-3.624,2.979Q-90.212,618.8-90.284,618.8Z" transform="translate(93.763 -608.993)" fill="#006729"/>
        </g>
        <g id="Trazado_4974" data-name="Trazado 4974" transform="translate(2.621 9.622)">
          <path id="Path_12059" data-name="Path 12059" d="M-90.235,619.617a1.013,1.013,0,0,1-1.064-.955v-1.91a1.013,1.013,0,0,1,1.064-.955,1.014,1.014,0,0,1,1.064.955v1.91A1.014,1.014,0,0,1-90.235,619.617Z" transform="translate(91.299 -615.796)" fill="#006729"/>
        </g>
        <g id="Trazado_4975" data-name="Trazado 4975" transform="translate(2.621)">
          <path id="Path_12060" data-name="Path 12060" d="M-90.235,611.473a1.152,1.152,0,0,1-1.064-1.226v-1.226a1.152,1.152,0,0,1,1.064-1.226,1.153,1.153,0,0,1,1.064,1.226v1.226A1.153,1.153,0,0,1-90.235,611.473Z" transform="translate(91.299 -607.796)" fill="#006729"/>
        </g>
      </g>
      <g id="Group_21245" data-name="Group 21245" transform="translate(15.63)">
        <path id="Path_12167" data-name="Path 12167" d="M-13420.64-21179.469v7.814" transform="translate(13420.64 21179.469)" fill="none" stroke="#006729" stroke-linecap="round" stroke-width="3"/>
        <path id="Path_12168" data-name="Path 12168" d="M-13420.64-21179.469v7.814" transform="translate(13440.177 21179.469)" fill="none" stroke="#006729" stroke-linecap="round" stroke-width="3"/>
      </g>
      <path id="Path_12169" data-name="Path 12169" d="M-13435.613-21161.533h45.941" transform="translate(13436.969 21174.688)" fill="none" stroke="#e60018" stroke-linecap="round" stroke-width="3"/>
    </g>
  </g>
</svg>
