<svg xmlns="http://www.w3.org/2000/svg" width="37.193" height="40.408" viewBox="0 0 37.193 40.408">
  <g id="Group_21287" data-name="Group 21287" transform="translate(7741.983 23628.712)">
    <g id="Grupo_21066" data-name="Grupo 21066" transform="translate(-7741.982 -23628.711)">
      <g id="Group_16334" data-name="Group 16334" transform="translate(20.8 23.561)">
        <g id="streamline-icon-email-action-receive_50x50" data-name="streamline-icon-email-action-receive 50x50">
          <g id="Trazado_4201" data-name="Trazado 4201" transform="translate(5.95)">
            <path id="Path_12083" data-name="Path 12083" d="M-83.33,700.133a1.378,1.378,0,0,1-1.38-1.38V687.716a1.378,1.378,0,0,1,1.38-1.38,1.379,1.379,0,0,1,1.38,1.38v11.038A1.379,1.379,0,0,1-83.33,700.133Z" transform="translate(84.71 -686.336)" fill="red"/>
          </g>
          <g id="Trazado_4202" data-name="Trazado 4202" transform="translate(0 6.47)">
            <path id="Path_12084" data-name="Path 12084" d="M-81.748,698.5a1.383,1.383,0,0,1-.862-.3l-5.894-4.714a1.381,1.381,0,0,1-.215-1.941,1.38,1.38,0,0,1,1.938-.215l5.033,4.026,5.032-4.026a1.38,1.38,0,0,1,1.938.215,1.381,1.381,0,0,1-.215,1.941l-5.894,4.714A1.383,1.383,0,0,1-81.748,698.5Z" transform="translate(89.022 -691.025)" fill="red"/>
          </g>
        </g>
      </g>
      <g id="streamline-icon-business-contract-handshake-sign_50x50" data-name="streamline-icon-business-contract-handshake-sign 50x50">
        <g id="Trazado_4752" data-name="Trazado 4752" transform="translate(0 0.115)">
          <path id="Path_12085" data-name="Path 12085" d="M-83.2,712.145H-97.77a4.033,4.033,0,0,1-4.029-4.029V678.361a6.515,6.515,0,0,1,6.509-6.509h26.035a1.549,1.549,0,0,1,1.55,1.55,1.55,1.55,0,0,1-1.55,1.55H-95.29a3.413,3.413,0,0,0-3.409,3.409v29.754a.931.931,0,0,0,.93.93H-83.2a1.549,1.549,0,0,1,1.55,1.55A1.55,1.55,0,0,1-83.2,712.145Z" transform="translate(101.799 -671.852)" fill="#006729"/>
        </g>
        <g id="Trazado_4756" data-name="Trazado 4756" transform="translate(26.345)">
          <path id="Path_12089" data-name="Path 12089" d="M-83.249,690.489a1.549,1.549,0,0,1-1.55-1.55V677.115a5.41,5.41,0,0,1,5.39-5.337.844.844,0,0,0,.093,0,5.4,5.4,0,0,1,5.365,5.316v2.548a1.55,1.55,0,0,1-1.55,1.55h-6.2v7.749A1.55,1.55,0,0,1-83.249,690.489Zm1.55-12.4h4.649v-.976a2.3,2.3,0,0,0-2.292-2.238h-.04a2.3,2.3,0,0,0-2.317,2.259Z" transform="translate(84.799 -671.778)" fill="#006729"/>
        </g>
      </g>
    </g>
    <g id="Group_21266" data-name="Group 21266" transform="translate(-7734.896 -23621.682)">
      <g id="Path_12116" data-name="Path 12116" transform="translate(0 1.802)">
        <path id="Path_12173" data-name="Path 12173" d="M223.069,651.847a3.727,3.727,0,0,1-2.938-1.471,1.026,1.026,0,0,1,1.631-1.244,1.691,1.691,0,0,0,1.405.662c.874,0,1.521-.458,1.521-.852s-.634-.848-1.482-.848c-1.981,0-3.534-1.278-3.534-2.91s1.553-2.9,3.534-2.9a3.7,3.7,0,0,1,3.067,1.447,1.026,1.026,0,0,1-1.625,1.253,1.676,1.676,0,0,0-1.4-.649c-.894,0-1.528.45-1.528.851s.634.859,1.482.859c1.982,0,3.534,1.274,3.534,2.9,0,1.6-1.585,2.9-3.534,2.9Z" transform="translate(-219.673 -642.278)" fill="#006729" stroke="#006729" stroke-width="0.5"/>
      </g>
      <g id="Line_21" data-name="Line 21" transform="translate(2.509)">
        <path id="Path_12174" data-name="Path 12174" d="M223.145,644.375a1.025,1.025,0,0,1-1.026-1.026v-1.8a1.026,1.026,0,0,1,2.052,0v1.8A1.025,1.025,0,0,1,223.145,644.375Z" transform="translate(-222.119 -640.521)" fill="#006729" stroke="#006729" stroke-width="0.5"/>
      </g>
      <g id="Line_22" data-name="Line 22" transform="translate(2.509 9.318)">
        <path id="Path_12175" data-name="Path 12175" d="M223.145,653.46a1.025,1.025,0,0,1-1.026-1.026v-1.8a1.026,1.026,0,1,1,2.052,0v1.8A1.025,1.025,0,0,1,223.145,653.46Z" transform="translate(-222.119 -649.605)" fill="#006729" stroke="#006729" stroke-width="0.5"/>
      </g>
    </g>
  </g>
</svg>
