<svg xmlns="http://www.w3.org/2000/svg" width="30.491" height="31.368" viewBox="0 0 30.491 31.368">
  <g id="streamline-icon-job-seach-profile_50x50" data-name="streamline-icon-job-seach-profile 50x50" transform="translate(-1164.855 -255.964)">
    <path id="Trazado_4539" data-name="Trazado 4539" d="M1192.5,284.148l.236-2.717a2.354,2.354,0,0,0-1.823-2.5l-5.72-1.3v-7.67a1.458,1.458,0,0,0-.263-.882,2.582,2.582,0,0,0-2.155-1.115,2.249,2.249,0,0,0-2.236,2.264c0,.038,0,.078,0,.117v11.676l-2.085-1.6a1.31,1.31,0,0,0-1.071-.245,2.013,2.013,0,0,0-1.339,3.161l.588.8" transform="translate(1.597 1.791)" fill="none" stroke="#006c30" stroke-linecap="round" stroke-linejoin="round" stroke-width="2"/>
    <path id="Trazado_4540" data-name="Trazado 4540" d="M1173.995,280.221h-6.237a1.9,1.9,0,0,1-1.9-1.9V258.868a1.9,1.9,0,0,1,1.9-1.9h17.148a1.88,1.88,0,0,1,1.88,1.88h0v6.26" transform="translate(0 0)" fill="none" stroke="#006c30" stroke-linecap="round" stroke-linejoin="round" stroke-width="2"/>
    <path id="Trazado_4541" data-name="Trazado 4541" d="M1171.976,263.775a3.332,3.332,0,1,0,3.332-3.332h0A3.331,3.331,0,0,0,1171.976,263.775Z" transform="translate(0.997 0.567)" fill="none" stroke="red" stroke-linecap="round" stroke-linejoin="round" stroke-width="2"/>
    <path id="Trazado_4542" data-name="Trazado 4542" d="M1178.2,267.585a5.78,5.78,0,0,0-2.558-.594,5.747,5.747,0,0,0-5.7,5.712" transform="translate(0.666 1.633)" fill="none" stroke="#006c30" stroke-linecap="round" stroke-linejoin="round" stroke-width="2"/>
    <path id="Trazado_4543" data-name="Trazado 4543" d="M1169.855,271.964h8.14" transform="translate(0.651 2.443)" fill="none" stroke="#006c30" stroke-linecap="round" stroke-linejoin="round" stroke-width="2"/>
  </g>
</svg>
